<svg xmlns="http://www.w3.org/2000/svg" version="1.1" height="128" width="128" viewBox="0 0 96 96" id="logo-maintenance">
	<g id="g1">
		<g id="g2">
			<g id="g3" style="display:inline">
				<g id="g4">
					<rect id="r1" style="fill:#ffcc00;fill-opacity:1;fill-rule:nonzero;stroke:none" y="6" x="6" ry="6" rx="6" height="84" width="84"/>
					<g id="g5" style="display:inline;fill:#241c1c;fill-opacity:1" transform="matrix(0.71698113,0,0,0.75,2.8301888,3.5)">
						<path id="p1" style="opacity:1;fill:#241c1c;fill-opacity:1;fill-rule:evenodd;stroke:none" d="M 18,6 H 34 L 26,22 H 10 Z"/>
						<path id="p2" style="opacity:1;fill:#241c1c;fill-opacity:1;fill-rule:evenodd;stroke:none" d="M 44,6 H 60 L 52,22 H 36 Z"/>
						<path id="p3" style="opacity:1;fill:#241c1c;fill-opacity:1;fill-rule:evenodd;stroke:none" d="M 72,6 H 88 L 80,22 H 64 Z"/>
						<path id="p4" style="opacity:1;fill:#241c1c;fill-opacity:1;fill-rule:evenodd;stroke:none" d="m 100,6 h 16 l -8,16 H 92 Z"/>
					</g>
				</g>
			</g>
			<g id="g6" style="fill:#241c1c" transform="translate(74.802891,5.4484377)">
				<path id="p5" d="m -40.611051,73.365174 c -0.792649,-0.07539 -1.81409,-0.394056 -2.098214,-0.675537 l 0.0091,-11.629569 -0.938143,-3.695097 -0.938143,-3.695097 -5.179737,9.022914 c -2.848853,4.962604 -5.458134,9.312939 -5.798395,9.66741 -0.86375,0.899818 -1.365788,0.859482 -2.855007,-0.229364 -1.275231,-0.932391 -1.561174,-1.396213 -1.394885,-2.262608 0.149834,-0.780644 0.01978,-0.543388 6.096765,-11.122291 3.011727,-5.242855 5.507937,-9.698625 5.547132,-9.90171 0.06098,-0.31595 -0.196572,-0.510905 -1.784459,-1.350744 -1.833623,-0.96981 -1.858729,-0.977254 -2.107823,-0.625022 -0.442438,0.625627 -1.076735,0.443555 -2.314709,-0.664428 -1.698831,-1.520448 -1.757699,-1.275786 1.987375,-8.259807 1.698047,-3.166613 3.274703,-5.950827 3.50368,-6.187141 l 0.416322,-0.429663 7.438682,-0.04987 7.438685,-0.04987 -0.253918,-0.809459 c -0.591495,-1.88561 0.0095,-4.19663 1.448371,-5.56931 2.441532,-2.329241 6.363975,-1.555682 7.902456,1.558473 0.579908,1.173833 0.635892,3.055549 0.130563,4.388425 -0.761049,2.007369 -2.533852,3.225841 -4.693405,3.225841 -1.137164,0 -1.193753,0.01883 -1.116514,0.371533 0.04475,0.204342 0.327755,4.66386 0.628899,9.91004 0.412151,7.179997 0.502564,9.707373 0.365658,10.221446 -0.100033,0.375618 -0.156083,0.723641 -0.124557,0.77339 1.574006,0.888629 3.190563,1.801476 4.904757,2.314767 1.336222,-1.877455 3.797333,-4.729212 4.275226,-4.953819 3.317966,-0.462086 6.852918,-0.488971 10.1598594,0.0229 5.657377,6.560115 11.18443,13.764926 16.197096,20.844601 l -41.2337064,0.08249 8.713509,-13.734918 c -0.03569,-0.02979 -2.829765,-1.499502 -6.209067,-3.26604 -5.496689,-2.873399 -6.619512,-3.366421 -6.605926,-2.900604 0.0022,0.07386 0.425783,1.872406 0.941399,3.99676 l 1.19002,3.862467 0.01906,5.627061 c 0.01843,5.443247 0.0075,5.638485 -0.334064,5.976806 -0.375441,0.371853 -1.134271,0.403831 -3.333942,0.194644 z m 6.720887,-24.807932 c -0.126001,-2.386971 -0.277007,-4.518048 -0.335569,-4.73573 -0.08264,-0.307176 -0.471447,0.423869 -1.73672,3.265436 -0.896631,2.013671 -1.655958,3.711021 -1.687386,3.771889 -0.06085,0.117854 3.795022,2.174125 3.916821,2.088767 0.03957,-0.02773 -0.03115,-2.003394 -0.157146,-4.390362 z m -11.15999,-6.878865 c 1.068455,-2.384626 1.995368,-4.473735 2.059808,-4.642468 0.108626,-0.284436 -0.01879,-0.30322 -1.748855,-0.257798 l -1.866016,0.04899 -1.970962,3.682213 c -1.084031,2.025217 -1.935518,3.717322 -1.892195,3.760229 0.110518,0.109463 3.282916,1.741151 3.388811,1.743001 0.04772,8.18e-4 0.960953,-1.949543 2.029409,-4.334167 z" style="display:inline;fill:#241c1c;fill-opacity:1"/>
			</g>
		</g>
	</g>
</svg>