<svg xmlns="http://www.w3.org/2000/svg" xmlns:xlink="http://www.w3.org/1999/xlink" version="1.1" width="128" height="128" viewBox="0 0 138 111" id="maintenance" style="overflow:visible">
 <defs id="defs364">
  <linearGradient id="linearGradient7671">
   <stop id="stop7673" style="stop-color:#7b4100;stop-opacity:0" offset="0" />
   <stop id="stop7679" style="stop-color:#984f00;stop-opacity:1" offset="0.03529412" />
   <stop id="stop7675" style="stop-color:#000000;stop-opacity:0" offset="1" />
  </linearGradient>
  <linearGradient id="linearGradient7661">
   <stop id="stop7663" style="stop-color:#bb8000;stop-opacity:1" offset="0" />
   <stop id="stop7665" style="stop-color:#e9a800;stop-opacity:0" offset="1" />
  </linearGradient>
  <radialGradient cx="68.742203" cy="72.860802" r="44.665298" id="radialGradient6504" gradientUnits="userSpaceOnUse" gradientTransform="matrix(1,0,0,1.0137,0,-0.6735)">
   <stop id="stop6506" style="stop-color:#d5a200;stop-opacity:1" offset="0" />
   <stop id="stop6508" style="stop-color:#fff309;stop-opacity:1" offset="0.5972178" />
   <stop id="stop6510" style="stop-color:#ffd83a;stop-opacity:1" offset="0.85210001" />
  </radialGradient>
  <linearGradient id="linearGradient6111">
   <stop id="stop6113" style="stop-color:#ffffff;stop-opacity:1" offset="0" />
   <stop id="stop6115" style="stop-color:#ffffff;stop-opacity:0" offset="1" />
  </linearGradient>
  <linearGradient id="linearGradient4918">
   <stop id="stop4920" style="stop-color:#5f2901;stop-opacity:1" offset="0" />
   <stop id="stop4922" style="stop-color:#933f02;stop-opacity:0" offset="1" />
  </linearGradient>
  <linearGradient id="linearGradient3732">
   <stop id="stop3734" style="stop-color:#ffffff;stop-opacity:0" offset="0" />
   <stop id="stop3744" style="stop-color:#ffffff;stop-opacity:1" offset="0.5" />
   <stop id="stop3736" style="stop-color:#ffffff;stop-opacity:0" offset="1" />
  </linearGradient>
  <radialGradient cx="59.8853" cy="5.9165001" r="80.669502" id="radialGradient3716" gradientUnits="userSpaceOnUse" gradientTransform="matrix(1,0,0,1.0137,0,-0.6735)">
   <stop id="stop3718" style="stop-color:#ffdd00;stop-opacity:1" offset="0" />
   <stop id="stop3720" style="stop-color:#fedb00;stop-opacity:1" offset="0.42250001" />
   <stop id="stop3722" style="stop-color:#fad400;stop-opacity:1" offset="0.5747" />
   <stop id="stop3724" style="stop-color:#f3c900;stop-opacity:1" offset="0.68309999" />
   <stop id="stop3726" style="stop-color:#e9b800;stop-opacity:1" offset="0.77020001" />
   <stop id="stop3728" style="stop-color:#e3ad00;stop-opacity:1" offset="0.8107" />
   <stop id="stop3730" style="stop-color:#f7b100;stop-opacity:1" offset="1" />
  </radialGradient>
  <linearGradient id="linearGradient2932">
   <stop id="stop2934" style="stop-color:#ffffff;stop-opacity:1" offset="0" />
   <stop id="stop2936" style="stop-color:#ffffff;stop-opacity:0" offset="1" />
  </linearGradient>
  <defs id="defs295">
   <path d="m 121.957,52.915 c -0.053,0.147 -0.11,0.277 -0.18,0.372 -0.491,0.668 -3.149,2.229 -6.93,4.12 -4.133,2.28 -8.752,4.335 -13.775,6.126 -4.245,1.68 -8.549,3.185 -12.272,4.167 -12.515,3.3 -26.166,5.208 -31.662,5.208 -2.257,0 -29.249,-7.783 -30.587,-8.722 -0.095,0 -2.151,1.454 -1.018,5.267 0.018,0.114 0.038,0.219 0.062,0.306 0.455,1.619 3.115,5.916 9.439,8.115 6.324,2.2 21.518,4.238 27.122,4.238 5.604,0 18.351,-0.526 26.883,-3.027 8.532,-2.5 23.609,-9.152 31.065,-13.081 6.844,-3.367 6.654,-7.052 4.907,-15.475 -0.966,0.813 -1.985,1.609 -3.054,2.386 z" id="XMLID_24_" />
  </defs>
  <clipPath id="XMLID_47_">
   <use id="use299" x="0" y="0" width="138" height="111" xlink:href="#XMLID_24_" />
  </clipPath>
  <radialGradient cx="59.8853" cy="5.9165001" r="80.669502" id="radialGradient3704" xlink:href="#XMLID_39_" gradientUnits="userSpaceOnUse" gradientTransform="matrix(1,0,0,1.0137,0,-0.6735)" />
  <radialGradient cx="59.8853" cy="5.9165001" r="80.669502" id="radialGradient3708" xlink:href="#XMLID_39_" gradientUnits="userSpaceOnUse" gradientTransform="matrix(1,0,0,1.0137,0,-0.6735)" />
  <linearGradient x1="40.404991" y1="35.540894" x2="66.783089" y2="12.96001" id="linearGradient3738" xlink:href="#linearGradient3732" gradientUnits="userSpaceOnUse" />
  <linearGradient x1="40.404991" y1="35.540894" x2="74.400734" y2="-3.3635197" id="linearGradient3742" xlink:href="#linearGradient3732" gradientUnits="userSpaceOnUse" gradientTransform="translate(-2,0)" />
  <linearGradient x1="18.430201" y1="71.058098" x2="16.104601" y2="66.162399" id="XMLID_32_" gradientUnits="userSpaceOnUse">
   <stop id="stop50" style="stop-color:#c2a800;stop-opacity:1" offset="0" />
   <stop id="stop54" style="stop-color:#c8aa00;stop-opacity:1" offset="0.5747" />
   <stop id="stop60" style="stop-color:#c29400;stop-opacity:1" offset="1" />
  </linearGradient>
  <linearGradient x1="13.6401" y1="73.435997" x2="11.3575" y2="68.630798" id="XMLID_33_" gradientUnits="userSpaceOnUse" gradientTransform="translate(-10,0)">
   <stop id="stop67" style="stop-color:#ffdd00;stop-opacity:1" offset="0" />
   <stop id="stop69" style="stop-color:#fedb00;stop-opacity:1" offset="0.42250001" />
   <stop id="stop71" style="stop-color:#fad400;stop-opacity:1" offset="0.5747" />
   <stop id="stop73" style="stop-color:#f3c900;stop-opacity:1" offset="0.68309999" />
   <stop id="stop75" style="stop-color:#e9b800;stop-opacity:1" offset="0.77020001" />
   <stop id="stop77" style="stop-color:#e3ad00;stop-opacity:1" offset="0.8107" />
   <stop id="stop79" style="stop-color:#f7b100;stop-opacity:1" offset="1" />
  </linearGradient>
  <linearGradient x1="109.125" y1="69.03125" x2="79.46875" y2="83.03125" id="linearGradient4924" xlink:href="#linearGradient4918" gradientUnits="userSpaceOnUse" />
  <filter color-interpolation-filters="sRGB" id="filter4926">
   <feGaussianBlur id="feGaussianBlur4928" stdDeviation="0.34851563" />
  </filter>
  <filter x="-0.045266099" y="-0.17586465" width="1.0905322" height="1.3517293" color-interpolation-filters="sRGB" id="filter5311">
   <feGaussianBlur id="feGaussianBlur5313" stdDeviation="1.8969934" />
  </filter>
  <filter color-interpolation-filters="sRGB" id="filter5335">
   <feGaussianBlur id="feGaussianBlur5337" stdDeviation="1.2703823" />
  </filter>
  <filter color-interpolation-filters="sRGB" id="filter5339">
   <feGaussianBlur id="feGaussianBlur5341" stdDeviation="0.53718841" />
  </filter>
  <linearGradient x1="20.070312" y1="76.501938" x2="28.765625" y2="87.753654" id="linearGradient6117" xlink:href="#linearGradient6111" gradientUnits="userSpaceOnUse" gradientTransform="matrix(1,0,0,0.9435626,0,4.1481482)" />
  <radialGradient cx="63.690815" cy="129.9839" r="44.665298" fx="63.690815" fy="129.9839" id="radialGradient6502" xlink:href="#radialGradient6504" gradientUnits="userSpaceOnUse" gradientTransform="matrix(0.1702063,1.3018233,-1.7022199,0.2225561,220.91281,-36.659959)" />
  <linearGradient x1="20.534103" y1="69.43293" x2="22.5849" y2="77.128242" id="linearGradient7659" xlink:href="#linearGradient7661" gradientUnits="userSpaceOnUse" />
  <linearGradient x1="25.2341" y1="65.934502" x2="89.399902" y2="65.934502" id="linearGradient7677" xlink:href="#linearGradient7671" gradientUnits="userSpaceOnUse" />
  <filter x="-0.036112975" y="-0.1772278" width="1.072226" height="1.3544556" color-interpolation-filters="sRGB" id="filter7681">
   <feGaussianBlur id="feGaussianBlur7683" stdDeviation="0.9655075" />
  </filter>
  <filter x="-0.11984511" y="-0.12015529" width="1.2396902" height="1.2403105" color-interpolation-filters="sRGB" id="filter7685">
   <feGaussianBlur id="feGaussianBlur7687" stdDeviation="1.9531634" />
  </filter>
 </defs>
 <filter color-interpolation-filters="sRGB" id="AI_Sfocatura_4">
  <feGaussianBlur id="feGaussianBlur4" stdDeviation="4" />
 </filter>
 <filter color-interpolation-filters="sRGB" id="AI_Sfocatura_3">
  <feGaussianBlur id="feGaussianBlur7" stdDeviation="3" />
 </filter>
 <filter color-interpolation-filters="sRGB" id="AI_Sfocatura_2">
  <feGaussianBlur id="feGaussianBlur10" stdDeviation="2" />
 </filter>
 <g id="g12" style="opacity:0.6;filter:url(#AI_Sfocatura_4)">
  <path d="m 123.764,61.268 c -0.541,-3.918 -1.71,-9.02 -2.743,-15.984 -0.351,-1.562 -1.432,-1.275 -1.635,-1.205 -0.958,-5.033 -2.579,-10.626 -5.331,-15.383 0,0 -10.63,-19.274 -31.469,-19.418 C 77.338,9.241 71.589,11.055 66.608,13.223 31.659,24.36 34.398,38.8 32.033,50.529 c -0.928,5.548 -1.486,9.599 -1.819,12.368 0,0 0,0 0,0.001 -0.067,0.562 -1.352,1.597 -1.725,3.479 0,0 -4.505,5.729 -6.012,8.406 -1.27,1.398 -8.753,7.364 -8.753,7.364 -5.645,4.824 1.308,9.609 1.308,9.609 l 7.868,4.79 c 25.904,12.723 55.883,-0.639 55.883,-0.639 0,0 5.196,-2.26 15.188,-7.044 l 1.218,2.423 2.412,-1.137 0.621,-3.336 c 12.738,-6.174 20.416,-8.169 26.173,-13.119 4.543,-3.907 1.047,-10.021 -0.631,-12.426 z" id="path14" />
 </g>
 <g id="g16">
  <linearGradient x1="94.655296" y1="80.356003" x2="99.314499" y2="80.356003" id="XMLID_29_" gradientUnits="userSpaceOnUse">
   <stop id="stop19" style="stop-color:#e39700;stop-opacity:1" offset="0" />
   <stop id="stop21" style="stop-color:#e49900;stop-opacity:1" offset="0.53039998" />
   <stop id="stop23" style="stop-color:#e6a000;stop-opacity:1" offset="0.72140002" />
   <stop id="stop25" style="stop-color:#eaab00;stop-opacity:1" offset="0.85750002" />
   <stop id="stop27" style="stop-color:#f1bc00;stop-opacity:1" offset="0.96679997" />
   <stop id="stop29" style="stop-color:#f3c300;stop-opacity:1" offset="1" />
  </linearGradient>
  <polygon points="96.089,82.718 98.598,81.627 99.314,77.995 94.655,80.174 94.655,80.174 " id="polygon31" style="fill:url(#XMLID_29_)" />
  <radialGradient cx="59.8862" cy="94.0933" r="42.1702" fx="63.829102" fy="63.6255" id="XMLID_30_" gradientUnits="userSpaceOnUse" gradientTransform="matrix(1,0,0,1.0137,0,-0.6735)">
   <stop id="stop34" style="stop-color:#ffff00;stop-opacity:1" offset="0" />
   <stop id="stop36" style="stop-color:#ffcc00;stop-opacity:1" offset="1" />
  </radialGradient>
  <radialGradient cx="68.742203" cy="72.860802" r="44.665298" id="XMLID_31_" gradientUnits="userSpaceOnUse" gradientTransform="matrix(1,0,0,1.0137,0,-0.6735)">
   <stop id="stop41" style="stop-color:#ffff00;stop-opacity:1" offset="0" />
   <stop id="stop6500" style="stop-color:#ffb800;stop-opacity:1" offset="0.42605001" />
   <stop id="stop43" style="stop-color:#cfa500;stop-opacity:1" offset="0.85210001" />
  </radialGradient>
  <path d="m 26.312,59.584 c 0,0 -4.66,5.45 -6.213,7.993 -1.315,1.332 -9.081,7.025 -9.081,7.025 -5.855,4.603 1.434,9.084 1.434,9.084 l 8.244,4.481 c 27.122,11.869 58.307,-0.97 58.307,-0.97 0,0 6.93,-2.785 20.192,-8.72 13.262,-5.936 21.268,-7.873 27.241,-12.597 5.975,-4.724 -1.553,-12.716 -1.553,-12.716 l -98.571,6.42 z" id="path45" style="fill:url(#radialGradient6502)" />
  <path d="m 26.312,59.584 c 0,0 -4.66,5.45 -6.213,7.993 -1.315,1.332 -9.081,7.025 -9.081,7.025 -5.855,4.603 1.434,9.084 1.434,9.084 l 8.244,4.481 c 27.122,11.869 -1.693,-8.72 -1.693,-8.72 l 7.309,-19.863 z" id="path7274" style="fill:url(#linearGradient7659);fill-opacity:1" />
  <path d="M 26.917969,72.691406 13.0625,82.572751 23.9375,88.32909 35.25,74.443563 26.917969,72.691406 z" id="path6106" style="fill:url(#linearGradient6117);fill-opacity:1;fill-rule:evenodd;stroke:none" />
  <path d="m 11.114,75.447 c 0,0 8.091,-5.434 9.46,-6.706 1.619,-2.428 6.473,-7.631 6.473,-7.631 l -0.734,-1.525 c 0,0 -4.66,5.45 -6.213,7.993 -1.315,1.332 -9.081,7.025 -9.081,7.025 -1.85,1.454 -2.386,2.896 -2.256,4.189 0.104,-1.058 0.757,-2.196 2.351,-3.345 z" id="path64" style="fill:url(#XMLID_32_);fill-opacity:1" />
  <path d="m 10.247,87.923 0.449,0.245 c 0.09,0.039 0.181,0.075 0.271,0.114 l -0.72,-0.359 z" id="path81" style="fill:url(#XMLID_33_);fill-opacity:1" />
  <linearGradient x1="22.309099" y1="87.141098" x2="23.7612" y2="64.996399" id="XMLID_34_" gradientUnits="userSpaceOnUse">
   <stop id="stop84" style="stop-color:#ffffff;stop-opacity:1" offset="0.0533" />
   <stop id="stop86" style="stop-color:#fefefd;stop-opacity:1" offset="0.29750001" />
   <stop id="stop88" style="stop-color:#fbf9f4;stop-opacity:1" offset="0.43970001" />
   <stop id="stop90" style="stop-color:#f6f0e6;stop-opacity:1" offset="0.5557" />
   <stop id="stop92" style="stop-color:#eee5d2;stop-opacity:1" offset="0.65750003" />
   <stop id="stop94" style="stop-color:#e5d6b8;stop-opacity:1" offset="0.75010002" />
   <stop id="stop96" style="stop-color:#d9c398;stop-opacity:1" offset="0.83600003" />
   <stop id="stop98" style="stop-color:#cbad73;stop-opacity:1" offset="0.91530001" />
   <stop id="stop100" style="stop-color:#c7a769;stop-opacity:1" offset="0.93489999" />
  </linearGradient>
  <radialGradient cx="75.134804" cy="42.876999" r="41.6119" fx="77.449898" fy="21.688801" id="XMLID_35_" gradientUnits="userSpaceOnUse" gradientTransform="matrix(1,0,0,1.0137,0,-0.6735)">
   <stop id="stop105" style="stop-color:#ffdd00;stop-opacity:1" offset="0.3136" />
   <stop id="stop107" style="stop-color:#feda03;stop-opacity:1" offset="0.50419998" />
   <stop id="stop109" style="stop-color:#fbd10c;stop-opacity:1" offset="0.64349997" />
   <stop id="stop111" style="stop-color:#f6c11b;stop-opacity:1" offset="0.76599997" />
   <stop id="stop113" style="stop-color:#f0ae2d;stop-opacity:1" offset="0.86390001" />
  </radialGradient>
  <path d="m 27.626,60.796 c 0,0 0.239,-4.724 2.271,-16.23 C 32.287,33.424 29.3,19.737 65.98,8.958 c 10.156,-3.028 37.397,-2.18 49.346,14.413 7.377,11.384 7.198,27.917 7.198,27.917 l 0.119,7.146 -47.703,19.561 -39.667,-2.786 -7.408,-5.813 -0.239,-8.6 z" id="path115" style="fill:url(#XMLID_35_)" />
  <radialGradient cx="67.054703" cy="51.438999" r="61.9603" id="XMLID_36_" gradientUnits="userSpaceOnUse" gradientTransform="matrix(1,0,0,1.0137,0,-0.6735)">
   <stop id="stop118" style="stop-color:#d5a340;stop-opacity:0" offset="0.54439998" />
   <stop id="stop3119" style="stop-color:#a17620;stop-opacity:0.1329114" offset="0.77219999" />
   <stop id="stop132" style="stop-color:#6e5116;stop-opacity:1" offset="1" />
  </radialGradient>
  <path d="M 90.539,8.922 C 83.388,7.894 76.626,8.691 72.072,10.047 l -4.256,2.368 C 77.442,9.28 117.47,50.176 117.47,50.176 l -0.365,6.663 5.537,1.595 -0.119,-7.146 c 0,0 0.179,-16.533 -7.198,-27.917 C 109.467,15.236 99.934,10.887 90.539,8.922 z" id="path134" style="fill:url(#XMLID_36_)" />
  <linearGradient x1="40.8867" y1="46.2397" x2="26.0222" y2="54.5784" id="XMLID_37_" gradientUnits="userSpaceOnUse">
   <stop id="stop137" style="stop-color:#ad7d2e;stop-opacity:0" offset="0.2367" />
   <stop id="stop139" style="stop-color:#c8881d;stop-opacity:1" offset="1" />
  </linearGradient>
  <path d="m 27.626,60.796 0.199,7.17 c 2.354,-2.167 4.102,-10.191 4.102,-19.767 0,-3.997 -0.306,-7.722 -0.832,-10.867 -0.437,2.489 -0.702,4.916 -1.199,7.233 -2.031,11.508 -2.27,16.231 -2.27,16.231 z" id="path141" style="fill:url(#XMLID_37_)" />
  <linearGradient x1="25.459" y1="69.893997" x2="126.0381" y2="69.893997" id="XMLID_38_" gradientUnits="userSpaceOnUse">
   <stop id="stop144" style="stop-color:#ffffff;stop-opacity:0" offset="0.2367" />
   <stop id="stop146" style="stop-color:#ffffff;stop-opacity:1" offset="1" />
  </linearGradient>
  <path d="m 120.104,63.824 c -7.456,3.927 -22.533,10.579 -31.065,13.08 -8.532,2.501 -21.278,3.028 -26.883,3.028 -5.605,0 -20.798,-2.039 -27.122,-4.239 -6.324,-2.199 -8.984,-6.496 -9.439,-8.115 -0.033,-0.117 -0.059,-0.265 -0.079,-0.432 -0.086,1.47 -0.087,2.748 0.079,3.338 0.455,1.62 3.115,5.916 9.439,8.115 6.324,2.2 21.518,4.239 27.122,4.239 5.604,0 18.351,-0.527 26.883,-3.028 8.532,-2.498 23.609,-9.15 31.065,-13.08 5.062,-2.49 6.274,-5.156 5.857,-9.78 -0.348,2.935 -1.961,4.957 -5.857,6.874 z" id="path148" style="fill:url(#XMLID_38_)" />
  <radialGradient cx="59.8853" cy="5.9165001" r="80.669502" id="XMLID_39_" gradientUnits="userSpaceOnUse" gradientTransform="matrix(1,0,0,1.0137,0,-0.6735)">
   <stop id="stop151" style="stop-color:#ffdd00;stop-opacity:1" offset="0" />
   <stop id="stop153" style="stop-color:#fedb00;stop-opacity:1" offset="0.42250001" />
   <stop id="stop155" style="stop-color:#fad400;stop-opacity:1" offset="0.5747" />
   <stop id="stop157" style="stop-color:#f3c900;stop-opacity:1" offset="0.68309999" />
   <stop id="stop159" style="stop-color:#e9b800;stop-opacity:1" offset="0.77020001" />
   <stop id="stop161" style="stop-color:#e3ad00;stop-opacity:1" offset="0.8107" />
   <stop id="stop163" style="stop-color:#f7b100;stop-opacity:1" offset="1" />
  </radialGradient>
  <path d="m 28.087,56.282 c -0.065,0.532 -1.399,1.52 -1.775,3.303 -0.376,1.783 -1.172,8.555 -0.717,10.174 0.455,1.619 3.115,5.916 9.439,8.115 6.324,2.2 21.518,4.238 27.122,4.238 5.604,0 18.351,-0.526 26.883,-3.027 8.532,-2.5 23.609,-9.152 31.065,-13.081 9.375,-4.612 5.555,-9.81 2.609,-26.981 -0.419,-1.632 -1.755,-1.117 -1.755,-1.117 0,0 2.222,13.475 0.818,15.382 C 120.373,55.194 101.315,64.399 88.8,67.7 76.285,71 62.634,72.908 57.138,72.908 c -5.496,0 -8.304,-3.028 -8.244,-7.873 0.06,-4.845 2.868,-20.59 3.704,-24.344 0.836,-3.754 2.434,-8.16 9.081,-14.897 6.647,-6.737 22.342,-17.836 34.41,-14.928 12.067,3.845 19.236,12.505 19.236,12.505 0,0 -11.231,-18.168 -32.976,-18.168 -13.501,0 -30.109,10.658 -30.109,10.658 0,0 -17.444,7.994 -19.237,27.251 -1.792,19.258 -4.981,20.254 -5.199,19.137 -0.219,-1.118 0.349,-6.499 0.283,-5.967 z" id="path165" style="fill:url(#XMLID_39_)" />
  <g id="g167">
   <linearGradient x1="79.763702" y1="-2.6694" x2="79.763702" y2="12.5914" id="XMLID_40_" gradientUnits="userSpaceOnUse">
    <stop id="stop170" style="stop-color:#cf9d00;stop-opacity:1" offset="0.1183" />
    <stop id="stop180" style="stop-color:#cf9d00;stop-opacity:0" offset="1" />
   </linearGradient>
   <path d="m 52.24,18.042 c 0,0 16.607,-10.658 30.109,-10.658 9.611,0 17.167,3.549 22.607,7.51 6.626,3.959 -0.862,-9.69 -22.607,-9.69 -13.501,0 -30.109,10.658 -30.109,10.658 l 0,2.18 z" id="path182" style="fill:url(#XMLID_40_);fill-opacity:1" />
  </g>
  <linearGradient x1="112.5645" y1="55.8013" x2="123.808" y2="50.360901" id="XMLID_41_" gradientUnits="userSpaceOnUse">
   <stop id="stop185" style="stop-color:#c7a769;stop-opacity:0" offset="0" />
   <stop id="stop3746" style="stop-color:#bd9a55;stop-opacity:0" offset="0.69292587" />
   <stop id="stop191" style="stop-color:#927336;stop-opacity:1" offset="0.93489999" />
  </linearGradient>
  <path d="m 122.714,39.022 c -0.419,-1.632 -1.755,-1.117 -1.755,-1.117 0,0 0.983,5.968 1.228,10.523 1.363,8.706 1.722,13.522 -1.645,17.349 8.805,-4.561 5.07,-9.863 2.172,-26.755 z" id="path193" style="fill:url(#XMLID_41_)" />
  <linearGradient x1="73.526398" y1="37.004734" x2="76.923401" y2="65.039497" id="XMLID_42_" gradientUnits="userSpaceOnUse">
   <stop id="stop196" style="stop-color:#ffff00;stop-opacity:1" offset="0" />
   <stop id="stop214" style="stop-color:#ffff00;stop-opacity:0" offset="1" />
  </linearGradient>
  <path d="m 59.503,34.306 c 0,0 5.604,-7.83 17.115,-8.751 11.511,-0.921 20.75,0.153 20.901,3.071 0.152,2.917 -6.967,4.146 -8.027,8.598 -1.06,4.452 -18.06,-0.569 -23.513,-2.104 -5.453,-1.535 -3.968,-0.763 -2.15,3.997 1.817,4.76 5.065,20.063 5.065,20.063 0,0 -9.239,8.444 -9.845,3.531 -0.606,-4.913 4.847,-11.055 4.09,-18.117 -0.758,-7.064 -7.271,-6.449 -3.636,-10.288 z" id="path216" style="fill:url(#XMLID_42_);filter:url(#filter7685)" />
  <linearGradient x1="26.143101" y1="60.4897" x2="29.2798" y2="60.4897" id="XMLID_43_" gradientUnits="userSpaceOnUse">
   <stop id="stop219" style="stop-color:#ffff00;stop-opacity:1" offset="0" />
   <stop id="stop237" style="stop-color:#ffff00;stop-opacity:0.03797468" offset="1" />
  </linearGradient>
  <path d="m 28.63,62.299 c -0.453,0.418 -0.763,0.272 -0.826,-0.05 -0.218,-1.118 0.35,-6.5 0.283,-5.968 -0.065,0.532 -1.399,1.52 -1.775,3.303 -0.161,0.764 -0.598,5.286 1.135,5.147 2.705,-0.238 1.782,-0.945 1.183,-2.432 z" id="path239" style="fill:url(#XMLID_43_)" />
  <g id="g241">
   <defs id="defs243">
    <path d="m 56.301,77.631 c 5.605,0 55.63,-13.149 63.085,-17.077 9.376,-4.615 6.272,-4.36 3.327,-21.532 -0.419,-1.632 -1.755,-1.117 -1.755,-1.117 0,0 2.222,13.475 0.818,15.382 C 120.373,55.194 101.315,64.399 88.8,67.7 76.285,71 62.634,72.908 57.138,72.908 c -5.496,0 -8.304,-3.028 -8.244,-7.873 0.06,-4.845 2.868,-20.59 3.704,-24.344 0.836,-3.754 2.434,-8.16 9.081,-14.897 6.647,-6.737 22.342,-17.836 34.41,-14.928 L 91.429,7.505 52.24,15.861 c 0,0 -13.144,10.538 -14.936,29.795 -1.792,19.257 13.393,31.975 18.997,31.975 z" id="XMLID_20_" />
   </defs>
   <clipPath id="XMLID_44_">
    <use id="use247" x="0" y="0" width="138" height="111" xlink:href="#XMLID_20_" />
   </clipPath>
   <g clip-path="url(#XMLID_44_)" id="g249" style="filter:url(#AI_Sfocatura_2)">
    <radialGradient cx="37.662601" cy="53.589401" r="87.812599" id="XMLID_45_" gradientUnits="userSpaceOnUse" gradientTransform="matrix(1,0,0,1.0137,0,-0.6735)">
     <stop id="stop252" style="stop-color:#ffff00;stop-opacity:1" offset="0.0473" />
     <stop id="stop254" style="stop-color:#fffe7e;stop-opacity:1" offset="0.48469999" />
     <stop id="stop256" style="stop-color:#fffecf;stop-opacity:1" offset="0.67820001" />
     <stop id="stop258" style="stop-color:#ffe900;stop-opacity:1" offset="0.82359999" />
     <stop id="stop260" style="stop-color:#ffd700;stop-opacity:1" offset="0.94419998" />
     <stop id="stop262" style="stop-color:#ffcc00;stop-opacity:1" offset="1" />
    </radialGradient>
    <path d="m 84.311,11.301 0,0 c -11.271,2.341 -17.876,7.116 -23.184,10.953 -3.629,2.623 -6.495,4.695 -9.786,5.261 -5.05,0.868 -5.801,1.613 -5.801,2.229 0,0.015 0,0.03 10e-4,0.045 0.028,0.495 0.588,0.77 0.892,0.875 3.433,3.779 4.564,6.923 4.564,10.082 0,2.59 -0.758,5.192 -1.624,8.164 -1.077,3.699 -2.281,7.831 -2.281,13.054 0,0.737 0.024,1.495 0.076,2.277 0.229,3.464 1.624,6.144 4.147,7.965 7.609,5.494 22.814,1.44 23.458,1.266 l 0.028,-0.01 0.026,-0.011 c 0.112,-0.053 11.358,-5.231 34.162,-11.563 8.682,-2.41 14.105,-5.874 16.122,-10.297 l 0.037,-0.079 -0.005,-0.087 c -0.212,-4.527 -1.31,-8.932 -1.898,-11.298 l -0.322,-1.368 c -0.164,-0.643 -0.462,-1.069 -0.895,-1.295 -0.61,-0.32 -1.234,-0.098 -1.303,-0.072 l -0.272,0.104 0.048,0.289 c 0.869,5.252 1.817,13.532 0.87,14.816 -1.232,1.668 -19.517,10.655 -32.258,14.004 -11.978,3.147 -25.454,5.097 -31.07,5.097 -2.607,0 -4.606,-0.691 -5.941,-2.058 -1.236,-1.265 -1.848,-3.05 -1.82,-5.304 0.058,-4.664 2.781,-19.977 3.637,-23.804 0.825,-3.693 2.468,-7.999 8.841,-14.438 6.103,-6.166 19.117,-15.247 29.959,-14.993 l 0.116,0.003 0.095,-0.068 c 0.331,-0.236 0.445,-0.481 0.34,-0.726 -0.168,-0.395 -0.343,-0.803 -8.959,0.987 z" id="path264" style="fill:url(#XMLID_45_)" />
   </g>
  </g>
  <g transform="matrix(0.7809463,0,0,1,9.8990362,0)" id="g266" style="filter:url(#AI_Sfocatura_3)">
   <linearGradient x1="60.554699" y1="36.130402" x2="28.4592" y2="55.264198" id="XMLID_46_" gradientUnits="userSpaceOnUse">
    <stop id="stop269" style="stop-color:#ffffff;stop-opacity:0" offset="0" />
    <stop id="stop285" style="stop-color:#cca300;stop-opacity:1" offset="0.69090003" />
    <stop id="stop289" style="stop-color:#ffea00;stop-opacity:0" offset="1" />
   </linearGradient>
   <path d="m 32.636,53.197 c 0.718,13.817 7.351,11.579 7.351,11.579 5.508,-2.172 4.896,-13.029 5.203,-23.886 -1.927,-5.329 -5.459,-8.824 -8.299,-7.114 -1.517,2.877 -2.656,6.269 -3.023,10.216 -0.361,3.873 -0.787,6.882 -1.232,9.205 z" id="path291" style="fill:url(#XMLID_46_)" />
  </g>
  <g clip-path="url(#XMLID_47_)" id="g301" style="filter:url(#filter5311)">
   <linearGradient x1="25.459" y1="69.167503" x2="126.0381" y2="69.167503" id="XMLID_48_" gradientUnits="userSpaceOnUse">
    <stop id="stop304" style="stop-color:#d68e00;stop-opacity:1" offset="0" />
    <stop id="stop306" style="stop-color:#e9ab00;stop-opacity:1" offset="0.0874" />
    <stop id="stop308" style="stop-color:#f9c300;stop-opacity:1" offset="0.1798" />
    <stop id="stop310" style="stop-color:#ffcc00;stop-opacity:1" offset="0.2367" />
    <stop id="stop312" style="stop-color:#b87a00;stop-opacity:1" offset="1" />
   </linearGradient>
   <path d="m 120.104,63.097 c -7.456,3.928 -22.533,10.58 -31.065,13.081 -8.532,2.5 -21.278,3.027 -26.883,3.027 -5.605,0 -20.798,-2.039 -27.122,-4.239 -6.324,-2.199 -8.984,-6.497 -9.439,-8.114 -0.033,-0.118 -0.059,-0.266 -0.079,-0.433 -0.086,1.47 -0.087,2.748 0.079,3.339 0.455,1.619 3.115,5.916 9.439,8.115 6.324,2.2 21.518,4.238 27.122,4.238 5.604,0 18.351,-0.526 26.883,-3.027 8.532,-2.5 23.609,-9.152 31.065,-13.081 5.062,-2.491 6.274,-5.156 5.857,-9.78 -0.348,2.937 -1.961,4.957 -5.857,6.874 z" id="path314" style="fill:url(#XMLID_48_)" />
  </g>
  <g transform="translate(0,10)" id="g349" style="stroke:url(#linearGradient7677);stroke-width:1.078125;stroke-miterlimit:4;stroke-dasharray:none;filter:url(#filter7681)">
   <path d="m 25.595,59.758 c 0.455,1.619 3.115,5.916 9.439,8.115 6.324,2.2 21.518,4.238 27.123,4.238 5.604,0 18.35,-0.526 26.882,-3.027" id="path351" style="fill:none;stroke:url(#linearGradient7677);stroke-width:1.078125;stroke-linecap:round;stroke-miterlimit:4;stroke-opacity:1;stroke-dasharray:none" />
  </g>
  <linearGradient x1="9.9033003" y1="76.273903" x2="128.7402" y2="76.273903" id="XMLID_49_" gradientUnits="userSpaceOnUse">
   <stop id="stop317" style="stop-color:#e39700;stop-opacity:1" offset="0" />
   <stop id="stop319" style="stop-color:#e49900;stop-opacity:1" offset="0.2025" />
   <stop id="stop321" style="stop-color:#e8a000;stop-opacity:1" offset="0.2755" />
   <stop id="stop323" style="stop-color:#eeab00;stop-opacity:1" offset="0.32749999" />
   <stop id="stop325" style="stop-color:#f7bc00;stop-opacity:1" offset="0.36930001" />
   <stop id="stop327" style="stop-color:#ffcc00;stop-opacity:1" offset="0.3964" />
   <stop id="stop329" style="stop-color:#fdc900;stop-opacity:1" offset="0.49439999" />
   <stop id="stop331" style="stop-color:#f8be00;stop-opacity:1" offset="0.58020002" />
   <stop id="stop333" style="stop-color:#eeac00;stop-opacity:1" offset="0.66109997" />
   <stop id="stop335" style="stop-color:#bb7d00;stop-opacity:1" offset="0.72780001" />
   <stop id="stop337" style="stop-color:#bb7e00;stop-opacity:1" offset="0.87220001" />
   <stop id="stop339" style="stop-color:#d59400;stop-opacity:1" offset="0.9242" />
   <stop id="stop341" style="stop-color:#eaab00;stop-opacity:1" offset="0.9612" />
   <stop id="stop343" style="stop-color:#f1bc00;stop-opacity:1" offset="0.991" />
   <stop id="stop345" style="stop-color:#f3c300;stop-opacity:1" offset="1" />
  </linearGradient>
  <path d="m 128.464,59.345 c -0.328,1.097 -0.97,2.148 -2.062,3.084 -6.063,5.195 -14.188,8.053 -27.648,14.579 -13.46,6.528 -20.494,8.864 -20.494,8.864 0,0 -31.65,14.12 -59.177,1.066 l -8.367,-4.929 c 0,0 -0.339,-0.227 -0.812,-0.629 1.088,1.404 2.549,2.306 2.549,2.306 l 8.244,4.481 c 27.122,11.869 58.307,-0.97 58.307,-0.97 0,0 6.93,-2.785 20.192,-8.72 13.262,-5.936 21.268,-7.873 27.241,-12.597 2.397,-1.893 2.618,-4.313 2.027,-6.535 z" id="path347" style="fill:url(#XMLID_49_)" />
  <g id="g353">
   <path d="m 122.714,39.385 c 1.531,8.922 3.294,14.608 3.322,18.662 0.08,-4.077 -1.746,-9.834 -3.322,-19.025 -0.419,-1.632 -1.755,-1.117 -1.755,-1.117 0,0 0.021,0.123 0.056,0.345 0.255,-0.075 1.331,-0.299 1.699,1.135 z" id="path355" style="fill:#a88100" />
   <path d="m 57.138,73.271 c 5.497,0 19.147,-1.908 31.662,-5.208 12.516,-3.301 31.573,-12.506 32.978,-14.414 0.356,-0.482 0.479,-1.715 0.463,-3.28 -0.007,1.39 -0.135,2.472 -0.463,2.918 C 120.373,55.194 101.315,64.399 88.8,67.7 76.285,71 62.634,72.908 57.138,72.908 c -5.422,0 -8.222,-2.951 -8.239,-7.682 -10e-4,0.056 -0.004,0.118 -0.005,0.173 -0.06,4.844 2.748,7.872 8.244,7.872 z" id="path357" style="fill:#ffffff" />
   <path d="m 27.804,62.25 c -0.03,-0.153 -0.045,-0.39 -0.049,-0.677 -0.006,0.454 0.007,0.826 0.049,1.039 0.218,1.119 3.407,0.121 5.199,-19.135 1.792,-19.258 19.237,-27.252 19.237,-27.252 0,0 16.607,-10.658 30.109,-10.658 17.856,0 28.621,12.249 31.9,16.63 0.706,0.729 1.076,1.174 1.076,1.174 0,0 -11.231,-18.168 -32.976,-18.168 -13.501,0 -30.109,10.658 -30.109,10.658 0,0 -17.444,7.994 -19.237,27.251 -1.793,19.259 -4.981,20.255 -5.199,19.138 z" id="path359" style="fill:#ffffff" />
   <path d="m 26.312,59.948 c 0.345,-1.638 1.495,-2.603 1.732,-3.161 0.038,-0.416 0.059,-0.634 0.043,-0.505 -0.065,0.532 -1.399,1.52 -1.775,3.303 -0.304,1.438 -0.88,6.125 -0.852,8.731 0.023,-2.656 0.562,-6.993 0.852,-8.368 z" id="path361" style="fill:#ba8e00" />
  </g>
  <path d="m 74.875,7.875 c -14.463794,3.273244 -29.078308,10.432047 -37.90625,22.6875 -2.327664,3.432449 2.610257,6.000015 5.3125,3.65625 C 55.365042,28.585619 64.58577,16.785636 77.537505,10.914942 84.000991,6.7588263 79.414572,8.2582213 74.875,7.875 z" id="path3702" style="fill:url(#linearGradient3742);fill-opacity:1;filter:url(#filter5339)" />
  <path d="m 118.21875,66.96875 c -3.62314,0.901388 -9.80235,2.125977 -14.28125,3.65625 -9.842965,3.362972 -16.02497,7.108419 -19.0625,9.46875 1.451647,-0.293967 2.859466,-0.619871 4.15625,-1 7.890372,-2.311993 21.30626,-8.148674 29.1875,-12.125 z" id="path4528" style="opacity:0.4;fill:url(#linearGradient4924);fill-opacity:1;fill-rule:evenodd;stroke:none;filter:url(#filter4926)" />
  <path d="m 91.40625,10.40625 c -11.17962,0.268392 -23.90263,9.480124 -29.71875,15.375 -6.647,6.737 -8.25775,11.152248 -9.09375,14.90625 -0.836,3.754 -3.6275,19.498746 -3.6875,24.34375 -0.02485,2.006561 0.42879,3.70277 1.375,5 -0.27809,-0.896286 -0.38858,-1.903576 -0.375,-3 0.06,-4.845004 2.8515,-20.58975 3.6875,-24.34375 0.836,-3.754002 2.44675,-8.16925 9.09375,-14.90625 C 69.3345,21.044249 85.02575,9.967 97.09375,12.875 c 12.067,3.845 19.21875,12.5 19.21875,12.5 0,0 -1.31584,-2.147533 -3.90625,-4.9375 -0.029,-0.02638 -0.0643,-0.06713 -0.0937,-0.09375 -3.17669,-2.874012 -8.74609,-7.087677 -16.21875,-9.46875 -1.5085,-0.3635 -3.09041,-0.507092 -4.6875,-0.46875 z" id="path5331" style="fill:#ab8200;fill-opacity:1;filter:url(#filter5335)" />
 </g>
</svg>