<svg xmlns="http://www.w3.org/2000/svg" version="1.1" width="128" height="128" viewBox="0 0 128 128" id="bsd-dragonfly">
	<defs id="dfs1">
		<radialGradient gradientUnits="userSpaceOnUse" r="102.5" cy="216.9229" cx="396.16989" id="rgrd1">
			<stop id="stop28" style="stop-color:#FFFFFF" offset="0"/>
			<stop id="stop30" style="stop-color:#F7F9D8" offset="0.0418"/>
			<stop id="stop32" style="stop-color:#EFF2B2" offset="0.0906"/>
			<stop id="stop34" style="stop-color:#E8ED91" offset="0.1432"/>
			<stop id="stop36" style="stop-color:#E2E976" offset="0.1994"/>
			<stop id="stop38" style="stop-color:#DDE562" offset="0.2607"/>
			<stop id="stop40" style="stop-color:#DAE353" offset="0.3295"/>
			<stop id="stop42" style="stop-color:#D9E14B" offset="0.412"/>
			<stop id="stop44" style="stop-color:#D8E148" offset="0.5449"/>
			<stop id="stop46" style="stop-color:#D6E048" offset="0.6791"/>
			<stop id="stop48" style="stop-color:#CFDD47" offset="0.7467"/>
			<stop id="stop50" style="stop-color:#C2D946" offset="0.7994"/>
			<stop id="stop52" style="stop-color:#B1D245" offset="0.8444"/>
			<stop id="stop54" style="stop-color:#99CA44" offset="0.8845"/>
			<stop id="stop56" style="stop-color:#7BC143" offset="0.9206"/>
			<stop id="stop58" style="stop-color:#75C044" offset="0.927"/>
			<stop id="stop60" style="stop-color:#073800" offset="1"/>
		</radialGradient>
	</defs>
	<g id="layer1">
		<g id="g1001" transform="matrix(0.3496906,0.178605,-0.20189396,0.30935293,-33.073165,-87.19747)">
			<circle cx="396.17001" cy="216.923" r="102.5" id="circle63" style="fill:url(#rgrd1);stroke:#000000;stroke-width:8.94320011"/>
			<g id="g96">
				<g id="g78">
					<g id="g88">
						<g id="g67">
							<path d="m 387.045,247.64 c 0,0 12.2,0 18.25,0 0,68.9 -6.1,207.49 -9.13,207.49 -3.02,0 -9.12,-138.59 -9.12,-207.49 z" id="path65" style="fill:#ed1c24"/>
						</g>
						<g id="g75">
							<path d="m 387.045,247.64 c 0,68.9 6.1,207.49 9.12,207.49" id="path69" style="fill:none;stroke:#000000;stroke-width:5.96210003"/>
							<path d="m 405.295,247.64 c 0,68.9 -6.1,207.49 -9.13,207.49" id="path71" style="fill:none;stroke:#000000;stroke-width:5.96210003"/>
							<path d="m 387.045,247.64 c 0,0 12.2,0 18.25,0" id="path73" style="fill:none;stroke:#000000;stroke-width:5.96210003"/>
						</g>
					</g>
				</g>
				<path d="m 387.2,271.201 c 8.982,0 8.982,0 17.953,0" id="path80" style="fill:none;stroke:#000000;stroke-width:5.96210003"/>
				<path d="m 387.615,291.768 c 8.551,0 8.551,0 17.09,0" id="path82" style="fill:none;stroke:#000000;stroke-width:5.96210003"/>
				<path d="m 388.135,312.334 c 8.041,0 8.041,0 16.071,0" id="path84" style="fill:none;stroke:#000000;stroke-width:5.96210003"/>
				<path d="m 388.766,332.883 c 7.41,0 7.41,0 14.808,0" id="path86" style="fill:none;stroke:#000000;stroke-width:5.96210003"/>
				<path d="m 389.535,353.43 c 6.658,0 6.658,0 13.307,0" id="path88" style="fill:none;stroke:#000000;stroke-width:5.96210003"/>
				<g id="g94">
					<path d="m 390.331,373.951 c 5.843,0 5.843,0 11.679,0" id="path90" style="fill:none;stroke:#000000;stroke-width:5.96210003"/>
					<path d="m 391.274,394.473 c 4.898,0 4.898,0 9.791,0" id="path92" style="fill:none;stroke:#000000;stroke-width:5.96210003"/>
				</g>
			</g>
			<g id="g106">
				<g id="g100">
					<ellipse cx="396.16599" cy="216.923" rx="17.08" ry="40.27" id="elps1" style="fill:#ed1c24"/>
				</g>
				<g id="g104">
					<ellipse cx="396.17001" cy="216.923" rx="17.075001" ry="40.27" id="elps2" style="fill:none;stroke:#000000;stroke-width:5.96210003"/>
				</g>
			</g>
			<g id="g108">
				<g id="g124">
					<path d="m 413.229,173.491 c 0,4.07 -2.04,7.75 -5.319,10.35 h -0.01 l -6.971,-24.05 c 7.111,1.72 12.3,7.2 12.3,13.7 z" id="path108" style="fill:#fde92b"/>
					<path d="m 400.93,159.791 6.971,24.05 c -2.631,0 -7.061,-12.35 -9.66,-24.51 0.919,0.09 1.819,0.24 2.689,0.46 z" id="path110" style="fill:#fde92b"/>
					<path d="m 407.9,183.841 c -3.061,2.43 -7.19,3.92 -11.741,3.92 -4.55,0 -8.68,-1.49 -11.74,-3.92 2.63,0 7.06,-12.35 9.66,-24.51 0.68,-0.07 1.37,-0.11 2.08,-0.11 0.71,0 1.4,0.04 2.081,0.11 2.6,12.16 7.03,24.51 9.66,24.51 z" id="path112" style="fill:#9a090d"/>
					<path d="m 396.16,143.331 4.77,16.46 c -0.87,-0.22 -1.77,-0.37 -2.689,-0.46 -1.251,-5.84 -2.081,-11.63 -2.081,-16 z" id="path114" style="fill:#9a090d"/>
					<path d="m 398.24,159.331 c -0.681,-0.07 -1.37,-0.11 -2.081,-0.11 -0.71,0 -1.4,0.04 -2.08,0.11 1.25,-5.84 2.08,-11.63 2.08,-16 0.001,4.37 0.831,10.16 2.081,16 z" id="path116"/>
					<path d="m 391.39,159.791 4.77,-16.46 c 0,4.37 -0.83,10.16 -2.08,16 -0.92,0.09 -1.82,0.25 -2.69,0.46 z" id="path118"/>
					<path d="m 394.08,159.331 c -2.6,12.16 -7.03,24.51 -9.66,24.51 l 6.97,-24.05 c 0.87,-0.21 1.77,-0.37 2.69,-0.46 z" id="path120" style="fill:#fde92b"/>
					<path d="m 391.39,159.791 -6.97,24.05 c -3.28,-2.6 -5.32,-6.28 -5.32,-10.35 0,-6.49 5.19,-11.98 12.29,-13.7 z" id="path122" style="fill:#fde92b"/>
				</g>
				<g id="g132">
					<path d="m 394.08,159.331 c 0.68,-0.07 1.37,-0.11 2.08,-0.11 0.71,0 1.4,0.04 2.081,0.11 0.92,0.09 1.819,0.24 2.689,0.46 7.11,1.72 12.3,7.2 12.3,13.7 0,4.07 -2.04,7.75 -5.319,10.35 h -0.01 c -3.061,2.43 -7.19,3.92 -11.741,3.92 -4.55,0 -8.68,-1.49 -11.74,-3.92 -3.28,-2.6 -5.32,-6.28 -5.32,-10.35 0,-6.49 5.19,-11.98 12.29,-13.7 0.87,-0.21 1.77,-0.37 2.69,-0.46 z" id="path126" style="fill:none;stroke:#000000;stroke-width:5.59259987"/>
					<path d="m 384.42,183.841 c 2.63,0 7.06,-12.35 9.66,-24.51 1.25,-5.84 2.08,-11.63 2.08,-16" id="path128" style="fill:none;stroke:#000000;stroke-width:5.59259987"/>
					<path d="m 396.16,143.331 c 0,4.37 0.83,10.16 2.081,16 2.6,12.16 7.029,24.51 9.66,24.51" id="path130" style="fill:none;stroke:#000000;stroke-width:5.59259987"/>
				</g>
			</g>
			<path d="m 396.16,210.652 c 0,0 -101.311,12.43 -135.318,-51.591 -30.549,-57.507 135.334,44.339 135.334,44.339 z" id="path137" style="fill:#ffffff;stroke:#000000;stroke-width:5.96210003"/>
			<g id="g141">
				<path d="m 396.176,229.752 c 0,0 -80.307,59.485 -138.895,18.468 -52.632,-36.84 138.895,-25.42 138.895,-25.42 z" id="path139" style="fill:#ffffff;stroke:#000000;stroke-width:5.96210003"/>
			</g>
			<path d="m 396.176,210.6 c 0,0 101.311,12.43 135.317,-51.591 30.549,-57.507 -135.333,44.339 -135.333,44.339 z" id="path143" style="fill:#ffffff;stroke:#000000;stroke-width:5.96210003"/>
			<path d="m 396.16,229.7 c 0,0 80.307,59.485 138.895,18.468 52.631,-36.84 -138.895,-25.42 -138.895,-25.42 z" id="path145" style="fill:#ffffff;stroke:#000000;stroke-width:5.96210003"/>
		</g>
	</g>
</svg>