<svg xmlns="http://www.w3.org/2000/svg" version="1.1" width="128" height="128" viewBox="0 0 128 128" id="bsd-netbsd">
	<g id="g1">
		<g id="g2" transform="matrix(0.28925027,0,0,0.34427003,4.2297214,-168.19459)" style="stroke-width:0.40052065;stroke-miterlimit:10">
			<g id="g3" transform="matrix(0.1,0,0,-0.1,0,840)" style="stroke-width:0.40052065">
				<path id="p1" d="m 834,3091.06 c 0,0 -12.27,28.54 -46.87,9.44 -28.77,-15.96 -13.809,-45.43 -13.809,-45.43 L 1314.01,1911.73 h 131.16 L 833.991,3091.06" style="fill:#777777;stroke:none"/>
				<path id="p2" d="m 2368.8,129.319 -409.04,789.41 H 1783.61 L 2194.5,49.9197 c 0,0 41.41,-81.7698 130.26,-36.5695 88.82,45.1997 44.06,115.9698 44.06,115.9698" style="fill:#777777;stroke:none"/>
				<path id="p3" d="m 3876.46,3169.4 c -512.64,246.04 -976.45,128.54 -1495.2,-26.7 -522.23,-156.2 -986.75,-240.74 -1508.58,-27.83 56.85,-101.58 85.31,-152.36 142.19,-253.86 52.22,-93.37 104.51,-186.73 156.75,-280.06 56.87,-101.56 85.3,-152.3 142.18,-253.84 415.48,-117.43 759.56,34.86 1128.77,219.44 443.36,221.52 843.83,420.81 1350.39,305.34 -428.09,214.37 -816.17,161.24 -1263.79,39.8 438.24,223.1 850.84,396.62 1347.29,277.71" style="fill:#f26711;stroke:none"/>
				<path id="p4" d="m 840.76,1344.47 c 0,-85.64 0,-168.57 2.629,-212.09 -9.199,-15.74 -46.08,-30.3 -77.68,-30.3 -1.329,0 -44.799,67.2 -106.689,143.63 l -304.25,376.73 c -75.049,94.85 -119.84,148.83 -143.55,168.6 -6.57,-13.15 -6.57,-35.53 -6.57,-84.28 v -255.59 c 0,-106.7 5.25,-205.46 19.75,-241.06 11.859,-27.64 42.139,-35.55 76.379,-42.1 l 36.88,-5.3 c 10.519,-10.56 7.9,-38.24 0,-46.07 -71.12,2.57 -123.8,3.95 -176.48,3.95 -48.729,0 -97.4492,-1.38 -147.4892,-3.95 -7.9095,7.83 -10.5399,35.51 0,46.07 l 22.3798,3.96 c 35.5598,7.91 60.57,15.8 72.4194,43.44 13.17,35.6 18.45,134.36 18.45,241.06 v 334.61 c 0,72.42 0,93.48 -9.219,111.93 -9.23,22.4 -28.98,35.59 -75.0797,44.79 l -36.86,5.29 c -9.2192,10.54 -7.9093,42.15 5.2496,46.08 61.9094,-2.57 127.7491,-3.93 181.7701,-3.93 44.769,0 82.969,1.32 110.629,3.94 13.19,-59.27 98.79,-159.35 217.31,-300.33 l 110.63,-130.42 c 59.28,-68.5 96.149,-114.56 126.46,-144.9 5.259,13.2 5.259,35.62 5.259,59.28 v 181.81 c 0,106.68 -5.259,205.48 -19.77,241.1 -11.859,27.62 -40.82,35.49 -76.379,42.08 l -35.57,5.29 c -10.52,10.54 -7.89,38.19 0,46.08 71.139,-2.57 122.5,-3.93 176.5,-3.93 48.709,0 96.139,1.32 147.51,3.94 7.909,-7.9 10.519,-35.55 0,-46.11 l -23.71,-3.93 c -34.229,-7.93 -59.27,-15.8 -71.139,-43.49 C 846.07,1864.8 840.781,1766 840.781,1659.28 v -314.83" style="fill:#f26711;stroke:none"/>
				<path id="p5" d="m 1153.67,1490.7 c 18.47,0 39.51,2.67 54.03,11.84 6.58,4.03 9.18,17.21 9.18,30.28 0,43.49 -25,72.49 -69.78,72.49 -55.33,0 -102.73,-52.69 -102.73,-94.82 0,-18.48 18.42,-19.79 60.58,-19.79 z m -86.9,-57.95 c -30.29,0 -32.94,-2.61 -32.94,-23.69 0,-98.82 63.23,-194.97 185.7,-194.97 36.89,0 86.94,7.87 122.49,68.49 14.49,2.62 34.25,-7.91 34.25,-30.26 -54.01,-111.99 -151.46,-150.24 -230.49,-150.24 -177.801,0 -273.93,125.19 -273.93,268.77 0,165.98 119.849,295.09 284.47,295.09 136.96,0 210.72,-88.26 210.72,-189.73 0,-25.02 -6.58,-43.46 -47.39,-43.46 h -252.88" style="fill:#f26711;stroke:none"/>
				<path id="p6" d="m 1626.73,1576.31 c -17.11,0 -18.43,-1.28 -18.43,-30.3 v -197.53 c 0,-73.81 0,-155.49 92.19,-155.49 18.44,0 39.5,9.21 55.33,19.74 13.14,-3.92 21.05,-18.4 18.4,-34.22 -36.87,-39.5 -107.98,-76.43 -189.63,-76.43 -109.33,0 -147.51,63.25 -147.51,150.24 v 293.69 c 0,27.7 -1.32,30.3 -25.03,30.3 h -40.81 c -14.5,5.37 -18.45,31.64 -7.92,40.89 40.82,14.44 77.7,38.19 109.32,59.24 23.7,17.11 56.64,44.75 97.46,102.8 9.2,5.23 32.93,3.88 39.52,-6.62 v -98.81 c 0,-25.01 1.32,-26.33 25.02,-26.33 h 117.23 c 6.58,-5.25 10.52,-13.2 10.52,-25.04 0,-14.49 -3.94,-38.16 -17.11,-46.13 h -118.56" style="fill:#f26711;stroke:none"/>
				<path id="p7" d="m 2102.36,1343.19 c 0,-102.76 13.18,-167.29 115.93,-167.29 97.46,0 148.81,75.06 148.81,181.78 0,114.61 -65.86,194.94 -192.27,194.94 -72.46,0 -72.46,-1.3 -72.46,-54.03 v -155.38 z m 0,304.29 c 0,-34.28 1.34,-36.86 69.82,-36.86 113.26,0 155.41,72.4 155.41,151.45 0,114.6 -71.13,171.25 -162.01,171.25 -61.88,0 -63.22,-10.58 -63.22,-68.52 z m -181.76,127.79 c 0,133.01 -2.63,147.47 -57.94,154.1 l -35.57,5.3 c -11.85,6.59 -14.49,46.09 5.28,47.41 100.1,6.57 196.24,11.87 327.97,11.87 126.41,0 210.74,-14.52 268.65,-48.78 56.64,-34.24 90.86,-89.59 90.86,-167.26 0,-110.68 -93.49,-154.14 -134.31,-164.71 -13.19,-2.58 -26.37,-7.89 -26.37,-14.47 0,-3.94 6.62,-7.86 18.48,-10.54 104.04,-22.41 192.26,-90.84 193.59,-218.6 1.33,-121.21 -71.11,-192.36 -154.06,-221.37 -83.01,-28.97 -181.76,-32.92 -262.11,-32.92 -47.4,0 -97.45,5.32 -135.66,5.32 -64.56,0 -129.09,-1.37 -204.14,-3.98 -10.52,7.89 -10.52,42.12 0,46.07 l 38.2,7.92 c 59.25,11.84 67.16,21.07 67.16,139.63 v 465.01" style="fill:#777777;stroke:none"/>
				<path id="p8" d="m 2858.47,1099.5 c -121.14,0 -196.23,34.25 -223.87,50.03 -25.02,28.98 -42.13,123.82 -42.13,213.41 9.2,17.1 39.51,18.45 50.04,3.96 26.33,-85.62 114.55,-206.8 226.52,-206.8 97.44,0 142.25,67.17 142.25,133.01 0,106.69 -100.08,169.92 -179.12,209.43 -94.83,47.48 -197.56,126.46 -198.85,256.91 0,148.83 114.59,251.62 305.55,251.62 43.45,0 97.44,-5.3 150.15,-21.13 17.11,-5.26 28.95,-7.86 44.77,-10.51 10.49,-28.98 23.71,-100.12 23.71,-188.39 -6.6,-15.77 -39.53,-17.11 -51.37,-3.99 -22.4,67.23 -79.06,163.4 -173.88,163.4 -86.9,0 -134.3,-56.67 -134.3,-122.49 0,-60.62 53.94,-115.91 119.8,-150.17 l 86.96,-46.15 c 81.64,-43.46 185.7,-119.84 185.7,-264.74 0,-162.04 -133.07,-267.4 -331.93,-267.4" style="fill:#777777;stroke:none"/>
				<path id="p9" d="m 3479.68,1359.03 c 0,-72.49 2.65,-119.89 26.33,-147.57 23.75,-26.36 61.91,-38.2 109.33,-38.2 227.83,0 305.55,202.81 305.55,382 0,237.12 -125.12,378.06 -363.52,378.06 -35.5,0 -60.58,-6.59 -68.47,-17.17 -7.91,-10.51 -9.22,-35.53 -9.22,-76.34 v -480.8 z m -188.32,417.55 c 0,125.13 -2.64,150.15 -63.23,156.74 l -25.01,2.61 c -13.15,6.59 -13.15,44.83 2.65,46.15 110.63,6.57 213.34,11.87 352.97,11.87 107.99,0 215.96,-10.62 306.86,-43.5 172.55,-61.9 267.34,-217.34 267.34,-381.97 0,-176.55 -84.28,-318.84 -235.72,-393.9 -89.55,-44.82 -197.58,-61.88 -333.23,-61.88 -61.87,0 -127.79,7.92 -175.17,7.92 -63.24,0 -130.41,-1.37 -205.45,-3.98 -10.53,7.89 -10.53,39.49 0,46.07 l 40.82,6.59 c 59.26,10.52 67.17,19.74 67.17,140.96 v 466.32" style="fill:#777777;stroke:none"/>
			</g>
		</g>
	</g>
</svg>