<svg xmlns="http://www.w3.org/2000/svg" version="1.1" width="128" height="128" viewBox="0 0 128 128" id="bsd-openbsd">
	<g transform="matrix(.3741 0 0 .39534 -72.615 .43507)">
		<path d="m388.62 17.699c-2.7991 6.5058-2.0157 14.096-4.0552 20.858-0.47012 1.5574-2.0098 6.2622-4.2625 5.9364-4.6054-0.66599-2.2193-9.5141-7.5343-9.6908l1.6687 12.932c-7.9861 1.0031-6.8965-11.464-10.138-16.528-3.7406-5.8438-4.6413 2.651-4.3914 5.265 0.15976 1.6753 0.49808 3.335 0.69874 5.0059 0.34915 2.9078 0.43171 5.4378 0.0647 8.3431-7.6311-0.09014-4.8298-10.134-10.429-11.68l0.41712 12.098c-8.46-0.07092-12.316-7.7074-16.03-14.183-1.551-2.7031-3.6138-7.9264-7.3307-6.2573 1.7387 7.5151 5.8527 14.709 6.2724 22.526 0.10848 2.0213-1.7992 7.1526-4.6025 6.2084-6.4776-2.1821-5.6082-13.934-11.006-17.026-1.0913-0.62528-2.815-0.0793-4.013-0.02799 4e-3 6.2342 2.7461 13.77 4.9253 19.606 0.46891 1.2552 1.7854 5.6683-0.94902 5.5861-4.8874-0.14684-6.1043-9.6222-11.068-8.5062 0.6074 2.5559 2.1258 4.6304 2.9727 7.0917 0.51725 1.5038 1.4754 3.0235 1.7533 4.5883 0.6065 3.422-3.7281 3.6993-5.9774 3.0365-5.3142-1.5668-9.1307-5.9111-12.932-9.7106-1.0533-1.0529-3.8328-4.76-5.5866-3.0774-1.9506 1.8714 1.8797 5.1594 2.966 6.4146 3.2467 3.7532 6.7596 8.1491 8.3106 12.932 0.66657 2.0549 0.79716 4.975-1.2431 6.385-2.024 1.3987-5.3167-1.1401-6.9498-2.2147-5.0013-3.2909-9.9729-9.0419-16.269-9.1762l-1.4747 3.7544 4.0152 5.423 10.391 11.68-12.098-5.0059c0.48847 3.1625 8.0653 6.9949 6.5736 10.254-0.88399 1.9319-5.2675 1.964-6.9907 1.7183-6.1676-0.87896-10.532-5.4715-16.269-7.1176-5.066-1.4534-4.1232 2.4763-1.2511 4.746 0.99661 0.7876 1.9569 1.6136 2.9197 2.4424 1.7337 1.4918 3.3877 3.0252 5.0059 4.643 2.5305 2.5296 4.7477 5.2345 7.0917 7.9259l-12.098-0.41712v0.8343l11.68 5.423-2.0858 8.3431c-3.3727-9e-3 -6.1072-0.92731-9.1774-2.2627-2.0925-0.91023-4.2951-2.4224-6.6745-2.2551-2.8404 0.19939-4.5295 2.7929-2.6264 5.2165 2.8529 3.633 8.568 5.7025 12.219 8.533 1.3933 1.0804 3.4119 2.9268 1.8359 4.771-3.1124 3.6426-11.501-1.0308-15.6 0.18066v0.8343c3.8045 2.2205 11.605 3.4874 13.844 7.5814 1.7508 3.2017-3.228 10.459-6.7525 10.175-3.1404-0.25366-6.0266-3.7982-8.3431-5.6587-5.544-4.4531-11.476-9.6918-17.938-12.765-11.081-5.2691-22.086 3.1228-30.87 8.5926 1.1234 3.545 5.5578-0.22818 8.3431 0.40342 3.7489 0.84972 6.597 4.3376 9.0004 7.1054 11.614 13.375 21.334 28.54 25.677 45.887 1.143 4.5666 3.0945 10.031-0.3187 14.123-0.91524 1.0967-2.2799 1.2402-3.2894 2.1458-0.75468 0.67703-0.71559 1.6365 0.31963 1.9531 1.9111 0.58484 4.6973-0.30411 6.5728-0.75589 6.123-1.4755 13.113-4.7785 15.893-10.792 1.7295-3.7407 2.3382-11.018 6.6332-12.515 0.95029 4.0093 5.4589 9.3134 5.0201 13.349-0.39005 3.5846-4.1649 7.7378-6.3725 10.391-0.78174 0.93985-2.669 3.0006-1.5397 4.3501 1.1238 1.3428 3.4432-1.5489 4.1436-2.2105 3.1658-2.9894 10.086-7.7111 11.964-0.85061 1.6336 5.9658-3.6151 15.611-6.2369 20.858-0.72958 1.4597-4.0898 6.0225-2.7778 7.6502 1.5126 1.8764 4.6772-3.0127 5.3513-3.8958 2.6293-3.4436 11.837-13.649 16.728-9.9813 5.9658 4.4732 3.9088 7.6707 1.6478 13.736-0.63696 1.7083-2.9893 5.9916-1.39 7.6165 1.5477 1.5718 3.58 0.13225 4.371-1.367 1.4316-2.7144 5.2837-10.78 9.1374-8.7215 2.412 1.2886 6.1005 3.4733 7.5034 5.8807 2.193 3.7632 0.28576 11.274-0.2987 15.363-0.3366 2.3549-2.8684 9.7026-0.76671 11.404 1.9414 1.5718 3.5112-3.1545 4.0944-4.3125 2.0549-4.081 4.419-8.2601 7.478-11.68 1.098-1.2277 2.6502-3.2851 4.5161-2.9359 9.6893 1.8138-0.20983 11.466 3.7661 16.393 0.80468 0.997 2.9868 0.92527 4.1599 1.1438l5.0059-12.932c2.5459 0.98075 6.2907 1.3207 8.1683 3.4265 1.5777 1.7696 1.8877 4.759 2.3436 7.0024 1.2765 6.282 1.9753 12.39 1.1685 18.772 0.79302 0.57025 2.0436 1.8943 3.1082 1.2156 1.3466-0.85933 1.5185-4.3651 1.9786-5.8043 1.4718-4.6025 3.7169-9.0031 5.8031-13.349 1.3741-2.863 5.1202-5.912 7.8238-1.9694 2.7732 4.0435 1.6628 11.116 3.3957 15.736 4.4306-2.1838 4.9137-11.407 5.0059-15.852l5.7463 0.83806 3.452 7.0879 6.2365 17.938c3.2275-1.2348 2.2055-7.4416 2.5676-10.429 0.491-4.0498 1.4304-12.186 4.3997-15.2 1.1973-1.2152 3.578-1.3182 5.1302-1.9039 1.7704 4.3164 2.7416 9.2116 4.8845 13.343 0.83557 1.6102 2.7395 3.346 4.6646 2.3586 1.8426-0.94527 1.7734-3.0962 1.5368-4.8553-0.58109-4.3226-1.5643-8.573-1.9084-12.932 8.2701-0.58402 13.122 6.1026 18.318 11.68 2.0078 2.1555 3.7561 5.0104 6.7116 5.8402l-4.2879-12.515-2.3866-11.68c3.001-1.256 9.3518-7.3941 12.515-6.5001 4.711 1.3316 8.3102 14.459 14.159 11.373 2.4946-1.3158 1.2047-3.5458 0.0334-5.29-1.7446-2.5972-6.9903-8.8346-6.4221-12.096 0.42088-2.417 4.4694-5.2324 6.8305-5.1998 5.4084 0.0743 14.811 4.1912 17.938 8.5354l3.7544-0.41718c-0.56274-7.4683-11.755-10.875-13.356-18.354-0.15976-0.74505-0.13268-1.6444 0.0505-2.3845 1.1889-4.7944 4.0727-2.7006 7.0487-1.4125 0.92819 0.40171 2.9564 1.4317 3.7244 0.28323 0.84684-1.2661-0.65371-2.936-1.2039-3.9955-1.1234-2.1625-2.1538-4.6601-1.6862-7.0916 3.8975 1.0195 6.3028 3.3376 9.5946 5.5273 0.77843 0.51765 2.4959 1.8146 3.4783 1.0917 1.0332-0.76047-0.49228-2.2948-0.98367-2.8646-1.47-1.7045-5.9716-5.8206-5.5273-8.3056 0.29991-1.6774 3.1304-3.4745 4.2842-4.6263 3.8141-3.8082 8.1575-7.6886 11.263-12.098h0.41718c7.3687 8.5951 30.466 2.5676 27.532-10.429-1.8372 0.26283-3.5433 1.707-5.423 1.0592-8.2163-2.8325-6.2306-15.995-15.435-16.077-0.6783-8.5797-4.1257-17.156-8.2856-24.612-1.9072-3.419-5.8719-6.5469-7.2568-10.028-0.7676-1.9302-0.63702-4.99-0.72671-7.0754 4.8261-0.75174 2.4475-5.637 0.6904-8.3431-1.9577-3.0156-4.0289-6.5936-6.5694-9.1386-3.1212-3.1262-7.7695-5.164-7.3691-10.467 0.37253-4.9395 8.8838-4.3118 10.328-8.7607-2.5238 0.10842-5.0188 0.73378-7.5088 1.1484-6.1981 1.0325-7.2777-1.0525-4.3835-6.5714 2.5288-4.8219 6.5536-8.4808 10.104-12.515 1.1367-1.2907 4.6412-4.2321 2.8358-6.1018-1.4918-1.5451-3.955 0.81347-5.2194 1.652-4.605 3.0527-9.746 5.3087-15.018 6.9419-1.5697 0.48642-6.1994 2.2973-6.7237-0.48515-0.70792-3.7561 6.4029-4.4573 5.4722-8.6814-2.8446 0.67581-8.4345 5.1652-11.168 3.084-3.2888-2.5046 1.541-8.8984 2.0574-11.844 0.52311-2.9835-1.8763-3.0932-3.565-1.2273-0.59153 0.65369-1.128 1.3687-1.6732 2.0612-0.94316 1.1981-1.7254 2.3603-2.3377 3.7544-6.8322-3.9889 6.0942-8.6235 3.6614-12.315-0.86685-1.3158-2.4662 0.0012-3.2442 0.68222-1.6219 1.4196-7.7186 8.4449-9.0448 3.288-1.4672-5.7035 1.4946-12.555 3.029-17.936 0.40049-1.4053 2.2097-5.1969 0.45426-6.2065-2.5618-1.4734-3.6847 3.4973-4.285 4.955-1.8484 4.4882-4.9032 8.3904-8.5083 11.608-1.1876 1.0599-3.2021 3.117-4.9813 2.6272-2.5822-0.71092-2.5918-7.8734-2.5109-10.064 0.0388-1.0428 0.62491-2.8418-0.3938-3.5973-1.3286-0.98545-2.0228 0.99154-2.2205 1.9306-0.6458 3.0714-2.5518 11.845-7.1046 6.0926-4.1194-5.2059 2.2514-16.004-6.1497-18.192l-4.5887 14.6c-5.499-1.2003-4.2788-9.0627-2.9201-13.349l-2.503-0.83431c-0.3938 1.7019-0.954 3.36-1.5401 5.0059-2.2226 6.2396-5.194 7.4548-7.488 0.41716-1.7508-5.3713-1.1301-11.166-2.0011-16.686-0.34749-2.2013-0.55356-4.4342-2.737-5.423z"/>
		<path d="m389.04 30.214c-0.24614 11.919-3.8454 20.849-17.103 20.858l4.5887 18.772c-4.9783-5.2174-6.7938-12.52-9.0386-19.189-1.425-4.2332-3.2392-8.4873-3.8933-12.932h-0.41718c0.15562 7.5308 1.7433 15.003 0.22989 22.526-0.83225 4.1357-3.1633 7.3503-4.4014 11.263h-0.41712l2.5029-18.355c-9.313 0.73612-17.353 2.1472-23.455-6.6745-1.3257-1.9167-2.3494-4.1113-3.243-6.2573h-0.41712c1.0454 6.9801 7.2614 15.125-0.0376 20.98-1.1146 0.89397-2.4016 1.4429-3.7169 1.964l6.5944 9.9955 3.8345 5.0222c-10.554-6.9894-16.832-19.162-22.109-30.452h-0.41712c1.3458 8.9848 6.8063 17.107 8.165 26.281 0.47178 3.1875 1.7061 7.6965-1.0734 10.012l-3.3373-15.852c-4.859 2.5209-8.5984 10.099-15.018 9.0293-2.7302-0.45509-4.9399-2.6656-7.5088-3.6063 1.2093 3.8216 4.557 7.4354 2.6477 11.68-0.70626 1.5706-2.085 2.7745-3.0649 4.1716l13.349 5.0059c-2.4358 2.9147-7.5071 0.62613-10.429-0.74339-5.5386-2.596-10.467-6.0262-15.435-9.5641-2.8229-2.0107-6.1447-4.8774-9.5946-5.5444 2.1246 4.5557 7.5781 8.417 11.263 11.751 3.0469 2.7566 5.3229 5.9436 7.8926 9.1065 2.5309 3.1153 5.8385 6.6307 4.6221 10.846-4.4369-4.4736-8.3114-7.7257-15.018-6.1593-2.4342 0.56815-4.4874 1.9981-7.0917 1.9339-4.6379-0.11428-9.1174-2.4766-13.349-4.1177 2.4566 5.2678 8.9317 8.1045 10.313 14.183 1.015 4.4665-2.2059 10.166-2.8037 14.6l14.183 2.0858v0.8343c-12.163 3.218-20.733-3.462-32.121-5.423v0.41712c7.6811 3.6339 16.387 9.7715 21.863 16.269 1.992 2.3632 4.4344 5.1073 4.4177 8.3431-2.2414-1.8159-6.476-6.559-9.5942-6.0809-2.4883 0.38132-3.311 3.1428-3.6401 5.2466-0.88851 5.6784-0.94902 11.776-0.94902 17.521-2.3894-2.087-2.0858-4.9938-2.0858-7.9259-2.968 1.9548-6.1747 4.4072-10.012 3.638-3.8812-0.77838-7.7474-5.5586-10.429-8.2263-5.2978-5.2704-11.171-10.468-18.772-11.504-3.9644-0.53975-15.97 0.0176-10.604 6.0722 0.55328 0.62408 1.1076 1.2728 1.8602 1.6648 2.8247 1.4726 8.8528-0.40546 12.081-0.40546v0.41718l-10.429 2.0858c4.19 8.7816 13.263 0.90896 18.355 6.2573-3.4787-1.0283-9.4531-1.0283-12.932 0l5.8283 7.5088 2.6774 3.5029 9.8492 1.0858v0.41713h-8.7603c0.5174 4.5942 5.8305 3.3431 9.1774 2.9201v0.41718l-7.0916 1.2515c1.114 2.5851 3.836 10.252 6.42 11.427 2.0224 0.91941 4.834-0.85729 6.5118-1.8326-2.3031 4.1986-6.4192 2.5063-4.1716 8.3431l6.6745-3.3372c-1.4876 1.6774-3.9884 3.004-4.9925 5.0122-1.1589 2.3169 0.79844 6.5155 1.6553 8.754l6.6745-5.0059-6.352 7.1304 0.51185 7.47c5.592-2.3286 10.123-6.4613 12.508-12.098 0.98987-2.3382 1.0929-5.2649 2.2726-7.4533 0.86227-1.5994 3.3548-1.3416 3.8566-3.0707 0.96074-3.3085-1.0834-5.9958 0.55147-9.4995h0.41718l1.2515 6.6745c4.2137-1.1835 6.7245-7.8096 7.926-11.68h0.83435c1.1634 5.3525-3.6806 8.8195-5.423 13.349 2.9447 0.68166 8.2409 2.1108 7.926 5.8402l-10.429-3.7544 7.926 17.521h0.41713c3.8162-5.7672 7.5038-14.94 12.932-19.189 1.8956 6.1535-4.6726 11.155-7.0916 16.269 3.5771-0.97826 10.063-5.7814 13.349-3.7544-4.5971 1.9139-8.6814 4.6722-12.059 8.3431-1.1101 1.2073-3.1429 3.2342-3.1187 5.0059 0.025 1.8121 2.2527 4.0047 3.2567 5.423 3.6455 5.1494 8.0528 10.569 13.589 13.766 2.266-4.3067 4.1807-8.6135 5.37-13.349 0.54605-2.1734 0.45846-5.101 2.5559-6.2573 2.0416 11.509-6.1902 24.196-8.7603 35.041 7.8417-6.6507 12.578-17.405 22.526-21.692-0.22862 5.363-8.8504 8.2018-9.3122 14.177-0.16186 2.0962 2.4441 3.1879 3.8887 4.1882 4.0456 2.8024 7.4691 5.9178 12.098 7.7896 1.6648 0.67327 3.238 2.0887 4.7852 0.47349 2.8116-2.9359 3.0532-8.6431 2.6047-12.445-0.28449-2.4078-1.2852-6.0896 0.53605-7.9259l2.9038 17.103-1.6524 20.024h0.41718c3.8996-9.9108 7.3553-20.683 15.018-28.367 0.0454 5.2274-5.8686 12.579-7.926 17.521 7.8229 3.6584 16.99 5.8686 25.447 7.5088 0.66205-5.2399 0.4689-10.304-0.89896-15.435-0.61281-2.2981-2.6239-5.37-1.1868-7.5088 5.174 11.134 10.838 22.427 10.846 35.041h0.41712c5e-3 -7.6494 1.3387-15.453 2.8367-22.944 0.27366-1.3687 0.66785-7.0053 2.6009-7.0053 2.11 0 1.2832 3.3773 1.0746 4.5024-0.94903 5.121-2.1016 10.269-2.7578 15.435l17.938-0.44846 6.2457-1.1126-0.1669-6.365-8.5817-15.018c3.2634-0.74499 6.4876 5.0643 8.0036 7.5088 5.524 8.9092 9.2458 20.265 11.603 30.452h0.41713c-1.09-13.789-4.6834-26.512-2.9201-40.464 4.0598 1.6302 1.8726 11.903 2.3853 15.852 0.16518 1.271-0.0254 4.5908 1.5013 5.0943 1.4279 0.471 3.9296-0.75837 5.2908-1.2022 4.9091-1.6002 9.4978-3.9083 14.183-6.0521 1.7896-0.81889 4.3276-1.8192 4.4557-4.099 0.45216-8.0353-6.7767-10.319-11.547-14.599 4.2099-0.43757 7.2831 2.324 10.429 4.766 4.698 3.6468 9.3264 7.7871 13.166 12.337 2.2122 2.6218 3.8512 6.1401 6.4405 8.3431-1.4275-4.4798-4.8682-8.6885-6.9886-12.932-4.1094-8.2242-7.284-17.134-8.4462-26.281h0.41718l7.9259 20.858c4.3084-1.4646 7.805-6.5827 10.591-10.012 1.2531-1.5422 2.8054-2.9614 2.7578-5.0059 7.0036-2.5188-1.9765-8.0761-3.3373-10.429 4.8502-0.7288 9.2133 3.9642 13.766 5.0059-2.0295-4.3476-5.559-10.029-4.5887-15.018h0.8343l2.9201 8.3431c7.3078-6.7562 15.96-13.689 21.401-22.109 7.6827-11.891 7.6335-26.929 2.2589-39.63-1.4713-3.477-2.8734-8.4082-5.4672-11.202-3.6918-3.975-6.8868 2.7149-7.3461 5.7785 1.8142 0.27194 3.4733 0.88227 5.0042 1.9185 5.6571 3.829 5.9483 10.54 3.5671 16.436-1.0095 2.5-2.8792 4.7339-3.0594 7.5088-0.2232 3.4374 1.626 6.7029 2.2201 10.012 0.98655 5.4927-1.7016 11.34-5.6466 14.979-3.6593 3.3756-8.7886 5.2374-13.766 4.5019-2.3014-0.33998-4.7505-2.513-7.09-1.6486-3.6697 1.3558-4.3827 6.9086-6.6762 9.7002-1.035-6.2719 3.726-9.8833 4.7205-15.435 0.51732-2.8867-1.5969-7.6669-2.4971-10.429-0.71206-2.185-1.8121-8.3323-5.1389-7.0795-2.148 0.80844-3.2276 3.248-4.487 4.9938-2.9714 4.119-5.6737 9.1633-10.952 10.429 1.9393-5.0059 7.198-9.1958 10.14-13.766 5.8373-9.0673 12.027-24.396 4.2976-34.206-2.329-2.9559-6.0671-5.0451-9.4319-6.6248-4.6292-2.1738-9.7227-2.8504-14.6-4.2216v-0.8343l5.8402-0.83436-1.2515-9.1774-3.7544 1.2515c0.0421-15.273 15.328-23.605 25.864-31.704l-1.926 5.423 5.2002 7.9259 10.492 16.269-4.1716-0.41718c0.80474 5.975 2.2322 11.573 0.12562 17.521-1.3541 3.8228-4.6847 7.009-5.6934 10.846-0.50891 1.9347 0.41801 3.8954 0.42011 5.8402 3e-3 2.7124-0.92902 5.3183-1.5268 7.926 7.4717-3.5554 8.9004-14.457 16.686-17.103-0.63535-3.6918-2.2038-7.0249-2.4658-10.846-0.56484-8.2434 1.0642-16.392-0.22028-24.612-1.4054-8.996-5.3216-17.055-8.5771-25.447l3.7544 1.6687c0.86475-5.7697 5.6191-8.8888 8.7603-13.349-4.8228 1.755-12.231 7.7345-17.521 4.585-3.6484-2.1722-4.9729-6.9528-8.7602-8.7565l-5.0059 20.023h-0.41712c-2.201-9.245 2.5254-17.991 4.5887-26.698-6.3566 5.1419-10.796 11.631-19.606 12.932l12.098-8.7974 2.7758-4.0619-3.6101-3.1187-9.1774-6.5485 4.1716 0.83431 1.6686-13.349h-0.41713c-0.94781 1.6634-2.0712 3.1817-3.3748 4.5887-1.7241 1.8604-3.9864 4.8386-6.4601 5.6888-4.8524 1.6682-11.555-3.9827-16.029-5.2716v19.189c-4.2616-0.71206-3.7081-5.015-3.7527-8.7603-0.0989-8.2462-0.35583-16.36-2e-3 -24.612h-0.41717c-1.2486 9.2742-4.2888 22.49-13.349 27.115 2.593-4.1636 5.0592-7.7207 6.433-12.515 0.40502-1.4127 1.5914-3.8268 0.10262-4.9476-4.2041-3.1653-10.652-0.46067-14.106-5.4877-3.3944-4.9411-1.1668-11.236-3.2759-16.263z" fill="#faec84"/>
		<path d="m363.6 38.974 0.41718 0.41716zm-0.41718 1.2515 0.41718 0.41716z" fill="#0f0d06"/>
		<path d="m413.24 41.894 0.41717 0.41716z" fill="#0e0b05"/>
		<path d="m386.96 42.728 0.41712 0.41716z" fill="#0f0d06"/>
		<path d="m412.82 43.563 0.41718 0.41716z" fill="#0d0b05"/>
		<path d="m386.54 43.98 0.41718 0.41716z" fill="#0f0d06"/>
		<path d="m317.71 47.317 0.41718 0.41716z" fill="#fff"/>
		<path d="m384.45 47.317 0.41718 0.41716zm-0.41712 0.41716 0.41712 0.41716zm9.5946 0.41716 0.41713 0.41716zm-57.15 0.41716 0.41712 0.41716zm57.985 0 0.41712 0.41716zm-75.505 0.41716 0.41718 0.41716zm20.441 0 0.41712 0.41716zm55.899 0 0.41717 0.41716z" fill="#0f0d06"/>
		<path d="m340.65 50.237 0.41712 0.41716zm37.544 0 0.41718 0.41716z" fill="#0f0e07"/>
		<path d="m444.11 50.237 0.41718 0.41716z" fill="#0d0b05"/>
		<path d="m443.83 50.932 0.13931 0.27808z" fill="#fff"/>
		<path d="m318.96 51.071 0.41718 0.41716zm85.517 0 0.41718 0.41716z" fill="#0f0d06"/>
		<path d="m337.31 52.74 0.41712 0.41716z" fill="#0f0e07"/>
		<path d="m443.27 52.74 0.41713 0.41716z" fill="#0e0b05"/>
		<path d="m321.05 56.494 0.41718 0.41716zm2.0858 0 0.41718 0.41716zm0.41718 0.83432 0.41712 0.41716z" fill="#0f0e07"/>
		<path d="m385.29 58.997-6.6745 30.035c5.1414-3.1337 6.2281-14.557 6.6745-20.024h0.41718c0.89354 4.8094 1.3274 9.628 3.2843 14.183 0.77511 1.8047 1.6265 4.207 3.8074 4.1716l-5.3408-18.772z"/>
		<path d="m370.27 59.415 0.41712 0.41716zm-35.458 0.83431 0.41718 0.41716zm-2.0858 1.6686 0.41718 0.41716zm-2.0858 0.83431 0.41718 0.41716zm53.396 1.2515 0.41712 0.41716z" fill="#0f0e07"/>
		<path d="m344.41 64.42c0.0884 10.666 5.363 20.376 3.3373 31.287 2.0011-1.224 2.0583-4.0823 2.0841-6.2574 0.0601-5.0471-0.81888-9.9942-0.83264-15.018h0.41712c1.4526 5.0417 5.3934 15.067 11.263 15.852-0.7046-2.7103-2.9222-4.761-4.4069-7.0917-3.2988-5.1786-6.5289-15.627-11.862-18.772z"/>
		<path d="m327.72 64.838 0.41712 0.41716z" fill="#0f0e07"/>
		<path d="m345.24 64.838 0.41718 0.41716z" fill="#0f0e08"/>
		<path d="m402.39 65.255 0.41718 0.41716z" fill="#0f0d06"/>
		<path d="m383.62 66.089 0.41718 0.41716zm20.441 0 0.41713 0.41716z" fill="#0f0e07"/>
		<path d="m439.52 66.089 0.41717 0.41716z" fill="#0f0d06"/>
		<path d="m403.64 66.506 0.41717 0.41716zm-2.503 0.41716 0.41718 0.41716zm2.0858 0 0.41713 0.41716z" fill="#0f0e07"/>
		<path d="m346.91 67.341 0.41712 0.41716zm27.532 0.41716 0.41712 0.41716z" fill="#0f0e08"/>
		<path d="m442.02 67.758 0.41718 0.41716z" fill="#0d0b05"/>
		<path d="m401.14 68.592 0.41718 0.41716z" fill="#0f0e07"/>
		<path d="m429.92 69.009c-4.6379 7.2835-10.167 17.221-17.103 22.526v0.41718c5.26-0.9382 10.944-7.5851 12.515-12.515h0.41713c-0.0613 7.4204-3.4724 15.288-0.41713 22.526h0.41713c2.2197-7.5093 1.0638-16.368 2.9743-24.195 0.59905-2.4549 2.8075-6.5464 1.1972-8.7603z"/>
		<path d="m322.3 69.844 0.41712 0.41716z" fill="#0f0e07"/>
		<path d="m348.58 70.261 0.41718 0.41716zm-22.944 0.83431 0.41712 0.41716zm-2.9201 0.41716 0.41718 0.41716zm9.5946 0 0.41718 0.41716zm55.482 0 0.41718 0.41716zm-3.3373 0.83431 0.41718 0.41716z" fill="#0f0e08"/>
		<path d="m429.92 72.346 0.41717 0.41716z" fill="#0f0d06"/>
		<path d="m455.37 72.764 0.41718 0.41717zm-156.43 0.41717 0.41718 0.41712z" fill="#fff"/>
		<path d="m350.25 73.181 0.41712 0.41712z" fill="#0f0e08"/>
		<path d="m455.37 73.181 0.41718 0.41712z" fill="#0e0b05"/>
		<path d="m426.59 74.015 0.41718 0.41718z" fill="#0f0e07"/>
		<path d="m335.65 74.849 0.41718 0.41718z" fill="#0f0e08"/>
		<path d="m414.07 74.849 0.41717 0.41718z" fill="#0f0e07"/>
		<path d="m339.4 75.684 0.41712 0.41718z" fill="#0e0d08"/>
		<path d="m339.82 76.101 0.41718 0.41718z" fill="#0f0e08"/>
		<path d="m424.92 76.101 0.41717 0.41718z" fill="#0f0e07"/>
		<path d="m340.23 76.518 0.41718 0.41712z" fill="#010101"/>
		<path d="m306.03 76.935 0.41718 0.41718z" fill="#0f0e07"/>
		<path d="m452.03 76.935 0.41717 0.41718zm-0.41713 0.41718 0.41713 0.41712zm-174.37 0.8343 0.41717 0.41718z" fill="#0f0d06"/>
		<path d="m301.44 78.187 0.41712 0.41718z" fill="#0f0e07"/>
		<path d="m351.08 78.604 0.41712 0.41712z" fill="#0e0d08"/>
		<path d="m425.75 79.021 0.41717 0.41718z" fill="#0f0e07"/>
		<path d="m445.78 79.021 0.41717 0.41718z" fill="#0f0d06"/>
		<path d="m449.95 79.021 0.41717 0.41718z" fill="#0e0b05"/>
		<path d="m425.33 79.438 0.41713 0.41718z" fill="#0f0e07"/>
		<path d="m347.33 81.107 0.41718 0.41718z" fill="#0e0d08"/>
		<path d="m452.45 81.524 0.41718 0.41718z" fill="#0f0d06"/>
		<path d="m349.41 82.358 0.41718 0.41718z" fill="#0e0d08"/>
		<path d="m440.35 82.775 0.41717 0.41712z" fill="#0e0b05"/>
		<path d="m356.09 83.192 0.41718 0.41718z" fill="#0e0d08"/>
		<path d="m459.96 84.027 0.41718 0.41712z" fill="#0f0d06"/>
		<path d="m482.49 84.027 0.41712 0.41712z" fill="#fff"/>
		<path d="m356.92 84.444 0.41718 0.41718z" fill="#0e0d08"/>
		<path d="m422 84.444 0.41713 0.41718z" fill="#0f0e07"/>
		<path d="m482.49 84.444 0.41712 0.41718z" fill="#0e0b05"/>
		<path d="m480.82 84.861 0.41718 0.41712zm1.2515 0 0.41718 0.41712z" fill="#0d0b05"/>
		<path d="m421.16 85.278 0.41713 0.41718z" fill="#0f0e07"/>
		<path d="m481.65 85.278 0.41712 0.41718z" fill="#0e0b05"/>
		<path d="m354.84 85.695 0.41718 0.41718z" fill="#0e0d08"/>
		<path d="m402.39 85.695c-2.4629 5.5565-3.6651 10.718-8.7602 14.6v0.8343c3.6618 0.96406 6.2131-3.6313 7.0916-6.6745h0.41712c0.36214 2.8033 0.70294 8.6314 3.7544 9.5946l-2.0483-9.5946z"/>
		<path d="m461.21 85.695 0.41712 0.41718z" fill="#0f0d06"/>
		<path d="m481.23 85.695 0.41718 0.41718z" fill="#0d0b05"/>
		<path d="m313.12 86.113c0.90145 10.261 14.702 17.196 12.932 28.367 2.2189-1.2965 1.6357-3.7144 0.89067-5.8402-1.5406-4.3964-4.1178-8.2426-5.8965-12.515 3.9918 3.6435 9.8899 7.7629 15.435 5.423l-8.7541-3.6272z"/>
		<path d="m480.82 86.113 0.41718 0.41712z" fill="#0e0b05"/>
		<path d="m480.4 86.53 0.41712 0.41718z" fill="#0d0b05"/>
		<path d="m454.12 86.947 0.41712 0.41712z" fill="#0f0d06"/>
		<path d="m476.64 86.947 0.41718 0.41712z" fill="#0d0b05"/>
		<path d="m479.98 86.947 0.41718 0.41712z" fill="#0e0b05"/>
		<path d="m356.09 87.364 0.41718 0.41718z" fill="#0e0d08"/>
		<path d="m419.49 87.364 0.41717 0.41718z" fill="#0f0e07"/>
		<path d="m479.56 87.364 0.41718 0.41718z" fill="#0d0b05"/>
		<path d="m313.12 87.781 0.41712 0.41718zm105.96 0 0.41713 0.41718z" fill="#0f0e08"/>
		<path d="m479.15 87.781 0.41712 0.41718z" fill="#0e0b05"/>
		<path d="m316.04 88.198 0.41712 0.41712z" fill="#0f0e07"/>
		<path d="m478.73 88.198 0.41718 0.41712z" fill="#0d0b05"/>
		<path d="m292.68 88.616 0.41713 0.41718z" fill="#0f0e07"/>
		<path d="m418.24 88.616 0.41718 0.41718zm-0.41713 0.41718 0.41713 0.41712z" fill="#0f0e08"/>
		<path d="m287.26 89.45 0.41718 0.41718z" fill="#0f0e07"/>
		<path d="m358.17 89.45 0.41718 0.41718z" fill="#0e0d08"/>
		<path d="m370.69 89.45c-1.2619 4.1524-4.8031 12.259-3.3373 16.269h0.83436l2.9201-10.012h0.41712c1.0308 3.7761 2.1104 9.5032 6.6745 10.012l-6.6745-16.269z"/>
		<path d="m287.67 89.867 0.41712 0.41718z" fill="#0f0e08"/>
		<path d="m477.06 89.867 0.41712 0.41718z" fill="#0d0b05"/>
		<path d="m288.09 90.284 0.41718 0.41712z" fill="#0f0e07"/>
		<path d="m301.44 90.284 0.41712 0.41712zm112.63 0 0.41717 0.41712z" fill="#0f0e08"/>
		<path d="m288.51 90.701 0.41713 0.41718z" fill="#0f0e07"/>
		<path d="m296.02 90.701 0.41712 0.41718z" fill="#0f0e08"/>
		<path d="m400.31 90.701 0.41718 0.41718zm2.503 0 0.41717 0.41718z" fill="#0e0d08"/>
		<path d="m413.65 90.701 0.41713 0.41718z" fill="#0f0e08"/>
		<path d="m288.92 91.118 0.41717 0.41712z" fill="#0f0e07"/>
		<path d="m413.24 91.118 0.41717 0.41712zm-93.026 0.8343 0.41712 0.41718z" fill="#0e0d08"/>
		<path d="m424.08 91.953 0.41713 0.41718z" fill="#0f0e08"/>
		<path d="m316.04 93.204 0.41712 0.41718zm83.014 0.41718 0.41718 0.41712z" fill="#0e0d08"/>
		<path d="m302.69 94.039 0.41718 0.41718zm-10.429 0.41718 0.41718 0.41712z" fill="#0f0e08"/>
		<path d="m323.13 94.456 0.41718 0.41712zm24.612 0 0.41712 0.41712z" fill="#0e0d08"/>
		<path d="m452.45 94.456 0.41718 0.41712z" fill="#0f0d06"/>
		<path d="m348.58 95.29 0.41718 0.41718zm22.526 0.41718 0.41712 0.41712zm30.035 0 0.41718 0.41712zm-82.18 1.6686 0.41718 0.41718z" fill="#0e0d08"/>
		<path d="m472.89 97.376 0.41712 0.41718z" fill="#0d0b05"/>
		<path d="m324.38 98.627 0.41718 0.41712z" fill="#0e0d08"/>
		<path d="m470.8 98.627 0.41712 0.41712z" fill="#0d0b05"/>
		<path d="m320.21 99.044 0.41712 0.41718zm77.174 0.41718 0.41717 0.41718z" fill="#0e0d08"/>
		<path d="m342.74 99.879 2.0858 17.521h0.8343l-0.41718-12.515c2.7203 1.8939 6.4009 6.5631 10.012 5.0059-1.3937-1.5093-3.4119-1.7742-5.0042-3.0632-2.5889-2.0958-3.9543-6.6683-7.5105-6.9486z"/>
		<path d="m323.13 100.71 0.41718 0.41712zm70.499 0.41712 0.41713 0.41718zm-71.751 0.41718 0.41718 0.41718zm45.053 0 0.41712 0.41718z" fill="#0e0d08"/>
		<path d="m424.92 101.55 0.41717 0.41718zm0.8343 0 0.41717 0.41718z" fill="#0f0e08"/>
		<path d="m434.51 102.38c-4.4002 4.4127-8.0757 7.4433-14.183 9.1775v0.8343c3.613 1.0379 7.1076-0.96654 10.012-2.9201-0.47514 2.4491-3.5984 8.8608-1.2515 10.429l4.0064-12.098z"/>
		<path d="m346.49 102.8 0.41718 0.41712zm-47.556 0.41712 0.41718 0.41718zm67.162 0 0.41712 0.41718zm38.796 0 0.41717 0.41718z" fill="#0e0d08"/>
		<path d="m433.26 103.22 0.41717 0.41718z" fill="#0f0d06"/>
		<path d="m270.57 104.05 0.41713 0.41712z" fill="#0f0e07"/>
		<path d="m376.94 104.05 0.41718 0.41712z" fill="#0e0d08"/>
		<path d="m293.1 104.47 0.41717 0.41718z" fill="#0f0e08"/>
		<path d="m473.31 104.47 0.41718 0.41718z" fill="#0d0b05"/>
		<path d="m323.55 104.88 0.41712 0.41712zm1.6686 0 0.41718 0.41712zm42.967 0 0.41712 0.41712zm-72.585 0.41712 0.41718 0.41718z" fill="#0e0d08"/>
		<path d="m430.76 106.14 0.41713 0.41712zm2.5029 0.41712 0.41717 0.41718z" fill="#0f0e08"/>
		<path d="m459.54 106.55 0.41718 0.41718z" fill="#0f0d06"/>
		<path d="m269.32 106.97 0.41713 0.41718z" fill="#010101"/>
		<path d="m348.58 107.39 0.41718 0.41712zm-22.109 0.41712 0.41718 0.41718zm25.029 0 0.41718 0.41718z" fill="#0e0d08"/>
		<path d="m270.57 108.22 0.41713 0.41712z" fill="#0f0e07"/>
		<path d="m427.84 108.22 0.41717 0.41712z" fill="#0f0e08"/>
		<path d="m350.25 108.64 0.41712 0.41718zm4.5887 0.41718 0.41718 0.41718z" fill="#0e0d08"/>
		<path d="m429.51 109.47 0.41713 0.41712z" fill="#0f0e08"/>
		<path d="m352.33 109.89 0.41712 0.41718zm0.8343 0.41718 0.41712 0.41712zm70.499 0 0.41717 0.41712z" fill="#0e0d08"/>
		<path d="m450.36 110.31 0.41718 0.41712zm-177.71 0.41712 0.41713 0.41718z" fill="#0f0e07"/>
		<path d="m439.1 129.5c9.5445-2.2985 19.981-3.6568 29.618-1.6687-1.4354-4.9833-5.1561-9.0765-8.4562-12.932-1.1284-1.3182-2.5663-3.7569-4.4773-3.9016-2.2631-0.17187-4.2383 2.0107-5.8386 3.2718-4.6859 3.6918-8.7244 9.6242-10.846 15.23z" fill="#faec84"/>
		<path d="m426.17 111.56 0.41713 0.41712z" fill="#0e0d08"/>
		<path d="m448.7 111.56 0.41712 0.41712z" fill="#0f0e07"/>
		<path d="m363.18 111.98-2.5029 12.932c2.0937-1.5869 2.5797-6.6507 2.9201-9.1774l3.7544 4.1716c-0.4384-2.812-2.0808-5.9946-4.1716-7.926z"/>
		<path d="m420.33 112.39 0.41718 0.41712z" fill="#0e0d08"/>
		<path d="m429.51 112.39 0.41713 0.41712zm28.784 0.41712 0.41712 0.41718z" fill="#0f0e08"/>
		<path d="m404.06 113.23-7.926 7.926 7.5088-5.423 1.2515 7.5088c1.4588-2.1384 0.69415-7.9969-0.83431-10.012m-88.437 1.2515v0.41712c3.5162 3.5479 6.4092 8.4349 8.6043 12.932 1.2085 2.4758 0.86558 5.2049 3.4933 6.6745-0.20945-4.8774-2.2948-8.5755-4.1716-12.932 2.9547 1.7245 6.9156 4.3009 10.429 3.3373v-0.8343c-4.7339-2.1041-8.399-3.8941-12.515-7.1722-1.7538-1.3966-3.5479-3.2025-5.8402-2.4224z"/>
		<path d="m449.95 114.06 0.41717 0.41718zm-84.683 0.8343 0.41718 0.41718zm-49.224 0.41718 0.41712 0.41718zm49.642 0.41718 0.41718 0.41712z" fill="#0e0d08"/>
		<path d="m460.79 115.73 0.41718 0.41712z" fill="#0f0e08"/>
		<path d="m364.43 116.15 0.41718 0.41718z" fill="#0e0d08"/>
		<path d="m444.11 116.15 0.41718 0.41718z" fill="#0f0e08"/>
		<path d="m464.96 116.15 0.41718 0.41718z" fill="#0f0d06"/>
		<path d="m275.58 116.57 0.41718 0.41712z" fill="#0f0e08"/>
		<path d="m400.31 116.57 0.41718 0.41712zm3.3373 0 0.41717 0.41712zm24.612 0 0.41718 0.41712zm-106.79 0.41712 0.41712 0.41718zm41.716 0 0.41718 0.41718z" fill="#0e0d08"/>
		<path d="m477.48 116.98 0.41718 0.41718z" fill="#0f0d06"/>
		<path d="m446.19 117.4 0.41718 0.41718z" fill="#0f0e08"/>
		<path d="m400.72 117.82 0.41712 0.41712z" fill="#0e0d08"/>
		<path d="m287.67 118.23c0.3917 3.5179 3.2709 4.8311 5.8402 6.7742 3.5258 2.6665 6.8022 5.554 9.4962 9.0777 1.7545 2.2952 2.8362 6.2632 5.1043 7.926-0.48808-6.1334-4.1069-13.352-10.012-15.852v-0.41718c6.0045 1.1643 11.983 3.3965 17.938 0.8343v-0.8343l-7.0917-0.27908z"/>
		<path d="m318.54 118.23 0.41718 0.41718zm79.26 0.41718 0.41713 0.41718zm31.287 0 0.41717 0.41718zm-105.12 0.41718 0.41718 0.41712zm73.42 0 0.41717 0.41712z" fill="#0e0d08"/>
		<path d="m467.05 119.07 0.41718 0.41712z" fill="#0f0d06"/>
		<path d="m441.19 119.49 0.41713 0.41718z" fill="#0f0e08"/>
		<path d="m481.65 119.49 0.8343 10.012 9.1774 1.2514c-1.5364-4.0522-5.919-9.6768-10.012-11.263z" fill="#faec84"/>
		<path d="m367.35 119.9 0.41718 0.41712z" fill="#0e0d08"/>
		<path d="m380.7 119.9-3.7544 7.0916 4.1716-4.5887 2.503 4.1716z"/>
		<path d="m428.67 119.9 0.41713 0.41712z" fill="#0e0d08"/>
		<path d="m481.65 119.9 0.41712 0.41712z" fill="#0d0b05"/>
		<path d="m319.79 120.32 0.41718 0.41718zm5.8402 0 0.41712 0.41718z" fill="#0e0d08"/>
		<path d="m464.55 120.32 0.41712 0.41718z" fill="#0f0d06"/>
		<path d="m274.74 120.74 0.41713 0.41718z" fill="#0f0e08"/>
		<path d="m379.45 121.15 0.41718 0.41712zm-51.727 0.41712 0.41712 0.41718zm-2.503 0.8343 0.41718 0.41718zm80.094 0 0.41713 0.41718zm80.094 0 0.41718 0.41718zm-104.29 0.41718 0.41718 0.41718zm104.71 0 0.41712 0.41718zm-184.8 0.41718 0.41718 0.41712zm185.22 0 0.41718 0.41712zm-194.39 0.41712 0.41712 0.41718zm90.94 0 0.41712 0.41718z" fill="#0e0d08"/>
		<path d="m273.91 124.49 0.41713 0.41718z" fill="#0f0e08"/>
		<path d="m293.1 124.49 0.41717 0.41718z" fill="#0e0d08"/>
		<path d="m441.6 124.49 0.41717 0.41718z" fill="#0d0b05"/>
		<path d="m361.09 124.91 0.41718 0.41718zm17.521 0.41718 0.41712 0.41712z" fill="#0e0d08"/>
		<path d="m273.49 126.16 0.41718 0.41712z" fill="#0f0e08"/>
		<path d="m301.02 126.16 0.41718 0.41712zm24.612 0 0.41712 0.41712zm-2.0858 0.41712 0.41712 0.41718z" fill="#0e0d08"/>
		<path d="m440.35 126.58 0.41717 0.41718z" fill="#0d0b05"/>
		<path d="m458.29 126.58 0.41712 0.41718z" fill="#0f0e08"/>
		<path d="m465.8 126.99 0.41718 0.41718z" fill="#0d0b05"/>
		<path d="m297.27 127.83 0.41712 0.41718zm27.115 0.41718 0.41718 0.41712z" fill="#0e0d08"/>
		<path d="m490.83 129.08 0.41712 0.41718z" fill="#0d0b05"/>
		<path d="m420.75 129.91-7.0916 5.423 6.2573-3.3373-0.8343 5.0059c1.7742-1.2377 2.4358-5.1261 1.6686-7.0917z"/>
		<path d="m462.46 154.94c3.1641-1.5076 4.6792-5.1127 5.5336-8.3431 1.052-3.9759 2.4179-14.46-2.6314-16.435-2.7778-1.0862-7.4179 0.16562-10.411 0.16562-2.7103 0-8.4925-0.41342-10.595 1.6077-1.9394 1.8651-0.48935 8.898 0.93902 10.792 1.4834 1.9682 5.0138 2.3582 7.1525 3.361 4.2642 1.999 7.6949 4.6947 10.012 8.8513z" fill="#fff"/>
		<path d="m474.14 130.33 0.41712 0.41712z" fill="#0f0d06"/>
		<path d="m489.16 130.33 0.41718 0.41712zm2.503 0-0.41718 0.8343z" fill="#0d0b05"/>
		<path d="m466.63 130.75 0.41712 0.41718z" fill="#020202"/>
		<path d="m491.66 130.75 0.41718 0.41718z" fill="#fff"/>
		<path d="m275.58 131.17 0.41718 0.41718z" fill="#0f0e08"/>
		<path d="m418.24 131.17 0.41718 0.41718z" fill="#0e0d08"/>
		<path d="m264.31 131.58 0.41713 0.41712z" fill="#0f0e07"/>
		<path d="m443.69 131.58 0.41717 0.41712zm23.361 0 0.41718 0.41712zm-139.75 0.41712 0.41718 0.41718zm92.192 0 0.41717 0.41718z" fill="#0e0d08"/>
		<path d="m266.82 132.42 0.41717 0.41718z" fill="#0f0e08"/>
		<path d="m416.16 132.42 0.41717 0.41718z" fill="#0e0d08"/>
		<path d="m467.47 132.42 0.41718 0.41718z" fill="#020202"/>
		<path d="m481.65 132.42v3.7544c7.5639-2.7357 9.2779 8.3306 1.2514 7.926l1.6687 9.5946c5.5899-2.6085 8.1642-15.187 3.5738-19.891-1.3846-1.4188-4.6184-1.236-6.4939-1.3841z" fill="#fff"/>
		<path d="m261.81 132.83 0.41717 0.41712z" fill="#0f0e07"/>
		<path d="m305.19 133.25 0.41718 0.41718zm112.22 0 0.41717 0.41718zm20.858 0 0.41717 0.41718z" fill="#0e0d08"/>
		<path d="m467.88 133.25 0.41712 0.41718zm20.024 0 0.41712 0.41718z" fill="#020202"/>
		<path d="m263.06 133.67 0.41713 0.41712z" fill="#0f0e07"/>
		<path d="m437.43 133.67 0.41717 0.41712zm-110.55 0.41712 0.41712 0.41718z" fill="#0e0d08"/>
		<path d="m460.38 134.09c-0.85475 0.87857-2.1008 1.5168-2.7295 2.5918-4.4089 7.538 12.254 7.7336 7.5455-0.41801-0.53604-0.92775-1.4867-1.5326-2.3131-2.1738l-2.5029 1.2515z"/>
		<path d="m460.79 134.09v0.41718h1.6687z" fill="#020202"/>
		<path d="m468.3 134.09 0.41718 0.41718z" fill="#010101"/>
		<path d="m264.31 134.5 0.41713 0.41718z" fill="#0f0e07"/>
		<path d="m459.26 134.78 0.13937 0.2778z" fill="#020202"/>
		<path d="m459.82 134.64 0.27786 0.13932zm0.55611 0.27825v0.41712l2.0858-0.41712z" fill="#010101"/>
		<path d="m463.3 134.5 0.41712 0.41718z" fill="#020202"/>
		<path d="m458.71 134.92 0.41718 0.41712z" fill="#010101"/>
		<path d="m464.13 134.92 0.41718 0.41712z" fill="#050505"/>
		<path d="m265.56 135.34 0.41718 0.41718z" fill="#0f0e07"/>
		<path d="m458.29 135.34 0.41712 0.41718z" fill="#010101"/>
		<path d="m482.9 135.34 1.2515 0.8343v-0.41712z" fill="#020202"/>
		<path d="m483.32 135.34 0.41718 0.41718z" fill="#050505"/>
		<path d="m483.74 135.34 0.41712 0.41718z" fill="#010101"/>
		<path d="m484.57 135.34 0.41712 0.41718z" fill="#020202"/>
		<path d="m484.99 135.34 0.41718 0.41718z" fill="#010101"/>
		<path d="m306.45 135.75 0.41712 0.41712z" fill="#0e0d08"/>
		<path d="m372.77 135.75c0 2.1241-0.40961 4.2771 1.6687 5.423v-4.1716l5.0059 1.6686z"/>
		<path d="m373.61 135.75 0.41718 0.41712z" fill="#0e0d08"/>
		<path d="m482.07 135.75 0.41718 0.41712z" fill="#020202"/>
		<path d="m482.49 135.75 0.8343 0.8343v-0.8343zm2.0858 0 0.41712 0.41712z" fill="#010101"/>
		<path d="m374.86 136.17 0.41718 0.41718z" fill="#0e0d08"/>
		<path d="m457.46 136.17 0.41718 0.41718z" fill="#010101"/>
		<path d="m480.82 136.17 0.41718 0.41718z" fill="#0f0e08"/>
		<path d="m481.23 136.17 0.41718 0.41718z" fill="#050505"/>
		<path d="m398.22 141.59 2.0858-3.7544 2.503 1.6686c-1.8334-4.9066-4.56-1.3924-4.5887 2.0858z"/>
		<path d="m465.38 136.59 0.41712 0.41718zm15.435 0 0.41718 0.41718z" fill="#010101"/>
		<path d="m347.74 137.01c0.73709 2.6931 1.8935 4.9929 4.1716 6.6745l-2.503-5.423 5.0059 0.41718c-1.2924-2.344-4.3197-1.6686-6.6745-1.6686z"/>
		<path d="m353.58 137.01 0.41718 0.41712zm20.858 0 0.41712 0.41712z" fill="#0e0d08"/>
		<path d="m480.4 137.01 0.41712 0.41712z" fill="#fff"/>
		<path d="m268.48 137.42 0.41713 0.41718z" fill="#0f0e08"/>
		<path d="m401.56 137.42 0.41717 0.41718z" fill="#0e0d08"/>
		<path d="m479.98 137.42 0.41718 0.41718z" fill="#fff"/>
		<path d="m376.11 137.84 0.41718 0.41712z" fill="#0e0d08"/>
		<path d="m326.47 139.51 5.8402 7.0917-3.3372-5.8402 5.0059-0.8343-0.41718-1.6687z"/>
		<path d="m349.41 138.26 0.41718 0.41718z" fill="#0e0d08"/>
		<path d="m465.8 138.26 0.41718 0.41718z" fill="#050505"/>
		<path d="m479.56 138.26v1.2515h0.41718z" fill="#fff"/>
		<path d="m348.16 138.67 0.41718 0.41718z" fill="#0e0d08"/>
		<path d="m479.56 139.51 0.41718 0.41718z" fill="#050505"/>
		<path d="m307.7 139.93 0.41712 0.41712zm18.772 0 0.41718 0.41712z" fill="#0e0d08"/>
		<path d="m479.56 139.93v1.2515h0.41718z" fill="#fff"/>
		<path d="m465.1 140.62 0.13932 0.27786zm23.222-0.27825 0.41718 0.41718z" fill="#010101"/>
		<path d="m306.86 140.76 0.41718 0.41718zm66.328 0 0.41712 0.41718zm-100.12 0.41718 0.41717 0.41712zm76.34 0 0.41718 0.41712z" fill="#0e0d08"/>
		<path d="m457.87 141.18 0.41718 0.41712z" fill="#050505"/>
		<path d="m273.49 141.59 0.41718 0.41718z" fill="#0f0e08"/>
		<path d="m479.98 141.59 0.41718 0.41718z" fill="#fff"/>
		<path d="m463.71 142.01 0.41718 0.41712z" fill="#010101"/>
		<path d="m479.98 142.01 0.41718 0.41712z" fill="#050505"/>
		<path d="m459.54 142.43 0.41718 0.41718z" fill="#020202"/>
		<path d="m459.96 142.43 0.41718 0.41718zm2.7812 0.13893 0.2778 0.13932z" fill="#010101"/>
		<path d="m480.4 142.43 0.41712 0.41718z" fill="#fff"/>
		<path d="m487.21 142.71 0.13932 0.27786z" fill="#010101"/>
		<path d="m487.49 142.43 0.41718 0.41718z" fill="#050505"/>
		<path d="m274.74 142.85 0.41713 0.41718z" fill="#010101"/>
		<path d="m461.21 142.85 0.41712 0.41718z" fill="#050505"/>
		<path d="m480.82 142.85 0.41718 0.41718z" fill="#fff"/>
		<path d="m445.36 143.26 0.41713 0.41712z" fill="#010101"/>
		<path d="m481.23 143.26 0.41718 0.41712z" fill="#fff"/>
		<path d="m482.07 143.26 0.41718 0.41712z" fill="#010101"/>
		<path d="m284.34 151.19v0.8343l12.098 4.1716c-0.24608-3.1704-4.3459-4.1161-7.0916-4.5887l8.3431-7.5088c-4.4339-0.52019-9.7556 4.8824-13.349 7.0916z"/>
		<path d="m481.65 143.68 0.41712 0.41718z" fill="#050505"/>
		<path d="m482.07 143.68 0.41718 0.41718z" fill="#fff"/>
		<path d="m482.49 143.68 0.41712 0.41718z" fill="#020202"/>
		<path d="m484.15 143.68v0.41718h1.2515z" fill="#010101"/>
		<path d="m275.99 144.1 0.41713 0.41712z" fill="#0f0e08"/>
		<path d="m468.3 144.1 0.41718 0.41712zm15.852 0 0.41718 0.41712z" fill="#0e0d08"/>
		<path d="m448.7 144.51 0.41712 0.41718z" fill="#010101"/>
		<path d="m301.86 149.52v0.8343l9.1775 3.2976 5.423 3.794c-0.59357-4.4302-5.2946-5.1748-8.3431-7.5088 3.8754-0.73002 9.1349-0.79175 10.846-5.0059z"/>
		<path d="m440.77 145.35 0.41718 0.41712z" fill="#0e0d08"/>
		<path d="m450.78 145.35 0.41712 0.41712z" fill="#010101"/>
		<path d="m292.26 145.77 0.41718 0.41718zm23.361 0.41718 0.41718 0.41718zm2.503 0 0.41712 0.41718zm171.45 0 0.41718 0.41718zm-211.5 0.41718 0.41713 0.41712z" fill="#0e0d08"/>
		<path d="m489.58 146.6 0.41718 0.41712z" fill="#020202"/>
		<path d="m290.18 147.02 0.41718 0.41718zm27.115 0 0.41712 0.41718zm150.18 0.41718 0.41718 0.41712zm15.852 0 0.41718 0.41712zm-194.39 0.41712 0.41717 0.41718z" fill="#0e0d08"/>
		<path d="m471.64 147.85 0.41718 0.41718zm-238.2 0.83436 0.41716 0.41712z" fill="#0f0d06"/>
		<path d="m483.32 148.69 0.41718 0.41712z" fill="#010101"/>
		<path d="m276.41 149.52 0.41717 0.41712z" fill="#0e0d08"/>
		<path d="m360.68 152.44 1.2514-2.9201c-1.7754 0.28322-3.1733 1.6553-1.2514 2.9201z"/>
		<path d="m286 149.94 0.41718 0.41718z" fill="#0e0d08"/>
		<path d="m235.95 150.35 0.41716 0.41718z" fill="#0f0d06"/>
		<path d="m453.28 150.35 0.41718 0.41718z" fill="#0f0e08"/>
		<path d="m308.95 150.77 0.41718 0.41712z" fill="#0e0d08"/>
		<path d="m483.74 150.77 0.41712 0.41712z" fill="#010101"/>
		<path d="m277.66 151.19 0.41718 0.41718z" fill="#0e0d08"/>
		<path d="m454.54 151.19 0.41718 0.41718z" fill="#0f0e07"/>
		<path d="m465.8 151.19 0.41718 0.41718z" fill="#0e0d08"/>
		<path d="m214.67 151.61 0.41716 0.41712z" fill="#0e0b05"/>
		<path d="m237.61 151.61 0.41715 0.41712z" fill="#0f0d06"/>
		<path d="m267.65 151.61 0.41718 0.41712z" fill="#0f0e08"/>
		<path d="m487.07 151.61 0.41718 0.41712z" fill="#020202"/>
		<path d="m311.87 152.02 0.41712 0.41718z" fill="#0e0d08"/>
		<path d="m375.69 152.02-0.41718 2.9201c1.3052-0.76384 1.5272-1.4488 1.2515-2.9201z"/>
		<path d="m376.53 152.02 0.41712 0.41718z" fill="#0e0d08"/>
		<path d="m393.21 154.94 1.2515-2.9201c-1.6182 0.46846-2.9606 1.6311-1.2515 2.9201z"/>
		<path d="m465.38 152.02 0.41712 0.41718z" fill="#010101"/>
		<path d="m486.66 152.02 0.41712 0.41718z" fill="#020202"/>
		<path d="m309.78 152.86 0.41712 0.41712z" fill="#0e0d08"/>
		<path d="m461.21 152.86 0.41712 0.41712z" fill="#010101"/>
		<path d="m469.55 152.86 0.41718 0.41712z" fill="#0f0e07"/>
		<path d="m485.82 152.86 0.41712 0.41712zm-0.41718 0.41712 0.41718 0.41718z" fill="#010101"/>
		<path d="m314.37 153.69 0.41718 0.41712z" fill="#0e0d08"/>
		<path d="m240.53 154.11 0.41715 0.41718z" fill="#0f0d06"/>
		<path d="m462.04 154.11 0.41718 0.41718z" fill="#0e0d08"/>
		<path d="m223.43 154.53 0.41716 0.41718z" fill="#0e0b05"/>
		<path d="m376.11 154.53 0.41718 0.41718zm16.269 0 0.41712 0.41718z" fill="#0e0d08"/>
		<path d="m405.73 157.45v1.6687l4.1716-2.9201z"/>
		<path d="m314.79 156.61 0.41718 0.41718zm92.609 0 0.41713 0.41718zm2.0858 0 0.41713 0.41718z" fill="#0e0d08"/>
		<path d="m425.75 156.61v5.0059c1.5669-1.5343 1.5669-3.4716 0-5.0059z"/>
		<path d="m481.23 156.61 0.41718 0.41718z" fill="#0f0d06"/>
		<path d="m498.34 156.61 0.41712 0.41718z" fill="#0d0b05"/>
		<path d="m406.98 157.03 0.41717 0.41712zm2.0858 0 0.41717 0.41712zm16.269 0 0.41713 0.41712z" fill="#0e0d08"/>
		<path d="m467.05 157.03 0.41718 0.41712z" fill="#0f0e07"/>
		<path d="m479.15 157.45 0.41712 0.41718z" fill="#0f0d06"/>
		<path d="m406.56 158.7 0.41718 0.41718zm-59.653 0.41718 0.41712 0.41712z" fill="#0e0d08"/>
		<path d="m343.57 164.96 5.0059 1.2515-2.7774-2.6773 1.526-3.9972c-2.0115 1.0425-3.2442 3.2509-3.7544 5.423z"/>
		<path d="m481.65 159.53 0.41712 0.41718z" fill="#0e0d05"/>
		<path d="m224.27 160.37 0.41716 0.41712z" fill="#010101"/>
		<path d="m268.07 168.71c0.54063 3.112 3.6263 1.4409 5.8402 1.2894 3.1812-0.21773 9.089 0.81264 10.846 3.7165l2.9201-0.41718c-0.74632-4.7214-7.5531-4.713-11.263-5.0059 2.7315-2.7612 6.6444-3.583 7.5088-7.9259z"/>
		<path d="m495.42 160.37 0.41712 0.41712z" fill="#0d0b05"/>
		<path d="m247.63 160.78 0.41716 0.41718z" fill="#0f0e07"/>
		<path d="m500.42 161.2 0.41712 0.41712z" fill="#0d0b05"/>
		<path d="m236.36 161.62 0.41715 0.41718z" fill="#0f0d06"/>
		<path d="m344.82 161.62 0.41712 0.41718zm-64.242 0.41718 0.41717 0.41718zm64.659 0.41718 0.41718 0.41712z" fill="#0e0d08"/>
		<path d="m250.55 163.29 0.41716 0.41712z" fill="#0f0e07"/>
		<path d="m278.91 163.29 0.41713 0.41712zm3.3373 0 0.41713 0.41712z" fill="#0e0d08"/>
		<path d="m225.1 163.7 0.41716 0.41718z" fill="#0e0b05"/>
		<path d="m364.43 163.7-4.5887 5.8402 5.8402 2.0858-4.1716-2.503c0.86812-1.8213 4.2758-3.4023 2.9201-5.423z"/>
		<path d="m494.17 163.7 0.41712 0.41718z" fill="#0e0d05"/>
		<path d="m261.39 164.12 0.41718 0.41718z" fill="#0f0e07"/>
		<path d="m277.66 164.12 0.41718 0.41718zm65.494 0 0.41718 0.41718z" fill="#0e0d08"/>
		<path d="m252.21 164.54 0.41715 0.41712zm8.3431 0 0.41717 0.41712z" fill="#0f0e07"/>
		<path d="m280.58 164.96 0.41717 0.41718zm47.139 0 0.41712 0.41718z" fill="#0e0d08"/>
		<path d="m328.14 164.96-5.0059 4.5887c1.9535 0.65994 6.4659 3.23 7.926 1.2515l-5.423-2.0858zm108.04 0 5.8402 4.5887v0.8343l-5.423 2.9201c2.8542-0.23315 5.2883-1.1 7.5088-2.9201-1.6227-2.7478-4.7902-4.8186-7.926-5.423z"/>
		<path d="m253.47 165.37 0.41716 0.41712z" fill="#0f0e07"/>
		<path d="m495 165.37 0.41718 0.41712z" fill="#010101"/>
		<path d="m502.09 165.37 0.41718 0.41712zm-275.32 0.41712 0.41715 0.41718z" fill="#0d0b05"/>
		<path d="m361.93 165.79 0.41718 0.41718zm2.0858 0 0.41712 0.41718zm74.671 0 0.41718 0.41718z" fill="#0e0d08"/>
		<path d="m474.98 165.79 0.41712 0.41718zm20.024 0 0.41718 0.41718z" fill="#0e0d05"/>
		<path d="m326.05 166.21 0.41718 0.41718zm1.6687 0 0.41712 0.41718zm33.79 0 0.41712 0.41718z" fill="#0e0d08"/>
		<path d="m227.6 166.62 0.41716 0.41712z" fill="#0e0b05"/>
		<path d="m302.27 166.62c-2.5251 5.6616-6.4146 10.272-10.846 14.594-2.5434 2.4812-6.5089 4.7869-7.5088 8.3494l18.355-3.8958 9.5946-1.9444c-5.7201-4.0756-15.753 0.46056-21.275 2.9201 3.7936-7.616 11.242-10.636 12.932-19.606l-0.41718-0.41712z"/>
		<path d="m327.3 166.62 0.41718 0.41712zm33.79 0 0.41718 0.41712zm76.757 0 0.41713 0.41712zm-160.61 0.41712 0.41717 0.41718z" fill="#0e0d08"/>
		<path d="m378.61 170.8 2.5029 0.41712v-4.1716c-1.8105 0.58656-2.0165 2.047-2.5029 3.7544z"/>
		<path d="m271.4 167.46 0.41718 0.41712z" fill="#0f0e08"/>
		<path d="m439.1 167.46 0.41713 0.41712zm-137.66 0.41712 0.41712 0.41718z" fill="#0e0d08"/>
		<path d="m228.85 168.29 0.41716 0.41718z" fill="#0e0b05"/>
		<path d="m278.08 168.29 0.41713 0.41718zm83.431 0.41718 0.41712 0.41712z" fill="#0e0d08"/>
		<path d="m495.42 168.71 0.41712 0.41712z" fill="#010101"/>
		<path d="m443.27 169.13 0.41713 0.41718z" fill="#0f0e08"/>
		<path d="m469.97 169.13 0.41712 0.41718z" fill="#0f0e07"/>
		<path d="m327.72 169.54 0.41712 0.41712z" fill="#0e0d08"/>
		<path d="m485.82 169.54 0.41712 0.41712z" fill="#0f0d06"/>
		<path d="m324.8 169.96 0.41712 0.41718zm53.813 0 0.41712 0.41718z" fill="#0e0d08"/>
		<path d="m398.22 169.96 0.41718 4.5887c1.9347-1.025 3.1996-2.4558 3.7544-4.5887l-2.9201 2.0858z"/>
		<path d="m286 170.38 0.41718 0.41718zm111.8 0 0.41713 0.41718zm3.3372 0 0.41718 0.41718z" fill="#0e0d08"/>
		<path d="m443.69 170.38 0.41717 0.41718z" fill="#0f0e08"/>
		<path d="m486.66 170.38 0.41712 0.41718z" fill="#0e0d05"/>
		<path d="m230.52 170.8 0.41715 0.41712z" fill="#0e0b05"/>
		<path d="m327.3 170.8 0.41718 0.41712zm73.42 0 0.41712 0.41712zm38.796 0.41712 0.41717 0.41718z" fill="#0e0d08"/>
		<path d="m470.39 172.05 0.41718 0.41713z" fill="#0e0d05"/>
		<path d="m494.58 172.05 0.41718 0.41713z" fill="#010101"/>
		<path d="m504.18 172.46 0.41718 0.41718z" fill="#0d0b05"/>
		<path d="m494.17 173.3 0.41712 0.41718z" fill="#010101"/>
		<path d="m301.02 173.72 0.41718 0.41717z" fill="#0e0d08"/>
		<path d="m241.79 174.13 0.41716 0.41713z" fill="#0e0b05"/>
		<path d="m480.4 174.55 0.41712 0.41718z" fill="#020202"/>
		<path d="m467.88 174.97 0.41712 0.41712z" fill="#0d0b05"/>
		<path d="m479.98 174.97 0.41718 0.41712zm-12.515 0.41712 0.41718 0.41718z" fill="#0e0d05"/>
		<path d="m339.4 178.72 0.8343-2.9201c-1.79 0.52101-2.7729 1.8105-0.8343 2.9201z"/>
		<path d="m233.44 176.22 0.41716 0.41713z" fill="#0f0d06"/>
		<path d="m338.15 176.22 0.41718 0.41713zm-42.55 0.41713 0.41718 0.41718z" fill="#0e0d08"/>
		<path d="m476.64 176.64 0.41718 0.41718z" fill="#0e0d05"/>
		<path d="m295.18 177.05 0.41717 0.41712z" fill="#0e0d08"/>
		<path d="m492.08 177.05 0.41712 0.41712zm-17.521 0.41712 0.41718 0.41718z" fill="#010101"/>
		<path d="m491.66 177.47 0.41718 0.41718z" fill="#0e0d05"/>
		<path d="m414.07 178.3-0.41713 5.8402-3.7544-2.503c0.3917 2.5313 2.1613 3.7319 4.5887 4.1716l0.41718-7.5088z"/>
		<path d="m470.8 178.3v0.41713h1.2515z" fill="#010101"/>
		<path d="m311.03 191.24c2.7607-0.11843 12.376 0.25117 13.766-1.6686l-9.1775-1.2515 5.0059-9.5946c-3.0352 0.94902-8.2463 9.5717-9.5945 12.515m33.79 36.293c3.1462-1.8029 7.2431-7.1746 8.7602-10.429-3.3397 1.0004-4.7998 4.2729-7.0916 6.6745l-1.2515-8.7603c9.756-0.85182 14.042-11.511 19.785-17.921 3.4949-3.9004 7.8734-5.5903 12.336-7.9422-2.6302-3.147-6.2891 0.17855-8.7603 2.0812-6.6211 5.0985-10.442 11.277-16.269 17.108l3.3372-8.7602h-0.41712c-1.8121 4.3526-3.9784 8.9989-8.3431 11.263l1.6686-5.8402h-0.41718c-1.7537 4.19-3.7318 6.2545-8.3431 6.2574l4.1716-9.5946h-0.41712l-5.423 9.1774-1.6686-0.41717 4.1716-7.926h-0.41718c-2.1092 3.3752-4.333 8.1758-8.7603 7.0916l3.7544-7.0916c-2.09 1.6361-2.9956 5.5486-5.4618 6.521-1.1255 0.44343-3.2463-0.38087-2.795-1.8693 0.5865-1.9339 3.7694-3.8387 5.0243-5.486 4.2721-5.6099 7.7357-14.756 14.079-18.208 5.1936-2.8262 13.097 0.75505 18.772 0.68537 3.2517-0.0401 6.9544-1.1551 7.9259-4.5871-2.6523-0.28615-5.1598 1.4259-7.9259 1.4305-7.0112 0.0112-18.517-3.4808-24.541 1.2786-5.4848 4.3326-5.796 10.147-9.2454 15.644-1.6845 2.6844-4.6605 4.5007-7.0925 6.4359-0.90106 0.71709-2.533 1.7596-2.1913 3.1328 0.41967 1.6899 3.2955 2.5964 4.6922 3.2359 3.1628 1.4484 6.6015 2.581 10.012 3.2785 1.8225 0.37291 4.5353 0.31328 6.0825 1.4342 2.825 2.047 1.8714 9.0219 2.2606 12.103z"/>
		<path d="m489.16 179.97 0.41718 0.41717zm-7.0916 0.41717 0.41718 0.41713zm5.8402 0 0.41712 0.41713z" fill="#010101"/>
		<path d="m266.82 180.81-0.41713 2.503 1.6686-2.503z"/>
		<path d="m365.26 180.81 0.41718 0.41718z" fill="#0e0d08"/>
		<path d="m483.74 180.81 0.41712 0.41718z" fill="#010101"/>
		<path d="m414.91 181.22 0.41713 0.41712z" fill="#0e0d08"/>
		<path d="m236.78 181.64 0.41716 0.41718z" fill="#0f0d06"/>
		<path d="m340.65 181.64 0.41712 0.41718z" fill="#0e0d08"/>
		<path d="m275.99 182.06 0.41713 0.41717z" fill="#0f0e08"/>
		<path d="m290.18 182.06 0.41718 0.41717zm28.784 0 0.41718 0.41717z" fill="#0e0d08"/>
		<path d="m267.65 182.48 0.41718 0.41713z" fill="#0f0e08"/>
		<path d="m278.08 182.48 0.41713 0.41713zm11.68 0 0.41712 0.41713zm57.568 0 0.41718 0.41713zm-57.985 0.41713 0.41718 0.41718z" fill="#0e0d08"/>
		<path d="m267.23 183.31 0.41713 0.41712z" fill="#0f0e08"/>
		<path d="m316.46 183.31 0.41718 0.41712zm22.526 0 0.41718 0.41712z" fill="#0e0d08"/>
		<path d="m368.6 183.31 0.41718 0.41712z" fill="#0e0b05"/>
		<path d="m487.91 183.31 0.41712 0.41712z" fill="#0e0d08"/>
		<path d="m509.18 183.73-2.2293 10.429-1.5806 5.4046 2.9756 2.1042-0.8343-3.7544h0.41718c1.9293 4.6329 3.9621 5.423 8.7602 5.423l-2.9201-6.2573c1.9239 2.2138 2.6214 5.3421 5.8402 5.8402l-2.9201-5.423c2.6698 2.898 3.9885 4.899 7.926 2.9201v-0.8343c-6.9507-3.3072-7.5818-14.429-15.435-15.852z" fill="#fef67a"/>
		<path d="m442.44 187.06 1.2514-2.9201c-1.7045 0.49598-2.5997 1.4525-1.2514 2.9201z"/>
		<path d="m315.62 184.56 0.41718 0.41713z" fill="#0e0d08"/>
		<path d="m481.23 184.56 0.41718 0.41713z" fill="#0e0d05"/>
		<path d="m343.15 184.98 0.41718 0.41718z" fill="#0f0e08"/>
		<path d="m465.38 184.98 0.41712 0.41718z" fill="#010101"/>
		<path d="m504.59 184.98 0.41712 0.41718z" fill="#0d0b05"/>
		<path d="m302.27 185.4 0.41712 0.41717z" fill="#0e0d08"/>
		<path d="m342.74 185.4 0.41712 0.41717zm-75.922 0.41717 0.41717 0.41713zm1.6686 0 0.41713 0.41713zm73.837 0 0.41718 0.41713z" fill="#0f0e08"/>
		<path d="m316.04 186.23 0.41712 0.41717zm20.024 0 0.41718 0.41717z" fill="#0e0d08"/>
		<path d="m273.91 186.65 0.41713 0.41713z" fill="#0f0e08"/>
		<path d="m455.79 186.65 0.41718 0.41713z" fill="#0f0e07"/>
		<path d="m483.32 186.65 0.41718 0.41713z" fill="#010101"/>
		<path d="m273.49 187.48 0.41718 0.41717z" fill="#0f0e08"/>
		<path d="m341.07 187.48 0.41718 0.41717z" fill="#0f0e07"/>
		<path d="m386.12 187.48 4.5887 5.0059 2.0858-5.0059-2.0858 3.3372zm42.133 0-0.41717 6.2573-4.1716-2.503c-0.23233 2.7503 3.9797 5.8761 6.2573 7.0917l-0.8343-10.846z"/>
		<path d="m312.7 188.32 0.41718 0.41717zm7.0916 0 0.41718 0.41717zm-7.5088 0.41717 0.41718 0.41713z" fill="#0e0d08"/>
		<path d="m454.54 188.73 0.41718 0.41713z" fill="#0f0e07"/>
		<path d="m248.04 189.57 0.41716 0.41717z" fill="#0f0d06"/>
		<path d="m274.32 189.98 0.41717 0.41713z" fill="#0f0e08"/>
		<path d="m311.03 189.98 0.41712 0.41713z" fill="#0e0d08"/>
		<path d="m369.85 189.98 0.41718 0.41713z" fill="#0f0d06"/>
		<path d="m453.7 189.98 0.41718 0.41713zm2.9201 0.41713 0.41718 0.41717z" fill="#0f0e07"/>
		<path d="m388.62 190.82 0.41718 0.41713zm128.07 0 0.41718 0.41713zm-183.13 0.41713 0.41718 0.41718z" fill="#0e0d08"/>
		<path d="m452.87 191.24 0.41712 0.41718z" fill="#0f0e07"/>
		<path d="m244.29 191.65 0.41715 0.41717zm123.48 0 0.41718 0.41717z" fill="#0f0d06"/>
		<path d="m371.1 191.65 0.41712 0.41717z" fill="#0e0d08"/>
		<path d="m243.04 192.07 0.41715 0.41713z" fill="#0f0d06"/>
		<path d="m389.46 192.07 0.41713 0.41713zm35.875 0 0.41713 0.41713z" fill="#0e0d08"/>
		<path d="m454.95 192.9 0.41712 0.41713z" fill="#0f0e07"/>
		<path d="m368.18 193.74 0.41712 0.41717z" fill="#0e0d08"/>
		<path d="m243.04 194.16 0.41715 0.41713z" fill="#0f0d06"/>
		<path d="m467.88 194.16 0.41712 0.41713zm-178.13 0.41713 0.41712 0.41717z" fill="#0e0d08"/>
		<path d="m315.21 194.57c-1.307 6.249-5.7731 11.874-9.7761 16.686-1.9077 2.2931-4.842 4.5983-5.6587 7.5088 6.9132-1.9915 14.685-9.0143 22.109-8.3431-1.9097-3.6993-10.818 1.433-14.183 2.0858 2.706-4.0101 6.4058-7.5038 8.1479-12.098 0.73129-1.9273 1.1922-4.5195-0.63906-5.8402z"/>
		<path d="m336.48 194.57 0.41712 0.41717z" fill="#0f0e07"/>
		<path d="m363.6 194.57 0.41718 0.41717z" fill="#0e0d08"/>
		<path d="m248.04 194.99 0.41716 0.41713zm1.6686 0 0.41716 0.41713z" fill="#0f0d06"/>
		<path d="m314.79 195.41 0.41718 0.41718z" fill="#0e0d08"/>
		<path d="m449.53 195.41 0.41713 0.41718z" fill="#0f0e07"/>
		<path d="m468.3 195.82 0.41718 0.41717zm24.195 0.41717 0.41718 0.41713z" fill="#010101"/>
		<path d="m520.03 196.24 0.41718 0.41713z" fill="#0f0e08"/>
		<path d="m364.85 196.66 0.41712 0.41717z" fill="#0e0d08"/>
		<path d="m275.99 197.08 0.41713 0.41718z" fill="#0f0e08"/>
		<path d="m246.37 197.49 0.41715 0.41713z" fill="#0f0d06"/>
		<path d="m360.68 197.49 0.41712 0.41713z" fill="#0e0d08"/>
		<path d="m245.96 197.91 0.41716 0.41717z" fill="#0f0d06"/>
		<path d="m428.67 197.91 0.41713 0.41717z" fill="#0e0d08"/>
		<path d="m408.23 204.59c-1.7646-1.76-3.5617-4.1907-6.2573-3.7544l7.926 9.5946 2.0858-12.098c-3.1787 0.50267-3.0235 3.6568-3.7544 6.2573z"/>
		<path d="m515.02 198.33 0.41718 0.41713z" fill="#0f0e07"/>
		<path d="m270.99 198.74 0.41717 0.41717zm8.7603 0 0.41718 0.41717z" fill="#0f0e08"/>
		<path d="m369.02 202.5-0.41718-2.0858h-1.2515l0.41718 5.423c2.4295-0.42049 4.9583-4.7894 5.423-7.0917z"/>
		<path d="m492.08 198.74 0.41712 0.41717z" fill="#010101"/>
		<path d="m286.84 199.16 0.41717 0.41718zm72.585 0 0.41712 0.41718zm3.3373 0 0.41712 0.41718zm49.224 0 0.41717 0.41718z" fill="#0e0d08"/>
		<path d="m450.36 199.16 0.41718 0.41718z" fill="#0f0e07"/>
		<path d="m524.62 199.58 0.41718 0.41713z" fill="#0d0b05"/>
		<path d="m328.97 200 0.41712 0.41717z" fill="#0e0d08"/>
		<path d="m505.01 200 0.41718 0.41717z" fill="#0e0b05"/>
		<path d="m290.18 200.41 0.41718 0.41713zm22.526 0 0.41718 0.41713z" fill="#0e0d08"/>
		<path d="m344.13 200.69 0.13932 0.27781z"/>
		<path d="m448.7 200.83 0.41712 0.41717z" fill="#0f0e07"/>
		<path d="m495 200.83 0.41718 0.41717zm12.932 0 0.41712 0.41717z" fill="#0d0b05"/>
		<path d="m315.21 201.25 0.41712 0.41718zm28.367 0 0.41712 0.41718zm-31.704 0.83431 0.41712 0.41717zm178.96 0 0.41712 0.41717z" fill="#0e0d08"/>
		<path d="m494.58 202.08 0.41718 0.41717z" fill="#0d0b05"/>
		<path d="m517.11 202.08 0.41718 0.41717z" fill="#0f0d06"/>
		<path d="m253.88 202.5 0.41716 0.41713z"/>
		<path d="m326.05 202.5 0.41718 0.41713z" fill="#0e0d08"/>
		<path d="m445.36 202.5 0.41713 0.41713z" fill="#0f0e07"/>
		<path d="m253.05 202.92 0.41715 0.41717zm0.83431 0 0.41716 0.41717z" fill="#0f0d06"/>
		<path d="m339.82 202.92 0.41718 0.41717z" fill="#0f0e08"/>
		<path d="m356.92 202.92 0.41718 0.41717zm133.49 0 0.41718 0.41717zm-82.18 0.83435 0.41713 0.41713zm63.408 0 0.41718 0.41713z" fill="#0e0d08"/>
		<path d="m260.97 204.17 0.41713 0.41717z" fill="#0f0e07"/>
		<path d="m355.67 204.59 0.41718 0.41713zm54.23 0 0.41717 0.41713z" fill="#0e0d08"/>
		<path d="m287.26 205 0.41718 0.41717z" fill="#0f0e08"/>
		<path d="m332.73 205 0.41718 0.41717z" fill="#0e0b05"/>
		<path d="m338.15 205 0.41718 0.41717z" fill="#0e0d08"/>
		<path d="m341.9 205 0.41718 0.41717z" fill="#0f0e08"/>
		<path d="m358.59 205 0.41712 0.41717z" fill="#0e0d08"/>
		<path d="m496.25 205 0.41712 0.41717z" fill="#0d0b05"/>
		<path d="m322.3 205.42 0.41712 0.41718zm25.447 0 0.41712 0.41718z" fill="#0e0d08"/>
		<path d="m384.45 205.42-2.0858 5.423h-0.41712l-3.3373-4.5887 2.9201 9.5946h0.41718c1.1096-2.7874 5.0384-7.9147 2.5029-10.429z"/>
		<path d="m406.15 205.42 0.41713 0.41718z" fill="#0e0d08"/>
		<path d="m341.49 205.84 0.41712 0.41713z" fill="#0f0e08"/>
		<path d="m467.05 205.84 0.41718 0.41713z" fill="#0f0d06"/>
		<path d="m326.89 206.25 0.41712 0.41717z" fill="#0d0b05"/>
		<path d="m383.62 206.25 0.41718 0.41717z" fill="#0e0d08"/>
		<path d="m274.74 206.67 0.41713 0.41713z" fill="#0f0e08"/>
		<path d="m340.23 206.67 0.41718 0.41713z" fill="#0f0e07"/>
		<path d="m347.74 206.67 0.41712 0.41713zm3.7544 0 0.41718 0.41713z" fill="#0e0d08"/>
		<path d="m250.13 207.09 0.41715 0.41717z" fill="#0f0d06"/>
		<path d="m352.33 207.09 0.41712 0.41717zm121.81 0 0.41712 0.41717zm-166.03 0.41717 0.41718 0.41718zm166.45 0 0.41718 0.41718z" fill="#0e0d08"/>
		<path d="m248.88 207.92 0.41715 0.41713z" fill="#0f0d06"/>
		<path d="m331.89 207.92 0.41712 0.41713z" fill="#0d0b05"/>
		<path d="m337.31 207.92 0.41712 0.41713z" fill="#0f0d06"/>
		<path d="m352.33 207.92 0.41712 0.41713z" fill="#0e0d08"/>
		<path d="m429.51 208.34 2.5029 13.766c-2.6589-2.3231-10.86-13.027-14.183-9.1774 7.674 2.4454 10.872 11.412 17.521 15.435l-2.0799-7.9259-2.5088-12.515z"/>
		<path d="m474.98 207.92 0.41712 0.41713z" fill="#0e0d08"/>
		<path d="m482.9 208.34 0.41718 0.41717z" fill="#010101"/>
		<path d="m493.33 208.34 0.41712 0.41717z" fill="#0e0b05"/>
		<path d="m247.63 208.76 0.41716 0.41713z" fill="#0d0b05"/>
		<path d="m258.47 208.76 0.41717 0.41713z" fill="#0f0e07"/>
		<path d="m309.78 208.76 0.41712 0.41713z" fill="#0e0d08"/>
		<path d="m330.22 208.76 0.41718 0.41713zm1.2515 0 0.41718 0.41713z" fill="#0d0b05"/>
		<path d="m338.98 208.76 0.41718 0.41713z" fill="#0e0b05"/>
		<path d="m477.06 208.76 0.41712 0.41713z" fill="#010101"/>
		<path d="m492.91 208.76 0.41718 0.41713z" fill="#0d0b05"/>
		<path d="m306.86 209.17 0.41718 0.41717z" fill="#0e0d08"/>
		<path d="m329.39 209.17 0.41718 0.41717zm5.8402 0 0.41712 0.41717z" fill="#0d0b05"/>
		<path d="m280.16 209.59 0.41713 0.41718z" fill="#0f0e08"/>
		<path d="m348.16 210.01 0.41718 0.41713z" fill="#0f0e07"/>
		<path d="m257.22 210.43 0.41718 0.41717z" fill="#0f0d06"/>
		<path d="m337.73 210.43 0.41718 0.41717z" fill="#0e0b05"/>
		<path d="m347.33 210.43 0.41718 0.41717z" fill="#0f0e07"/>
		<path d="m313.12 210.84 0.41712 0.41718z" fill="#0e0d08"/>
		<path d="m472.47 210.84 0.41718 0.41718z" fill="#0f0d06"/>
		<path d="m328.14 211.26 0.41718 0.41712z" fill="#0e0d08"/>
		<path d="m451.62 211.26c-2.1125 5.1715 3.0436 10.721 5.0059 15.435-5.4239-2.7954-10.239-7.4546-16.686-7.5088v1.6686c9.2888 0.81098 14.243 10.315 21.692 14.601-0.0696-7.775-6.7433-16.715-9.1774-24.195z"/>
		<path d="m464.13 211.26 0.41718 0.41712z" fill="#0f0d06"/>
		<path d="m310.62 211.68 0.41718 0.41718z" fill="#0e0d08"/>
		<path d="m474.14 211.68 0.41712 0.41718z" fill="#0f0d06"/>
		<path d="m489.99 211.68 0.41712 0.41718z" fill="#0e0b05"/>
		<path d="m351.92 212.09 0.41718 0.41713z" fill="#0e0d08"/>
		<path d="m489.58 212.09 0.41718 0.41713z" fill="#0d0b05"/>
		<path d="m287.26 212.51 0.41718 0.41717zm142.67 0 0.41717 0.41717z" fill="#0f0e08"/>
		<path d="m489.16 212.51 0.41718 0.41717z" fill="#0e0b05"/>
		<path d="m286.84 212.93 0.41717 0.41718z" fill="#0f0e08"/>
		<path d="m333.14 212.93 0.41712 0.41718zm17.521 0 0.41718 0.41718z" fill="#0e0d08"/>
		<path d="m466.63 212.93 0.41712 0.41718z" fill="#0f0d06"/>
		<path d="m286.42 213.35 0.41713 0.41712zm-0.41718 0.41712 0.41718 0.41718z" fill="#0f0e08"/>
		<path d="m382.37 213.76 0.41718 0.41718z" fill="#0e0d08"/>
		<path d="m285.59 214.18 0.41712 0.41713z" fill="#0f0e08"/>
		<path d="m302.69 214.18 0.41718 0.41713z" fill="#0e0d08"/>
		<path d="m432.01 214.6 0.41717 0.41717z" fill="#0f0e08"/>
		<path d="m451.2 215.85 0.41718 0.41718z" fill="#0f0e07"/>
		<path d="m283.92 216.27 0.41718 0.41713z" fill="#0f0e08"/>
		<path d="m304.78 216.27 0.41718 0.41713zm-0.8343 0.41713 0.41718 0.41717z" fill="#0e0d08"/>
		<path d="m366.93 217.52-2.9201 0.41712c0.98406 2.3394 2.7202 4.23 3.5362 6.6745 0.90399 2.7086 0.31749 6.4459 3.1383 7.9259 1.3065-2.9334 4.5174-7.7148 3.7544-10.846-2.3699 1.1655-3.4929 3.7023-3.7544 6.2573h-0.41712z"/>
		<path d="m282.67 217.93 0.41717 0.41718z" fill="#0f0e08"/>
		<path d="m328.14 217.93c0 8.1867-1.1138 15.884-3.3372 23.778 2.9026 0.10638 4.4231-2.9122 5.9958-5.0059 3.1062-4.1345 6.221-8.6932 11.108-10.846v-0.41718c-4.9554-0.6416-11.149 6.7675-12.932 10.846h-0.41718c1.4688-5.6775 2.7757-12.775 0.41718-18.355z"/>
		<path d="m353.17 217.93 0.41712 0.41718z" fill="#0e0d08"/>
		<path d="m473.31 217.93 0.41718 0.41718z" fill="#0e0b05"/>
		<path d="m483.32 217.93 0.41718 0.41718z" fill="#0d0b05"/>
		<path d="m399.05 227.11-9.5946-6.6745c0.53395 1.7074 1.8893 2.2159 3.1541 3.3886 2.4888 2.3085 4.6621 7.709 8.1091 8.2918l0.8343-13.766c-3.3669 1.284-2.503 5.803-2.503 8.7603z"/>
		<path d="m452.45 218.35 0.41718 0.41713z" fill="#0f0e07"/>
		<path d="m482.9 218.35 0.41718 0.41713z" fill="#0e0b05"/>
		<path d="m367.35 218.77 0.41718 0.41717z" fill="#0e0d08"/>
		<path d="m431.17 219.19 0.41717 0.41718z" fill="#0f0e08"/>
		<path d="m364.85 219.6 0.41712 0.41712z" fill="#0e0d08"/>
		<path d="m426.59 219.6 0.41718 0.41712zm2.9201 0.41712 0.41713 0.41718z" fill="#0f0e08"/>
		<path d="m429.92 220.44 0.41717 0.41713z" fill="#0f0e07"/>
		<path d="m350.25 220.85 0.41712 0.41717zm40.881 0 0.41717 0.41717z" fill="#0e0d08"/>
		<path d="m447.44 221.27 0.41713 0.41718z" fill="#0f0e08"/>
		<path d="m283.5 221.69 0.41717 0.41712z" fill="#0f0e07"/>
		<path d="m374.44 221.69 0.41712 0.41712zm-25.447 0.8343 0.41712 0.41713z" fill="#0e0d08"/>
		<path d="m429.09 222.52 0.41717 0.41713z" fill="#0f0e08"/>
		<path d="m456.62 222.52 0.41718 0.41713z" fill="#0f0d06"/>
		<path d="m476.64 222.52 0.41718 0.41713z" fill="#0e0b05"/>
		<path d="m478.73 222.52 0.41718 0.41713z" fill="#010101"/>
		<path d="m284.34 222.94 0.41713 0.41717z" fill="#0f0e07"/>
		<path d="m478.31 222.94 0.41712 0.41717z" fill="#0e0b05"/>
		<path d="m392.38 223.36 0.41712 0.41718z" fill="#0e0d08"/>
		<path d="m451.2 223.36 0.41718 0.41718z" fill="#0f0d06"/>
		<path d="m477.9 223.36 0.41718 0.41718z" fill="#0e0b05"/>
		<path d="m304.78 224.19 0.41718 0.41718zm62.573 0 0.41718 0.41718zm26.698 0.83436 0.41718 0.41712z" fill="#0e0d08"/>
		<path d="m304.36 225.86 0.41712 0.41712z" fill="#0f0e08"/>
		<path d="m397.8 226.28 0.41713 0.41718z" fill="#0e0d08"/>
		<path d="m422.83 226.28c-2.9418 5.2153 1.3458 15.962 2.0858 21.692h-0.41718c-2.3248-4.9112-6.8038-8.9672-10.429-12.932-0.51102-0.55898-3.1533-4.1582-4.0986-2.6439-0.98489 1.5785 3.8433 5.3237 4.7498 6.3984 3.3339 3.9513 6.3449 8.4203 8.8692 12.932 1.4588 2.6077 2.7302 6.0951 5.4973 7.5088-2.0871-10.761-5.3926-21.937-5.423-32.955z"/>
		<path d="m451.2 226.28 0.41718 0.41718z" fill="#0f0d06"/>
		<path d="m337.31 226.69 0.41712 0.41718z" fill="#010101"/>
		<path d="m339.4 226.69 0.41712 0.41718zm30.452 0 0.41718 0.41718z" fill="#0e0d08"/>
		<path d="m433.26 226.69 0.41717 0.41718z" fill="#0f0e07"/>
		<path d="m422 227.11 0.41713 0.41712z" fill="#0f0e08"/>
		<path d="m476.23 227.11 0.41712 0.41712z" fill="#0e0b05"/>
		<path d="m344.82 227.53 0.41712 0.41718z" fill="#0e0d08"/>
		<path d="m370.27 227.53 0.41712 0.41718z" fill="#0f0e08"/>
		<path d="m466.63 227.95 0.41712 0.41712zm5.423 0 0.41712 0.41712z" fill="#0e0b05"/>
		<path d="m337.31 228.36 0.41712 0.41718zm59.236 0 0.41712 0.41718z" fill="#0e0d08"/>
		<path d="m453.28 228.36 0.41718 0.41718z" fill="#0f0d06"/>
		<path d="m303.52 228.78 0.41712 0.41718z" fill="#0f0e08"/>
		<path d="m468.72 229.2 0.41712 0.41712z" fill="#0e0b05"/>
		<path d="m327.3 229.61 0.41718 0.41718z" fill="#0e0d08"/>
		<path d="m289.76 230.03 0.41712 0.41712z" fill="#0f0e07"/>
		<path d="m397.8 230.03 0.41713 0.41712zm24.195 0 0.41713 0.41712z" fill="#0f0e08"/>
		<path d="m476.23 230.03 0.41712 0.41712z" fill="#0d0b05"/>
		<path d="m334.81 230.87 0.41718 0.41718zm63.825 0.41718 0.41712 0.41712z" fill="#0e0d08"/>
		<path d="m301.86 232.95 0.41718 0.41718z" fill="#0f0e08"/>
		<path d="m458.29 232.95 0.41712 0.41718z" fill="#0f0d06"/>
		<path d="m412.4 233.37 0.41713 0.41712z" fill="#0f0e08"/>
		<path d="m321.05 233.79 0.41718 0.41718z" fill="#0e0d08"/>
		<path d="m353.17 233.79-0.41718 0.41718c2.0411 5.607 4.0502 10.253 5.0392 16.269 0.45973 2.7945 0.17441 6.4312 2.4696 8.3431 2.3452-4.4506 3.19-9.6147 5.3321-14.183 1.2294-2.6227 3.2359-4.9253 2.5939-7.9259-4.0093 1.9723-6.3763 10.876-7.5088 15.018-2.0691-5.5148-1.4363-15.098-7.5088-17.938z"/>
		<path d="m410.73 234.62 0.41718 0.41718zm0.41718 0.41718 0.41717 0.41718z" fill="#0f0e08"/>
		<path d="m328.55 235.45 0.41718 0.41712z" fill="#0e0d08"/>
		<path d="m411.57 235.45 0.41713 0.41712z" fill="#0f0e08"/>
		<path d="m295.6 235.87 0.41718 0.41718z" fill="#0f0e07"/>
		<path d="m304.36 235.87 0.41712 0.41718z" fill="#0f0e08"/>
		<path d="m328.55 235.87 0.41718 0.41718z" fill="#fff"/>
		<path d="m411.99 235.87 0.41717 0.41718z" fill="#0f0e08"/>
		<path d="m468.72 235.87 0.41712 0.41718z" fill="#010101"/>
		<path d="m330.64 236.29 0.41718 0.41718zm36.293 0.41718 0.41712 0.41712z" fill="#0e0d08"/>
		<path d="m422.83 236.71 0.41717 0.41712z" fill="#0f0e07"/>
		<path d="m368.18 237.12 0.41712 0.41718z" fill="#0e0d08"/>
		<path d="m415.74 237.12 0.41713 0.41718z" fill="#0f0e08"/>
		<path d="m416.16 237.54 0.41717 0.41712z" fill="#0f0d06"/>
		<path d="m298.1 237.96 0.41712 0.41718zm31.287 0 0.41718 0.41718z" fill="#0f0e07"/>
		<path d="m381.53 237.96c4.7168 9.3681 8.2092 18.179 10.846 28.367 2.9418-1.649 2.5371-4.5612 2.5046-7.5088-0.0759-6.8647 2.5605-13.699 2.0841-20.441-1.969 0.67454-2.3206 2.6915-2.6631 4.5887-0.82264 4.552-0.83806 9.2509-1.9256 13.766-2.2618-5.2558-4.0556-17.685-10.846-18.772z"/>
		<path d="m382.78 237.96 0.41712 0.41718z" fill="#0e0d08"/>
		<path d="m449.53 237.96 0.41713 0.41718z" fill="#0f0d06"/>
		<path d="m354.84 238.37 0.41718 0.41718z" fill="#0e0d08"/>
		<path d="m414.49 238.37 0.41718 0.41718zm-110.96 0.41718 0.41712 0.41712z" fill="#0f0e07"/>
		<path d="m335.23 238.79 0.41712 0.41712z" fill="#0e0d08"/>
		<path d="m395.3 238.79 0.41717 0.41712z" fill="#0f0e08"/>
		<path d="m466.63 238.79 0.41712 0.41712z" fill="#0f0d06"/>
		<path d="m283.92 239.21 0.41718 0.41718z" fill="#0d0b05"/>
		<path d="m394.88 239.63 0.41718 0.41712zm-84.683 0.8343 0.41718 0.41718z" fill="#0f0e08"/>
		<path d="m364.85 240.46 0.41712 0.41718zm2.5029 0 0.41718 0.41718z" fill="#0e0d08"/>
		<path d="m416.16 240.46 0.41717 0.41718zm-106.37 0.41718 0.41712 0.41712z" fill="#0f0e07"/>
		<path d="m450.78 240.88 0.41712 0.41712z" fill="#0f0d06"/>
		<path d="m464.96 240.88 0.41718 0.41712z" fill="#0d0b05"/>
		<path d="m309.37 241.29 0.41718 0.41718z" fill="#0f0e08"/>
		<path d="m366.93 241.29 0.41712 0.41718z" fill="#0e0d08"/>
		<path d="m385.7 241.29 0.41718 0.41718z" fill="#0f0e08"/>
		<path d="m419.91 241.71 0.41713 0.41712z" fill="#0f0e07"/>
		<path d="m366.52 242.13 0.41718 0.41718z" fill="#0e0d08"/>
		<path d="m384.04 242.55 0.41712 0.41718z" fill="#0f0e08"/>
		<path d="m279.75 242.96 0.41718 0.41712z" fill="#0d0b05"/>
		<path d="m313.12 242.96 0.41712 0.41712z" fill="#0f0e08"/>
		<path d="m278.91 243.38 0.41713 0.41718z" fill="#fff"/>
		<path d="m363.6 243.38 0.41718 0.41718z" fill="#0e0d08"/>
		<path d="m384.45 243.38 0.41718 0.41718z" fill="#0f0e08"/>
		<path d="m462.88 243.38 0.41718 0.41718z" fill="#0e0b05"/>
		<path d="m384.87 244.21 0.41712 0.41718zm2.5029 0 0.41718 0.41718zm-2.0858 0.83436 0.41718 0.41712zm2.503 0 0.41718 0.41712zm-25.029 0.41712 0.41712 0.41718zm2.0858 0 0.41712 0.41718z" fill="#0f0e08"/>
		<path d="m437.43 245.47 0.41717 0.41718z" fill="#0f0d06"/>
		<path d="m388.21 245.88 0.41712 0.41712z" fill="#0f0e08"/>
		<path d="m467.05 246.3 0.41718 0.41718z" fill="#010101"/>
		<path d="m304.36 246.72 0.41712 0.41718z" fill="#0f0e07"/>
		<path d="m351.5 247.13 0.41718 0.41712z"/>
		<path d="m420.75 247.13 0.41717 0.41712z" fill="#0f0e07"/>
		<path d="m361.93 247.55 0.41718 0.41718z" fill="#0f0e08"/>
		<path d="m440.35 247.55 0.41717 0.41718z" fill="#0f0d06"/>
		<path d="m311.45 247.97 0.41718 0.41712z" fill="#0f0e07"/>
		<path d="m352.33 247.97 0.41712 0.41712z" fill="#0f0e08"/>
		<path d="m442.02 248.8 0.41718 0.41718zm-26.698 0.41718 0.41717 0.41712zm0.8343 0 0.41717 0.41712z" fill="#0f0d06"/>
		<path d="m301.86 249.64 0.41718 0.41718z" fill="#0f0e07"/>
		<path d="m361.09 249.64 0.41718 0.41718z" fill="#0f0e08"/>
		<path d="m422.41 249.64 0.41718 0.41718zm-105.96 1.6687 0.41718 0.41712z" fill="#0f0e07"/>
		<path d="m368.6 251.31 0.41718 0.41712zm-68.414 0.41712 0.41712 0.41718z" fill="#0f0e08"/>
		<path d="m427.42 251.72 0.41713 0.41718z" fill="#0f0d06"/>
		<path d="m390.71 252.14 0.41718 0.41718zm-72.585 0.41718 0.41712 0.41712z" fill="#0f0e07"/>
		<path d="m424.08 252.56 0.41713 0.41712z" fill="#0f0d06"/>
		<path d="m398.64 252.98 0.41712 0.41718z" fill="#0f0e07"/>
		<path d="m318.96 253.39 0.41718 0.41712z" fill="#0f0e08"/>
		<path d="m447.86 253.81 0.41717 0.41718z" fill="#0e0b05"/>
		<path d="m298.52 254.23 0.41718 0.41718z" fill="#0f0e07"/>
		<path d="m358.17 254.23 0.41718 0.41718z" fill="#0f0e08"/>
		<path d="m383.62 254.23 0.41718 0.41718z" fill="#0f0e07"/>
		<path d="m448.28 254.23 0.41718 0.41718z" fill="#0e0b05"/>
		<path d="m334.39 254.64 0.41718 0.41712zm57.15 0.41712 0.41713 0.41718zm-69.665 0.41718 0.41718 0.41712zm81.763 0 0.41717 0.41712zm-80.511 0.8343 0.41718 0.41718zm78.008 0.41718 0.41718 0.41712zm-56.316 0.41712 0.41712 0.41718zm60.07 0 0.41717 0.41718zm-60.488 0.8343 0.41718 0.41718zm-17.103 0.41718 0.41718 0.41718zm5.423 0 0.41718 0.41718zm73.002 0 0.41717 0.41718zm-77.174 0.41718 0.41718 0.41712zm43.801 0.41712 0.41712 0.41718z" fill="#0f0e07"/>
		<path d="m346.49 260.07 0.41718 0.41718z" fill="#0f0e07"/>
		<path d="m440.35 261.74 0.41717 0.41718z" fill="#0e0b05"/>
		<path d="m457.04 261.74 0.41712 0.41718z" fill="#0d0b05"/>
		<path d="m395.3 262.15 0.41717 0.41712z" fill="#0f0e07"/>
		<path d="m438.68 262.57 0.41718 0.41718z" fill="#0e0b05"/>
		<path d="m374.02 263.4 0.41718 0.41718zm17.521 0 0.41713 0.41718z" fill="#0f0e07"/>
		<path d="m435.76 263.82 0.41713 0.41718z" fill="#0d0b05"/>
		<path d="m394.05 265.07 0.41718 0.41712z" fill="#0f0e07"/>
		<path d="m406.15 265.07 0.41713 0.41712z" fill="#0f0d06"/>
		<path d="m433.26 265.07 0.41717 0.41712z" fill="#0e0b05"/>
		<path d="m345.66 265.49 0.41712 0.41718zm47.973 0 0.41713 0.41718z" fill="#0f0e07"/>
		<path d="m432.43 265.49 0.41718 0.41718z" fill="#0e0b05"/>
		<path d="m384.04 266.32 0.41712 0.41712z" fill="#0f0e07"/>
		<path d="m406.56 266.32 0.41718 0.41712zm3.3373 0 0.41717 0.41712z" fill="#0f0d06"/>
		<path d="m321.46 267.16 0.41712 0.41712z" fill="#0d0b05"/>
		<path d="m351.92 267.58 0.41718 0.41718zm23.778 0.83436 0.41712 0.41712z" fill="#0f0e07"/>
		<path d="m425.33 268.41 0.41713 0.41712zm-1.2515 0.41712 0.41713 0.41718z" fill="#0e0b05"/>
		<path d="m460.79 269.24 0.41718 0.41712zm0.8343 0 0.41718 0.41712z" fill="#0d0b05"/>
		<path d="m421.16 269.66 0.41713 0.41718z" fill="#0f0d06"/>
		<path d="m411.57 270.5 0.41713 0.41712zm-72.585 0.8343 0.41718 0.41712z" fill="#0f0d06"/>
		<path d="m364.85 271.33 0.41712 0.41712z" fill="#0f0e07"/>
		<path d="m429.92 271.75 0.41717 0.41718z" fill="#0d0b05"/>
		<path d="m368.6 272.16 0.41718 0.41718z" fill="#0f0d06"/>
		<path d="m430.76 275.08 0.41713 0.41718zm0.41713 0.41718 0.41717 0.41718z" fill="#0d0b05"/>
		<path d="m431.59 275.92 0.41713 0.41712zm4.1716 1.6686 0.41713 0.41718z" fill="#0d0b05"/>
		<path d="m393.63 279.26 0.41713 0.41718z" fill="#0d0b05"/>
		<path d="m434.51 279.26 0.41718 0.41718zm-19.606 1.6687 0.41713 0.41712z" fill="#010101"/>
		<path d="m436.6 281.34 0.41718 0.41718zm-43.384 0.41718 0.41717 0.41718zm43.801 0 0.8343 0.8343z" fill="#0d0b05"/>
		<path d="m437.43 281.76 0.41717 0.41718z" fill="#fff"/>
		<path d="m416.99 282.59 0.41713 0.41718z" fill="#0e0b05"/>
		<path d="m360.26 283.01 0.41718 0.41712z" fill="#0d0b05"/>
		<path transform="translate(16.875 4.0586)" d="m467.06 177c-1.6501-0.30031-2.9412-1.528-2.9412-2.7966 0-1.1976 0.76706-2.4063 3.891-6.1313 2.4916-2.971 2.1904-2.8924-2.4204 0.63231-5.0993 3.898-8.7503 5.3821-13.84 5.6254-2.3637 0.11302-4.2977 0.054-4.2977-0.13123 0-0.18518 0.69653-0.92279 1.5478-1.6391 0.85131-0.71633 3.7094-4.1949 6.3513-7.7301 4.8251-6.4566 7.1799-8.6452 10.281-9.5549 4.9034-1.4385 11.217 2.3491 12.638 7.5819 1.3193 4.8581-2.9645 12.681-7.6576 13.985-1.0101 0.28053-1.9469 0.48124-2.0817 0.44603-0.1348-0.0352-0.79657-0.16439-1.4706-0.28706z" fill="#fef666"/>
		<path transform="translate(16.875 4.0586)" d="m460.44 204.96c-1.6056-0.44531-3.6719-2.1205-5.1747-4.195-1.7899-2.4709-3.0528-5.8521-5.1746-13.855-0.92931-3.5049-1.8009-6.7353-1.9368-7.1787-0.68558-2.2363 4.1896-3.3737 10.151-2.3682 4.6906 0.79117 6.4152 2.3651 7.2566 6.6226 0.31787 1.6084 0.63822 3.1449 0.71189 3.4145 0.0737 0.26961 0.4196-1.0202 0.76874-2.8663 0.38817-2.0524 1.063-3.8543 1.737-4.6378l1.1022-1.2813 1.7877 1.2064c2.8085 1.8953 4.3985 5.6145 4.3689 10.22-0.0419 6.5172-2.7254 11.596-7.251 13.723-2.2402 1.053-6.6062 1.6784-8.3468 1.1957z" fill="#fef67a"/>
	</g>
</svg>