<svg xmlns="http://www.w3.org/2000/svg" xmlns:xlink="http://www.w3.org/1999/xlink" version="1.1" width="128" height="128" viewBox="0 0 128 128" id="linux-fedora">
	<g id="g1">
		<g id="g2" transform="matrix(0.43046721,0,0,0.43046721,6.5326275,6.5326275)">
			<path id="voice" d="m 266.62575,133.50613 c 0,-73.52485 -59.60353,-133.1303 -133.12783,-133.1303 -73.49124,0 -133.07153,59.5554 -133.12367,133.03642 V 236.4333 c 0.03955,16.68433 13.5712,30.19087 30.26602,30.19087 h 102.91165 c 73.49975,-0.0288 133.07383,-59.61275 133.07383,-133.11804" style="fill:#294172"/>
			<path id="in" d="m 77.126289,142.09756 c 0,0 47.844751,0 47.844751,0 0,0 0,47.84478 0,47.84478 0,26.41029 -21.43445,47.84473 -47.844751,47.84473 -26.41031,0 -47.844759,-21.43444 -47.844759,-47.84473 0,-26.41031 21.434449,-47.84478 47.844759,-47.84478 z" style="fill:none;stroke:#3c6eb4;stroke-width:29.20999908"/>
			<use id="finity" transform="rotate(180,124.85576,142.1441)" xlink:href="#in" x="0" y="0" width="100%" height="100%"/>
			<path id="free" d="m 139.6074,127.52923 v 62.34618 c 0,34.50402 -27.97537,62.48 -62.48061,62.48 -5.23494,0 -8.95649,-0.59101 -13.80235,-1.8577 -7.06595,-1.84912 -12.84046,-7.64253 -12.84286,-14.38111 0,-8.14513 5.91236,-14.0699 14.75029,-14.0699 4.20637,0 5.73267,0.80765 11.89492,0.80765 18.19161,0 32.94764,-14.73519 32.97955,-32.92679 v -28.65657 c 0,-2.56775 -2.08663,-4.64825 -4.65867,-4.64825 l -21.66521,-0.004 c -8.07212,0 -14.59401,-6.43843 -14.59401,-14.53266 -0.0043,-8.14456 6.5888,-14.55657 14.74808,-14.55657" style="fill:#ffffff"/>
			<use id="dom" transform="rotate(180,124.85576,142.1441)" xlink:href="#free" x="0" y="0" width="100%" height="100%"/>
		</g>
	</g>
</svg>