<svg xmlns="http://www.w3.org/2000/svg" version="1.1" height="128" width="128" viewBox="0 0 128 128" id="linux-redhat">
	<g id="g1">
		<g id="g2" transform="matrix(4,0,0,4,3.614,4.342)">
			<path id="p1" d="m 27.493,22.936 c -0.569,-0.13 -1.173,-0.213 -1.783,-0.213 -1.045,0 -1.995,0.182 -2.696,0.473 -0.078,0.039 -0.132,0.12 -0.132,0.211 0,0.034 0.007,0.068 0.021,0.096 0.082,0.24 -0.054,0.499 -0.732,0.65 -1.006,0.22 -1.641,1.259 -2.004,1.602 -0.427,0.405 -1.631,0.654 -1.45,0.411 0.142,-0.187 0.684,-0.776 1.013,-1.412 0.296,-0.568 0.559,-0.73 0.92,-1.273 0.107,-0.159 0.518,-0.718 0.638,-1.16 0.134,-0.432 0.089,-0.974 0.141,-1.197 0.074,-0.322 0.377,-1.019 0.4,-1.415 0.013,-0.221 -0.931,0.32 -1.379,0.32 -0.448,0 -0.885,-0.269 -1.285,-0.287 -0.495,-0.024 -0.814,0.381 -1.263,0.309 -0.255,-0.04 -0.472,-0.265 -0.918,-0.281 -0.637,-0.024 -1.416,0.353 -2.877,0.307 C 12.669,20.03 11.341,18.259 11.16,17.978 10.947,17.649 10.687,17.649 10.405,17.909 10.122,18.166 9.772,17.963 9.674,17.79 9.485,17.46 8.981,16.497 8.2,16.294 c -1.08,-0.28 -1.627,0.598 -1.556,1.295 0.072,0.709 0.531,0.908 0.744,1.285 0.211,0.376 0.32,0.62 0.718,0.787 0.284,0.118 0.389,0.292 0.305,0.524 C 8.337,20.387 8.043,20.434 7.848,20.443 7.437,20.463 7.149,20.351 6.938,20.217 6.694,20.06 6.494,19.844 6.282,19.477 6.034,19.071 5.645,18.895 5.192,18.895 c -0.216,0 -0.419,0.057 -0.598,0.148 -0.71,0.371 -1.556,0.589 -2.466,0.589 L 1.1,19.633 c 1.969,5.837 7.492,10.039 13.997,10.039 5.195,0 9.764,-2.68 12.396,-6.736" style="fill:#ffffff"/>
			<path id="p2" d="m 27.493,22.938 c -0.569,-0.132 -1.173,-0.214 -1.783,-0.214 -1.045,0 -1.995,0.182 -2.696,0.473 -0.078,0.039 -0.132,0.119 -0.132,0.211 0,0.033 0.007,0.068 0.021,0.095 0.082,0.241 -0.054,0.501 -0.732,0.651 -1.006,0.221 -1.641,1.258 -2.004,1.601 -0.427,0.406 -1.631,0.655 -1.45,0.413 0.142,-0.189 0.684,-0.778 1.013,-1.414 0.296,-0.567 0.559,-0.73 0.92,-1.272 0.107,-0.159 0.518,-0.719 0.638,-1.16 0.134,-0.433 0.089,-0.974 0.141,-1.197 0.074,-0.322 0.377,-1.019 0.4,-1.414 0.013,-0.223 -0.931,0.318 -1.379,0.318 -0.448,0 -0.885,-0.268 -1.285,-0.286 -0.495,-0.025 -0.814,0.381 -1.263,0.309 -0.255,-0.04 -0.472,-0.265 -0.918,-0.282 -0.637,-0.023 -1.416,0.354 -2.877,0.307 C 12.669,20.03 11.341,18.261 11.16,17.98 10.947,17.649 10.687,17.649 10.405,17.909 10.122,18.167 9.772,17.964 9.674,17.791 9.485,17.46 8.981,16.497 8.2,16.294 7.12,16.014 6.573,16.892 6.644,17.59 c 0.072,0.708 0.531,0.907 0.744,1.284 0.211,0.376 0.32,0.621 0.718,0.788 0.284,0.117 0.389,0.292 0.305,0.524 C 8.337,20.388 8.043,20.435 7.848,20.444 7.437,20.463 7.149,20.352 6.938,20.216 6.694,20.062 6.494,19.845 6.282,19.477 6.034,19.072 5.645,18.895 5.192,18.895 c -0.216,0 -0.419,0.058 -0.598,0.148 -0.71,0.371 -1.556,0.59 -2.466,0.59 H 1.1 C 0.6,18.152 0.33,16.565 0.33,14.916 0.33,6.764 6.941,0.157 15.097,0.157 c 8.154,0 14.766,6.607 14.766,14.759 0,2.958 -0.871,5.71 -2.37,8.022" style="fill:#000000"/>
			<path id="p3" d="m 18.3484,21.5845 c 0.076,0.073 0.207,0.322 0.047,0.639 -0.09,0.168 -0.187,0.285 -0.359,0.423 -0.209,0.167 -0.614,0.359 -1.17,0.005 -0.3,-0.189 -0.319,-0.253 -0.732,-0.199 -0.295,0.038 -0.412,-0.261 -0.307,-0.508 0.107,-0.247 0.542,-0.447 1.085,-0.129 0.245,0.143 0.625,0.447 0.957,0.177 0.139,-0.109 0.222,-0.183 0.413,-0.405 0.009,-0.009 0.021,-0.014 0.035,-0.014 0.012,0 0.023,0.004 0.031,0.011" style="fill:#000000"/>
			<path id="p4" d="m 13.9471,7.185 c -1.705,0.123 -1.883,0.307 -2.202,0.646 -0.45,0.481 -1.044,-0.621 -1.044,-0.621 -0.357,-0.075 -0.788,-0.649 -0.555,-1.184 0.23,-0.53 0.654,-0.372 0.786,-0.207 0.161,0.201 0.506,0.53 0.954,0.518 0.448,-0.012 0.964,-0.106 1.685,-0.106 0.73,0 1.22,0.272 1.247,0.507 0.025,0.199 -0.059,0.387 -0.871,0.447 m 1.792,-2.817 h -0.008 c -0.026,0 -0.047,-0.02 -0.047,-0.044 0,-0.018 0.011,-0.034 0.027,-0.041 0.331,-0.174 0.824,-0.314 1.388,-0.37 0.169,-0.018 0.335,-0.028 0.494,-0.028 h 0.085 c 0.947,0.022 1.704,0.398 1.693,0.84 -0.012,0.442 -0.787,0.783 -1.735,0.763 -0.305,-0.008 -0.593,-0.052 -0.84,-0.124 -0.031,-0.007 -0.051,-0.032 -0.051,-0.062 0,-0.029 0.02,-0.054 0.052,-0.062 0.589,-0.136 0.988,-0.36 0.96,-0.571 -0.038,-0.279 -0.809,-0.431 -1.725,-0.339 -0.101,0.01 -0.198,0.023 -0.293,0.038 m 7.69,6.621 c -0.146,0.49 -0.353,1.117 -1.277,1.591 -0.135,0.069 -0.185,-0.044 -0.124,-0.15 0.35,-0.594 0.411,-0.742 0.513,-0.975 0.141,-0.343 0.217,-0.83 -0.066,-1.844 -0.555,-1.997 -1.715,-4.668 -2.556,-5.533 -0.813,-0.836 -2.285,-1.072 -3.617,-0.73 -0.49,0.125 -1.449,0.623 -3.227,0.223 -3.077,-0.693 -3.533,0.847 -3.709,1.518 -0.178,0.671 -0.602,2.578 -0.602,2.578 -0.141,0.778 -0.326,2.128 4.453,3.039 2.226,0.423 2.338,0.999 2.438,1.412 0.177,0.741 0.459,1.165 0.777,1.377 0.318,0.212 0,0.388 -0.353,0.423 -0.947,0.099 -4.452,-0.906 -6.526,-2.083 -1.696,-1.036 -1.724,-1.968 -1.336,-2.76 -2.562,-0.277 -4.485,0.24 -4.833,1.453 -0.599,2.08 4.576,5.634 10.469,7.418 6.184,1.871 12.544,0.564 13.251,-3.321 0.321,-1.765 -1.166,-3.071 -3.675,-3.636" style="fill:#e93442"/>
		</g>
	</g>
</svg>