<svg xmlns="http://www.w3.org/2000/svg" xmlns:xlink="http://www.w3.org/1999/xlink" version="1.1" height="128" width="128" viewBox="0 0 128 128" id="linux-suse">
	<g id="layer1">
		<g id="g847" transform="translate(-96.49994,-49.0003)">
			<g transform="matrix(0.50794886,0,0,0.531441,106.47865,58.118605)" id="g1460">
				<path id="path2" style="fill:#73ba25;fill-rule:nonzero" d="m 198.62325,34.07995 c -5.46064,-0.20052 -9.74704,-4.80372 -9.56466,-10.27218 0.0841,-2.64754 1.21583,-5.0947 3.13905,-6.90149 1.93101,-1.80627 4.45313,-2.74648 7.10068,-2.64688 5.46845,0.19137 9.75604,4.7869 9.57234,10.2637 -0.0828,2.6392 -1.19901,5.08622 -3.13004,6.90083 -1.94002,1.79845 -4.46215,2.7388 -7.11751,2.65602 z m 2.2983,-8.98258 c 2.43032,0 4.40267,-1.31476 4.40267,-2.92951 0,-1.62323 -1.97247,-2.93866 -4.40267,-2.93866 -2.43154,0 -4.3962,1.31543 -4.3962,2.93866 0,1.61475 1.96466,2.92951 4.3962,2.92951"/>
				<path id="path4" style="fill:#73ba25;fill-rule:evenodd" d="m 86.27912,91.03489 0.35143,-0.033 0.057,-0.41614 c -0.09,-0.32674 -0.30193,-0.62036 -0.62933,-4.67085 -0.2779,-3.58485 -0.84123,-13.41571 4.10688,-18.29079 1.91955,-1.90255 4.85041,-3.59305 7.16205,-4.13988 9.48006,-2.311 21.7856,-0.71053 32.29451,11.44029 5.42256,6.27899 8.08447,9.14514 9.41536,10.42718 l 0.4568,0.42444 0.55566,0.40029 c 0.43263,0.24489 18.06175,8.36159 18.06175,8.36159 l 0.3591,-0.09 0.009,-0.38313 c -0.11419,-0.1307 -11.17005,-14.41297 -9.211,-26.17923 1.55162,-9.37406 9.01444,-8.53296 19.32807,-7.35745 3.3723,0.38378 7.21025,0.82473 11.17889,0.91476 11.0799,0.0654 23.01883,-1.96775 30.37628,-5.18533 4.76036,-2.08196 7.79775,-3.45417 9.7008,-5.18534 0.68506,-0.56333 1.04416,-1.49393 1.41208,-2.47405 l 0.25374,-0.66103 c 0.30959,-0.79237 0.75873,-2.49055 0.95543,-3.41349 0.09,-0.40795 0.13068,-0.84941 -0.15604,-1.0695 l -1.02013,0.18774 c -3.22511,1.9354 -11.30192,5.62627 -18.86243,5.77335 -9.36588,0.19539 -28.24469,-9.42356 -30.21258,-10.44433 L 172.0347,38.7509 c -0.47445,-1.1273 -3.3076,-7.83127 -3.90392,-9.24336 13.58824,8.94909 24.85586,13.89785 33.48717,14.6654 9.6031,0.85708 17.09125,-4.38477 20.2922,-6.62289 0.62803,-0.42444 1.10249,-0.76755 1.29789,-0.84057 l 0.20423,-0.33493 C 222.88065,33.00224 217.859,16.67101 214.07058,12.75122 213.01757,11.67341 212.17635,10.6286 210.47753,9.63199 196.75105,1.630012 164.16213,-3.20454 162.63583,-3.424627 l -0.26139,0.07353 -0.0977,0.228399 c 0,0 -0.12302,6.761123 -0.13954,7.512835 C 158.80543,3.279328 134.61189,-4.535437 111.9267,-5.327162 92.69777,-6.00482 66.42852,-6.91958 29.307626,15.894998 l -1.09431,0.68571 C 10.755426,27.47353 -1.297043,40.89808 -7.600721,56.51058 c -1.97607,4.90744 -4.637854,15.98864 -2.00907,26.41582 1.143159,4.56497 3.258113,9.13748 6.116594,13.23681 6.442691,9.25934 17.261843,15.40894 28.914033,16.44543 16.44542,1.46925 28.906364,-5.9199 33.339984,-19.75304 3.04556,-9.54541 0,-23.54914 -11.67688,-30.69405 -9.496574,-5.8222 -19.720034,-4.4913 -25.640064,-0.57982 -5.14415,3.41297 -8.05901,8.70419 -8.00198,14.52651 0.1142,10.31299 9.00678,15.80025 15.39243,15.80856 1.86122,0 3.72309,-0.31843 5.82986,-1.00414 0.74353,-0.22905 1.45341,-0.50617 2.22916,-0.9883 l 0.23723,-0.15473 0.15473,-0.09 -0.057,0.0247 c 1.46159,-0.98011 2.34335,-2.59644 2.34335,-4.32774 0,-0.47381 -0.0735,-0.95542 -0.20423,-1.43742 -0.75107,-2.60474 -3.33178,-4.18873 -6.01006,-3.69906 l -0.3591,0.0735 -0.4898,0.16305 -0.71052,0.23723 c -1.46978,0.36729 -2.58059,0.39211 -2.80898,0.39964 -0.75107,-0.0489 -4.43428,-1.15069 -4.43428,-5.18469 v -0.0488 c 0.009,-1.4781 0.60452,-2.51524 0.93126,-3.07857 1.13485,-1.79652 4.27058,-3.56005 8.50815,-3.18458 5.55326,0.47329 9.55425,3.32347 12.207854,8.69653 2.46639,4.99695 1.82134,11.13771 -1.65763,15.64487 -3.454174,4.46727 -9.602464,6.36149 -17.784644,5.47076 C 18.512276,98.52312 11.539256,93.77873 7.635969,86.38894 3.814527,79.17037 3.601979,70.60454 7.089139,64.02362 15.442556,48.2639 31.209796,48.42695 39.857606,49.92154 52.66114,52.1342 64.28085,62.38182 69.44969,76.01074 c 0.82472,2.17211 1.24904,3.89497 1.61632,5.46258 l 0.55566,2.35985 14.46053,7.06305 0.19669,0.13888 3.9e-4,-1.3e-4 z M 189.0675,14.11496 c -2.72649,2.53108 -4.28708,5.98525 -4.41778,9.70899 -0.25242,7.67524 5.774,14.14261 13.44872,14.42882 3.74025,0.12238 7.28378,-1.19266 10.00273,-3.74024 2.71895,-2.53941 4.27942,-5.98525 4.41777,-9.70081 0.2614,-7.68354 -5.76515,-14.1591 -13.45624,-14.43636 -3.72374,-0.12237 -7.27625,1.19202 -9.9952,3.7396"/>
			</g>
			<g transform="matrix(0.6561,0,0,0.6561,83.347679,4.2842372)" id="g1470">
				<g id="g1482">
					<path d="m 65.22655,217.33277 c -6.02344,0 -9.35885,5.10236 -9.35885,8.6369 v 4.53017 c 0,5.18966 4.24374,8.41293 8.18895,8.41293 H 77.8708 c 1.72999,0 2.09096,1.1323 2.09096,2.09063 v 2.92474 c 0,0.31096 -0.0497,3.12388 -2.09096,3.12388 H 59.01642 c -1.867,0 -3.22327,1.29415 -3.22327,3.07383 v 0.80894 c 0,1.76726 1.34385,3.07416 3.22327,3.07416 h 19.88759 c 5.18966,0 8.54993,-3.60941 8.54993,-9.20975 v -4.89082 c 0,-5.2521 -3.78337,-7.604 -7.52945,-7.604 H 66.33432 c -2.05369,0 -2.97444,-1.51845 -2.97444,-2.61348 v -2.68833 c 0,-1.70482 1.1323,-2.67559 3.12354,-2.67559 h 15.0589 c 1.84184,0 3.22328,-1.31931 3.22328,-3.07416 v -0.80893 c 0,-1.74241 -1.4063,-3.07385 -3.28539,-3.07385 H 65.2514" id="S" style="fill:#73ba25"/>
					<path d="m 121.76547,217.33277 c -1.7797,0 -3.22326,1.44357 -3.22326,3.22326 v 23.14815 c 0,1.84181 -1.50601,3.33541 -3.33542,3.33541 H 104.7029 c -1.84183,0 -3.33543,-1.4936 -3.33543,-3.33541 v -23.14815 c 0,-1.77969 -1.43113,-3.22326 -3.22326,-3.22326 h -1.02047 c -1.79212,0 -3.22327,1.41872 -3.22327,3.22326 v 24.03162 c 0,5.58792 4.39317,9.64527 10.45388,9.64527 h 11.22584 c 6.06071,0 10.45387,-4.05735 10.45387,-9.64527 v -24.03162 c 0,-1.80454 -1.41871,-3.22326 -3.22326,-3.22326 h -1.02048" style="fill:#73ba25" id="path9"/>
					<use transform="translate(76.656545)" xlink:href="#S" id="use11" x="0" y="0" width="100%" height="100%"/>
					<path d="m 173.66209,217.33277 c -1.77938,0 -3.1484,1.319 -3.1484,3.07383 v 30.52819 c 0,1.74241 1.319,3.07416 3.08627,3.07416 h 24.33046 c 1.86699,0 3.22359,-1.29447 3.22359,-3.07416 v -0.80894 c 0,-1.76726 -1.34417,-3.07383 -3.22359,-3.07383 0,0 -19.02865,0 -19.92487,0 0,-0.7965 0,-6.98179 0,-7.77829 0.89622,0 14.59854,0 14.59854,0 1.86667,0 3.22326,-1.29446 3.22326,-3.08659 v -0.79649 c 0,-1.7797 -1.35659,-3.08627 -3.22326,-3.08627 0,0 -13.70232,0 -14.59854,0 0,-0.79649 0,-7.19334 0,-7.98983 0.89622,0 18.91682,0 18.91682,0 1.867,0 3.22359,-1.29446 3.22359,-3.07416 v -0.80892 c 0,-1.7797 -1.35659,-3.07384 -3.22359,-3.07384 h -23.24753" style="fill:#73ba25" id="path13"/>
				</g>
				<g transform="translate(-1.2139458)" id="g1476">
					<path d="m 99.26902,175.12856 c -3.67435,0 -6.67105,2.8612 -6.67105,6.40014 v 13.92945 c 0,3.58404 2.89129,6.5054 6.44518,6.5054 h 9.00514 c 3.55389,0 6.46021,-2.92136 6.46021,-6.5054 V 181.5287 c 0,-3.52389 -2.99669,-6.40014 -6.67105,-6.40014 z m -1.9426,19.7872 v -12.70934 c 0,-1.49114 1.21978,-2.71087 2.7106,-2.71087 h 7.0174 c 1.46071,0 2.71055,1.23516 2.71055,2.71087 v 12.70934 c 0,1.49113 -1.21973,2.71085 -2.71055,2.71085 h -7.07765 c -1.49083,0 -2.65035,-1.18964 -2.65035,-2.71085" style="fill:#73ba25;stroke-width:1.21000004" id="path15"/>
					<path d="m 134.92834,174.96316 c -2.60524,0 -4.54787,0.93371 -6.12906,1.68659 -0.94869,0.45144 -1.77692,0.84311 -2.42444,0.84311 -0.27105,0 -0.52707,-0.12028 -0.66261,-0.33116 l -0.58728,-1.14456 c -0.13554,-0.30109 -0.73789,-0.88858 -1.49083,-0.88858 h -0.87339 c -0.84329,0 -1.536,0.75326 -1.536,1.7016 v 35.31304 c 0,1.09906 0.85836,1.97263 1.9727,1.97263 h 0.76801 c 1.08423,0 1.9727,-0.88859 1.9727,-1.97263 v -11.71588 c 0,-0.34618 0.22587,-0.7078 0.4367,-0.7078 0.64752,0 1.47575,0.36162 2.43951,0.81343 1.56612,0.70777 3.52379,1.61102 6.12903,1.61102 h 0.81303 c 4.59291,0 7.45413,-2.6199 7.45413,-6.83654 v -13.47765 c 0,-4.15613 -2.92137,-6.85159 -7.45413,-6.85159 h -0.82807 v 0 -0.015 z m -9.00528,19.68158 v -12.15227 c 0,-1.67155 1.31014,-2.98188 2.98166,-2.98188 h 6.56564 c 1.67155,0 2.9815,1.31033 2.9815,2.98188 v 12.15227 c 0,1.64147 -1.32498,2.98187 -2.9815,2.98187 h -6.56564 c -1.64141,0 -2.98166,-1.3404 -2.98166,-2.98187" style="fill:#73ba25;stroke-width:1.21000004" id="path17"/>
					<path d="m 156.55248,175.12856 c -3.67425,0 -6.67077,2.8612 -6.67077,6.40014 v 13.82382 c 0,3.58403 2.90631,6.62606 6.33962,6.62606 h 9.29143 c 1.14419,0 1.97264,-0.78334 1.97264,-1.86738 v -0.60256 c 0,-1.08404 -0.82845,-1.86697 -1.97264,-1.86697 h -7.61988 c -2.1384,0 -3.26793,-1.03934 -3.26793,-3.04203 0,0 0,-3.47842 0,-4.03586 0.61759,0 13.76407,0 13.76407,0 2.19854,0 3.52353,-1.35504 3.52353,-3.64417 v -5.36084 c 0,-3.5239 -2.99654,-6.39976 -6.67079,-6.39976 h -8.67387 l -0.0154,-0.0305 z m -1.94257,7.01735 c 0,-1.47573 1.1596,-2.65036 2.65034,-2.65036 h 7.24326 c 1.49113,0 2.65035,1.15959 2.65035,2.65036 0,0 0,3.74979 0,4.30686 -0.58712,0 -11.95644,0 -12.54395,0 0,-0.55707 0,-4.30686 0,-4.30686" style="fill:#73ba25;stroke-width:1.21000004" id="path19"/>
					<path d="m 191.06751,174.96316 c -2.59019,0 -4.54779,0.91866 -6.11411,1.67156 -0.97879,0.45144 -1.82189,0.85814 -2.49962,0.85814 -0.30107,0 -0.42172,-0.03 -0.64763,-0.43679 l -0.54202,-0.99384 c -0.30109,-0.61718 -0.82806,-0.93367 -1.5509,-0.93367 h -0.7683 c -0.91827,0 -1.58096,0.70776 -1.58096,1.7016 v 23.16037 c 0,1.09946 0.87317,1.98805 1.97263,1.98805 h 0.76793 c 1.08442,0 1.97263,-0.88859 1.97263,-1.98805 v -17.52814 c 0,-1.64147 1.34039,-2.98187 2.98188,-2.98187 h 6.56553 c 1.64148,0 2.98151,1.3404 2.98151,2.98187 v 17.52814 c 0,1.09946 0.87354,1.98805 1.973,1.98805 h 0.76793 c 1.08404,0 1.97263,-0.88859 1.97263,-1.98805 v -18.17579 c 0,-4.15611 -2.92136,-6.85158 -7.45413,-6.85158 h -0.82806" style="fill:#73ba25;stroke-width:1.21000004" id="path21"/>
				</g>
			</g>
		</g>
	</g>
</svg>