<svg xmlns="http://www.w3.org/2000/svg" version="1.1" width="128" height="128" viewBox="0 0 128 128" id="linux-arch">
	<g id="g1">
		<path id="p1" d="M 64,3.1744905 C 58.58462,16.450248 55.296236,25.145838 49.268799,38.027559 52.963954,41.945108 57.506866,46.491822 64.876268,51.64489 56.953733,48.385018 51.553561,45.121345 47.516261,41.724615 39.800914,57.824391 27.704223,80.74994 3.1743995,124.82568 22.448511,113.6984 37.392601,106.83271 51.317861,104.21342 50.72101,101.64543 50.403577,98.85506 50.426386,95.95634 l 0.0152,-0.608256 c 0.30603,-12.351398 6.732634,-21.849696 14.345338,-21.205325 7.610804,0.644371 13.537497,11.184307 13.23147,23.537607 -0.05893,2.326574 -0.32884,4.561914 -0.786932,6.637594 13.775098,2.69533 28.576638,9.52871 47.594138,20.50772 -3.75028,-6.9037 -7.10899,-13.12502 -10.30614,-19.05362 -5.03522,-3.90233 -10.28523,-8.979368 -20.998142,-14.478382 7.363702,1.914105 12.640322,4.126636 16.749852,6.593875 C 77.771295,37.375585 75.14439,29.329498 64,3.1744905 v -1.716e-4 z" fill="#1793d1" style="stroke-width:1.9008"/>
	</g>
</svg>
