<svg xmlns="http://www.w3.org/2000/svg" xmlns:xlink="http://www.w3.org/1999/xlink" version="1.1" height="128" width="128" viewBox="0 0 128 128" id="linux-mint">
	<defs id="dfs1">
		<filter id="flt3573" style="color-interpolation-filters:sRGB">
			<feGaussianBlur id="feGaussianBlur3575" stdDeviation="1.6284922"/>
		</filter>
		<linearGradient y2="408.57144" x2="116.42857" y1="362.14285" x1="61.42857" gradientTransform="matrix(1.091261,0,0,1.091261,196.35071,-38.224469)" gradientUnits="userSpaceOnUse" id="lgrd3538" xlink:href="#lgrd3312"/>
		<linearGradient id="lgrd3312">
			<stop id="stp3314" offset="0" style="stop-color:#c7f994;stop-opacity:1;"/>
			<stop id="stp3316" offset="1" style="stop-color:#87cf3e;stop-opacity:1;"/>
		</linearGradient>
		<linearGradient y2="375.87961" x2="113.64215" y1="416.38858" x1="70.491508" spreadMethod="pad" gradientTransform="translate(0,80)" gradientUnits="userSpaceOnUse" id="lgrd4136" xlink:href="#lgrd3431"/>
		<linearGradient id="lgrd3431">
			<stop style="stop-color:#3d3d3d;stop-opacity:1;" offset="0" id="stp3433"/>
			<stop style="stop-color:#000000;stop-opacity:0.11400651;" offset="1" id="stp3435"/>
		</linearGradient>
		<filter id="flt3291" style="color-interpolation-filters:sRGB">
			<feGaussianBlur id="feGaussianBlur3293" stdDeviation="0.400625"/>
		</filter>
		<filter id="flt3546" style="color-interpolation-filters:sRGB">
			<feGaussianBlur id="feGaussianBlur3548" stdDeviation="0.15992437"/>
		</filter>
	</defs>
	<g id="g1">
		<g id="g2" transform="matrix(0.99683469,0,0,0.99683469,-239.3541,-324.09535)">
			<path style="display:inline;overflow:visible;visibility:visible;opacity:0.26000001;fill:#000000;fill-opacity:1;fill-rule:evenodd;stroke:none;stroke-width:1;marker:none;filter:url(#flt3573);enable-background:accumulate" d="m 331.79042,510.93347 c -21.29012,0 -39.7658,-16.13992 -39.7658,-37.41096 l -0.0191,-21.99227 v -6.58604 h -13.49776 v -36.6513 l 56.92036,0.26806 17.80557,0.0383 c 21.30926,0 39.76579,16.12071 39.76579,37.41086 v 64.92334 h -61.20904 v 0 0 z" id="path3543" transform="matrix(1.0429295,0,0,1.0429295,-46.853192,-90.016462)"/>
			<path style="display:inline;fill:url(#lgrd3538);fill-opacity:1;fill-rule:evenodd" d="m 354.82505,425.26498 c 0,-14.72024 0,-49.44521 0,-49.44521 0,-16.51906 -14.4866,-29.9098 -32.36077,-29.9098 h -18.55166 v -0.0399 l -50.17518,-0.21924 v 18.04093 c 0,0 4.09686,0 7.7022,0 5.37631,0 6.32609,3.71136 6.32609,8.84831 l 0.0399,31.89432 c 0,16.51907 14.48666,29.90979 32.34088,29.90979 h 44.08203 c 5.65135,0 10.59654,-3.57895 10.59654,-9.07924 z" id="path2576"/>
			<path style="display:inline;opacity:0.17514122;fill:url(#lgrd4136);fill-opacity:1;fill-rule:nonzero;filter:url(#flt3291)" d="m 142.9375,500.53125 c -10.75182,-7.40935 -18.36682,-15.92034 -24.78125,-27.1875 -12.64444,-23.35809 -9.68791,-34.95326 -41,-37.6875 -9.036289,0 -15.051217,-2 -24.5625,-2 v 3.3125 c 10e-7,10e-6 3.758681,1.90749 7.0625,1.90749 4.926697,1e-5 5.78125,3.41765 5.78125,8.125 l 0.03125,29.15501 c -3e-6,15.13758 13.295158,27.40625 29.65625,27.40625 H 135.5 c 2.96358,0 5.62572,-1.16787 7.4375,-3.03125 z" id="path3419" transform="matrix(1.0484996,0,0,1.0484996,200.58,-95.364589)"/>
			<path style="display:inline;overflow:visible;visibility:visible;fill:#000000;fill-opacity:0.08040203;fill-rule:evenodd;stroke:none;stroke-width:4.7667098;marker:none;filter:url(#flt3546);enable-background:accumulate" d="m 105.51844,438.54009 c -3.83671,0 -7.245744,1.42445 -9.984837,4.1914 -2.737725,2.76548 -4.1752,6.21796 -4.17519,10.11421 v 19.69466 h 8.932957 V 452.8457 c 0,-1.49338 0.48728,-2.66108 1.55355,-3.73818 1.06977,-1.08055 2.2026,-1.56971 3.67352,-1.56971 1.50175,0 2.61758,0.4867 3.68969,1.56971 1.06628,1.0771 1.55356,2.2448 1.55356,3.73818 v 19.69466 h 8.93297 V 452.8457 c 0,-1.49338 0.48728,-2.66108 1.55356,-3.73818 1.07211,-1.08301 2.18794,-1.56971 3.68971,-1.56971 1.47093,0 2.60373,0.48916 3.6735,1.56971 1.06627,1.0771 1.55356,2.2448 1.55356,3.73818 l 0.0486,23.01222 c 0,4.90894 -4.67486,9.04618 -10.68071,9.04618 l -28.805549,-0.11326 c -4.634707,0 -8.593128,-4.51117 -8.593128,-10.30852 v -43.33528 h -8.447462 v 45.00209 c 0,4.77471 1.747181,8.96178 5.146164,12.3476 2.905193,2.8676 6.399074,4.56445 10.324689,4.98427 v 0.16191 h 32.074486 c 4.92872,0 9.25884,-1.83265 12.75212,-5.38904 h 0.0162 c 2.97102,-3.05245 4.70787,-6.70998 5.12997,-10.82624 l -0.0324,-24.58193 c 0,-3.89625 -1.43744,-7.34873 -4.17521,-10.11421 -2.73906,-2.76695 -6.14812,-4.1914 -9.98482,-4.1914 -3.76604,0 -7.06133,1.40042 -9.72593,3.96479 -2.65681,-2.56014 -5.92908,-3.96479 -9.69356,-3.96479 z" id="path2620" transform="matrix(1.0484996,0,0,1.0484996,200.58,-95.364589)"/>
			<path style="display:inline;overflow:visible;visibility:visible;fill:#ffffff;fill-opacity:1;fill-rule:evenodd;stroke:none;stroke-width:1;marker:none;enable-background:accumulate" d="m 310.46807,364.69038 c -4.02279,0 -7.59716,1.49353 -10.4691,4.39468 -2.87051,2.8996 -4.3777,6.51953 -4.37769,10.60474 v 20.64985 h 9.36621 V 379.6898 c 0,-1.5658 0.51091,-2.79014 1.62889,-3.91948 1.12166,-1.13295 2.30943,-1.64584 3.85169,-1.64584 1.57458,0 2.74453,0.51031 3.86864,1.64584 1.11799,1.12934 1.62891,2.35368 1.62891,3.91948 v 20.64985 h 9.3662 V 379.6898 c 0,-1.5658 0.51092,-2.79014 1.62892,-3.91948 1.1241,-1.13553 2.29405,-1.64584 3.86866,-1.64584 1.54227,0 2.73001,0.51289 3.85165,1.64584 1.11799,1.12934 1.62891,2.35368 1.62891,3.91948 l 0.0509,24.12831 c 0,5.14702 -4.90159,9.48491 -11.19872,9.48491 l -30.2026,-0.11875 c -4.85949,0 -9.00989,-4.72996 -9.00989,-10.80848 v -45.43702 h -8.85716 v 47.18467 c 0,5.00628 1.83192,9.39642 5.39575,12.94646 3.04609,3.00667 6.70943,4.95566 10.82542,5.39584 l 33.6301,-8e-5 c 5.16776,0 9.70788,-1.92153 13.37059,-5.6504 h 0.017 c 3.1151,-3.2005 4.9362,-7.03541 5.37877,-11.35131 l -0.0339,-25.77415 c 0,-4.08521 -1.50714,-7.70514 -4.37769,-10.60474 -2.87191,-2.90115 -6.44631,-4.39468 -10.46908,-4.39468 -3.94869,0 -7.4038,1.46834 -10.19764,4.15708 -2.78567,-2.68431 -6.21663,-4.15708 -10.16369,-4.15708 z" id="path4130"/>
			<path style="display:inline;overflow:visible;visibility:visible;opacity:0.3;fill:#52a800;fill-opacity:1;fill-rule:evenodd;stroke:none;stroke-width:1;marker:none;enable-background:accumulate" d="m 304.96011,413.21566 v 9.25 h 22 c 5.16774,0 9.68104,-1.92738 13.34374,-5.65625 h 0.0313 c 3.11511,-3.20051 4.93243,-7.02785 5.375,-11.34375 v -5.25 h -9.34375 v 3.59375 c 0,5.14705 -4.89038,9.46875 -11.18751,9.46875 l -20.21874,-0.0625 z" id="path4132"/>
			<path id="path6141" style="display:inline;overflow:visible;visibility:visible;fill:#ffffff;fill-opacity:1;fill-rule:evenodd;stroke:none;stroke-width:1;marker:none;enable-background:accumulate" d="m 299.85338,441.19135 c -21.29012,0 -39.76579,-16.13992 -39.76579,-37.41096 l -0.0191,-25.82763 v -6.58603 h -13.49775 v -32.81595 l 56.92035,0.26806 17.80558,0.0383 c 21.30925,0 39.76578,16.12071 39.76578,37.41085 v 64.92335 h -61.20904 v 0 0 z m 52.53596,-17.41567 c 0,-14.14342 0,-47.50768 0,-47.50768 0,-15.87175 -13.91893,-28.73777 -31.0927,-28.73777 h -17.82471 v -0.0383 l -48.20903,-0.21065 v 15.41237 c 0,0 1.93631,0 5.40037,0 3.6664,0 8.0782,3.44547 8.0782,8.50158 l 0.0383,32.56616 c 0,15.87176 13.919,28.73776 31.0736,28.73776 h 42.35465 c 5.42989,0 10.18131,-3.43871 10.18131,-8.72347 z"/>
		</g>
	</g>
</svg>