<svg xmlns="http://www.w3.org/2000/svg" version="1.1" width="128" height="128" viewBox="0 0 128 128" id="mac-os">
	<g id="g1">
		<g id="g2" transform="matrix(0.84725757,0,0,0.84725757,-37.722806,1.3990517)">
			<path id="p1" style="fill:#8294c9;fill-rule:nonzero" d="m 54.6048,19.5378 h 75.2626 c -22.7522,41.6104 -20.1066,60.822 -19.9675,60.6708 h 24.5755 c -0.55632,2.25264 -7.3806,27.6596 -0.768,46.8472 H 54.6048 Z"/>
			<path id="p2" style="fill:#c9d3ec;fill-rule:nonzero" d="m 186.698,127.056 h -54.5269 c -6.63672,-17.0771 0.19044,-44.5945 0.768,-46.8472 h -24.5755 c -0.16032,0.1512 -0.88596,-23.23 19.9676,-60.6708 h 58.3668 z"/>
			<polygon id="p3" style="fill:#000000;fill-rule:nonzero" points="143.691,51.0252 143.691,35.6656 150.603,35.6656 150.603,51.0252 "/>
			<polygon id="p4" style="fill:#32438f;fill-rule:nonzero" points="86.8602,51.0252 86.8602,35.6656 93.7721,35.6656 93.7721,51.0252 "/>
			<path id="p5" style="fill:#32438f;fill-rule:nonzero" d="m 126.795,100.944 c -21.4824,0.9192 -36.3614,-2.68788 -49.151,-9.21576 l -3.072,5.37588 c 12.7141,7.42584 33.0023,10.9241 52.223,9.98376 z"/>
			<path id="p6" style="fill:#000000;fill-rule:nonzero" d="m 136.011,145.487 c -10.3254,-20.672 -11.7979,-44.4343 -7.67976,-61.4388 h -23.0396 c 0.55332,-36.1165 18.9638,-66.1193 33.0234,-82.9424 l 4.60788,3.83988 c -11.6256,14.4103 -28.5968,39.6601 -31.4874,72.9587 h 24.5755 c -1.932,6.94512 -3.477,14.4949 -3.83988,22.2715 14.111,-1.36356 21.4402,-3.14448 31.4874,-8.44776 l 3.83988,5.37588 c -9.07668,5.004 -21.7273,8.27844 -35.3273,9.21576 0.63792,12.1487 3.35916,24.0223 9.21588,36.0954 l -5.376,3.07188 z"/>
		</g>
	</g>
</svg>