<svg xmlns="http://www.w3.org/2000/svg" id="unix-solaris" version="1.1" viewBox="0 0 128 128" height="128px" width="128px">
 <defs id="defs851" />
 <g id="layer1">
  <g transform="matrix(0.729,0,0,0.729,-218.39637,-423.96503)" id="g4622">
   <circle r="26.546474" cy="437.94714" cx="303.63315" style="display:inline;overflow:visible;visibility:visible;fill:#73b1e4;fill-opacity:1;fill-rule:evenodd;stroke:none;stroke-width:1;stroke-linecap:square;stroke-miterlimit:4;stroke-dasharray:none;stroke-dashoffset:0;stroke-opacity:1;marker:none;marker-start:none;marker-mid:none;marker-end:none;enable-background:accumulate" id="path4624" transform="matrix(0.8287353,0,0,0.8287353,197.3685,300.41994)" />
   <circle r="26.546474" cy="437.94714" cx="303.63315" style="display:inline;overflow:visible;visibility:visible;fill:#73b1e4;fill-opacity:1;fill-rule:evenodd;stroke:none;stroke-width:1;stroke-linecap:square;stroke-miterlimit:4;stroke-dasharray:none;stroke-dashoffset:0;stroke-opacity:1;marker:none;marker-start:none;marker-mid:none;marker-end:none;enable-background:accumulate" id="path4626" transform="matrix(0.7722306,0,0,0.7722306,136.02519,389.666)" />
   <circle r="26.546474" cy="437.94714" cx="303.63315" style="display:inline;overflow:visible;visibility:visible;fill:#135194;fill-opacity:1;fill-rule:evenodd;stroke:none;stroke-width:1;stroke-linecap:square;stroke-miterlimit:4;stroke-dasharray:none;stroke-dashoffset:0;stroke-opacity:1;marker:none;marker-start:none;marker-mid:none;marker-end:none;enable-background:accumulate" id="path4628" transform="matrix(0.5838817,0,0,0.5838817,228.71417,418.15287)" />
   <circle r="26.546474" cy="437.94714" cx="303.63315" style="display:inline;overflow:visible;visibility:visible;fill:#73b1e4;fill-opacity:1;fill-rule:evenodd;stroke:none;stroke-width:1;stroke-linecap:square;stroke-miterlimit:4;stroke-dasharray:none;stroke-dashoffset:0;stroke-opacity:1;marker:none;marker-start:none;marker-mid:none;marker-end:none;enable-background:accumulate" id="path4630" transform="matrix(0.5085421,0,0,0.5085421,219.08976,435.14762)" />
   <circle r="26.546474" cy="437.94714" cx="303.63315" style="display:inline;overflow:visible;visibility:visible;fill:#918f90;fill-opacity:1;fill-rule:evenodd;stroke:none;stroke-width:1;stroke-linecap:square;stroke-miterlimit:4;stroke-dasharray:none;stroke-dashoffset:0;stroke-opacity:1;marker:none;marker-start:none;marker-mid:none;marker-end:none;enable-background:accumulate" id="path4632" transform="matrix(0.4143676,0,0,0.4143676,251.18425,507.89106)" />
   <g id="g4634">
    <path id="path4636" transform="translate(303.74998,590.36218)" d="M 27.75,65.25 C 12.432001,65.25 0,77.681998 0,93 0,108.318 12.432,120.75 27.75,120.75 43.067999,120.75 55.5,108.318 55.5,93 55.5,77.682001 43.067999,65.249998 27.75,65.25 Z m 0,7.75 c 11.04,-2e-6 20,8.96 20,20 2e-6,11.04 -8.96,20 -20,20 -11.04,0 -20,-8.96 -20,-20 0,-11.040002 8.96,-20 20,-20 z" style="display:inline;overflow:visible;visibility:visible;fill:#135194;fill-opacity:1;fill-rule:evenodd;stroke:none;stroke-width:1;stroke-linecap:square;stroke-miterlimit:4;stroke-dasharray:none;stroke-dashoffset:0;stroke-opacity:1;marker:none;marker-start:none;marker-mid:none;marker-end:none;enable-background:accumulate" />
   </g>
   <g id="g4640">
    <path id="path4642" transform="translate(303.74998,590.36218)" d="M 42.75,11 C 30.33,11 20.249999,21.080001 20.25,33.5 20.25,45.92 30.330002,55.999999 42.75,56 55.17,56 65.250003,45.920002 65.25,33.5 65.25,21.08 55.170002,11 42.75,11 Z m 0,6 c 9.108,1e-6 16.5,7.391999 16.5,16.5 10e-7,9.108002 -7.391999,16.5 -16.5,16.5 -9.108001,-10e-7 -16.5,-7.391999 -16.5,-16.5 1e-6,-9.107999 7.391999,-16.5 16.5,-16.5 z" style="display:inline;overflow:visible;visibility:visible;fill:#60ba52;fill-opacity:1;fill-rule:evenodd;stroke:none;stroke-width:1;stroke-linecap:square;stroke-miterlimit:4;stroke-dasharray:none;stroke-dashoffset:0;stroke-opacity:1;marker:none;marker-start:none;marker-mid:none;marker-end:none;enable-background:accumulate" />
   </g>
   <g id="g4646">
    <path id="path4648" transform="translate(303.74998,590.36218)" d="m 102.75,0 c -15.18,0 -27.499999,12.320001 -27.5,27.5 0,15.18 12.320001,27.500001 27.5,27.5 15.18,0 27.5,-12.319999 27.5,-27.5 C 130.25,12.32 117.93,0 102.75,0 Z m 0,15 c 6.9,0 12.5,5.6 12.5,12.5 0,6.9 -5.6,12.5 -12.5,12.5 -6.899996,-2e-6 -12.5,-5.6 -12.5,-12.5 -4e-6,-6.899999 5.6,-12.5 12.5,-12.5 z" style="display:inline;overflow:visible;visibility:visible;fill:#918f90;fill-opacity:1;fill-rule:evenodd;stroke:none;stroke-width:1;stroke-linecap:square;stroke-miterlimit:4;stroke-dasharray:none;stroke-dashoffset:0;stroke-opacity:1;marker:none;marker-start:none;marker-mid:none;marker-end:none;enable-background:accumulate" />
   </g>
   <g id="g4652">
    <path id="path4654" transform="translate(303.74998,590.36218)" d="m 119.75,103 c -12.972,0 -23.499998,10.528 -23.5,23.5 0,12.972 10.528,23.5 23.5,23.5 12.972,0 23.5,-10.528 23.5,-23.5 0,-12.972 -10.528,-23.5 -23.5,-23.5 z m 0,13.5 c 5.52,0 10,4.48 10,10 1e-5,5.52 -4.48,10 -10,10 -5.52,0 -10,-4.48 -10,-10 0,-5.52 4.48,-10 10,-10 z" style="display:inline;overflow:visible;visibility:visible;fill:#60ba52;fill-opacity:1;fill-rule:evenodd;stroke:none;stroke-width:1;stroke-linecap:square;stroke-miterlimit:4;stroke-dasharray:none;stroke-dashoffset:0;stroke-opacity:1;marker:none;marker-start:none;marker-mid:none;marker-end:none;enable-background:accumulate" />
   </g>
  </g>
 </g>
</svg>