<svg xmlns="http://www.w3.org/2000/svg" version="1.1" width="128" height="128" viewBox="0 0 96 96" id="wasm-runtime">
	<g id="g1">
		<g id="g2" style="display:inline;fill:#483737">
			<rect id="r1" width="84" height="84" rx="6" ry="6" x="6" y="6" style="display:inline;opacity:0.6;fill:#483737;fill-opacity:1;fill-rule:nonzero;stroke:none"/>
			<path id="p1" d="m 12,6.171875 c -3.324,0 -6,2.676 -6,6 v 2 68 2 c 0,0.334721 0.04135,0.6507 0.09375,0.96875 0.0487,0.295596 0.09704,0.596915 0.1875,0.875 0.00988,0.03038 0.020892,0.0636 0.03125,0.09375 0.098865,0.287771 0.2348802,0.547452 0.375,0.8125 0.1445918,0.273507 0.3156161,0.535615 0.5,0.78125 0.1843839,0.245635 0.3737765,0.473472 0.59375,0.6875 0.439947,0.428056 0.94291,0.814526 1.5,1.09375 0.278545,0.139612 0.5734731,0.246947 0.875,0.34375 -0.2562018,-0.100222 -0.4867109,-0.236272 -0.71875,-0.375 -0.00741,-0.0044 -0.023866,0.0045 -0.03125,0 -0.031933,-0.0193 -0.062293,-0.04251 -0.09375,-0.0625 -0.120395,-0.0767 -0.2310226,-0.163513 -0.34375,-0.25 -0.1061728,-0.0808 -0.2132809,-0.161112 -0.3125,-0.25 -0.1779299,-0.161433 -0.3474596,-0.345388 -0.5,-0.53125 C 8.0486711,88.22912 7.9378561,88.09409 7.84375,87.953125 7.818661,87.914745 7.805304,87.867255 7.78125,87.828125 7.716487,87.725093 7.6510225,87.623608 7.59375,87.515625 7.4927417,87.320919 7.3880752,87.099924 7.3125,86.890625 7.30454,86.868815 7.288911,86.850075 7.28125,86.828125 7.249425,86.736175 7.245445,86.641294 7.21875,86.546875 7.1884177,86.440257 7.1483606,86.343844 7.125,86.234375 7.0521214,85.892863 7,85.53617 7,85.171875 v -2 -68 -2 c 0,-2.781848 2.2181517,-5 5,-5 h 2 68 2 c 2.781848,0 5,2.218152 5,5 v 2 68 2 c 0,0.364295 -0.05212,0.720988 -0.125,1.0625 -0.04415,0.206893 -0.08838,0.397658 -0.15625,0.59375 -0.0077,0.02195 -0.0233,0.04069 -0.03125,0.0625 -0.06274,0.173739 -0.138383,0.367449 -0.21875,0.53125 -0.04158,0.0828 -0.07904,0.169954 -0.125,0.25 -0.0546,0.09721 -0.126774,0.18835 -0.1875,0.28125 -0.09411,0.140965 -0.204921,0.275995 -0.3125,0.40625 -0.143174,0.17445 -0.303141,0.346998 -0.46875,0.5 -0.01117,0.0102 -0.01998,0.02115 -0.03125,0.03125 -0.138386,0.125556 -0.285091,0.234436 -0.4375,0.34375 -0.102571,0.07315 -0.204318,0.153364 -0.3125,0.21875 -0.0074,0.0045 -0.02384,-0.0044 -0.03125,0 -0.232039,0.138728 -0.462548,0.274778 -0.71875,0.375 0.301527,-0.0968 0.596455,-0.204138 0.875,-0.34375 0.55709,-0.279224 1.060053,-0.665694 1.5,-1.09375 0.219973,-0.214028 0.409366,-0.441865 0.59375,-0.6875 0.184384,-0.245635 0.355408,-0.507743 0.5,-0.78125 0.14012,-0.265048 0.276135,-0.524729 0.375,-0.8125 0.01041,-0.03078 0.02133,-0.06274 0.03125,-0.09375 0.09046,-0.278085 0.1388,-0.579404 0.1875,-0.875 C 89.95865,84.822575 90,84.506596 90,84.171875 v -2 -68 -2 c 0,-3.324 -2.676,-6 -6,-6 z" style="display:inline;opacity:0.01;fill:#483737;fill-opacity:1;fill-rule:nonzero;stroke:none"/>
		</g>
		<path id="p2" d="M 24,24 V 44 H 44 V 24 Z m 28,0 V 44 H 72 V 24 Z m -22,6 h 8 v 8 h -8 z m 28,0 h 8 v 8 H 58 Z M 24,52 V 72 H 44 V 52 Z m 28,0 V 72 H 72 V 52 Z m -22,6 h 8 v 8 h -8 z m 28,0 h 8 v 8 h -8 z" style="display:inline;fill:#f2f2f2;fill-opacity:1;stroke:none"/>
	</g>
</svg>