<svg xmlns="http://www.w3.org/2000/svg" id="unsafe-image" version="1.1" viewBox="0 0 27.517777 21.177777" height="80" width="104">
 <defs id="defs2" />
 <g id="g827">
  <rect style="opacity:1;fill:#ffffff;fill-opacity:1;stroke-width:0.53249556" id="rect830" width="27.531111" height="21.177776" x="-0.006666882" y="3.3166503e-07" />
  <g transform="matrix(1,0,0,1.0123203,0.26133052,-293.42383)" id="g93">
   <g id="g969">
    <path style="fill:#9b9b9b;stroke-width:0.26926741" d="M -0.54740703,300.31277 V 289.5751 H 13.497558 27.542523 v 10.73767 10.73768 H 13.497558 -0.54740703 Z m 4.89403803,4.43034 c 1.393473,-1.10675 2.601624,-2.01274 2.684779,-2.01332 0.08316,-5.6e-4 0.791951,0.54256 1.575103,1.20695 0.783152,0.66439 1.488238,1.20799 1.566858,1.20799 0.07862,0 1.67914,-1.3591 3.556711,-3.02022 1.87757,-1.66111 3.624864,-3.18457 3.882875,-3.38545 0.419126,-0.32633 0.840424,-0.0331 3.953997,2.75177 1.916688,1.71436 3.559119,3.11701 3.649846,3.11701 0.09073,0 0.164959,-1.5536 0.164959,-3.45245 v -3.45244 l -1.02375,0.27158 c -3.215376,0.85298 -6.124887,-2.03872 -5.266654,-5.23441 l 0.273254,-1.01749 H 10.488983 1.613356 v 7.51638 c 0,4.134 0.04493,7.51637 0.09984,7.51637 0.05491,0 1.239959,-0.90552 2.633431,-2.01227 z m 3.208826,-6.771 c -1.364826,-0.48972 -1.867745,-2.47971 -0.856542,-3.38923 0.695485,-0.62555 2.276251,-0.57292 2.885413,0.0961 1.272888,1.39791 -0.281107,3.92028 -2.028871,3.29315 z m 15.040415,-2.26964 0.625123,-0.58368 0.681911,0.6367 0.681911,0.6367 0.586868,-0.58327 0.586868,-0.58328 -0.640621,-0.67773 -0.640622,-0.67774 0.640622,-0.67774 0.640621,-0.67773 -0.586868,-0.58328 -0.586868,-0.58327 -0.681911,0.6367 -0.681911,0.6367 -0.68191,-0.6367 -0.681911,-0.6367 -0.586868,0.58327 -0.586869,0.58328 0.640622,0.67773 0.640622,0.67774 -0.631695,0.66829 c -0.613289,0.64882 -0.617376,0.68402 -0.140268,1.20799 0.610599,0.67057 0.638808,0.66969 1.403154,-0.044 z" id="path135" />
    <path style="fill:#df2f27;stroke-width:0.26926741" d="m 2.9591673,310.36147 c -1.184336,-0.34059 -2.44589603,-1.66983 -2.78991803,-2.93961 -1.0972729,-4.05001 4.01565003,-6.96345 7.00552603,-3.99188 2.241099,2.22738 1.228117,6.1082 -1.813531,6.94779 -1.151044,0.31772 -1.242731,0.3171 -2.402077,-0.0163 z m 0.640211,-2.16698 0.625123,-0.58368 0.661496,0.61764 c 1.191039,1.11207 2.335185,-0.0251 1.216262,-1.20881 l -0.621443,-0.65745 0.621443,-0.65745 c 1.118923,-1.18374 -0.02522,-2.32088 -1.216262,-1.20881 l -0.661496,0.61764 -0.661496,-0.61764 c -1.191038,-1.11207 -2.335184,0.0251 -1.216262,1.20881 l 0.621444,0.65745 -0.587273,0.6213 c -0.668972,0.70772 -0.72383,1.01469 -0.263158,1.47255 0.460673,0.45785 0.769534,0.40333 1.481622,-0.26155 z" id="path95" />
   </g>
  </g>
 </g>
</svg>