<svg xmlns="http://www.w3.org/2000/svg" id="app-nographyet" viewBox="0 0 414.43 271.06" version="1.1">
  <g id="g1" transform="translate(-79.56 -22.642)">
    <g id="g2" transform="translate(79.571 22.648)">
      <g id="g3" transform="translate(0 -924.36)">
        <path id="p3160" d="m128.29 64.865a63.766 63.892 0 1 1 -127.53 0 63.766 63.892 0 1 1 127.53 0z" style="stroke-linejoin:round;stroke:#444444;stroke-linecap:round;stroke-width:1.9947;fill:none" transform="matrix(.98823 0 0 .98628 .23592 924.39)"/>
      </g>
      <g id="g4" transform="translate(-138 -924.36)">
        <path id="p4024" d="m264.53 995.77-40.125-43.406-36.406 45-20.812-25-27.812 22.281a63.015 63.015 0 0 0 125.16 1.125z" style="fill:#4d4d4d"/>
      </g>
    </g>
    <g id="g5" transform="translate(365.99 165.67)">
      <g id="g51" transform="translate(0 -924.36)">
        <path id="p3160-4" d="m128.29 64.865a63.766 63.892 0 1 1 -127.53 0 63.766 63.892 0 1 1 127.53 0z" style="stroke-linejoin:round;stroke:#444444;stroke-linecap:round;stroke-width:1.9947;fill:none" transform="matrix(.98823 0 0 .98628 .23592 924.39)"/>
      </g>
      <g id="barcode" style="color:#444444;fill:#4d4d4d" transform="matrix(.80885 0 0 .80885 6.6403 -6.9691)">
        <path id="bcd_bar1" style="color:#444444;fill:#4d4d4d" d="m29 108h1v38h-1z"/>
        <path id="bcd_bar3" style="color:#444444;fill:#4d4d4d" d="m31 108h1v38h-1z"/>
        <path id="bcd_bar5" style="color:#444444;fill:#4d4d4d" d="m33 108h2v30h-2z"/>
        <path id="bcd_bar7" style="color:#444444;fill:#4d4d4d" d="m36 108h3v30h-3z"/>
        <path id="bcd_bar9" style="color:#444444;fill:#4d4d4d" d="m42 108h2v30h-2z"/>
        <path id="bcd_bar11" style="color:#444444;fill:#4d4d4d" d="m45 108h1v30h-1z"/>
        <path id="bcd_bar13" style="color:#444444;fill:#4d4d4d" d="m49 108h2v30h-2z"/>
        <path id="bcd_bar15" style="color:#444444;fill:#4d4d4d" d="m52 108h1v30h-1z"/>
        <path id="bcd_bar17" style="color:#444444;fill:#4d4d4d" d="m56 108h2v30h-2z"/>
        <path id="bcd_bar19" style="color:#444444;fill:#4d4d4d" d="m59 108h1v30h-1z"/>
        <path id="bcd_bar21" style="color:#444444;fill:#4d4d4d" d="m61 108h1v38h-1z"/>
        <path id="bcd_bar23" style="color:#444444;fill:#4d4d4d" d="m63 108h1v38h-1z"/>
        <path id="bcd_bar25" style="color:#444444;fill:#4d4d4d" d="m65 108h1v30h-1z"/>
        <path id="bcd_bar27" style="color:#444444;fill:#4d4d4d" d="m70 108h1v30h-1z"/>
        <path id="bcd_bar29" style="color:#444444;fill:#4d4d4d" d="m72 108h1v30h-1z"/>
        <path id="bcd_bar31" style="color:#444444;fill:#4d4d4d" d="m74 108h3v30h-3z"/>
        <path id="bcd_bar33" style="color:#444444;fill:#4d4d4d" d="m79 108h2v30h-2z"/>
        <path id="bcd_bar35" style="color:#444444;fill:#4d4d4d" d="m82 108h2v30h-2z"/>
        <path id="bcd_bar37" style="color:#444444;fill:#4d4d4d" d="m86 108h2v30h-2z"/>
        <path id="bcd_bar39" style="color:#444444;fill:#4d4d4d" d="m90 108h2v30h-2z"/>
        <path id="bcd_bar41" style="color:#444444;fill:#4d4d4d" d="m93 108h2v30h-2z"/>
        <path id="bcd_bar43" style="color:#444444;fill:#4d4d4d" d="m97 108h2v30h-2z"/>
        <path id="bcd_bar45" style="color:#444444;fill:#4d4d4d" d="m100 108h2v30h-2z"/>
        <path id="bcd_bar47" style="color:#444444;fill:#4d4d4d" d="m104 108h2v30h-2z"/>
        <path id="bcd_bar49" style="color:#444444;fill:#4d4d4d" d="m107 108h3v30h-3z"/>
        <path id="bcd_bar51" style="color:#444444;fill:#4d4d4d" d="m112 108h1v30h-1z"/>
        <path id="bcd_bar53" style="color:#444444;fill:#4d4d4d" d="m114 108h1v38h-1z"/>
        <path id="bcd_bar55" style="color:#444444;fill:#4d4d4d" d="m116 108h1v38h-1z"/>
        <g id="bcd_btext" style="color:#444444;fill:#4d4d4d">
          <path id="p6236" style="color:#444444;fill:#4d4d4d" d="m40.045 144.88c-0.42188 0-0.7544 0.11279-0.99756 0.33838-0.24024 0.22558-0.36035 0.53613-0.36035 0.93164-0.000002 0.39551 0.12012 0.70605 0.36035 0.93164 0.24316 0.22558 0.57568 0.33838 0.99756 0.33838 0.42187 0 0.75439-0.1128 0.99756-0.33838 0.24316-0.22852 0.36474-0.53906 0.36475-0.93164-0.000004-0.39551-0.12159-0.70606-0.36475-0.93164-0.24024-0.22559-0.57276-0.33838-0.99756-0.33838m-0.8877-0.37793c-0.38086-0.0937-0.67822-0.27099-0.89209-0.53174-0.21094-0.26074-0.31641-0.57861-0.31641-0.95361-0.000001-0.52441 0.18603-0.93896 0.5581-1.2437 0.375-0.30468 0.88769-0.45702 1.5381-0.45703 0.65332 0.00001 1.166 0.15235 1.5381 0.45703 0.37207 0.3047 0.5581 0.71925 0.55811 1.2437-0.000005 0.375-0.10694 0.69287-0.3208 0.95361-0.21094 0.26075-0.50538 0.43799-0.8833 0.53174 0.42773 0.0996 0.76025 0.29443 0.99756 0.58447 0.24023 0.29004 0.36035 0.64453 0.36035 1.0635-0.000005 0.63574-0.19483 1.1235-0.58447 1.4634-0.38672 0.33984-0.9419 0.50976-1.6655 0.50976-0.72364 0-1.2803-0.16992-1.6699-0.50976-0.38672-0.33985-0.58008-0.82764-0.58008-1.4634 0-0.41895 0.12012-0.77344 0.36035-1.0635 0.24023-0.29004 0.57422-0.48486 1.002-0.58447m-0.3252-1.4019c-0.000002 0.33985 0.10547 0.60499 0.31641 0.79541 0.21386 0.19044 0.51269 0.28565 0.89648 0.28565 0.38086 0 0.67822-0.0952 0.89209-0.28565 0.21679-0.19042 0.32519-0.45556 0.3252-0.79541-0.000004-0.33984-0.1084-0.60497-0.3252-0.79541-0.21387-0.19042-0.51123-0.28564-0.89209-0.28564-0.38379 0-0.68262 0.0952-0.89648 0.28564-0.21094 0.19044-0.31641 0.45557-0.31641 0.79541"/>
          <path id="p6238" style="color:#444444;fill:#4d4d4d" d="m45.776 142.02c-0.45703 0-0.80127 0.22559-1.0327 0.67676-0.22852 0.44824-0.34278 1.1235-0.34277 2.0259-0.000002 0.89942 0.11426 1.5747 0.34277 2.0259 0.23144 0.44825 0.57568 0.67237 1.0327 0.67237 0.45996 0 0.8042-0.22412 1.0327-0.67237 0.23144-0.45117 0.34716-1.1265 0.34717-2.0259-0.000005-0.90234-0.11573-1.5776-0.34717-2.0259-0.22852-0.45117-0.57276-0.67676-1.0327-0.67676m0-0.70313c0.73535 0.00001 1.2964 0.29151 1.6831 0.87451 0.38964 0.58009 0.58447 1.4238 0.58447 2.5312-0.000005 1.1045-0.19483 1.9482-0.58447 2.5312-0.38672 0.58008-0.94776 0.87012-1.6831 0.87012-0.73535 0-1.2979-0.29004-1.6875-0.87012-0.38672-0.583-0.58008-1.4268-0.58008-2.5312-0.000001-1.1074 0.19336-1.9512 0.58008-2.5312 0.38965-0.583 0.95215-0.8745 1.6875-0.87451"/>
          <path id="p6240" style="color:#444444;fill:#4d4d4d" d="m51.506 142.02c-0.45703 0-0.80127 0.22559-1.0327 0.67676-0.22852 0.44824-0.34278 1.1235-0.34277 2.0259-0.000001 0.89942 0.11426 1.5747 0.34277 2.0259 0.23144 0.44825 0.57568 0.67237 1.0327 0.67237 0.45996 0 0.8042-0.22412 1.0327-0.67237 0.23144-0.45117 0.34716-1.1265 0.34717-2.0259-0.000004-0.90234-0.11573-1.5776-0.34717-2.0259-0.22852-0.45117-0.57276-0.67676-1.0327-0.67676m0-0.70313c0.73535 0.00001 1.2964 0.29151 1.6831 0.87451 0.38964 0.58009 0.58447 1.4238 0.58447 2.5312-0.000005 1.1045-0.19483 1.9482-0.58447 2.5312-0.38672 0.58008-0.94776 0.87012-1.6831 0.87012-0.73535 0-1.2979-0.29004-1.6875-0.87012-0.38672-0.583-0.58008-1.4268-0.58008-2.5312-0.000001-1.1074 0.19336-1.9512 0.58008-2.5312 0.38965-0.583 0.95215-0.8745 1.6875-0.87451"/>
          <path id="p6242" style="color:#444444;fill:#4d4d4d" d="m57.237 142.02c-0.45703 0-0.80127 0.22559-1.0327 0.67676-0.22852 0.44824-0.34278 1.1235-0.34277 2.0259-0.000001 0.89942 0.11426 1.5747 0.34277 2.0259 0.23144 0.44825 0.57568 0.67237 1.0327 0.67237 0.45996 0 0.8042-0.22412 1.0327-0.67237 0.23144-0.45117 0.34716-1.1265 0.34717-2.0259-0.000004-0.90234-0.11573-1.5776-0.34717-2.0259-0.22852-0.45117-0.57276-0.67676-1.0327-0.67676m0-0.70313c0.73535 0.00001 1.2964 0.29151 1.6831 0.87451 0.38964 0.58009 0.58447 1.4238 0.58447 2.5312-0.000006 1.1045-0.19483 1.9482-0.58447 2.5312-0.38672 0.58008-0.94776 0.87012-1.6831 0.87012-0.73535 0-1.2979-0.29004-1.6875-0.87012-0.38672-0.583-0.58008-1.4268-0.58008-2.5312 0-1.1074 0.19336-1.9512 0.58008-2.5312 0.38965-0.583 0.95215-0.8745 1.6875-0.87451"/>
          <path id="p6244" style="color:#444444;fill:#4d4d4d" d="m72.354 144.46c0.4248 0.0908 0.75586 0.27979 0.99316 0.5669 0.24023 0.28711 0.36035 0.6416 0.36035 1.0635-0.000005 0.64747-0.22266 1.1484-0.66797 1.5029-0.44532 0.3545-1.0781 0.53174-1.8984 0.53174-0.27539 0-0.55957-0.0278-0.85254-0.0835-0.29004-0.0527-0.59033-0.13331-0.90088-0.2417v-0.85694c0.24609 0.14356 0.51562 0.25196 0.80859 0.3252 0.29297 0.0732 0.59912 0.10986 0.91846 0.10986 0.55664 0 0.97998-0.10986 1.27-0.32959 0.29296-0.21972 0.43945-0.53906 0.43945-0.95801-0.000004-0.38671-0.13624-0.68847-0.40869-0.90527-0.26953-0.21972-0.646-0.32959-1.1294-0.32959h-0.76465v-0.72949h0.7998c0.43652 0 0.7705-0.0864 1.002-0.25928 0.23144-0.17578 0.34716-0.42773 0.34717-0.75586-0.000004-0.33691-0.12012-0.59472-0.36035-0.77344-0.23731-0.18163-0.57862-0.27245-1.0239-0.27246-0.24317 0.00001-0.50391 0.0264-0.78223 0.0791s-0.58447 0.13478-0.91846 0.2461v-0.79102c0.33691-0.0937 0.65185-0.16405 0.94482-0.21094 0.2959-0.0469 0.57422-0.0703 0.83496-0.0703 0.67382 0.00001 1.207 0.15382 1.5996 0.46143 0.39257 0.30469 0.58886 0.71778 0.58887 1.2393-0.000005 0.36328-0.10401 0.6709-0.31201 0.92285-0.20801 0.24902-0.50391 0.42188-0.8877 0.51855"/>
          <path id="p6246" style="color:#444444;fill:#4d4d4d" d="m77.834 142.21-2.2412 3.5024h2.2412v-3.5024m-0.23291-0.77344h1.1162v4.2759h0.93604v0.73828h-0.93604v1.5469h-0.8833v-1.5469h-2.9619v-0.85693l2.729-4.1572"/>
          <path id="p6248" style="color:#444444;fill:#4d4d4d" d="m81.89 147.25h3.0981v0.74707h-4.166v-0.74707c0.33691-0.34863 0.79541-0.81592 1.3755-1.4019 0.583-0.58886 0.94922-0.96825 1.0986-1.1382 0.28418-0.31933 0.48193-0.58886 0.59326-0.80859 0.11425-0.22266 0.17138-0.44092 0.17139-0.65479-0.000004-0.34863-0.12305-0.63281-0.36914-0.85254-0.24317-0.21972-0.56104-0.32958-0.95361-0.32959-0.27832 0.00001-0.57276 0.0483-0.8833 0.14502-0.30762 0.0967-0.63721 0.24317-0.98877 0.43946v-0.89649c0.35742-0.14355 0.6914-0.25195 1.002-0.32519 0.31054-0.0732 0.59472-0.10986 0.85254-0.10987 0.67968 0.00001 1.2217 0.16993 1.626 0.50977 0.40429 0.33985 0.60644 0.79395 0.60644 1.3623-0.000005 0.26954-0.05127 0.52589-0.15381 0.76905-0.09961 0.24023-0.28272 0.52441-0.54932 0.85253-0.07325 0.085-0.30616 0.33106-0.69873 0.73829-0.39258 0.4043-0.94629 0.97119-1.6611 1.7007"/>
          <path id="p6250" style="color:#444444;fill:#4d4d4d" d="m87.01 147.25h1.4502v-5.0054l-1.5776 0.3164v-0.80859l1.5688-0.31641h0.8877v5.814h1.4502v0.74707h-3.7793v-0.74707"/>
          <path id="p6252" style="color:#444444;fill:#4d4d4d" d="m92.74 147.25h1.4502v-5.0054l-1.5776 0.3164v-0.80859l1.5688-0.31641h0.8877v5.814h1.4502v0.74707h-3.7793v-0.74707"/>
          <path id="p6254" style="color:#444444;fill:#4d4d4d" d="m98.471 147.25h1.4502v-5.0054l-1.5776 0.3164v-0.80859l1.5688-0.31641h0.88769v5.814h1.4502v0.74707h-3.7793v-0.74707"/>
          <path id="p6256" style="color:#444444;fill:#4d4d4d" d="m105.95 142.02c-0.45703 0-0.80127 0.22559-1.0327 0.67676-0.22852 0.44824-0.34278 1.1235-0.34278 2.0259 0 0.89942 0.11426 1.5747 0.34278 2.0259 0.23144 0.44825 0.57568 0.67237 1.0327 0.67237 0.45996 0 0.8042-0.22412 1.0327-0.67237 0.23144-0.45117 0.34716-1.1265 0.34716-2.0259 0-0.90234-0.11572-1.5776-0.34716-2.0259-0.22852-0.45117-0.57276-0.67676-1.0327-0.67676m0-0.70313c0.73535 0.00001 1.2964 0.29151 1.6831 0.87451 0.38964 0.58009 0.58446 1.4238 0.58447 2.5312-0.00001 1.1045-0.19483 1.9482-0.58447 2.5312-0.38673 0.58008-0.94776 0.87012-1.6831 0.87012-0.73535 0-1.2978-0.29004-1.6875-0.87012-0.38672-0.583-0.58008-1.4268-0.58008-2.5312 0-1.1074 0.19336-1.9512 0.58008-2.5312 0.38965-0.583 0.95215-0.8745 1.6875-0.87451"/>
        </g>
      </g>
      <g id="barcode0" style="color:#444444;fill:#4d4d4d" transform="matrix(1.3377 0 0 1.3377 -21.299 -121.61)">
        <path id="bcd0_bar1" style="color:#444444;fill:#4d4d4d" d="m29 108h1v38h-1z"/>
        <path id="bcd0_bar3" style="color:#444444;fill:#4d4d4d" d="m31 108h1v38h-1z"/>
        <path id="bcd0_bar5" style="color:#444444;fill:#4d4d4d" d="m33 108h2v30h-2z"/>
        <path id="bcd0_bar7" style="color:#444444;fill:#4d4d4d" d="m36 108h3v30h-3z"/>
        <path id="bcd0_bar9" style="color:#444444;fill:#4d4d4d" d="m42 108h2v30h-2z"/>
        <path id="bcd0_bar11" style="color:#444444;fill:#4d4d4d" d="m45 108h1v30h-1z"/>
        <path id="bcd0_bar13" style="color:#444444;fill:#4d4d4d" d="m49 108h2v30h-2z"/>
        <path id="bcd0_bar15" style="color:#444444;fill:#4d4d4d" d="m52 108h1v30h-1z"/>
        <path id="bcd0_bar17" style="color:#444444;fill:#4d4d4d" d="m56 108h2v30h-2z"/>
        <path id="bcd0_bar19" style="color:#444444;fill:#4d4d4d" d="m59 108h1v30h-1z"/>
        <path id="bcd0_bar21" style="color:#444444;fill:#4d4d4d" d="m61 108h1v38h-1z"/>
        <path id="bcd0_bar23" style="color:#444444;fill:#4d4d4d" d="m63 108h1v38h-1z"/>
        <path id="bcd0_bar25" style="color:#444444;fill:#4d4d4d" d="m65 108h1v30h-1z"/>
        <path id="bcd0_bar27" style="color:#444444;fill:#4d4d4d" d="m70 108h1v30h-1z"/>
        <path id="bcd0_bar29" style="color:#444444;fill:#4d4d4d" d="m72 108h1v30h-1z"/>
        <path id="bcd0_bar31" style="color:#444444;fill:#4d4d4d" d="m74 108h3v30h-3z"/>
        <path id="bcd0_bar33" style="color:#444444;fill:#4d4d4d" d="m79 108h2v30h-2z"/>
        <path id="bcd0_bar35" style="color:#444444;fill:#4d4d4d" d="m82 108h2v30h-2z"/>
        <path id="bcd0_bar37" style="color:#444444;fill:#4d4d4d" d="m86 108h1v30h-1z"/>
        <path id="bcd0_bar39" style="color:#444444;fill:#4d4d4d" d="m90 108h1v30h-1z"/>
        <path id="bcd0_bar41" style="color:#444444;fill:#4d4d4d" d="m93 108h1v38h-1z"/>
        <path id="bcd0_bar43" style="color:#444444;fill:#4d4d4d" d="m95 108h1v38h-1z"/>
        <g id="bcd0_btext" style="color:#444444;fill:#4d4d4d">
          <path id="p6193" style="color:#444444;fill:#4d4d4d" d="m40.506 144.88c-0.42188 0-0.7544 0.11279-0.99756 0.33838-0.24024 0.22558-0.36035 0.53613-0.36035 0.93164-0.000001 0.39551 0.12012 0.70605 0.36035 0.93164 0.24316 0.22558 0.57568 0.33838 0.99756 0.33838 0.42187 0 0.75439-0.1128 0.99756-0.33838 0.24316-0.22852 0.36474-0.53906 0.36475-0.93164-0.000004-0.39551-0.12159-0.70606-0.36475-0.93164-0.24024-0.22559-0.57276-0.33838-0.99756-0.33838m-0.8877-0.37793c-0.38086-0.0937-0.67822-0.27099-0.89209-0.53174-0.21094-0.26074-0.31641-0.57861-0.31641-0.95361-0.000001-0.52441 0.18603-0.93896 0.55811-1.2437 0.375-0.30468 0.88769-0.45702 1.5381-0.45703 0.65332 0.00001 1.166 0.15235 1.5381 0.45703 0.37206 0.3047 0.5581 0.71925 0.5581 1.2437-0.000005 0.375-0.10694 0.69287-0.3208 0.95361-0.21094 0.26075-0.50538 0.43799-0.8833 0.53174 0.42773 0.0996 0.76025 0.29443 0.99756 0.58447 0.24023 0.29004 0.36035 0.64453 0.36035 1.0635-0.000005 0.63574-0.19483 1.1235-0.58447 1.4634-0.38672 0.33984-0.9419 0.50976-1.6655 0.50976-0.72364 0-1.2803-0.16992-1.6699-0.50976-0.38672-0.33985-0.58008-0.82764-0.58008-1.4634-0.000001-0.41895 0.12012-0.77344 0.36035-1.0635 0.24023-0.29004 0.57422-0.48486 1.002-0.58447m-0.3252-1.4019c-0.000002 0.33985 0.10547 0.60499 0.31641 0.79541 0.21386 0.19044 0.51269 0.28565 0.89648 0.28565 0.38086 0 0.67822-0.0952 0.89209-0.28565 0.21679-0.19042 0.32519-0.45556 0.3252-0.79541-0.000004-0.33984-0.1084-0.60497-0.3252-0.79541-0.21387-0.19042-0.51123-0.28564-0.89209-0.28564-0.38379 0-0.68262 0.0952-0.89648 0.28564-0.21094 0.19044-0.31641 0.45557-0.31641 0.79541"/>
          <path id="p6195" style="color:#444444;fill:#4d4d4d" d="m46.237 142.02c-0.45703 0-0.80127 0.22559-1.0327 0.67676-0.22852 0.44824-0.34278 1.1235-0.34277 2.0259-0.000001 0.89942 0.11426 1.5747 0.34277 2.0259 0.23144 0.44825 0.57568 0.67237 1.0327 0.67237 0.45996 0 0.8042-0.22412 1.0327-0.67237 0.23144-0.45117 0.34716-1.1265 0.34717-2.0259-0.000004-0.90234-0.11573-1.5776-0.34717-2.0259-0.22852-0.45117-0.57276-0.67676-1.0327-0.67676m0-0.70313c0.73535 0.00001 1.2964 0.29151 1.6831 0.87451 0.38964 0.58009 0.58447 1.4238 0.58447 2.5312-0.000006 1.1045-0.19483 1.9482-0.58447 2.5312-0.38672 0.58008-0.94776 0.87012-1.6831 0.87012-0.73535 0-1.2979-0.29004-1.6875-0.87012-0.38672-0.583-0.58008-1.4268-0.58008-2.5312 0-1.1074 0.19336-1.9512 0.58008-2.5312 0.38965-0.583 0.95215-0.8745 1.6875-0.87451"/>
          <path id="p6197" style="color:#444444;fill:#4d4d4d" d="m51.967 142.02c-0.45703 0-0.80127 0.22559-1.0327 0.67676-0.22852 0.44824-0.34278 1.1235-0.34277 2.0259-0.000002 0.89942 0.11426 1.5747 0.34277 2.0259 0.23144 0.44825 0.57568 0.67237 1.0327 0.67237 0.45996 0 0.8042-0.22412 1.0327-0.67237 0.23144-0.45117 0.34716-1.1265 0.34717-2.0259-0.000004-0.90234-0.11573-1.5776-0.34717-2.0259-0.22852-0.45117-0.57276-0.67676-1.0327-0.67676m0-0.70313c0.73535 0.00001 1.2964 0.29151 1.6831 0.87451 0.38964 0.58009 0.58447 1.4238 0.58447 2.5312-0.000005 1.1045-0.19483 1.9482-0.58447 2.5312-0.38672 0.58008-0.94776 0.87012-1.6831 0.87012-0.73535 0-1.2979-0.29004-1.6875-0.87012-0.38672-0.583-0.58008-1.4268-0.58008-2.5312-0.000001-1.1074 0.19336-1.9512 0.58008-2.5312 0.38965-0.583 0.95215-0.8745 1.6875-0.87451"/>
          <path id="p6199" style="color:#444444;fill:#4d4d4d" d="m57.698 142.02c-0.45703 0-0.80127 0.22559-1.0327 0.67676-0.22852 0.44824-0.34278 1.1235-0.34277 2.0259-0.000002 0.89942 0.11426 1.5747 0.34277 2.0259 0.23144 0.44825 0.57568 0.67237 1.0327 0.67237 0.45996 0 0.8042-0.22412 1.0327-0.67237 0.23144-0.45117 0.34716-1.1265 0.34717-2.0259-0.000005-0.90234-0.11573-1.5776-0.34717-2.0259-0.22852-0.45117-0.57276-0.67676-1.0327-0.67676m0-0.70313c0.73535 0.00001 1.2964 0.29151 1.6831 0.87451 0.38964 0.58009 0.58447 1.4238 0.58447 2.5312-0.000005 1.1045-0.19483 1.9482-0.58447 2.5312-0.38672 0.58008-0.94776 0.87012-1.6831 0.87012-0.73535 0-1.2979-0.29004-1.6875-0.87012-0.38672-0.583-0.58008-1.4268-0.58008-2.5312-0.000001-1.1074 0.19336-1.9512 0.58008-2.5312 0.38965-0.583 0.95215-0.8745 1.6875-0.87451"/>
          <path id="p6201" style="color:#444444;fill:#4d4d4d" d="m72.815 144.46c0.4248 0.0908 0.75586 0.27979 0.99316 0.5669 0.24023 0.28711 0.36035 0.6416 0.36035 1.0635-0.000005 0.64747-0.22266 1.1484-0.66797 1.5029-0.44532 0.3545-1.0781 0.53174-1.8984 0.53174-0.27539 0-0.55957-0.0278-0.85254-0.0835-0.29004-0.0527-0.59033-0.13331-0.90088-0.2417v-0.85694c0.24609 0.14356 0.51562 0.25196 0.80859 0.3252 0.29297 0.0732 0.59912 0.10986 0.91846 0.10986 0.55664 0 0.97998-0.10986 1.27-0.32959 0.29296-0.21972 0.43945-0.53906 0.43945-0.95801-0.000004-0.38671-0.13623-0.68847-0.40869-0.90527-0.26954-0.21972-0.646-0.32959-1.1294-0.32959h-0.76465v-0.72949h0.7998c0.43652 0 0.7705-0.0864 1.002-0.25928 0.23144-0.17578 0.34716-0.42773 0.34717-0.75586-0.000004-0.33691-0.12012-0.59472-0.36035-0.77344-0.23731-0.18163-0.57862-0.27245-1.0239-0.27246-0.24317 0.00001-0.50391 0.0264-0.78223 0.0791s-0.58447 0.13478-0.91846 0.2461v-0.79102c0.33691-0.0937 0.65185-0.16405 0.94482-0.21094 0.2959-0.0469 0.57422-0.0703 0.83496-0.0703 0.67382 0.00001 1.207 0.15382 1.5996 0.46143 0.39257 0.30469 0.58886 0.71778 0.58887 1.2393-0.000004 0.36328-0.10401 0.6709-0.31201 0.92285-0.20801 0.24902-0.50391 0.42188-0.8877 0.51855"/>
          <path id="p6203" style="color:#444444;fill:#4d4d4d" d="m78.295 142.21-2.2412 3.5024h2.2412v-3.5024m-0.23291-0.77344h1.1162v4.2759h0.93604v0.73828h-0.93604v1.5469h-0.8833v-1.5469h-2.9619v-0.85693l2.729-4.1572"/>
          <path id="p6205" style="color:#444444;fill:#4d4d4d" d="m82.351 147.25h3.0981v0.74707h-4.166v-0.74707c0.33691-0.34863 0.79541-0.81592 1.3755-1.4019 0.58301-0.58886 0.94922-0.96825 1.0986-1.1382 0.28418-0.31933 0.48193-0.58886 0.59326-0.80859 0.11425-0.22266 0.17138-0.44092 0.17139-0.65479-0.000004-0.34863-0.12305-0.63281-0.36914-0.85254-0.24317-0.21972-0.56104-0.32958-0.95361-0.32959-0.27832 0.00001-0.57276 0.0483-0.8833 0.14502-0.30762 0.0967-0.63721 0.24317-0.98877 0.43946v-0.89649c0.35742-0.14355 0.6914-0.25195 1.002-0.32519 0.31054-0.0732 0.59472-0.10986 0.85254-0.10987 0.67968 0.00001 1.2217 0.16993 1.626 0.50977 0.40429 0.33985 0.60644 0.79395 0.60644 1.3623-0.000004 0.26954-0.05127 0.52589-0.15381 0.76905-0.09961 0.24023-0.28272 0.52441-0.54932 0.85253-0.07325 0.085-0.30616 0.33106-0.69873 0.73829-0.39258 0.4043-0.94629 0.97119-1.6611 1.7007"/>
        </g>
      </g>
    </g>
    <g id="g6" transform="translate(222.78 22.648)">
      <g id="g61" style="color:#444444;fill:#4d4d4d" transform="translate(0 -924.36)">
        <path id="p4076" d="m-135.34 43a63.015 63.015 0 0 0 -3.66 21 63.015 63.015 0 0 0 24 49.406v-70.41h-20.344zm77.625 10v71.25a63.015 63.015 0 0 0 25.84 -15.28v-55.969h-25.844zm-55.406 10v51.906a63.015 63.015 0 0 0 25.844 11.031v-62.938h-25.844zm83.12 10v33.969a63.015 63.015 0 0 0 16.281 -33.97h-16.281zm-55.438 15v38.25a63.015 63.015 0 0 0 25.875 -1.4375v-36.812h-25.875z" style="color:#444444;fill:#4d4d4d" transform="translate(140 924.36)"/>
      </g>
      <g id="g62" transform="translate(0 -924.36)">
        <path id="p3160-6" d="m128.29 64.865a63.766 63.892 0 1 1 -127.53 0 63.766 63.892 0 1 1 127.53 0z" style="stroke-linejoin:round;stroke:#444444;stroke-linecap:round;stroke-width:1.9947;fill:none" transform="matrix(.98823 0 0 .98628 .23592 924.39)"/>
      </g>
    </g>
    <g id="g7" transform="translate(222.68 165.67)">
      <path id="p8055" style="stroke-linejoin:round;color:#444444;stroke:#4d4d4d;stroke-linecap:round;stroke-dasharray:3, 1;fill:#444444" transform="matrix(.98782 0 0 .99584 1.1826 .46307)" d="m125.26 46.179c9.71 33.836-9.9 69.121-43.809 78.811-33.907 9.7-69.269-9.88-78.982-43.712-3.2056-11.167-3.2914-22.997-0.2478-34.21"/>
      <path id="p8043" d="m1.3971 52.019v22.101m9.8811-27.759v52.952m9.8811-52.952v64.268m9.8811-64.268v71.273m9.8811-71.273v75.719m9.8811-75.719v79.222m9.8811-79.222v79.896m9.8811-79.896v79.761m9.8811-79.761v77.74m9.8811-77.74v74.641m9.8811-74.641v68.849m9.8811-68.849v60.226m9.8811-60.226v46.35m-116.54-45.762h120.92m-122.95 5.9145h124.44m-124.44 5.9145h126.48m-126.48 5.916h125.53m-125.53 5.9145h125.26m-125.26 5.9145h124.31m-122.28 5.9144h120.78m-118.21 5.9145h116.44m-113.73 5.9144h110.75m-106.95 5.9144h102.89m-97.733 5.9145h93.529m-88.241 5.9144h82.411m-74.14 5.9144h66.275" style="stroke:#555555;stroke-width:.53513pt;fill:#444444"/>
      <g id="g71" transform="translate(0 -924.36)">
        <path id="p3160-1" style="stroke-linejoin:round;stroke:#444444;stroke-linecap:round;stroke-width:1.9947;fill:none" transform="matrix(.98823 0 0 .98628 .23592 924.39)" d="m128.29 64.865a63.766 63.892 0 1 1 -127.53 0 63.766 63.892 0 1 1 127.53 0z"/>
      </g>
      <g id="g72" transform="translate(0 -924.36)">
        <path id="p8053" d="m128.29 64.865a63.766 63.892 0 1 1 -127.53 0 63.766 63.892 0 1 1 127.53 0z" style="stroke-linejoin:round;stroke:#444444;stroke-linecap:round;stroke-width:1.9947;fill:none" transform="matrix(.98823 0 0 .98628 .23592 924.39)"/>
      </g>
    </g>
    <g id="g8" transform="translate(79.571 165.67)">
      <path id="p4212" d="m62.281 38c-8.586 0.30397-17.039 1.813-25 4.4375l27.176 62.732zm8.0312 6.875-4.1091 60.294 49.265-41.763c-11.55-11.433-27.888-18.155-45.158-18.532zm-28.843 18.531c-3.18 1.5249-6.1972 3.3497-9 5.4688-10.662 8.0608-17.109 19.379-19.375 31.406 0.23597 0.35659 0.47557 0.71078 0.71875 1.0625 1.2619 1.6804 2.6079 3.2977 4.0312 4.8438 1.4144 1.5524 2.9065 3.034 4.4688 4.4375 1.5678 1.4037 3.2059 2.7289 4.9062 3.9688 1.7016 1.2329 3.465 2.3807 5.2812 3.4375 1.8044 1.0603 3.6616 2.0307 5.5625 2.9062 1.9181 0.86834 3.8797 1.6405 5.875 2.3125 1.9899 0.68407 4.0141 1.2684 6.0625 1.75 2.0421 0.47765 4.108 0.85327 6.1875 1.125 2.0837 0.27125 4.1809 0.4382 6.2812 0.5 2.0946 0.0524 4.1918 0.00022 6.2812-0.15625 2.0941-0.14569 4.1809-0.39611 6.25-0.75 2.0733-0.3552 4.1288-0.8143 6.1562-1.375 2.0212-0.5667 4.0141-1.2345 5.9688-2 1.9578-0.75768 3.8776-1.6133 5.75-2.5625 1.8735-0.94966 3.6994-1.9931 5.4688-3.125 1.7685-1.1425 3.4797-2.3737 5.125-3.6875 1.6408-1.3058 3.2163-2.6935 4.7188-4.1562 1.5129-1.4581 2.9528-2.9919 4.3125-4.5938 1.1905-1.4386 2.317-2.9301 3.375-4.4688-1.5137-7.6081-4.5862-15.008-9.75-21.562l-41.568 31.431z" style="stroke-linejoin:round;color:#444444;stroke:#4d4d4d;stroke-linecap:round;stroke-dasharray:3.47064246, 1.15688082;stroke-width:1.1569;fill:#4d4d4d"/>
      <g id="g81" transform="translate(0 -924.36)">
        <path id="p3160-61" d="m128.29 64.865a63.766 63.892 0 1 1 -127.53 0 63.766 63.892 0 1 1 127.53 0z" style="stroke-linejoin:round;stroke:#444444;stroke-linecap:round;stroke-width:1.9947;fill:none" transform="matrix(.98823 0 0 .98628 .23592 924.39)"/>
      </g>
    </g>
    <g id="g82" transform="translate(365.99 22.648)">
      <g id="g821" transform="translate(0 -924.36)">
        <path id="p3160-2" d="m128.29 64.865a63.766 63.892 0 1 1 -127.53 0 63.766 63.892 0 1 1 127.53 0z" style="stroke-linejoin:round;stroke:#444444;stroke-linecap:round;stroke-width:1.9947;fill:none" transform="matrix(.98823 0 0 .98628 .23592 924.39)"/>
      </g>
      <path id="p4119" d="m24 100c0 2.7614-2.2386 5-5 5s-5-2.2386-5-5 2.2386-5 5-5 5 2.2386 5 5z" style="color:#444444;fill:#4d4d4d"/>
      <path id="p4122" d="m11.195 55.805-2.195 2.195 2.805 2.805-2.805 2.805 2.195 2.195 2.805-2.805 2.805 2.805 2.195-2.195-2.805-2.805 2.805-2.805-2.195-2.195-2.805 2.805-2.805-2.805z" style="block-progression:tb;text-indent:0;color:#444444;text-transform:none;fill:#4d4d4d"/>
      <path id="p4169" style="color:#444444;fill:#4d4d4d" d="m49 90c0 2.7614-2.2386 5-5 5s-5-2.2386-5-5 2.2386-5 5-5 5 2.2386 5 5z"/>
      <path id="p4171" style="block-progression:tb;text-indent:0;color:#444444;text-transform:none;fill:#4d4d4d" d="m28.39 43-2.195 2.195 2.805 2.805-2.805 2.805 2.195 2.195 2.805-2.805 2.805 2.805 2.195-2.195-2.805-2.805 2.805-2.805-2.195-2.195-2.805 2.805-2.805-2.805z"/>
      <path id="p4173" d="m74 95c0 2.7614-2.2386 5-5 5s-5-2.2386-5-5 2.2386-5 5-5 5 2.2386 5 5z" style="color:#444444;fill:#4d4d4d"/>
      <path id="p4175" d="m51.195 30.195-2.1951 2.1951 2.8049 2.8049l-2.805 2.805 2.195 2.195 2.805-2.805 2.805 2.805 2.195-2.195-2.805-2.805 2.805-2.805-2.195-2.195-2.805 2.805-2.805-2.805z" style="block-progression:tb;text-indent:0;color:#444444;text-transform:none;fill:#4d4d4d"/>
      <path id="p4177" style="color:#444444;fill:#4d4d4d" d="m89 75c0 2.7614-2.2386 5-5 5s-5-2.2386-5-5 2.2386-5 5-5 5 2.2386 5 5z"/>
      <path id="p4179" style="block-progression:tb;text-indent:0;color:#444444;text-transform:none;fill:#4d4d4d" d="m71.195 35.195-2.1951 2.1951 2.8049 2.8049l-2.805 2.805 2.195 2.195 2.805-2.805 2.805 2.805 2.195-2.195-2.805-2.805 2.805-2.805-2.195-2.195-2.805 2.805-2.805-2.805z"/>
      <path id="p4181" d="m86.195 30.195-2.1951 2.1951 2.8049 2.8049l-2.805 2.805 2.195 2.195 2.805-2.805 2.805 2.805 2.195-2.195-2.805-2.805 2.805-2.805-2.195-2.195-2.805 2.805-2.805-2.805z" style="block-progression:tb;text-indent:0;color:#444444;text-transform:none;fill:#4d4d4d"/>
      <path id="p4183" d="m104 90c0 2.7614-2.2386 5-5 5s-5-2.2386-5-5 2.2386-5 5-5 5 2.2386 5 5z" style="color:#444444;fill:#4d4d4d"/>
      <path id="p4185" style="color:#444444;fill:#4d4d4d" d="m124 75c0 2.7614-2.2386 5-5 5s-5-2.2386-5-5 2.2386-5 5-5 5 2.2386 5 5z"/>
      <path id="p4187" style="block-progression:tb;text-indent:0;color:#444444;text-transform:none;fill:#4d4d4d" d="m106.2 45.195-2.2 2.195 2.8 2.805-2.8 2.805 2.2 2.195 2.8-2.805 2.8 2.805 2.2-2.195-2.8-2.805 2.8-2.805-2.2-2.195-2.8 2.805-2.8-2.805z"/>
      <path id="p4189" d="m14 58 15-10l25-15 20 5 15-5 20 15" style="stroke:#4d4d4d;stroke-dasharray:3, 1;fill:none"/>
      <path id="p4191" d="m19 100 100-25" style="stroke:#4d4d4d;stroke-dasharray:2, 1;fill:none"/>
    </g>
  </g>
</svg>