<svg xmlns="http://www.w3.org/2000/svg" version="1.1" fill="none" width="128" height="128" viewBox="83.31 25.87 128 128" id="logo-iso-27001">
	<g id="g1" transform="matrix(1.1838289,0,0,1.1838289,-11.319521,-0.75920506)">
		<path id="p1" fill="#dedede" d="m 133.997,25.873 c -27.991,0 -50.683,22.691 -50.683,50.6832 0,27.9918 22.691,50.6828 50.683,50.6828 27.992,0 50.683,-22.691 50.683,-50.6828 0,-27.9922 -22.691,-50.6832 -50.683,-50.6832 z m 0,98.912 c -26.636,0 -48.2283,-21.593 -48.2283,-48.2288 0,-26.6361 21.5923,-48.2298 48.2283,-48.2298 26.636,0 48.23,21.5924 48.23,48.2298 0,26.6378 -21.592,48.2288 -48.23,48.2288 z"/>
		<path id="p2" fill="#dedede" d="m 133.997,109.429 c -18.127,0 -32.873,-14.7474 -32.873,-32.8728 0,-18.1254 14.747,-32.8729 32.873,-32.8729 18.125,0 32.873,14.7475 32.873,32.8729 0,18.1254 -14.748,32.8728 -32.873,32.8728 z m 0,-64.921 c -17.672,0 -32.048,14.3762 -32.048,32.0482 0,17.6719 14.376,32.0478 32.048,32.0478 17.672,0 32.048,-14.3759 32.048,-32.0478 0,-17.672 -14.376,-32.0482 -32.048,-32.0482 z"/>
		<path id="p3" style="fill:#dedede;stroke:#dedede;stroke-width:1.00157" d="m 136.90123,32.645092 -9.80081,0.652347 -15.02931,4.966791 -7.18553,5.748056 -7.972662,7.841802 -3.658201,8.363263 -2.482424,8.75588 -0.916014,6.794911 6.011716,1.437505 0.783205,-4.835943 2.484375,-8.363263 4.050785,-8.755881 7.70898,-7.839836 11.63087,-6.273449 11.36916,-1.828119 9.66992,0.783193 13.9824,7.187528 7.97072,9.017575 4.70506,9.408189 1.69924,9.931653 5.3574,-0.785159 0.13077,-3.265625 -1.04685,-5.750022 -2.48243,-6.142564 -3.13671,-5.619137 -3.52735,-5.48829 -2.87502,-3.265625 -7.70895,-6.273449 -8.62503,-4.181631 z m -2.90627,-2.162116 c -12.24098,0 -23.79509,4.814476 -32.53907,13.556636 -8.743082,8.742123 -13.556643,20.298407 -13.556643,32.539087 0,2.654703 0.22715,5.288958 0.677734,7.884731 l 7.060546,5.84961 3.4375,-8.10738 c -0.298583,-1.85469 -0.44922,-3.733947 -0.44922,-5.626961 0,-19.50206 15.867203,-35.369159 35.369153,-35.369159 19.50195,0 35.36916,15.867099 35.36916,35.369159 0,1.699918 -0.12246,3.389896 -0.36321,5.062488 l 3.65427,7.802713 6.84378,-5.494101 c 0.39299,-2.431408 0.5918,-4.893166 0.5918,-7.3711 0,-12.239282 -4.81467,-23.795565 -13.55668,-32.539087 -8.74393,-8.74216 -20.2981,-13.556636 -32.53905,-13.556636 z m 2.90627,2.162116 11.10739,2.2207 8.62503,4.181631 7.70895,6.273449 2.87501,3.265625 3.52736,5.48829 3.1367,5.619137 2.48244,6.142564 1.04685,5.750022 -0.13077,3.265625 -5.35741,0.785159 -1.69923,-9.931653 -4.70506,-9.408189 -7.97072,-9.017575 -13.9824,-7.187528 -9.66993,-0.783193 -11.36915,1.828119 -11.63088,6.273449 -7.70898,7.839836 -4.05078,8.755881 -2.484374,8.363263 -0.783205,4.835943 -6.011717,-1.437505 0.916014,-6.794911 2.482424,-8.75588 3.658201,-8.363263 7.972657,-7.841802 7.18554,-5.748056 15.02931,-4.966791 z M 93.616043,82.555266 c 0.256101,0 0.464844,0.20863 0.464844,0.464844 0,0.256252 -0.208743,0.464844 -0.464844,0.464844 -0.256214,0 -0.464844,-0.208629 -0.464844,-0.464844 0,-0.256252 0.208668,-0.464844 0.464844,-0.464844 z m 80.886717,0.0019 c 0.25588,0 0.46485,0.20863 0.46485,0.464844 0,0.256252 -0.20901,0.464844 -0.46485,0.464844 -0.25587,0 -0.46484,-0.20863 -0.46484,-0.464844 0,-0.256252 0.20863,-0.464844 0.46484,-0.464844 z"/>
		<path id="t1" style="fill:#dedede;stroke:#dedede;stroke-width:0.846047" d="M 115.81577,70.345467 V 54.221041 h 3.25568 v 16.124426 z m 5.53246,-5.246488 3.16769,-0.30797 q 0.28597,1.594844 1.15488,2.342771 0.87992,0.747927 2.36477,0.747927 1.57285,0 2.36477,-0.659935 0.80292,-0.670935 0.80292,-1.561848 0,-0.571944 -0.34096,-0.967905 -0.32997,-0.406961 -1.16589,-0.703932 -0.57194,-0.19798 -2.60674,-0.703931 -2.61775,-0.648937 -3.67365,-1.594844 -1.48485,-1.33087 -1.48485,-3.244683 0,-1.23188 0.69293,-2.298776 0.70393,-1.077895 2.01281,-1.63884 1.31987,-0.560945 3.17869,-0.560945 3.0357,0 4.56455,1.33087 1.53985,1.33087 1.61684,3.552653 l -3.25568,0.142986 q -0.20898,-1.242879 -0.90191,-1.781826 -0.68194,-0.549946 -2.0568,-0.549946 -1.41886,0 -2.22178,0.582943 -0.51695,0.373963 -0.51695,1.000902 0,0.571944 0.48395,0.978904 0.61594,0.51695 2.99171,1.077895 2.37576,0.560945 3.50865,1.165886 1.14389,0.593942 1.78183,1.63884 0.64894,1.033899 0.64894,2.56275 0,1.385865 -0.76993,2.595747 -0.76992,1.209882 -2.17779,1.803824 -1.40786,0.582943 -3.50865,0.582943 -3.0577,0 -4.69654,-1.407863 -1.63884,-1.418861 -1.95781,-4.124597 z m 15.18951,-2.716735 q 0,-2.463759 0.73693,-4.135596 0.54995,-1.23188 1.49586,-2.210784 0.9569,-0.978905 2.08979,-1.451859 1.50686,-0.637937 3.47566,-0.637937 3.56365,0 5.69745,2.210784 2.14479,2.210784 2.14479,6.1484 0,3.904618 -2.1228,6.115403 -2.12279,2.199785 -5.67544,2.199785 -3.59665,0 -5.71944,-2.188787 -2.1228,-2.199785 -2.1228,-6.049409 z m 3.35468,-0.109989 q 0,2.738732 1.26487,4.157594 1.26488,1.407862 3.21169,1.407862 1.94681,0 3.18969,-1.396863 1.25388,-1.407863 1.25388,-4.212589 0,-2.771729 -1.22089,-4.135596 -1.20988,-1.363867 -3.22268,-1.363867 -2.0128,0 -3.24468,1.385865 -1.23188,1.374866 -1.23188,4.157594 z"/>
		<path id="t2" style="fill:#dedede;stroke:#dedede;stroke-width:0.846047" d="m 117.57036,88.711961 v 1.712531 h -9.59215 q -0.0198,-0.643437 0.20788,-1.237378 0.36626,-0.980003 1.16809,-1.930309 0.81171,-0.950307 2.33616,-2.197584 2.36587,-1.940208 3.19739,-3.068697 0.83152,-1.138387 0.83152,-2.148088 0,-1.059195 -0.76223,-1.781824 -0.75232,-0.732528 -1.9699,-0.732528 -1.28688,0 -2.059,0.772124 -0.77212,0.772124 -0.78202,2.138189 l -1.83132,-0.188081 q 0.18808,-2.049098 1.41556,-3.118192 1.22748,-1.078994 3.29637,-1.078994 2.0887,0 3.30628,1.158186 1.21758,1.158185 1.21758,2.870716 0,0.871114 -0.35637,1.712531 -0.35636,0.841417 -1.18788,1.771925 -0.82162,0.930509 -2.74203,2.553948 -1.60364,1.346268 -2.059,1.83132 -0.45535,0.475153 -0.75232,0.960205 z m 2.0293,-10.898824 v -1.712531 h 9.39418 v 1.385863 q -1.38587,1.474954 -2.75193,3.920013 -1.35617,2.445059 -2.09859,5.028704 -0.53455,1.82142 -0.68304,3.989306 h -1.83132 q 0.0297,-1.712531 0.67314,-4.137792 0.64343,-2.42526 1.84122,-4.672339 1.20768,-2.256977 2.56384,-3.801224 z m 11.1562,5.454361 q 0,-2.573746 0.52465,-4.137791 0.53455,-1.573945 1.57395,-2.425261 1.04929,-0.851316 2.63314,-0.851316 1.16808,0 2.04909,0.475153 0.88102,0.465254 1.45516,1.356166 0.57414,0.881013 0.90081,2.157987 0.32667,1.267075 0.32667,3.425062 0,2.553948 -0.52465,4.127893 -0.52465,1.564045 -1.57394,2.42526 -1.0394,0.851316 -2.63314,0.851316 -2.0986,0 -3.29638,-1.504651 -1.43536,-1.811521 -1.43536,-5.899818 z m 1.83132,0 q 0,3.573548 0.83152,4.76143 0.84142,1.177984 2.0689,1.177984 1.22747,0 2.05899,-1.187883 0.84142,-1.187882 0.84142,-4.751531 0,-3.583446 -0.84142,-4.76143 -0.83152,-1.177984 -2.07879,-1.177984 -1.22748,0 -1.96001,1.039398 -0.92061,1.326469 -0.92061,4.900016 z m 9.44367,0 q 0,-2.573746 0.52465,-4.137791 0.53455,-1.573945 1.57394,-2.425261 1.0493,-0.851316 2.63314,-0.851316 1.16809,0 2.0491,0.475153 0.88101,0.465254 1.45516,1.356166 0.57414,0.881013 0.90081,2.157987 0.32667,1.267075 0.32667,3.425062 0,2.553948 -0.52465,4.127893 -0.52465,1.564045 -1.57395,2.42526 -1.03939,0.851316 -2.63314,0.851316 -2.09859,0 -3.29637,-1.504651 -1.43536,-1.811521 -1.43536,-5.899818 z m 1.83132,0 q 0,3.573548 0.83152,4.76143 0.84142,1.177984 2.06889,1.177984 1.22748,0 2.059,-1.187883 0.84142,-1.187882 0.84142,-4.751531 0,-3.583446 -0.84142,-4.76143 -0.83152,-1.177984 -2.07879,-1.177984 -1.22748,0 -1.96001,1.039398 -0.92061,1.326469 -0.92061,4.900016 z m 16.1552,7.156994 h -1.78182 V 79.070313 q -0.64344,0.613739 -1.69273,1.227478 -1.0394,0.61374 -1.87092,0.92061 v -1.72243 q 1.49475,-0.702831 2.61334,-1.702632 1.11859,-0.999802 1.58385,-1.940209 h 1.14828 z"/>
	</g>
</svg>