<svg xmlns="http://www.w3.org/2000/svg" version="1.1" width="128" height="128" viewBox="0 0 12.7 12.7" id="logo-auth">
	<g id="g1" transform="matrix(-0.92,0,0,0.92,14.023175,-262.28336)">
		<g id="g2" transform="matrix(0.03178272,0.01068159,-0.01156795,0.02934747,10.755439,263.41175)">
			<g id="g3" transform="matrix(0.3888,0,0,0.3888,80.67195,705.58161)">
				<g id="g4">
					<path d="m 323.461,786.427 0.154,0.896 c 4.78,3.843 6.468,4.78 12.188,6.843 12.843,5.157 20.905,5.157 34.688,5.72 20.53,0.75 47.063,-2.032 52.641,-4.344 5.578,-2.312 9.515,-6.531 9.515,-6.531 l 0.671,-1.51 c -28.152,-12.507 -55.186,-13.209 -55.186,-13.209 -23.14,-0.195 -41.928,6.063 -54.671,12.135 z" id="path9" style="fill:#5e6885;fill-opacity:1"/>
					<path d="m 322.28,779.55 1.181,6.877 c 12.743,-6.072 31.531,-12.33 54.669,-12.135 0,0 27.034,0.702 55.186,13.209 l 0.079,-0.178 c 0,0 0.742,-2.281 2.124,-6.263 -9.891,-4.798 -32.136,-14.03 -58.138,-14.769 -28.824,-0.818 -48.779,9.476 -55.101,13.259 z" id="path11" style="fill:#fff6d5;fill-opacity:1;stroke:#c2203f;stroke-width:0;stroke-linejoin:round;stroke-opacity:1"/>
					<path d="m 697.678,197.353 c -5.907,-15.375 -10.97,-24.375 -22.125,-36.28 C 671.24,156.291 563.24,55.135 558.178,52.51 507.458,27.29 472.021,35.447 418.021,19.697 c -17.25,-5.25 -26.53,-9.095 -44.155,-8.345 -6.47,0.563 -165,21.47 -170.438,23.25 -20.25,6 -31.407,10.782 -48.47,22.688 -46.312,32.533 -66.468,58.783 -100.218,103.783 -12,16.125 -14.25,28.218 -19.688,47.438 -9,32.625 -9.938,52.78 -8.345,86.155 2.625,37.688 10.875,58.595 25.407,93.375 25.78,62.157 45.375,95.625 87.375,147.75 42.843,54.095 114,126.563 118.218,131.157 21,24.375 33.095,39 48.563,67.688 8.438,15.75 13.22,25.78 15.75,43.405 l 0.26,1.509 c 5.81221,-3.47758 23.15273,-12.46101 48.31551,-13.24873 2.20272,-0.069 4.46538,-0.0751 6.78549,-0.009 26.002,0.738 48.247,9.971 58.138,14.769 6.778,-19.533 29.009,-80.147 55.251,-114.957 4.313,-5.53 203.063,-276.843 205.313,-282.75 13.22,-33.938 17.063,-55.313 17.063,-91.218 0,-37.783 -2.063,-59.626 -15.468,-94.783 z" id="path13" style="fill:#5e6885;fill-opacity:1;stroke:#5e6885;stroke-width:0;stroke-linejoin:round;stroke-opacity:1"/>
				</g>
				<g id="g5">
					<path d="m 562.678,55.603 c 25.03,32.157 39.093,50.907 54.093,88.688 11.157,27.375 13.782,44.157 16.688,73.688 4.313,41.438 0.47,65.532 -7.218,106.688 -9.47,51 -23.625,77.907 -49.313,122.907 -4.22,7.313 -102.282,134.53 -118.313,236.905 32.718,-55.593 54,-85.688 96.468,-134.063 46.22,-52.593 78.845,-79.313 109.22,-142.593 15.093,-31.407 19.313,-51 24.093,-85.313 5.063,-35.532 3.845,-56.625 -1.405,-92.063 -4.782,-34.782 -9.282,-54.845 -26.532,-85.782 -11.625,-20.905 -18.75,-33.093 -35.905,-49.218 -15.47,-14.063 -25.22,-20.532 -43.313,-30.845 z" id="path17" style="fill:#fff6d5"/>
					<path d="M 48.600541,171.60396 C 36.225541,188.01096 22.865,214.136 17.428,233.729 c -9,29.25 -11.625,47.157 -8.063,77.625 3.28,31.688 10.593,49.313 23.063,78.375 21.375,51.845 39.28,79.22 74.063,123 l 72.61475,70.03566 C 132.88575,519.67166 69.453817,421.01959 66.921817,415.48959 46.296817,376.58259 37.420425,353.71269 31.700425,310.49269 27.107425,274.96269 26.054,254.354 34.116,219.199 l 9.938,-35.532 c -3.939,4.781 7.921541,-17.12604 4.546541,-12.06304 z" id="path19" style="fill:#5e6885;fill-opacity:1"/>
					<path d="m 535.771,60.666 c -11.625,-12.843 -19.313,-20.063 -34.78,-26.53 -16.688,-6.375 -26.907,-9 -45.282,-8.532 l -38.53,7.595 c 10.688,3.188 15.75,7.405 23.53,15.093 11.063,11.625 15,20.625 22.688,35.157 14.532,27.468 20.25,45.468 26.157,76.313 1.218,5.905 13.313,97.593 9,159.75 -0.375,6.843 -24.47,146.53 -48.938,238.688 -12.845,48.375 -25.22,76.218 -21.75,126 v 9.28 c 2.438,-5.438 142.593,-318.75 144.843,-324.28 14.063,-36.47 17.063,-58.782 20.157,-97.22 2.905,-44.625 1.313,-71.063 -11.157,-114 -10.688,-35.155 -15.843,-56.625 -38.25,-85.688 -3.844,-5.157 -3.844,-6.939 -7.688,-11.626 z" id="path21" style="fill:#fff6d5"/>
					<path d="m 329.333,16.51 c -15.938,17.25 -24.938,27.938 -32.625,49.78 -16.218,46.22 -14.063,75.845 -14.063,125.532 0,11.155 17.907,239.53 60.282,386.438 l 29.25,86.905 c 4.218,4.313 -3,-2.813 1.218,0.938 5.25,-2.53 -4.78,2.625 0.47,0 1.218,-6.375 44.53,-410.53 44.53,-424.03 0,-68.157 -19.688,-166.782 -21.468,-172.875 -5.907,-17.907 -11.438,-27.75 -23.063,-43.125 -6.47,-8.25 -10.313,-13.782 -20.063,-18 -6.095,-2.25 -7.782,-2.25 -13.782,0 -5.436,2.53 -6.373,3.843 -10.686,8.437 z" id="path23" style="fill:#fff6d5"/>
					<path d="m 144.271,66.573 c -21.093,10.03 -32.063,17.343 -49.313,32.718 -12,11.063 -17.53,18.47 -26.155,31.595 -10.22,15.468 -14.063,26.25 -18.282,44.25 -8.343,36.843 -12.188,59.155 -8.343,97.125 3.843,37.875 11.25,58.405 24.093,94.405 16.688,45.375 31.688,68.532 56.532,110.625 3.468,5.438 68.155,95.438 117.375,151.595 l 58.688,64.593 c 5.155,3.563 -3.845,-2.53 1.405,0.938 6,0 -4.78,0 1.22,0 0,-12.375 0,4.313 0,-1.875 -3.563,-5.063 -152.625,-245.438 -157.22,-256.125 -32.625,-75.75 -57.093,-120.375 -59.718,-202.688 -1.22,-32.155 0,-50.905 10.968,-81 10.97,-31.593 19.595,-49.5 40.5,-76.125 3.938,-4.313 3.938,-4.313 8.25,-9.093" id="path25" style="fill:#fff6d5;fill-opacity:1"/>
					<path d="m 290.24,24.198 c -19.22,-3.845 -31.125,-5.907 -50.438,-0.75 -9,2.625 -14.532,4.688 -22.313,10.688 -6,4.78 -8.907,8.155 -13.407,14.53 l -4.5,6.938 c -9,2.625 -13.78,5.907 -20.625,11.907 -6.938,5.53 -10.313,10.313 -15.843,17.625 -16.875,23.155 -24.47,38.063 -32.625,65.53 -10.688,33.845 -9,55.313 -8.063,91.407 1.218,61.125 10.688,96.375 32.905,152.905 34.313,86.157 60.375,132.375 113.063,208.595 l 63.563,93.75 c -42.938,-105.282 -70.03,-165.282 -91.218,-277.595 -18.095,-95.063 -29.25,-150.75 -21.938,-247.125 2.905,-40.405 4.313,-64.875 21.938,-100.78 6.28,-13.313 10.593,-21 21.188,-30.375 9.093,-8.25 14.718,-13.313 25.78,-16.688 5.721,-2.157 -3.374,0.375 2.533,-0.562 z" id="path27" style="opacity:1;fill:#fff6d5"/>
				</g>
				<path d="m 598.771,76.978 c 25.313,33.375 37.782,53.625 52.688,92.438 7.688,21.47 9,34.313 10.782,57.188 3.28,53.063 2.625,84.282 -11.625,135 -12,42.375 -22.313,65.438 -44.157,104.063 -24.468,42.375 -43.218,62.907 -73.313,101.438 -17.905,23.532 -28.125,37.313 -41.813,63.47" id="path30" style="fill:none;stroke:#ffffff;stroke-width:1.5;stroke-linejoin:round;stroke-opacity:1"/>
				<path d="m 464.615,25.603 c 14.625,13.313 22.875,21.845 33.563,38.532 18.843,28.688 28.218,46.78 38.53,79.313 11.907,36.938 15,59.53 17.907,98.625 2.155,32.438 -1.22,50.813 -7.22,83.53 -10.405,55.595 -23.25,86.063 -44.53,138.845 -2.532,6.655 -53.25,115.593 -68.625,194.343 -2.532,13.22 -3.938,21 -6.375,34.313" id="path32" style="fill:none;stroke:#400000;stroke-width:1.5;stroke-linejoin:round;stroke-opacity:0"/>
				<path d="m 348.083,6.76 c -9,236.53 14.625,599.813 15.47,605.813 2.625,20.905 5.063,33 9.843,53.53" id="path34" style="fill:none;stroke:#ffffff;stroke-width:1.5;stroke-linejoin:round;stroke-opacity:1"/>
				<path d="m 199.021,55.603 c -14.53,22.595 -18.75,38.063 -28.313,63.375 -9,26.157 -11.625,42.095 -11.625,69 0,6.47 2.345,98.532 16.875,158.907 16.688,71.625 35.532,109.218 64.782,176.625 29.813,69.375 55.218,104.53 90.655,172.218" id="path36" style="fill:none;stroke:#ffff00;stroke-width:1.5;stroke-linejoin:round;stroke-opacity:0"/>
				<g id="g6" transform="matrix(1.0210281,0.07847812,0.07847812,1.2928843,-69.570329,-259.63998)">
					<line x1="352.48999" y1="798.01001" x2="359.70801" y2="841.323" id="line46" style="fill:#241c1c;stroke:#222222;stroke-width:1.8218447;stroke-linejoin:round;stroke-miterlimit:4;stroke-dasharray:none;stroke-opacity:1"/>
					<line x1="340.021" y1="795.38501" x2="349.021" y2="842.26001" id="line48" style="fill:#5e6885;fill-opacity:1;stroke:#222222;stroke-width:1.8218447;stroke-linejoin:round;stroke-miterlimit:4;stroke-dasharray:none;stroke-opacity:1"/>
					<line style="fill:none;stroke:#222222;stroke-width:1.93354225;stroke-linejoin:round;stroke-miterlimit:4;stroke-dasharray:none;stroke-opacity:1" x1="392.64407" y1="795.87695" x2="386.17575" y2="839.08801" id="line50"/>
					<line style="fill:none;stroke:#222222;stroke-width:1.85433006;stroke-linecap:round;stroke-linejoin:round;stroke-miterlimit:4;stroke-dasharray:none;stroke-opacity:1" x1="407.39651" y1="794.62701" x2="399.41779" y2="838.83423" id="line52"/>
				</g>
				<g id="g7" style="fill:#5e6885;fill-opacity:1" transform="matrix(1.728,0,0,1.728,-265.09674,-587.55467)">
					<path style="fill:#5e6885;fill-opacity:1;stroke-width:1.20000005" id="path38" d="m 338.95737,862.27887 -2.9256,26.3256 19.464,12.264 45.2256,-2.1384 c 5.736,-4.05 -4.614,3.0384 1.1256,-1.0116 l 4.6116,-36.564 c 4.614,-5.736 2.4756,-2.9256 8.214,-7.65 4.05,-5.736 -2.0256,2.5884 1.9116,-3.486 0,-7.2 0,5.0616 0,-2.25 -3.036,-6.6384 2.7,4.7256 -0.786,-2.0256 l -19.2384,-13.2756 c -9.4452,0.7704 -20.7648,1.0644 -31.1616,1.8 -18.4536,1.3056 -34.3692,2.8692 -34.3692,2.8692 0,0 -3.3756,4.3308 -3.8808,5.6808 -0.5052,1.35 -0.45,4.5 -0.45,4.5 l 0.45,1.0116 c 0,0 4.1616,4.7256 9.9,9.3384 4.05,5.5116 -2.1384,-3.714 1.9116,2.4756"/>
					<polyline id="polyline40" points="342.827,883.093 379.865,881.541    397.725,889.979  " style="fill:#5e6885;fill-opacity:1;stroke:#5e6885;stroke-width:0.375;stroke-linejoin:round;stroke-opacity:1"/>
					<line id="line42" y2="881.54102" x2="379.86499" y1="861.573" x1="381.45801" style="fill:#5e6885;fill-opacity:1;stroke:#5e6885;stroke-width:0.375;stroke-linejoin:round;stroke-opacity:1"/>
					<line id="line44" y2="858.47803" x2="404.33301" y1="849.948" x1="387.92801" style="fill:#5e6885;fill-opacity:1;stroke:#5e6885;stroke-width:0.375;stroke-linejoin:round;stroke-opacity:1"/>
					<line id="line59" y2="865.41602" x2="400.771" y1="857.073" x1="384.08301" style="fill:#5e6885;fill-opacity:1;stroke:#5e6885;stroke-width:0.375;stroke-linejoin:round;stroke-opacity:1"/>
					<line id="line61" y2="856.79102" x2="373.396" y1="858.01001" x1="348.08301" style="fill:#5e6885;fill-opacity:1;stroke:#5e6885;stroke-width:0.375;stroke-linejoin:round;stroke-opacity:1"/>
					<line id="line63" y2="848.16602" x2="375.55301" y1="849.948" x1="345.55301" style="fill:#5e6885;fill-opacity:1;stroke:#5e6885;stroke-width:0.375;stroke-linejoin:round;stroke-opacity:1"/>
				</g>
			</g>
		</g>
	</g>
</svg>