<svg xmlns="http://www.w3.org/2000/svg" version="1.1" fill="none" width="128" height="128" viewBox="83.31 25.87 128 128" id="logo-gdpr">
	<g id="g1" transform="matrix(1.1838289,0,0,1.1838289,-11.319521,-0.75920527)">
		<path id="p1" fill="#dedede" d="m 133.997,25.873 c -27.991,0 -50.683,22.691 -50.683,50.6832 0,27.9918 22.691,50.6828 50.683,50.6828 27.992,0 50.683,-22.691 50.683,-50.6828 0,-27.9922 -22.691,-50.6832 -50.683,-50.6832 z m 0,98.912 c -26.636,0 -48.2283,-21.593 -48.2283,-48.2288 0,-26.6361 21.5923,-48.2298 48.2283,-48.2298 26.636,0 48.23,21.5924 48.23,48.2298 0,26.6378 -21.592,48.2288 -48.23,48.2288 z"/>
		<path id="p2" fill="#dedede" d="m 133.997,109.429 c -18.127,0 -32.873,-14.7474 -32.873,-32.8728 0,-18.1254 14.747,-32.8729 32.873,-32.8729 18.125,0 32.873,14.7475 32.873,32.8729 0,18.1254 -14.748,32.8728 -32.873,32.8728 z m 0,-64.921 c -17.672,0 -32.048,14.3762 -32.048,32.0482 0,17.6719 14.376,32.0478 32.048,32.0478 17.672,0 32.048,-14.3759 32.048,-32.0478 0,-17.672 -14.376,-32.0482 -32.048,-32.0482 z"/>
		<path id="p3" style="fill:#dedede;stroke:#dedede;stroke-width:1.00157" d="m 136.90323,32.645092 -9.80081,0.652347 -15.02931,4.966791 -7.18553,5.748056 -7.972668,7.841802 -3.658201,8.363263 -2.482424,8.75588 -0.916014,6.794911 6.011716,1.437505 0.783205,-4.835943 2.484375,-8.363263 4.050791,-8.755881 7.70898,-7.839836 11.63087,-6.273449 11.36916,-1.828119 9.66992,0.783193 13.9824,7.187528 7.97072,9.017575 4.70506,9.408189 1.69924,9.931653 5.3574,-0.785159 0.13077,-3.265625 -1.04685,-5.750022 -2.48243,-6.142564 -3.13671,-5.619137 -3.52735,-5.48829 -2.87502,-3.265625 -7.70895,-6.273449 -8.62503,-4.181631 z m -2.90627,-2.162116 c -12.24098,0 -23.79509,4.814476 -32.53907,13.556636 -8.743088,8.742123 -13.556649,20.298407 -13.556649,32.539087 0,2.654703 0.22715,5.288958 0.677734,7.884731 l 7.060546,5.84961 3.4375,-8.10738 c -0.298583,-1.85469 -0.44922,-3.733947 -0.44922,-5.626961 0,-19.50206 15.867209,-35.369159 35.369159,-35.369159 19.50195,0 35.36916,15.867099 35.36916,35.369159 0,1.699918 -0.12246,3.389896 -0.36321,5.062488 l 3.65427,7.802713 6.84378,-5.494101 c 0.39299,-2.431408 0.5918,-4.893166 0.5918,-7.3711 0,-12.239282 -4.81467,-23.795565 -13.55668,-32.539087 -8.74393,-8.74216 -20.2981,-13.556636 -32.53905,-13.556636 z m 2.90627,2.162116 11.10739,2.2207 8.62503,4.181631 7.70895,6.273449 2.87501,3.265625 3.52736,5.48829 3.1367,5.619137 2.48244,6.142564 1.04685,5.750022 -0.13077,3.265625 -5.35741,0.785159 -1.69923,-9.931653 -4.70506,-9.408189 -7.97072,-9.017575 -13.9824,-7.187528 -9.66993,-0.783193 -11.36915,1.828119 -11.63088,6.273449 -7.70898,7.839836 -4.050786,8.755881 -2.484374,8.363263 -0.783205,4.835943 -6.011717,-1.437505 0.916014,-6.794911 2.482424,-8.75588 3.658201,-8.363263 7.972663,-7.841802 7.18554,-5.748056 15.02931,-4.966791 z M 93.618037,82.555266 c 0.256101,0 0.464844,0.20863 0.464844,0.464844 0,0.256252 -0.208743,0.464844 -0.464844,0.464844 -0.256214,0 -0.464844,-0.208629 -0.464844,-0.464844 0,-0.256252 0.208668,-0.464844 0.464844,-0.464844 z m 80.886723,0.0019 c 0.25588,0 0.46485,0.20863 0.46485,0.464844 0,0.256252 -0.20901,0.464844 -0.46485,0.464844 -0.25587,0 -0.46484,-0.20863 -0.46484,-0.464844 0,-0.256252 0.20863,-0.464844 0.46484,-0.464844 z"/>
		<g id="g2" transform="translate(0.1875954)">
			<path style="fill:#ffffff;fill-opacity:1;stroke:#ffffff;stroke-width:0.846043;stroke-opacity:1" id="s1" d="m 18.089414,49.269853 -2.608397,-1.3566 -2.596275,1.379658 0.484164,-2.899946 -2.114426,-2.042866 2.907627,-0.435665 1.289488,-2.64222 1.312848,2.630691 2.911374,0.409885 -2.096243,2.061521 z" transform="matrix(0.84471666,0,0,0.84471666,79.935133,35.118964)"/>
			<path style="fill:#ffffff;fill-opacity:1;stroke:#ffffff;stroke-width:0.846043;stroke-opacity:1" id="s2" d="m 18.089414,49.269853 -2.608397,-1.3566 -2.596275,1.379658 0.484164,-2.899946 -2.114426,-2.042866 2.907627,-0.435665 1.289488,-2.64222 1.312848,2.630691 2.911374,0.409885 -2.096243,2.061521 z" transform="matrix(0.84471666,0,0,0.84471666,161.55855,35.118964)"/>
			<path style="fill:#ffffff;fill-opacity:1;stroke:#ffffff;stroke-width:0.846043;stroke-opacity:1" id="s3" d="m 18.089414,49.269853 -2.608397,-1.3566 -2.596275,1.379658 0.484164,-2.899946 -2.114426,-2.042866 2.907627,-0.435665 1.289488,-2.64222 1.312848,2.630691 2.911374,0.409885 -2.096243,2.061521 z" transform="matrix(0.84471666,0,0,0.84471666,86.477524,16.750542)"/>
			<path style="fill:#ffffff;fill-opacity:1;stroke:#ffffff;stroke-width:0.846043;stroke-opacity:1" id="s4" d="m 18.089414,49.269853 -2.608397,-1.3566 -2.596275,1.379658 0.484164,-2.899946 -2.114426,-2.042866 2.907627,-0.435665 1.289488,-2.64222 1.312848,2.630691 2.911374,0.409885 -2.096243,2.061521 z" transform="matrix(0.84471666,0,0,0.84471666,155.2961,16.750542)"/>
			<path style="fill:#ffffff;fill-opacity:1;stroke:#ffffff;stroke-width:0.846043;stroke-opacity:1" id="s5" d="m 18.089414,49.269853 -2.608397,-1.3566 -2.596275,1.379658 0.484164,-2.899946 -2.114426,-2.042866 2.907627,-0.435665 1.289488,-2.64222 1.312848,2.630691 2.911374,0.409885 -2.096243,2.061521 z" transform="matrix(0.84471666,0,0,0.84471666,100.20833,3.0197355)"/>
			<path style="fill:#ffffff;fill-opacity:1;stroke:#ffffff;stroke-width:0.846043;stroke-opacity:1" id="s6" d="m 18.089414,49.269853 -2.608397,-1.3566 -2.596275,1.379658 0.484164,-2.899946 -2.114426,-2.042866 2.907627,-0.435665 1.289488,-2.64222 1.312848,2.630691 2.911374,0.409885 -2.096243,2.061521 z" transform="matrix(0.84471666,0,0,0.84471666,141.55076,3.0197355)"/>
			<path style="fill:#ffffff;fill-opacity:1;stroke:#ffffff;stroke-width:0.846043;stroke-opacity:1" id="s7" d="m 18.089414,49.269853 -2.608397,-1.3566 -2.596275,1.379658 0.484164,-2.899946 -2.114426,-2.042866 2.907627,-0.435665 1.289488,-2.64222 1.312848,2.630691 2.911374,0.409885 -2.096243,2.061521 z" transform="matrix(0.84471666,0,0,0.84471666,120.93444,-2.5793042)"/>
		</g>
	</g>
	<path id="t1" style="fill:#dedede;stroke:#dedede;stroke-width:1.00157" d="m 128.90461,85.505402 h 2.73066 v -8.298654 h -5.86666 v 2.709329 h 2.77333 v 0.746666 c 0,1.450664 -1.30133,2.218663 -2.92266,2.218663 -2.00533,0 -3.30666,-1.151998 -3.30666,-3.626661 v -2.38933 c 0,-2.474662 1.30133,-3.626661 3.30666,-3.626661 1.728,0 2.64533,0.938666 3.09333,2.090664 l 2.64533,-1.514665 c -1.10933,-2.282663 -3.09333,-3.455994 -5.73866,-3.455994 -4.03199,0 -6.74132,2.751996 -6.74132,7.765321 0,4.991992 2.68799,7.637321 6.10132,7.637321 2.24,0 3.60533,-1.130665 3.81866,-2.623996 h 0.10667 z m 5.88798,0 h 5.61066 c 3.94666,0 6.54933,-2.495996 6.54933,-7.445322 0,-4.949325 -2.60267,-7.445322 -6.54933,-7.445322 h -5.61066 z m 3.24267,-2.879996 v -9.130652 h 2.36799 c 1.92,0 3.11466,1.045332 3.11466,3.413328 v 2.303996 c 0,2.367996 -1.19466,3.413328 -3.11466,3.413328 z m 14.86932,2.879996 V 80.12941 h 3.79732 c 2.77333,0 4.52266,-1.94133 4.52266,-4.757326 0,-2.815995 -1.74933,-4.757326 -4.52266,-4.757326 h -7.03998 v 14.890644 z m 0,-12.074648 h 3.41333 c 0.95999,0 1.55733,0.511999 1.55733,1.471998 v 0.938665 c 0,0.959998 -0.59734,1.471998 -1.55733,1.471998 h -3.41333 z m 13.99464,6.613323 h 2.32533 l 2.60267,5.461325 h 3.60532 l -2.92266,-5.845324 c 1.81333,-0.682666 2.70933,-2.282664 2.70933,-4.287994 0,-2.837329 -1.74933,-4.757326 -4.50133,-4.757326 h -7.06132 v 14.890644 h 3.24266 z m 0,-2.730662 v -3.882661 h 3.41333 c 0.96,0 1.55733,0.511999 1.55733,1.471998 v 0.938665 c 0,0.959998 -0.59733,1.471998 -1.55733,1.471998 z"/>
	<path id="t2" style="fill:#dedede;stroke:#dedede;stroke-width:1.00157" d="m 118.37994,103.01158 c 1.70134,0 2.94801,-0.89467 3.59334,-2.33201 l -0.98267,-0.616 c -0.41067,1.11467 -1.30533,1.84801 -2.61067,1.84801 -1.76001,0 -2.80134,-1.27601 -2.80134,-3.373344 v -1.525337 c 0,-2.097338 1.04134,-3.490675 2.80134,-3.490675 1.26134,0 2.11199,0.689335 2.52267,1.745338 l 0.99734,-0.601335 c -0.64535,-1.42267 -1.81867,-2.244005 -3.52001,-2.244005 -2.58134,0 -4.12134,1.936004 -4.12134,5.353345 0,3.417343 1.54,5.236013 4.12134,5.236013 z m 8.24269,0 c 2.02399,0 3.41733,-1.55467 3.41733,-3.96001 0,-2.405339 -1.39333,-3.960009 -3.41733,-3.960009 -2.024,0 -3.41734,1.55467 -3.41734,3.960009 0,2.40534 1.39334,3.96001 3.41734,3.96001 z m 0,-1.04134 c -1.26135,0 -2.15601,-0.77733 -2.15601,-2.376002 v -1.085336 c 0,-1.59867 0.89466,-2.376005 2.15601,-2.376005 1.26134,0 2.156,0.777335 2.156,2.376005 v 1.085336 c 0,1.598672 -0.89467,2.376002 -2.156,2.376002 z m 6.52666,0.86534 V 97.5849 c 0,-0.968002 0.88002,-1.437336 1.80401,-1.437336 1.11467,0 1.628,0.689334 1.628,2.038671 v 4.649345 h 1.17334 V 97.5849 c 0,-0.968002 0.85068,-1.437336 1.77467,-1.437336 1.144,0 1.65733,0.704001 1.65733,2.038671 v 4.649345 h 1.17334 v -4.854679 c 0,-1.833337 -0.924,-2.88934 -2.464,-2.88934 -1.29067,0 -2.02401,0.718668 -2.30268,1.540004 h -0.0293 c -0.41067,-1.085336 -1.32,-1.540004 -2.31734,-1.540004 -1.17333,0 -1.70134,0.630668 -2.03867,1.408003 h -0.0587 v -1.232002 h -1.17333 v 7.568018 z m 11.63069,2.93334 h 1.17333 v -4.16534 h 0.0587 c 0.45467,0.93866 1.17334,1.408 2.21467,1.408 1.89201,0 3.08001,-1.54 3.08001,-3.96001 0,-2.420005 -1.188,-3.960009 -3.08001,-3.960009 -1.04132,0 -1.81867,0.454668 -2.21467,1.408003 h -0.0587 v -1.232002 h -1.17333 z m 3.124,-3.81334 c -1.07066,0 -1.95067,-0.55734 -1.95067,-1.54001 v -2.816003 c 0,-0.836002 0.88001,-1.452003 1.95067,-1.452003 1.32001,0 2.14134,0.909335 2.14134,2.258671 v 1.29067 c 0,1.349335 -0.82133,2.258675 -2.14134,2.258675 z m 7.6707,0.88 v -1.02667 h -1.11467 v -9.826689 h -1.17334 v 9.636019 c 0,0.704 0.44,1.21734 1.24667,1.21734 z m 2.28798,-9.342689 c 0.49867,0 0.71868,-0.264001 0.71868,-0.660002 v -0.190667 c 0,-0.396001 -0.22001,-0.660001 -0.71868,-0.660001 -0.49867,0 -0.71866,0.264 -0.71866,0.660001 v 0.190667 c 0,0.396001 0.21999,0.660002 0.71866,0.660002 z m -0.58666,9.342689 h 1.17334 V 95.267562 H 157.276 Z m 9.82668,0 v -1.02667 h -0.86533 v -4.165343 c 0,-1.59867 -1.08534,-2.552006 -2.90401,-2.552006 -1.364,0 -2.27334,0.674668 -2.684,1.481337 l 0.704,0.660001 c 0.41068,-0.689335 1.012,-1.129336 1.92134,-1.129336 1.20267,0 1.78933,0.586668 1.78933,1.657338 v 0.748001 h -1.496 c -2.20001,0 -3.22667,0.792002 -3.22667,2.214668 0,1.40801 0.93866,2.28801 2.53733,2.28801 1.05601,0 1.86268,-0.484 2.18534,-1.408 h 0.0733 c 0.088,0.704 0.44,1.232 1.30533,1.232 z m -4.03334,-0.82134 c -0.90933,0 -1.496,-0.42533 -1.496,-1.17333 v -0.308 c 0,-0.733338 0.60133,-1.144006 1.936,-1.144006 h 1.55467 v 1.246666 c 0,0.77734 -0.836,1.37867 -1.99467,1.37867 z m 6.87869,0.82134 V 97.5849 c 0,-0.968002 0.90934,-1.437336 1.84801,-1.437336 1.12934,0 1.716,0.689334 1.716,2.038671 v 4.649345 h 1.17334 v -4.854679 c 0,-1.833337 -0.98267,-2.88934 -2.53735,-2.88934 -1.12933,0 -1.77466,0.557335 -2.14133,1.408003 h -0.0587 v -1.232002 h -1.17334 v 7.568018 z m 10.29603,0 v -1.02667 h -1.53999 v -5.514679 h 1.65733 v -1.026669 h -1.65733 v -2.097339 h -1.05601 v 1.408004 c 0,0.513334 -0.16134,0.689335 -0.66,0.689335 h -0.70401 v 1.026669 h 1.24667 v 5.294679 c 0,0.73333 0.44001,1.24667 1.24667,1.24667 z"/>
</svg>