<svg xmlns="http://www.w3.org/2000/svg" version="1.1" width="128" height="128" viewBox="0 0 128 128" id="ios">
	<g id="g1">
		<path id="p1" style="stroke-width:0.72899997" d="m 111.65473,96.986195 c -1.78605,4.126135 -3.90015,7.924225 -6.34959,11.416135 -3.33882,4.76037 -6.07257,8.05545 -8.17938,9.88524 -3.26592,3.00348 -6.76512,4.54167 -10.51218,4.62915 -2.69001,0 -5.93406,-0.76545 -9.71028,-2.31822 -3.788613,-1.54548 -7.270317,-2.31093 -10.45386,-2.31093 -3.33882,0 -6.919668,0.76545 -10.749834,2.31093 -3.835998,1.55277 -6.926229,2.36196 -9.288918,2.44215 -3.593241,0.15309 -7.174818,-1.42884 -10.749834,-4.75308 -2.28177,-1.99017 -5.135805,-5.40189 -8.554815,-10.23516 -3.668328,-5.16132 -6.684201,-11.146405 -9.04689,-17.969843 -2.530359,-7.37019 -3.798819,-14.5071 -3.798819,-21.416562 0,-7.914755 1.710234,-14.741111 5.135805,-20.461574 2.692197,-4.594887 6.273774,-8.219475 10.756395,-10.880325 4.482621,-2.66085 9.326097,-4.01679 14.542092,-4.103541 2.854035,0 6.596721,0.882819 11.247741,2.617839 4.637898,1.740852 7.615863,2.623671 8.921502,2.623671 0.976131,0 4.284333,-1.032264 9.89253,-3.090231 5.303475,-1.908522 9.779535,-2.698758 13.446405,-2.387475 9.93627,0.8019 17.40123,4.718817 22.36572,11.775537 -8.88651,5.384394 -13.28238,12.925899 -13.1949,22.60046 0.0802,7.535673 2.81394,13.806531 8.18667,18.785601 2.43486,2.31093 5.15403,4.09698 8.17938,5.36544 -0.6561,1.90269 -1.34865,3.72519 -2.08494,5.474788 z M 88.86619,7.3119054 c 0,5.9064306 -2.15784,11.4212426 -6.45894,16.5257006 -5.19048,6.068196 -11.468628,9.574686 -18.276759,9.021375 -0.08675,-0.708588 -0.137052,-1.454355 -0.137052,-2.23803 0,-5.670162 2.468394,-11.738358 6.851871,-16.699932 2.188458,-2.512134 4.97178,-4.6009373 8.34705,-6.2672126 3.36798,-1.6414164 6.55371,-2.5491672 9.5499,-2.70459 0.08748,0.7895799 0.12393,1.5792327 0.12393,2.3626161 z"/>
	</g>
</svg>