<svg xmlns="http://www.w3.org/2000/svg" version="1.1" width="128" height="128" viewBox="0 0 60 60" id="css-logo">
	<rect id="r1" style="fill:#004488;fill-opacity:1;fill-rule:evenodd;stroke:none;stroke-width:0.972494" width="50.625" height="50.625" x="4.6875" y="4.6875"/>
	<g id="g1">
		<g id="g2">
			<path id="p1" d="m 24.382324,21.534576 0,2.535096 c -0.809341,-0.75377 -1.674208,-1.317124 -2.594604,-1.690064 -0.912488,-0.372909 -1.884472,-0.559371 -2.915955,-0.559387 -2.031258,1.6e-5 -3.586432,0.622879 -4.665527,1.868591 -1.079106,1.237806 -1.618656,3.031017 -1.618653,5.379639 -3e-6,2.340705 0.539547,4.133916 1.618653,5.379639 1.079095,1.237795 2.634269,1.856691 4.665527,1.856689 1.031483,2e-6 2.003467,-0.186461 2.915955,-0.559387 0.920396,-0.372922 1.785263,-0.936276 2.594604,-1.690064 l 0,2.511292 c -0.841079,0.57129 -1.733717,0.999756 -2.677917,1.2854 -0.936292,0.285645 -1.928112,0.428467 -2.975464,0.428467 -2.689827,0 -4.808355,-0.821227 -6.355591,-2.463684 -1.547243,-1.650387 -2.320863,-3.899835 -2.320862,-6.748352 -1e-6,-2.856434 0.773619,-5.105882 2.320862,-6.748352 1.547236,-1.650373 3.665764,-2.475568 6.355591,-2.475586 1.063221,1.8e-5 2.062976,0.14284 2.999267,0.428467 0.9442,0.277727 1.828904,0.698259 2.654114,1.261596" style="fill:#ffffff"/>
			<path id="p2" d="m 36.522217,24.998016 0,2.070923 c -0.618907,-0.317371 -1.261606,-0.555408 -1.928101,-0.714111 -0.666512,-0.15868 -1.356819,-0.238025 -2.070923,-0.238037 -1.087041,1.2e-5 -1.904301,0.166637 -2.451782,0.499878 -0.539554,0.333263 -0.80933,0.83314 -0.809326,1.499633 -4e-6,0.507822 0.194393,0.908518 0.583191,1.202088 0.388789,0.285653 1.170344,0.559395 2.344665,0.821228 l 0.749817,0.166626 c 1.555167,0.333259 2.658071,0.805366 3.308716,1.416321 0.658558,0.603033 0.987843,1.448064 0.987854,2.535095 -1.1e-5,1.237795 -0.491954,2.217714 -1.47583,2.939758 -0.975961,0.722046 -2.320869,1.083069 -4.034729,1.083069 -0.714117,0 -1.459965,-0.07141 -2.237549,-0.214233 -0.769656,-0.134888 -1.582949,-0.341187 -2.43988,-0.618897 l 0,-2.261352 c 0.809324,0.420534 1.606747,0.737917 2.392273,0.952148 0.785518,0.2063 1.563105,0.30945 2.332763,0.309448 1.031488,2e-6 1.824944,-0.174559 2.380372,-0.523681 0.55541,-0.357054 0.83312,-0.856931 0.833129,-1.499634 -9e-6,-0.595089 -0.20234,-1.051326 -0.606994,-1.368713 -0.396737,-0.317378 -1.273506,-0.622859 -2.63031,-0.916443 l -0.761719,-0.178528 c -1.356815,-0.285638 -2.336734,-0.722039 -2.939758,-1.309204 -0.603029,-0.595085 -0.904543,-1.408378 -0.904541,-2.439881 -2e-6,-1.253651 0.444334,-2.221667 1.333007,-2.904052 0.888669,-0.68236 2.150264,-1.023546 3.784791,-1.02356 0.809318,1.4e-5 1.571036,0.05952 2.285156,0.178528 0.714102,0.119032 1.37267,0.297559 1.975708,0.535583" style="fill:#ffffff"/>
			<path id="p3" d="m 49.233398,24.998016 0,2.070923 c -0.618906,-0.317371 -1.261606,-0.555408 -1.9281,-0.714111 -0.666512,-0.15868 -1.356819,-0.238025 -2.070923,-0.238037 -1.087042,1.2e-5 -1.904302,0.166637 -2.451782,0.499878 -0.539555,0.333263 -0.80933,0.83314 -0.809326,1.499633 -4e-6,0.507822 0.194393,0.908518 0.583191,1.202088 0.388789,0.285653 1.170343,0.559395 2.344665,0.821228 l 0.749817,0.166626 c 1.555167,0.333259 2.658071,0.805366 3.308716,1.416321 0.658558,0.603033 0.987842,1.448064 0.987854,2.535095 -1.2e-5,1.237795 -0.491955,2.217714 -1.47583,2.939758 -0.975962,0.722046 -2.32087,1.083069 -4.034729,1.083069 -0.714117,0 -1.459966,-0.07141 -2.237549,-0.214233 -0.769656,-0.134888 -1.582949,-0.341187 -2.439881,-0.618897 l 0,-2.261352 c 0.809325,0.420534 1.606748,0.737917 2.392273,0.952148 0.785518,0.2063 1.563106,0.30945 2.332764,0.309448 1.031487,2e-6 1.824943,-0.174559 2.380371,-0.523681 0.555411,-0.357054 0.833121,-0.856931 0.83313,-1.499634 -9e-6,-0.595089 -0.202341,-1.051326 -0.606995,-1.368713 -0.396736,-0.317378 -1.273505,-0.622859 -2.63031,-0.916443 l -0.761718,-0.178528 c -1.356816,-0.285638 -2.336734,-0.722039 -2.939759,-1.309204 -0.603029,-0.595085 -0.904542,-1.408378 -0.904541,-2.439881 -1e-6,-1.253651 0.444334,-2.221667 1.333008,-2.904052 0.888668,-0.68236 2.150264,-1.023546 3.78479,-1.02356 0.809319,1.4e-5 1.571037,0.05952 2.285156,0.178528 0.714102,0.119032 1.372671,0.297559 1.975708,0.535583" style="fill:#ffffff"/>
		</g>
	</g>
</svg>