<svg xmlns="http://www.w3.org/2000/svg" version="1.1" width="128" height="128" viewBox="0 0 60 60" id="html-logo">
	<rect id="r1" style="fill:#ff4455;fill-opacity:1;fill-rule:evenodd;stroke:none;stroke-width:0.972494" width="50.625" height="50.625" x="4.6875" y="4.6875"/>
	<g id="g1" style="fill:#ffffff;fill-opacity:1;stroke:none;stroke-width:0.810861" transform="matrix(0.33399567,0,0,0.71295715,2.3403243,0.80547165)">
		<path id="p1" style="fill:#ffffff;fill-opacity:1;stroke-width:0.810861" d="m 51.279567,60.409176 h -7.728522 v -16.54664 q 0,-6.132138 -4.561095,-6.132138 -3.243446,0 -4.687793,2.204529 -1.444346,2.204529 -1.444346,7.145715 V 60.409176 H 25.129288 V 20.981043 h 7.728523 v 8.032595 q 0,0.937558 -0.177376,4.409059 l -0.177376,2.280547 h 0.405431 q 2.58462,-4.155664 8.209971,-4.155664 4.991865,0 7.576485,2.685978 2.584621,2.685978 2.584621,7.703183 z"/>
		<path id="p2" style="fill:#ffffff;fill-opacity:1;stroke-width:0.810861" d="m 71.221689,54.758486 q 2.027154,0 4.865169,-0.88688 v 5.752048 q -2.888694,1.29231 -7.095037,1.29231 -4.637114,0 -6.765625,-2.331226 -2.103171,-2.356566 -2.103171,-7.044358 V 37.882434 H 56.42347 v -3.268785 l 4.257022,-2.58462 2.229869,-5.980103 h 4.941186 v 6.030781 h 7.931238 v 5.802727 H 67.851547 V 51.54038 q 0,1.647062 0.912219,2.432584 0.937558,0.785522 2.457923,0.785522 z"/>
		<path id="p3" style="fill:#ffffff;fill-opacity:1;stroke-width:0.810861" d="m 107.15298,60.409176 h -7.728522 v -16.54664 q 0,-3.066069 -1.038916,-4.586434 -1.013576,-1.545704 -3.218106,-1.545704 -2.964712,0 -4.307701,2.179189 -1.342989,2.17919 -1.342989,7.171055 V 60.409176 H 81.788224 V 32.079707 h 5.904084 l 1.038916,3.623537 h 0.43077 q 1.140274,-1.951135 3.294125,-3.04073 2.15385,-1.114934 4.941186,-1.114934 6.360195,0 8.615405,4.155664 h 0.68416 q 1.14027,-1.976474 3.3448,-3.066069 2.22987,-1.089595 5.01721,-1.089595 4.81449,0 7.27241,2.483263 2.48326,2.457923 2.48326,7.905898 v 18.472435 h -7.75386 v -16.54664 q 0,-3.066069 -1.03891,-4.586434 -1.01358,-1.545704 -3.21811,-1.545704 -2.83801,0 -4.25702,2.027153 -1.39367,2.027153 -1.39367,6.436212 z"/>
		<path id="p4" style="fill:#ffffff;fill-opacity:1;stroke-width:0.810861" d="m 140.49966,60.409176 h -7.72853 V 20.981043 h 7.72853 z"/>
	</g>
</svg>