<svg xmlns="http://www.w3.org/2000/svg" version="1.1" width="128" height="128" viewBox="0 0 128 128" id="jquery-logo">
	<g id="g1" transform="matrix(0.81,0,0,0.81,12.16,12.16)">
		<g id="g2">
			<path id="p1" d="M 0,0 V 128 H 128 V 0 Z" style="fill:#1e2e3b;fill-opacity:1;stroke:none;stroke-width:0.19981751"/>
			<path id="p2" d="m 72.683612,3.624351 -2.511058,3.452706 c -3.356353,4.939611 -3.673823,11.074959 -1.34521,16.531136 2.45438,5.789784 7.475039,10.34317 13.347472,12.495507 0.242139,0.09111 0.488533,0.173019 0.732393,0.254095 l 0.328829,0.104627 c 0.348391,0.108334 0.688126,0.230778 1.046275,0.298936 16.232047,3.135236 20.636477,-8.324039 21.807347,-10.014341 -3.85771,5.553744 -10.34183,6.878747 -18.294855,4.947384 C 87.169623,31.543736 86.483554,31.324557 85.881617,31.111476 85.101683,30.83239 84.337963,30.513605 83.59476,30.154882 82.181752,29.477613 80.837594,28.646333 79.589023,27.703611 72.473759,22.304834 68.042099,12.012722 72.683612,3.624351 Z m -18.41443,4.020683 -4.648449,6.561636 c -5.694435,8.193225 -5.381629,19.164873 -0.941647,27.830901 0.745212,1.453544 1.578094,2.856987 2.511059,4.200044 0.853618,1.221809 1.813965,2.681215 2.944515,3.661961 0.412244,0.452709 0.834988,0.894775 1.270477,1.330264 l 0.343776,0.328831 c 0.423722,0.41253 0.853042,0.816093 1.300369,1.210687 l 0.04482,0.04482 0.01492,0.01492 c 0.493531,0.431903 1.005859,0.845151 1.524572,1.25553 l 0.343775,0.269042 c 0.520723,0.398901 1.055626,0.792777 1.599305,1.165849 l 0.04482,0.04482 c 0.238193,0.166447 0.490543,0.319741 0.732393,0.478297 l 0.343775,0.224201 c 0.389,0.249671 0.78204,0.485711 1.180797,0.717446 l 0.164414,0.104627 c 0.344732,0.197297 0.694009,0.393519 1.046274,0.582925 l 0.37367,0.194308 c 0.243859,0.125552 0.486595,0.251704 0.732392,0.373669 l 0.104627,0.0598 c 0.501064,0.247519 1.009805,0.476503 1.524572,0.702499 l 0.343776,0.134521 c 0.414181,0.174339 0.820518,0.349636 1.240582,0.50819 0.177998,0.06744 0.357862,0.130455 0.538085,0.194309 0.379169,0.141336 0.765848,0.273705 1.150902,0.403562 0.174339,0.05595 0.351093,0.109889 0.523137,0.164415 0.547912,0.170035 1.090229,0.383594 1.659092,0.478297 29.397888,4.870075 36.186208,-17.756717 36.186208,-17.756717 -6.11837,8.8131 -17.969392,13.013383 -30.610995,9.730353 -0.563266,-0.147076 -1.124475,-0.303957 -1.674039,-0.478297 L 75.687913,52.21633 c -0.390937,-0.126988 -0.778859,-0.264378 -1.165849,-0.403564 -0.176276,-0.066 -0.348798,-0.126868 -0.523137,-0.194307 -0.421787,-0.160709 -0.843285,-0.332416 -1.25553,-0.508191 L 72.399624,50.975745 C 71.884785,50.747598 71.378341,50.507971 70.875052,50.258299 70.61584,50.132747 70.353374,49.999541 70.09782,49.869685 l -0.433457,-0.224202 c -0.329308,-0.178644 -0.665288,-0.365062 -0.986487,-0.553032 l -0.224202,-0.13452 C 68.054848,48.723326 67.660156,48.488719 67.272879,48.240484 L 66.914156,48.001335 C 66.65853,47.834887 66.401613,47.663896 66.15187,47.493145 65.60819,47.119356 65.086224,46.722608 64.567511,46.327295 L 64.208789,46.058254 C 58.672981,41.691164 54.279991,35.714725 52.19158,28.944194 50.00617,21.921839 50.480999,14.042495 54.269182,7.645034 Z m -22.943305,8.295462 -6.143125,7.802218 c -7.873963,11.315548 -6.89577,26.04291 -0.881861,38.069446 0.143203,0.28626 0.299318,0.569293 0.448404,0.851966 0.09477,0.182231 0.17233,0.362309 0.269041,0.538084 l 0.179362,0.313883 c 0.102524,0.191558 0.209351,0.367212 0.313883,0.55303 0.189692,0.330743 0.387348,0.659332 0.582924,0.986488 0.108478,0.180078 0.203683,0.358004 0.313883,0.538083 0.21882,0.350114 0.446179,0.699749 0.672604,1.046274 l 0.28399,0.433458 c 0.315532,0.468487 0.642519,0.929451 0.97154,1.39005 l 0.01492,0.04482 0.164415,0.224202 c 0.286475,0.395312 0.583904,0.781298 0.881859,1.165849 l 0.32883,0.418509 c 0.267032,0.335047 0.547147,0.66854 0.822072,1.001434 l 0.298936,0.37367 c 0.371637,0.43549 0.750902,0.861413 1.135955,1.285424 l 0.0299,0.0299 0.04482,0.04482 c 0.37551,0.410378 0.761903,0.809635 1.150902,1.210688 l 0.358722,0.37367 c 0.303838,0.303478 0.61698,0.599066 0.9267,0.896806 l 0.373694,0.35877 c 0.41454,0.388856 0.827573,0.777831 1.255529,1.150902 l 0.0299,0.01492 0.209255,0.194308 c 0.375582,0.325003 0.76384,0.639484 1.150902,0.956594 l 0.46335,0.373669 c 0.313596,0.251824 0.633456,0.503407 0.956593,0.747339 l 0.508192,0.388641 c 0.354274,0.26115 0.716081,0.527562 1.076167,0.777232 l 0.388617,0.269042 0.104627,0.07473 c 0.342723,0.233887 0.697954,0.460839 1.046274,0.687551 l 0.448403,0.298936 c 0.536075,0.338634 1.07935,0.677867 1.629199,1.001435 l 0.448404,0.254095 c 0.404639,0.232452 0.800453,0.465144 1.210689,0.687551 0.222552,0.120532 0.463063,0.22755 0.687551,0.343776 0.290351,0.152816 0.570967,0.299175 0.866913,0.448404 l 0.209256,0.104627 0.343775,0.164415 c 0.45852,0.21882 0.923424,0.435369 1.390051,0.642711 l 0.298935,0.134522 c 0.532202,0.234604 1.070286,0.458088 1.614253,0.672605 l 0.388616,0.149467 c 0.505009,0.19371 1.013678,0.389334 1.524572,0.567978 l 0.194308,0.07473 c 0.563338,0.195145 1.132774,0.375103 1.703932,0.553031 l 0.403564,0.119574 c 0.580699,0.176491 1.150422,0.382757 1.748772,0.493244 C 95.245812,95.182942 106.31383,65.354552 106.31383,65.354552 97.027226,77.457849 80.535573,80.656938 64.911264,77.102714 64.319084,76.969269 63.739533,76.77807 63.162491,76.60947 l -0.433456,-0.134521 c -0.563339,-0.172187 -1.118306,-0.345809 -1.67404,-0.538084 l -0.224202,-0.08969 c -0.497405,-0.173618 -0.992082,-0.362904 -1.47973,-0.553027 l -0.418511,-0.164415 c -0.538083,-0.21308 -1.072699,-0.427357 -1.599304,-0.657657 l -0.32883,-0.134522 C 56.551495,74.13237 56.108185,73.924311 55.659209,73.709795 l -0.388617,-0.194308 c -0.350329,-0.168599 -0.686594,-0.343059 -1.031329,-0.523137 -0.233957,-0.119814 -0.472125,-0.248117 -0.702497,-0.37367 -0.422073,-0.228864 -0.841349,-0.462154 -1.25553,-0.702498 l -0.41851,-0.224202 c -0.551787,-0.322851 -1.093123,-0.662082 -1.629198,-1.001433 l -0.433456,-0.298936 c -0.389,-0.251824 -0.782447,-0.500418 -1.165849,-0.762287 L 48.2755,69.360283 C 47.901926,69.099132 47.529595,68.837145 47.169438,68.568104 L 46.691141,68.209381 C 46.360112,67.956122 46.031737,67.694734 45.704654,67.432149 L 45.25625,67.073426 C 44.84006,66.732638 44.436976,66.394364 44.030615,66.042097 L 43.896094,65.93747 c -0.437499,-0.385268 -0.874638,-0.7862 -1.30037,-1.180794 l -0.358723,-0.358724 c -0.313595,-0.299892 -0.620996,-0.601816 -0.9267,-0.911753 l -0.373669,-0.358722 c -0.387278,-0.397465 -0.76439,-0.802463 -1.135955,-1.21069 L 39.74089,61.857 c -0.392873,-0.431183 -0.773382,-0.870498 -1.150901,-1.315314 l -0.298936,-0.358723 c -0.282817,-0.338634 -0.564032,-0.686236 -0.83702,-1.031327 L 37.155098,58.777963 C 36.82579,58.353953 36.493206,57.922291 36.183556,57.492541 27.510001,45.661865 24.392677,29.340223 31.325854,15.940496 Z" style="fill:#21ace2;fill-opacity:1;fill-rule:nonzero;stroke:none;stroke-width:0.59787118"/>
			<path id="p3" d="m 38.650902,93.9101 c -7.452375,0 -10.69053,5.3661 -11.92578,11.19922 -1.234313,5.8755 0.383342,11.02675 7.792967,10.98438 l 5.847658,-0.0195 5.460936,-0.0196 c 0.210375,-0.002 0.426844,-0.16822 0.480469,-0.3711 l 0.953125,-3.63281 c 0.05325,-0.20381 -0.07869,-0.37015 -0.289063,-0.37109 l -0.910156,-0.004 -0.914063,-0.008 c -0.179062,-10e-4 -0.279187,-0.11578 -0.257812,-0.26953 l 0.02343,-0.0859 c 0,0 2.062125,-5.01125 2.53125,-7.90625 0.638812,-3.87545 -1.298781,-9.4961 -8.792969,-9.4961 z m 76.921878,2.14453 -1.20313,0.008 c -0.21037,0.002 -0.55506,0.004 -0.76562,0.004 h -3.1836 c -0.21037,0 -0.47878,0.14297 -0.59765,0.31641 l -7.04298,10.3125 c -0.11887,0.17456 -0.25371,0.15025 -0.30077,-0.0547 l -0.51563,-2.27344 c -0.0465,-0.20587 -0.25837,-0.37109 -0.46875,-0.37109 h -4.527341 c -0.210937,0 -0.334532,0.16488 -0.277345,0.36718 l 2.027345,7.10548 c 0.05756,0.2025 0.06384,0.53447 0.01173,0.73828 l -0.88672,3.4375 c -0.05269,0.20494 0.0785,0.37109 0.289063,0.37109 h 4.472658 c 0.20999,0 0.42833,-0.16615 0.48047,-0.37109 l 0.88281,-3.4375 c 0.0521,-0.20381 0.19729,-0.50778 0.32422,-0.67578 l 11.4336,-15.17188 c 0.12694,-0.16743 0.058,-0.30562 -0.15235,-0.30468 z m -38.84766,2.28516 c -7.366687,0 -9.110531,4.47163 -10.089843,8.98438 -0.979313,4.59975 -0.89625,8.89843 6.726562,8.89843 h 0.273438 0.07031 0.492187 0.08984 c 0.07594,0 0.153594,0 0.230469,0 h 0.05469 c 0.301687,-0.001 0.606937,-0.003 0.914062,-0.004 h 0.01563 c 2.013375,-0.007 4.029594,-0.0241 4.847656,-0.0312 0.209438,-0.003 0.414094,-0.17062 0.457032,-0.375 l 0.308593,-1.50781 0.0625,-0.29297 0.367188,-1.80078 c 0.04256,-0.20587 -0.09766,-0.375 -0.308594,-0.375 h -6.851561 c -2.7255,0 -3.536219,-0.72231 -3.238282,-2.85156 h 10.957032 0.0078 c 0.174,-0.003 0.334687,-0.12578 0.398437,-0.28516 l 0.02734,-0.0937 h -0.0039 C 84.16047,102.47024 83.693377,98.3398 76.725127,98.3398 Z m -38.691406,0.14453 c 4.112373,-0.11812 4.919798,2.94002 3.875,6.45313 l -0.105467,0.36719 v 0.004 l -0.82422,2.92968 -0.828125,2.92969 c -0.05756,0.20231 -0.277343,0.37109 -0.48828,0.37109 h -4.375 c -3.321,0 -4.133095,-2.59831 -3.32422,-6.42968 0.808312,-3.91838 2.395187,-6.35482 5.664062,-6.60157 0.139588,-0.0105 0.273595,-0.0196 0.40625,-0.0234 z m -16.679689,0.0625 c -0.210375,0 -0.42225,0.17025 -0.46875,0.375 l -0.39453,1.74219 -0.39453,1.74219 c -0.04685,0.20475 0.0865,0.375 0.296875,0.375 h 4.195312 c 0.210937,0 0.419657,-0.16969 0.464845,-0.375 l 0.382812,-1.74219 0.382813,-1.74219 c 0.045,-0.20587 -0.09041,-0.375 -0.300783,-0.375 z m 30.371095,0.0469 c -0.210562,0 -0.418375,0.16968 -0.460937,0.375 l -0.835938,3.96875 -0.839843,3.96875 v 0.004 l -0.07813,0.37109 c -0.963563,4.3995 -0.706375,8.5955 4.53125,8.72656 0.08569,0.002 0.152343,0 0.152343,0 h 8.21875 c 0.210375,0 0.416875,-0.16856 0.460938,-0.375 l 1.773437,-8.33203 1.773438,-8.33203 c 0.0435,-0.20587 -0.09413,-0.375 -0.304688,-0.375 h -3.789062 c -0.210375,0 -0.419844,0.16969 -0.464844,0.375 l -1.34375,6.22266 -1.347656,6.22656 c -0.04443,0.20532 -0.250938,0.375 -0.460938,0.375 h -2.683593 c -2.654625,0 -2.348625,-1.83644 -1.804688,-4.35156 l 0.01563,-0.0742 0.05859,-0.32031 0.01171,-0.0586 0.121094,-0.64453 0.128906,-0.6914 c 0.03956,-0.20831 0.101625,-0.51522 0.140625,-0.70703 l 0.613281,-2.98829 0.609375,-2.98828 c 0.042,-0.20587 -0.09431,-0.375 -0.304687,-0.375 z m 35.894532,0.043 c -0.210375,0 -0.421344,0.16912 -0.464844,0.375 l -0.152344,0.73047 -0.183594,0.86718 -0.05078,0.24219 -1.578125,7.39063 -1.5,7.01953 c -0.04443,0.20587 -0.05694,0.45937 -0.03125,0.5625 0.0255,0.10275 0.426156,0.18359 0.636719,0.18359 h 3.164062 c 0.210938,0 0.475094,-0.0356 0.589844,-0.082 0.114938,-0.0465 0.285938,-0.46153 0.328125,-0.66797 l 0.5625,-2.77734 0.5625,-2.78125 v -0.004 l 0.07422,-0.37109 0.683594,-3.19532 0.601563,-2.82031 c 0.04444,-0.20494 0.251125,-0.37072 0.460937,-0.37109 l 9.949221,-0.004 c 0.20981,-0.001 0.34115,-0.1695 0.29296,-0.375 l -0.17187,-0.71875 -0.17188,-0.73438 -0.0898,-0.375 c -0.34087,-1.32432 -1.339713,-2.08595 -3.511713,-2.08595 l -3.382813,-0.004 -3.113282,-0.004 h -3.503906 z m -11.871094,3.875 c 2.362312,0 2.820469,1.15171 2.660156,2.44922 -0.02819,0.226 -0.23596,0.39453 -0.445312,0.39453 H 72.22512 c -0.198375,0 -0.302875,-0.13485 -0.273437,-0.30078 l 0.0039,-0.0118 0.0039,-0.0195 c 0,0 0.0083,-0.0405 0.02344,-0.0977 0.54825,-1.45744 1.667313,-2.41406 3.765625,-2.41406 z M 20.11184,103.9687 c -0.210375,0 -0.418905,0.1695 -0.464845,0.375 l -0.589845,2.60937 -0.58984,2.60938 c -0.0467,0.2055 -0.120565,0.54356 -0.164065,0.75 l -0.566405,2.66406 -0.566405,2.66406 c -0.04405,0.2055 -0.13525,0.53897 -0.203125,0.73828 0,0 -0.783815,2.33094 -2.101565,2.30469 -0.05568,-0.002 -0.1095,0.001 -0.16406,0 -0.6375,-0.012 -1.140625,-0.0234 -1.140625,-0.0234 -0.210375,-0.003 -0.42019,0.16281 -0.46875,0.36719 l -0.4375,1.82812 -0.433595,1.82813 c -0.04855,0.20419 0.08372,0.37497 0.29297,0.37891 0.74625,0.009 2.41978,0.0273 3.43359,0.0273 3.291,0 5.027815,-1.82647 6.140625,-7.07422 l 1.300782,-6.02344 1.222657,-5.64843 c 0.045,-0.2055 -0.09412,-0.375 -0.304687,-0.375 z" style="fill:#ffffff;fill-opacity:1;fill-rule:nonzero;stroke:none;stroke-width:0.15625"/>
		</g>
	</g>
</svg>