<svg xmlns="http://www.w3.org/2000/svg" version="1.1" width="128" height="128" viewBox="0 0 26 26" id="netarchive-logo">
	<g id="g1" transform="translate(0,-271.60001)">
		<rect id="r1" style="fill:#b28e70;fill-opacity:1;stroke-width:0.27413198" width="23.446154" height="23.148109" x="0.97692317" y="272.72595" rx="1.6432018" ry="1.6463835"/>
		<g id="g2" transform="matrix(-0.24444519,0,0,0.24790387,24.439226,272.66944)">
			<path id="p1" d="m 85.998727,48.009443 c 0.02914,0.06506 0.02177,0.133462 0.0123,0.188315 -0.100481,0.44608 0.323885,2.0052 -1.237422,1.628801 -1.566919,-0.403276 -1.187015,-1.353928 -0.580162,-2.17159 0.532613,-0.714539 1.601287,-0.10095 1.805287,0.354468 z m -1.219688,-3.711671 c 0.681888,2.552358 -1.747999,2.025736 -2.212788,1.108204 -0.467028,-0.92004 -1.929506,-3.223596 -3.3057,-6.824347 -1.374741,-3.601173 -3.543638,-7.831612 -4.223827,-9.549534 -0.647721,-1.702086 -2.63845,-4.480005 -3.237487,-5.999879 -0.62563,-1.513688 -3.135868,-7.739093 -3.933416,-9.173936 -0.82936,-1.454061 1.342301,-2.716219 2.013062,-1.855802 0.644566,0.868085 1.615531,2.896214 2.941987,6.316662 1.320842,3.393559 2.568997,4.931465 2.899521,5.446273 0.362326,0.534009 1.098528,3.269102 1.491079,4.016078 0.412066,0.714314 2.030423,4.460123 3.108757,6.229462 1.111596,1.788125 3.783991,7.760913 4.458812,10.286819 z m 0.280377,7.594604 c 0.0874,0.300958 0.114836,0.612822 0.0587,0.788869 -0.224126,0.705652 -1.140036,4.305139 -1.645102,5.509677 -0.505064,1.204537 -1.392659,4.1927 -1.411752,5.671683 -0.01909,1.478984 -2.013072,8.197774 -2.637717,11.327374 -0.616123,3.155627 -1.697845,-0.140774 -1.475017,-1.679394 0.222825,-1.538607 1.909193,-9.198177 2.661824,-11.948565 0.727892,-2.743147 1.758167,-6.62226 2.690182,-9.423564 0.69901,-2.100976 1.496911,-1.149025 1.75888,-0.24608 z m -2.820821,-2.590557 c 0.0072,0.606257 -0.390697,1.261593 -0.800899,1.270743 -0.822256,0.01725 -3.88246,0.291829 -6.59064,1.084417 -2.708184,0.792592 -6.931661,1.606439 -8.848198,2.167342 -0.698993,0.204572 -1.789718,0.436497 -2.983345,0.642822 0.946859,1.585628 1.952619,3.22873 3.169275,5.175408 2.981609,4.770646 7.919139,12.706213 9.068024,14.733744 1.147427,2.027955 0.479255,2.667908 -0.534593,2.267537 -1.041111,-0.390809 -1.363831,-1.513847 -4.090366,-5.635119 -2.75834,-4.140487 -7.717615,-12.299986 -9.548165,-14.823524 -0.307142,-0.416019 -0.624167,-0.810504 -0.935025,-1.2233 -1.189289,0.20875 -2.304363,0.405725 -3.063366,0.627858 -2.120268,0.620528 -3.147173,0.741029 -3.463973,-0.444781 -0.310129,-1.16083 1.355872,-1.24125 2.505502,-1.577706 0.429737,-0.125768 1.516807,-0.429079 2.512711,-0.697006 -0.971663,-1.361707 -1.830835,-2.672801 -2.314273,-3.967073 -0.845855,-2.338017 1.457728,-3.274033 3.146179,-0.460176 0.614568,1.038107 1.34967,2.324732 2.103882,3.606429 0.451835,-0.143321 0.817319,-0.272109 0.9329,-0.349802 0.532952,-0.377777 3.94401,-0.95544 4.969997,-1.032325 1.025598,-0.07835 4.204481,-0.616375 6.145756,-1.184517 1.941276,-0.568144 4.54976,-0.903792 6.97846,-1.197919 1.21382,-0.146115 1.632926,0.410692 1.640153,1.016933 z M 68.4101,9.2081442 c 0.161041,0.588361 0.04628,1.0995728 -1.310721,1.4967188 -2.145008,0.627768 -2.567896,-0.9212058 -2.219828,-2.1906986 0.349513,-1.2699231 2.821601,-1.53281 3.110922,-0.4498577 0.108495,0.4060994 0.322992,0.7908175 0.419632,1.1438355 z m -2.526335,3.3494348 c 0.138691,0.387976 0.09628,1.013809 -0.174158,1.624685 -0.754416,1.610218 -2.089733,6.255459 -3.280028,9.634574 -1.183624,3.404087 -3.217049,9.636744 -3.672449,11.438291 -0.462466,1.775094 -1.02547,4.063914 -1.748083,5.693341 -0.754418,1.61022 -2.808273,1.705485 -2.666525,-0.447867 0.113709,-2.146724 0.64655,-4.412042 1.598698,-6.110221 0.959606,-1.670271 1.493165,-3.241228 1.985855,-4.803354 0.51742,-1.569378 5.191469,-13.722894 5.971673,-16.064672 1.013571,-1.616555 1.753864,-1.611425 1.985017,-0.964777 z M 63.658364,10.061445 C 63.892332,10.9372 62.86878,11.48241 61.13269,11.990502 l -13.608955,3.982865 c -1.711349,0.500854 -2.585144,0.763884 -4.702546,1.606573 -2.082984,0.859924 -11.167761,3.498714 -12.88202,4.000418 -1.736087,0.50809 -2.805529,0.807328 -3.269827,-0.0026 -0.437702,-0.816139 0.563226,-1.334708 2.010276,-2.008518 1.477397,-0.654182 5.023406,-2.161074 7.831999,-2.983051 2.811504,-0.82283 4.650243,-0.888842 5.605762,-1.640611 0.956581,-0.753663 2.277092,-1.120111 5.372417,-1.802617 3.076868,-0.651757 11.626008,-2.691618 12.841676,-3.2977108 1.247472,-0.586891 3.099587,-0.634576 3.326887,0.2162138 z M 78.42832,78.436763 c 0.104941,1.220879 -0.208131,1.553325 -1.309083,2.071989 -1.120866,0.549837 -2.087633,-0.635297 -1.55783,-1.847077 0.505064,-1.20454 2.729105,-1.463108 2.866913,-0.224912 z m -5.254835,0.962156 c 0.054,0.589001 -0.297705,1.277014 -0.974392,1.475052 -1.353363,0.396083 -9.492255,1.963504 -10.516396,2.041434 -1.018925,0.103338 -5.291183,0.512195 -6.849733,0.968328 -1.558551,0.456134 -3.89236,0.289178 -4.967699,0.187221 -1.072425,-0.102819 -4.669839,1.354236 -7.741803,1.61324 -3.040161,0.278212 -0.783415,-1.428119 0.133328,-1.9198 0.917134,-0.490216 2.969722,-0.638835 4.323085,-1.034917 1.354819,-0.396509 3.721703,-0.928764 4.92523,-1.05761 1.224111,-0.163387 5.376155,-0.299848 6.963864,-0.541131 1.606443,-0.276866 3.765341,-0.709651 6.145755,-1.184515 2.372286,-0.499418 5.347104,-1.145646 7.132934,-1.473427 0.908622,-0.155021 1.371814,0.33718 1.425827,0.926125 z M 56.993123,44.446012 c 0.300432,2.052456 -1.204664,2.496769 -2.891682,2.266477 C 52.911948,46.5885 52.784864,44.26896 53.74184,43.516768 54.697358,42.765 56.675021,42.427245 56.993123,44.446012 Z m -4.813889,1.332083 c 0.03375,0.461995 -0.263185,0.91447 -0.970455,1.205217 -1.168117,0.463715 -3.027487,0.892125 -4.550859,1.178344 0.982488,1.359803 1.84326,2.653065 2.166037,3.127639 0.69431,1.048408 0.268665,1.789693 -0.859113,1.4797 -1.129238,-0.30956 -1.477975,-1.6552 -2.555006,-2.591586 -0.344557,-0.296587 -1.002135,-0.908876 -1.721815,-1.607166 -1.639978,0.179247 -4.925908,0.626379 -7.318725,1.489419 -2.858408,1.058356 -6.591747,1.925218 -8.636659,2.105431 -2.044522,0.181692 -7.128826,1.433842 -8.482187,1.829923 -1.356273,0.396934 -3.168159,0.534878 -3.607298,0.441598 -0.457206,-0.06105 -2.548271,-0.748208 -0.06591,-1.669577 2.44949,-0.938679 7.546451,-2.178694 9.048588,-2.840121 1.508809,-0.636444 5.306508,-1.355565 10.059212,-2.329846 2.658466,-0.544107 4.879921,-1.035786 6.681324,-1.456408 -0.89734,-0.999072 -1.758388,-2.010132 -2.195716,-2.811882 -1.215901,-2.172679 -4.846895,-6.387566 -7.033677,-9.11103 -2.189691,-2.722611 -6.177576,-6.819009 -7.436093,-8.340741 -1.236695,-1.528129 1.726325,-2.22139 2.49599,-1.613302 0.798556,0.628138 4.787292,6.190897 6.179824,7.480138 1.392532,1.289231 6.810443,8.353105 9.234481,11.230525 0.616451,0.719016 1.284286,1.552576 1.931052,2.390363 1.149629,-0.336457 3.941703,-1.564723 5.322562,-1.135511 1.313083,0.01475 2.258205,0.778879 2.314446,1.548873 z m -0.851277,9.192448 c 0.133394,0.620127 -0.03191,1.301554 -0.872559,1.713933 -1.100952,0.518663 -1.651254,-0.794478 -1.475019,-1.679395 0.17769,-0.885345 1.740417,-1.3427 2.150639,-0.629416 0.09636,0.180132 0.152488,0.388166 0.196939,0.594878 z m -2.28905,3.241606 c 0.05655,0.353555 0.0014,0.733372 -0.175795,1.049414 -0.708796,1.264165 -2.807646,7.556004 -4.526962,11.227777 -1.744056,3.679013 -3.062264,9.56156 -4.330021,11.822653 -1.270666,2.261943 -2.900127,0.181195 -2.062079,-1.315666 0.860087,-1.531828 3.166968,-8.483053 4.360191,-11.140586 1.157446,-2.673993 3.47915,-8.843099 4.646179,-11.492963 0.868083,-2.005498 1.918824,-1.211294 2.088487,-0.150629 z M 24.941788,22.083333 c 0.121419,1.382399 -0.584148,2.295131 -1.776929,2.170527 -1.188033,-0.124423 -1.819091,-1.575677 -1.328907,-2.413057 0.461291,-0.857446 2.959677,-1.132642 3.105828,0.24256 z M 38.805602,84.50575 c 0.167051,0.616934 -0.04146,1.408841 -0.500974,1.681952 -0.720075,0.405611 -2.50616,0.738334 -2.697844,-0.707378 -0.164263,-1.425321 1.327649,-2.063377 2.457947,-1.755704 0.420421,0.106862 0.640579,0.410997 0.740871,0.781138 z M 22.10142,26.676174 c 0.09551,0.299599 0.09371,0.650502 -0.07003,1.018458 -0.636166,1.436189 -1.169329,3.296948 -2.41123,5.772277 -1.212409,2.468271 -4.021867,9.184333 -4.807864,10.88777 -0.809677,1.708772 0.119511,2.076326 -2.115731,5.455496 -2.23109,3.406465 -3.344437,0.804301 -2.9715318,-0.166691 0.3824838,-0.946865 0.7536708,-1.889063 0.8760098,-2.981594 0.147471,-1.098301 1.221072,-2.497555 2.49174,-4.759491 1.268818,-2.26299 0.377963,-3.508955 2.058667,-5.669096 1.676937,-2.185982 4.44734,-7.203335 5.05006,-9.269785 0.455599,-1.549703 1.613372,-1.186156 1.899906,-0.287351 z M 35.390995,82.39604 c 0.152387,1.172735 -0.964196,1.278705 -2.043718,0.175909 -1.44458,-1.495804 -5.790321,-6.129239 -6.977273,-7.477054 -1.180279,-1.322839 -1.829999,-2.818827 -2.904121,-3.756064 -1.085162,-0.960936 -3.998378,-4.106333 -4.848133,-4.914365 -0.851207,-0.807606 -5.556975,-5.96723 -6.743926,-7.315046 -1.206472,-1.315173 0.716036,-2.730399 1.437812,-2.301581 0.746118,0.42011 1.209296,1.350006 2.107335,2.338772 0.877064,1.02184 3.980656,4.736746 5.421081,6.20525 1.440817,1.469972 4.364231,4.632986 5.65443,6.367255 1.28874,1.734696 6.807586,6.652624 8.301756,9.162126 0.380817,0.625245 0.543962,1.123887 0.594757,1.514798 z M 11.860726,54.507256 c -0.02455,0.618723 -0.888117,2.158128 -2.4579462,1.755705 -1.5598818,-0.376723 -2.6103425,-1.329703 -1.0849003,-2.638002 1.5295997,-1.280998 3.5894345,0.228614 3.5428465,0.882297 z" style="fill:#ffffff;fill-rule:evenodd;stroke-width:1.17717"/>
		</g>
	</g>
</svg>