<svg xmlns="http://www.w3.org/2000/svg" version="1.1" width="128" height="128" viewBox="0 0 512 512" id="nginx-logo">
	<path id="p1" d="m 348.412,317.523 c -4.75,-0.386 -8.365,-0.931 -12.031,-0.931 -31.212,-0.072 -62.445,0.069 -93.677,-0.152 -6.644,-0.062 -13.53,-0.527 -19.839,-2.35 -18.25,-5.308 -27.708,-19.243 -26.352,-37.29 1.195,-15.666 14.259,-29.085 31.486,-31.708 7.454,-1.134 15.059,-1.802 22.594,-1.771 68.885,0.284 137.762,0.748 206.637,1.194 2.583,0.009 5.164,0.233 8.77,0.395 -1.084,2.664 -1.712,4.771 -2.745,6.654 -32.458,59.731 -65.027,119.381 -97.313,179.192 -3.17,5.863 -6.674,8.264 -13.541,8.243 -65.372,-0.253 -130.753,-0.253 -196.125,-0.021 -6.805,0.03 -10.441,-2.349 -13.682,-8.213 -31.273,-56.703 -62.77,-113.284 -94.427,-169.773 -2.927,-5.227 -2.856,-9.257 0,-14.432 A 30605.177,30605.177 0 0 0 138.381,80.452 c 2.856,-5.286 5.985,-7.474 12.152,-7.453 68.583,0.242 137.175,0.242 205.777,0.132 5.135,0 8.547,1.175 11.383,5.925 24.468,41.115 49.178,82.071 73.788,123.096 0.87,1.459 1.438,3.11 2.177,4.82 -0.951,0.589 -1.661,1.398 -2.369,1.409 -25.389,0.101 -50.768,0.323 -76.167,-0.111 -2.907,-0.041 -6.684,-3.211 -8.456,-5.955 -10.421,-16.174 -20.579,-32.55 -30.372,-49.107 -3.342,-5.631 -7.17,-8.354 -13.895,-8.325 -37.643,0.174 -75.307,0.081 -112.96,-0.12 -5.752,-0.032 -8.943,2.399 -11.596,7.312 -17.854,33.126 -35.84,66.171 -54.08,99.095 -2.785,5.022 -2.481,8.831 0.223,13.682 a 10646.125,10646.125 0 0 1 57.635,104.13 c 2.927,5.346 6.481,7.291 12.487,7.261 33.855,-0.233 67.721,-0.233 101.587,0 5.995,0.03 9.54,-2.025 12.537,-7.251 8.588,-14.917 17.753,-29.501 26.615,-44.246 1.154,-1.905 1.995,-3.992 3.565,-7.223 z" style="fill:#008000;fill-rule:evenodd"/>
</svg>