<svg xmlns="http://www.w3.org/2000/svg" version="1.1" width="128" height="128" viewBox="0 0 122.88 122.88" id="php-logo">
	<g id="g1" transform="matrix(0.45333333,0,0,0.59017458,3.9936,19.5584)" style="fill-rule:evenodd">
		<ellipse id="e1" cx="128" cy="66.629997" rx="128" ry="66.629997" style="fill:#737495"/>
		<path id="p1" d="M 35.945,106.082 49.973,35.068 H 82.41 c 14.027,0.877 21.041,7.89 21.041,20.165 0,21.041 -16.657,33.315 -31.562,32.438 H 56.11 l -3.507,18.411 H 35.945 z M 59.616,74.521 64,48.219 h 11.397 c 6.137,0 10.52,2.63 10.52,7.89 -0.876,14.905 -7.89,17.535 -15.78,18.412 h -10.52 z m 40.576,13.15 14.027,-71.013 h 16.658 l -3.507,18.41 h 15.78 c 14.028,0.877 19.288,7.89 17.535,16.658 l -6.137,35.945 h -17.534 l 6.137,-32.438 c 0.876,-4.384 0.876,-7.014 -5.26,-7.014 H 124.74 l -7.89,39.452 h -16.658 z m 53.233,18.411 14.027,-71.014 h 32.438 c 14.028,0.877 21.042,7.89 21.042,20.165 0,21.041 -16.658,33.315 -31.562,32.438 h -15.781 l -3.507,18.411 h -16.657 z m 23.67,-31.561 4.384,-26.302 h 11.398 c 6.137,0 10.52,2.63 10.52,7.89 -0.876,14.905 -7.89,17.535 -15.78,18.412 h -10.521 z" style="fill:#FFFFFF"/>
	</g>
</svg>