<svg xmlns="http://www.w3.org/2000/svg" version="1.1" width="128" height="128" viewBox="0 0 128 128" id="smart.framework-logo">
	<g id="g0">
		<g id="g1" style="fill:#ffffff;fill-opacity:1;fill-rule:evenodd;stroke:none" transform="matrix(1.6895803,0,0,1.6895803,2.9648469,2.9648477)">
			<path id="p0" style="fill:#ED2559;fill-opacity:1;fill-rule:evenodd;stroke:#ED2559;stroke-width:14.12108517;stroke-opacity:1" d="m 62.930573,36.124446 a 26.806128,26.806128 0 1 1 -53.6122531,0 26.806128,26.806128 0 1 1 53.6122531,0 z"/>
			<g id="g7" style="fill:#000000;fill-opacity:1;stroke:none"/>
			<g id="g8" style="fill:#000000;fill-opacity:1;stroke:none;stroke-width:0.54972863" transform="scale(0.92881066,1.0766457)">
				<path id="p1" style="fill:#ffffff;stroke-width:0.54972863" d="M 12.135835,46.916975 V 40.346 l 2.222535,0.01933 q 0.09663,3.285487 1.893987,4.870251 1.816681,1.565439 5.508023,1.565439 3.440099,0 5.237454,-1.352848 1.816681,-1.372174 1.816681,-3.981238 0,-2.087251 -1.101605,-3.208182 -1.082278,-1.120931 -4.599682,-2.183882 l -3.8073,-1.140258 q -4.135849,-1.256215 -5.836572,-3.130876 -1.681396,-1.87466 -1.681396,-5.140821 0,-3.672016 2.609063,-5.701287 2.609064,-2.029272 7.324704,-2.029272 2.009946,0 4.406419,0.444507 2.396473,0.425181 5.102168,1.256216 v 6.145794 h -2.183882 q -0.328549,-3.053571 -2.048598,-4.406418 -1.700723,-1.372174 -5.198801,-1.372174 -3.053571,0 -4.657662,1.256215 -1.584764,1.23689 -1.584764,3.614036 0,2.067925 1.198237,3.246835 1.198236,1.17891 5.082842,2.338494 l 3.575383,1.062952 q 3.923258,1.17891 5.585329,3.014918 1.681396,1.816681 1.681396,4.889578 0,4.193828 -2.686369,6.319731 -2.686369,2.125904 -8.001128,2.125904 -2.377147,0 -4.850926,-0.48316 -2.454452,-0.48316 -5.005536,-1.468806 z"/>
				<path id="p7" style="fill:#C2203F;stroke-width:0.54972863" d="m 39.714602,46.29853 q 0,-1.082278 0.734403,-1.836007 0.75373,-0.75373 1.836008,-0.75373 1.082278,0 1.816681,0.75373 0.75373,0.753729 0.75373,1.836007 0,1.082278 -0.734404,1.836008 -0.734403,0.734403 -1.836007,0.734403 -1.101605,0 -1.836008,-0.734403 -0.734403,-0.75373 -0.734403,-1.836008 z m 0,-12.60081 q 0,-1.082278 0.734403,-1.816681 0.75373,-0.75373 1.836008,-0.75373 1.101604,0 1.836007,0.734403 0.734404,0.734403 0.734404,1.836008 0,1.101604 -0.734404,1.836008 -0.734403,0.734403 -1.836007,0.734403 -1.082278,0 -1.836008,-0.734403 -0.734403,-0.75373 -0.734403,-1.836008 z"/>
				<path id="p8" style="fill:#222222;stroke-width:0.54972863" d="m 65.9985,23.087528 h -1.874661 q -0.01933,-1.449479 -0.831035,-2.203209 -0.792382,-0.753729 -2.319167,-0.753729 -1.990619,0 -2.802328,1.101604 -0.811708,1.082278 -0.811708,3.884606 v 2.647716 h 5.739939 v 2.067925 h -5.739939 v 16.427436 h 4.561029 v 2.048598 H 50.402098 v -2.048598 h 3.401446 V 29.832441 h -3.401446 v -2.067925 h 3.401446 v -2.57041 q 0,-3.440099 1.778028,-5.198801 1.797355,-1.758702 5.25678,-1.758702 1.294869,0 2.589737,0.231917 1.294869,0.231916 2.570411,0.715076 z"/>
			</g>
		</g>
	</g>
</svg>