<svg xmlns="http://www.w3.org/2000/svg" style="fill-rule:evenodd" id="sign-question" viewBox="0 0 72.248893 72.248893" height="32" width="32" version="1.1">
 <defs id="defs4">
  <style id="style6" type="text/css" />
 </defs>
 <g style="fill:#ffffff;fill-opacity:1;stroke:none;" id="text3781">
  <g id="g3009">
   <g style="fill:#ffffff;fill-opacity:1;stroke:none;" id="text3756">
    <g id="g3802">
     <path style="fill:#667777;fill-opacity:1;fill-rule:evenodd;stroke:#667777;stroke-width:14.12108517;stroke-opacity:1" id="path3011" d="m 62.930573,36.124446 a 26.806128,26.806128 0 1 1 -53.6122531,0 26.806128,26.806128 0 1 1 53.6122531,0 z" />
     <path style="fill:#ffffff;" id="path3799" d="m 39.061321,42.89778 -9.551458,0 0,-1.296458 c -9e-6,-1.446373 0.291032,-2.725191 0.873125,-3.836459 0.582072,-1.128869 1.807974,-2.557618 3.677708,-4.28625 L 35.75403,31.94403 c 1.0054,-0.917197 1.737413,-1.781502 2.196041,-2.592917 0.476232,-0.811361 0.714357,-1.622749 0.714375,-2.434167 -1.8e-5,-1.234692 -0.423351,-2.19601 -1.27,-2.883958 -0.846683,-0.705523 -2.028487,-1.0583 -3.545416,-1.058334 -1.428763,3.4e-5 -2.972164,0.299894 -4.630209,0.899584 -1.658063,0.582115 -3.386672,1.455239 -5.185833,2.619375 l 0,-8.307917 c 2.134299,-0.740795 4.083395,-1.2876 5.847291,-1.640417 1.763878,-0.352738 3.466029,-0.529126 5.106459,-0.529166 4.30387,4e-5 7.5847,0.881983 9.8425,2.645833 2.257751,1.746286 3.386639,4.303922 3.386667,7.672917 -2.8e-5,1.728639 -0.343986,3.28086 -1.031875,4.656667 -0.687943,1.358218 -1.860928,2.822244 -3.518958,4.392083 l -1.693334,1.508125 c -1.199465,1.09363 -1.984395,1.975573 -2.354792,2.645834 -0.370435,0.652655 -0.555643,1.375848 -0.555625,2.169583 l 0,1.190625 m -9.551458,3.915833 9.551458,0 0,9.419167 -9.551458,0 0,-9.419167" />
    </g>
   </g>
  </g>
 </g>
</svg>