<svg xmlns="http://www.w3.org/2000/svg" version="1.1" width="32" height="32" viewBox="0 0 16 16" id="sign-warn">
 <defs id="defs8" />
 <g id="g2990">
  <g id="g3759">
   <g id="g7777" style="fill:none;stroke:none">
    <g id="alert" style="fill:#ff370f;fill-opacity:0.94117647">
     <g id="g2989">
      <path d="m 8.865,1.52 c -0.18,-0.31 -0.51,-0.5 -0.87,-0.5 -0.36,0 -0.69,0.19 -0.87,0.5 L 0.275,13.5 c -0.18,0.31 -0.18,0.69 0,1 0.19,0.31 0.52,0.5 0.87,0.5 l 13.7,0 c 0.36,0 0.69,-0.19 0.86,-0.5 0.17,-0.31 0.18,-0.69 0.01,-1 L 8.865,1.52 z m 0.13,11.48 -2,0 0,-2 2,0 0,2 0,0 z m 0,-3 -2,0 0,-4 2,0 0,4 0,0 z" id="Shape" style="fill:#fff134;fill-opacity:1" />
     </g>
    </g>
   </g>
   <path d="m 5.8193135,5.0169492 4.3389835,0 0,9.1525418 -4.3389835,0 z" id="rect2988" style="fill:#fff134;fill-opacity:1" />
   <g id="text3774" style="fill:#000000;fill-opacity:1;stroke:none;">
    <path d="m 6.9341178,4.624835 2.109375,0 0,3.3574219 -0.2988281,2.4492191 -1.5117188,0 -0.2988281,-2.4492191 0,-3.3574219 m 0,6.662109 2.109375,0 0,2.085938 -2.109375,0 0,-2.085938" id="path3779" />
   </g>
  </g>
 </g>
</svg>