<svg xmlns="http://www.w3.org/2000/svg" version="1.1" width="32" height="32" viewBox="0 0 72.248893 72.248893" id="sign-error" style="fill-rule:evenodd">
 <defs id="defs8" />
 <g transform="translate(0,-527.75111)" id="Layer_x0020_1">
  <g id="g77">
   <g transform="translate(0,-5.185683e-6)" id="g88" style="fill-rule:evenodd">
    <g id="g3878">
     <polygon points="300,7.0003 421.365,7 507.182,92.8179 593,178.636 593,300 593,421.365 507.182,507.182 421.364,593 300,593 178.635,593 92.8176,507.182 7,421.365 7.0001,300 7,178.635 92.8178,92.818 178.635,7.0002 " transform="matrix(0.12040198,0,0,0.12040198,0.20475963,527.79371)" id="_163088416" style="fill:#cb0617;fill-opacity:1;fill-rule:evenodd" />
    </g>
   </g>
   <path d="m 30.769104,540.87133 11.1125,0 0,17.68739 -1.574271,12.90285 -7.963958,0 -1.574271,-12.90285 0,-17.68739 m 0,35.09698 11.1125,0 0,10.98903 -11.1125,0 0,-10.98903" id="path3014" style="fill:#ffffff;fill-opacity:1;" />
  </g>
 </g>
</svg>