<svg xmlns="http://www.w3.org/2000/svg" style="fill-rule:evenodd" id="sign-done" viewBox="0 0 72.248893 72.248893" height="32" width="32" version="1.1">
 <defs id="defs4">
  <style id="style6" type="text/css" />
 </defs>
 <g style="fill:#ffffff;fill-opacity:1;stroke:none;" id="text3781">
  <g id="g3009">
   <g style="fill:#ffffff;fill-opacity:1;stroke:none;" id="text3756">
    <g id="g3802">
     <g id="g3368">
      <g id="text3364" style="fill:#ffffff;fill-opacity:1;stroke:none;stroke-width:1px;stroke-linecap:butt;stroke-linejoin:miter;stroke-opacity:1">
       <g id="g3455">
        <path style="fill-rule:evenodd;fill:#556677;fill-opacity:1;stroke:#556677;stroke-width:14.12108517;stroke-opacity:1" id="path3011" d="m 62.930574,36.124447 a 26.806128,26.806128 0 1 1 -53.6122538,0 26.806128,26.806128 0 1 1 53.6122538,0 z" />
        <path d="m 22.762988,34.173145 q 1.289844,0 1.951302,2.116667 1.322917,3.96875 1.885157,3.96875 0.429947,0 0.892968,-0.661458 9.29349,-13.659116 17.197918,-19.446876 3.340365,-2.447396 6.515365,-2.447396 4.200261,0 5.060157,0.264583 0.363802,0.09922 0.363802,0.826823 0,0.595313 -0.760677,1.488281 -21.265887,24.407814 -25.333856,31.750002 -1.389063,2.513542 -6.416146,2.513542 -1.653646,0 -3.472657,-0.859896 -0.760677,-0.396875 -2.645833,-5.060156 -2.38125,-5.88698 -2.38125,-10.318751 0,-1.620573 2.315104,-2.678906 3.175,-1.455209 4.7625,-1.455209 l 0.06615,0 z" style="fill:#ffffff" id="path3452" />
       </g>
      </g>
     </g>
    </g>
   </g>
  </g>
 </g>
</svg>