<svg xmlns="http://www.w3.org/2000/svg" version="1.1" width="128" height="128" viewBox="0 0 256 256" id="unicorn-auth-logo">
	<g id="g777">
		<g id="g888" transform="matrix(0.36148541,0,0,0.336,-15.424665,-49.337838)">
			<path id="p7788" style="opacity:1;fill:#5E6885;fill-opacity:1;fill-rule:nonzero;stroke:none;stroke-width:0;" d="m 616.82585,277.38027 -13.86644,18.96304 0.84283,9.74998 43.5035,101.65573 c 0.97108,3.6096 0.8487,8.60389 -1.17287,11.70298 l -9.80801,15.03598 c -4.74941,7.28088 -16.08743,3.60405 -21.25246,-2.28805 l -34.60061,-39.47011 c -1.74836,-1.99446 -6.44652,1.40791 -6.59595,4.51573 l -3.16141,65.73844 12.3076,55.06484 c 1.3366,5.98034 4.45552,12.65113 9.18456,14.1269 l 36.43092,11.36864 c 6.434,2.00783 13.54349,8.41165 14.39632,16.88384 l 6.16012,61.18743 c 0.65175,6.47427 -1.20885,13.73004 -4.14772,19.39972 l -37.15077,71.67014 c -6.49475,12.52977 -15.37896,23.82649 -34.14699,31.86444 l -0.0423,-57.63717 c 10.28199,-7.94811 18.90254,-13.28213 27.24951,-27.6133 l 13.08451,-22.46599 c 5.94955,-10.21492 5.44621,-14.08061 4.52279,-18.46286 l -4.54614,-21.57432 c -0.7421,-3.52174 -3.81191,-6.60568 -6.71332,-6.49941 l -72.2612,2.6478 c -12.37286,0.4534 -40.01372,25.12982 -58.57145,30.49319 -35.46716,10.25034 -68.22678,7.48361 -102.54979,7.52316 -9.95575,0.0115 -18.91173,-1.30161 -27.80625,12.57319 -17.84093,27.83064 -41.59243,40.36774 -66.92967,38.8555 l -63.99007,18.39893 c -12.7309,3.66035 -11.29623,11.47999 -11.11129,20.56096 l 1.30771,64.20405 c 0.26646,13.08159 0.96228,23.14952 3.91185,30.71836 9.08598,23.31512 0.20502,37.90904 -4.9407,54.47348 l -43.15502,-37.88689 c 2.94473,-11.25654 5.69833,-21.66791 8.85207,-25.08026 8.05382,-8.71464 6.64509,-17.57084 5.03287,-25.20465 -3.02098,-14.30468 -1.81392,-20.53906 -2.28574,-28.05311 l -4.39187,-69.94349 c -0.65945,-10.5034 3.23263,-23.37505 10.08309,-29.95139 l 32.32899,-31.0362 c 10.87849,-10.44312 14.88895,-21.21232 13.87409,-32.6868 -4.38606,-49.59135 20.71712,-122.46247 106.34769,-109.74831 26.27613,3.90136 45.75369,-2.44932 61.16133,-9.36089 l 69.93174,-31.37127 c 10.39708,-2.8453 14.18417,-12.81549 17.33409,-26.01181 5.86435,-24.56833 14.82254,-48.41913 21.15881,-64.35504 6.63869,-16.69639 9.83849,-26.02563 19.3859,-41.8523 7.54479,-12.50699 16.534,-28.47743 29.32673,-29.16783 17.74558,-0.9577 27.61601,19.59386 44.4844,-2.77451 9.56274,-12.6807 8.48549,-7.43598 18.26948,-18.20468 20.11151,-22.13563 93.85575,-96.51923 89.42069,-89.00516 -12.71295,21.53885 -66.90883,90.42839 -84.69613,108.32935 z m 39.63435,282.07268 40.18775,57.1378 c 13.32911,32.77495 12.71246,40.03473 12.71425,57.18761 l -29.96092,4.21439 c 3.8723,-20.04093 -13.97696,-67.08007 -21.15927,-75.95429 z M 261.87006,487.87471 c -17.30246,13.60933 -36.34592,17.97153 -57.12481,50.34195 l -47.29502,73.67836 c -6.39487,9.96225 -12.12088,19.94149 -23.51533,19.37203 -19.01775,-0.95033 -40.843958,-1.07434 -49.771625,-3.67906 39.897265,-62.97474 73.020715,-107.8073 106.757835,-143.34327 10.64689,-11.21454 15.53526,-9.12612 19.70048,-9.38103 28.71683,-1.75777 40.92226,10.82663 51.24847,13.01102 z m 2.78673,218.74525 12.65559,88.11235 c 2.21641,15.43158 3.14357,23.28222 6.40698,31.09028 11.35776,27.17479 4.74068,42.72406 2.07432,61.23966 l -40.13702,-35.23734 c 3.31669,-20.00452 9.66753,-19.58171 6.92454,-36.36184 L 236.03372,714.23305 Z" />
		</g>
	</g>
</svg>