<svg xmlns="http://www.w3.org/2000/svg" width="512.0px" height="512.0px" viewBox="0 0 512.0 512.0" version="1.1" id="unicorn-auth-logo">
 <defs id="defs888" />
 <g id="layer777">
  <path d="m 292.75701,465.60112 c 5.26562,-2.95941 5.28429,-3.93376 0.43313,-22.57172 -4.84463,-18.61288 -2.62442,-36.86636 6.35623,-52.25719 12.21216,-20.92904 18.09278,-38.13341 19.96725,-58.41618 1.60924,-17.41315 2.11935,-18.84881 7.44753,-20.9597 3.5736,-1.41577 8.51071,-0.34338 20.27707,4.40456 17.11877,6.90763 21.19603,10.43651 25.23553,21.8411 2.12205,5.9911 2.37713,9.72631 1.17346,17.18371 -1.46981,9.106 -7.49341,24.29131 -9.77371,24.63915 -0.59505,0.0898 -3.88261,3.52071 -7.30564,7.62209 -5.68001,6.80563 -6.0699,7.90203 -4.46263,12.55072 3.49231,10.1009 11.7897,21.76181 15.14109,21.27881 1.88035,-0.27099 9.55887,-8.4386 18.01104,-19.15824 16.60182,-21.05541 17.2976,-23.02672 19.01234,-53.86444 2.04595,-36.79439 -4.79069,-52.84337 -35.23989,-82.72513 l -19.09771,-18.74184 -1.21974,-12.8621 c -1.25742,-13.25926 0.51528,-45.51856 3.49574,-63.61383 1.76075,-10.69019 7.57155,-21.46773 13.08582,-24.27094 6.00771,-3.05414 9.5296,0.95333 14.09997,16.04405 4.93116,16.28223 9.64401,21.53117 18.22194,20.29492 5.34276,-0.76999 10.32864,-5.9755 13.77142,-14.3781 2.46695,-6.02089 3.89892,-40.26226 2.42417,-57.96545 -0.70939,-8.5159 -0.75002,-17.235699 -0.0904,-19.377323 1.07341,-3.484779 10.31689,-12.020506 32.10927,-29.650567 3.96158,-3.204939 8.58004,-7.417073 10.26324,-9.360317 1.68316,-1.943238 6.05087,-5.699458 9.70596,-8.347151 8.2791,-5.997152 29.86589,-25.679024 27.84499,-25.387773 -3.82327,0.551006 -20.02568,9.432946 -28.65107,15.706131 -5.26541,3.829534 -10.30568,7.068284 -11.20056,7.197253 -0.89494,0.128978 -11.04615,5.881998 -22.55829,12.78448 -11.51215,6.902446 -22.03414,12.708903 -23.38222,12.903187 -3.20187,0.461451 -3.70397,-3.102937 -2.67795,-19.010818 0.46605,-7.22633 0.44548,-13.080867 -0.0457,-13.010079 -0.49121,0.07079 -2.61266,1.758709 -4.71424,3.750924 -6.4207,6.086474 -20.23162,11.237878 -36.46426,13.601049 -15.52154,2.263201 -35.78157,9.222483 -43.52486,14.958214 -11.10806,8.228109 -23.99298,30.78421 -40.33801,70.61491 -11.36335,27.6911 -23.57316,40.48274 -41.07155,43.02874 -7.07378,1.03067 -25.94677,-0.0787 -51.50397,-3.02366 -21.07312,-2.42821 -48.89217,0.35269 -59.69049,5.96685 -13.17321,6.84888 -30.591429,22.59357 -44.992977,40.67006 -13.479151,16.91868 -15.555131,20.54277 -23.835171,41.60913 -9.881609,25.14119 -20.787832,60.42027 -30.486243,98.61633 -1.381926,5.44253 -4.300749,14.68311 -6.48623,20.53469 -5.831335,15.61294 -5.54067,16.47209 5.055982,14.94491 11.501444,-1.65757 16.895382,-4.81604 24.434929,-14.30797 7.23127,-9.10376 9.120223,-14.30806 20.438522,-56.31115 5.797484,-21.51467 11.440999,-34.73721 15.048179,-35.25708 2.471498,-0.35619 7.47403,21.0828 7.47403,32.0313 0,7.77611 -3.71181,18.81601 -13.308164,39.58225 -15.589347,33.73484 -23.789941,79.42954 -20.507391,114.27002 l 1.417864,15.04905 10.389509,-0.92955 c 16.356957,-1.46338 16.193189,-1.14132 16.193189,-31.84801 0,-32.69062 1.695823,-40.01465 12.684412,-54.78241 4.56423,-6.13395 14.80436,-23.16839 22.75587,-37.85433 7.95154,-14.68599 15.56643,-26.86161 16.92192,-27.05696 3.11482,-0.4489 4.66804,10.46179 4.83366,33.95387 0.10883,15.47094 0.57343,18.02528 4.05375,22.29588 9.43504,11.57754 16.05805,34.18008 20.14105,68.7365 0.9037,7.64879 1.67853,8.99239 5.51941,9.57108 5.6475,0.85086 21.29769,-1.13208 22.64637,-2.86939 1.16308,-1.4983 -0.87511,-22.32906 -5.49856,-56.19798 -1.75495,-12.85547 -3.67044,-30.16849 -4.25665,-38.47336 -1.04372,-14.78433 1.28879,-43.10145 4.04937,-49.1603 1.14782,-2.51918 6.99247,-3.87155 34.32947,-7.94314 18.12037,-2.6989 37.99272,-6.34541 44.1607,-8.10343 l 11.21462,-3.19646 v 6.53351 c 0,6.99649 -1.366,13.36016 -10.50044,48.91805 -3.21714,12.52335 -7.87895,31.58022 -10.35964,42.34863 l -4.51032,19.57893 3.80605,14.84268 c 2.09339,8.16348 5.20016,17.8593 6.90398,21.54625 3.00533,6.50311 3.35773,6.66157 11.78661,5.30082 4.77882,-0.77162 10.8169,-2.59887 13.41803,-4.06072 z" fill="#499848" id="path11" style="fill:#ed2839;fill-opacity:1;stroke-width:2.43609" />
 </g>
</svg>
