<svg xmlns="http://www.w3.org/2000/svg" xmlns:xlink="http://www.w3.org/1999/xlink" width="128" height="128" id="dav-abook" version="1.1" viewBox="0 0 128 128">
 <defs id="defs5354">
  <linearGradient id="linearGradient6796">
   <stop id="stop6798" offset="0" style="stop-color:#eeeeec;stop-opacity:1;" />
   <stop id="stop6800" offset="1" style="stop-color:#ffffff;stop-opacity:1;" />
  </linearGradient>
  <radialGradient xlink:href="#linearGradient6796" id="radialGradient6794" cx="47.953056" cy="112.42957" fx="47.953056" fy="112.42957" r="49.688042" gradientTransform="matrix(1.8807713,-0.01174362,0.00622844,0.9975013,-24.450401,0.4798332)" gradientUnits="userSpaceOnUse" />
 </defs>
 <g id="layer1" transform="translate(0,64)">
  <g id="g6095" transform="translate(2.8508406e-6,3.7165725e-6)">
   <g transform="matrix(1.1114247,0,0,1.1557786,-9.8414967,-75.17774)" id="g4243">
    <path id="path1446" d="m 16.235327,17.520283 0,94.997747 100.406533,0.0519 0,-88.399911 -61.430648,0.109956 0.07655,-6.759702 -39.05244,0 z" style="fill:none;fill-opacity:1;fill-rule:nonzero;stroke:#ded9c3;stroke-width:4.82486296;stroke-linecap:round;stroke-linejoin:round;stroke-miterlimit:4;stroke-dasharray:none;stroke-dashoffset:4;stroke-opacity:1" />
    <path id="path1448" d="m 16.750549,18.329234 0,93.736106 99.376081,-0.0523 0,-87.274125 -61.014204,0.06036 0.06958,-6.454382 -38.431455,-0.0157 z" style="fill:url(#radialGradient6794);fill-opacity:1;fill-rule:nonzero;stroke:none;stroke-width:3.63199997;stroke-linecap:round;stroke-linejoin:round;stroke-miterlimit:4;stroke-dasharray:none;stroke-dashoffset:4;stroke-opacity:1" />
   </g>
   <g style="fill:#00ff00" transform="matrix(1.1124311,0,0,1.1124311,-9.7066047,-86.783673)" id="g4232">
    <path id="path3741" d="m 25.584494,44.897999 81.400646,0" style="fill:#ffffff;fill-rule:evenodd;stroke:#ffffcb;stroke-width:3.14626217;stroke-linecap:butt;stroke-linejoin:miter;stroke-miterlimit:4;stroke-dasharray:none;stroke-opacity:1" />
    <path style="fill:#ffffff;fill-rule:evenodd;stroke:#ffffcb;stroke-width:3.14626217;stroke-linecap:butt;stroke-linejoin:miter;stroke-miterlimit:4;stroke-dasharray:none;stroke-opacity:1" d="m 41.99789,44.022721 0,52.224795" id="path3749" />
    <path id="path3751" d="m 64.483023,44.022721 0,9.442758 0,43.073796" style="fill:#ffffff;fill-rule:evenodd;stroke:#ffffcb;stroke-width:3.14626217;stroke-linecap:butt;stroke-linejoin:miter;stroke-miterlimit:4;stroke-dasharray:none;stroke-opacity:1" />
    <path style="fill:#ffffff;fill-rule:evenodd;stroke:#ffffcb;stroke-width:3.14626217;stroke-linecap:butt;stroke-linejoin:miter;stroke-miterlimit:4;stroke-dasharray:none;stroke-opacity:1" d="m 85.414741,44.022721 0,52.808312" id="path3753" />
    <path style="fill:#ffffff;fill-rule:evenodd;stroke:#ffffcb;stroke-width:3.14626217;stroke-linecap:butt;stroke-linejoin:miter;stroke-miterlimit:4;stroke-dasharray:none;stroke-opacity:1" d="m 25.584494,64.090987 81.400646,0" id="path6634" />
    <path id="path6636" d="m 25.584494,96.744342 81.400646,0" style="fill:#ffffff;fill-rule:evenodd;stroke:#ffffcb;stroke-width:3.14626217;stroke-linecap:butt;stroke-linejoin:miter;stroke-miterlimit:4;stroke-dasharray:none;stroke-opacity:1" />
    <path id="path6644" d="m 25.584494,80.902593 81.400646,0" style="fill:#ffffff;fill-rule:evenodd;stroke:#ffffcb;stroke-width:3.14626217;stroke-linecap:butt;stroke-linejoin:miter;stroke-miterlimit:4;stroke-dasharray:none;stroke-opacity:1" />
    <path id="path6662" d="m 105.483,44.022721 0,52.808312" style="fill:#ffffff;fill-rule:evenodd;stroke:#ffffcb;stroke-width:3.14626217;stroke-linecap:butt;stroke-linejoin:miter;stroke-miterlimit:4;stroke-dasharray:none;stroke-opacity:1" />
    <path id="path6665" d="m 27.031458,44.022721 0,52.224795" style="fill:#ffffff;fill-rule:evenodd;stroke:#ffffcb;stroke-width:3.14626217;stroke-linecap:butt;stroke-linejoin:miter;stroke-miterlimit:4;stroke-dasharray:none;stroke-opacity:1" />
   </g>
   <g transform="matrix(0.72354399,0,0,0.72354399,264.15481,-27.22491)" id="g15584">
    <path id="path2375" d="m -300.53691,28.94415 c -5.30115,0.316229 -10.45165,2.45299 -13.21619,6.651289 -0.62148,0.943783 -0.72674,1.57996 -0.95019,2.548221 -0.22344,0.968257 -0.40616,2.142862 -0.51828,3.412025 -0.21826,2.470697 -0.25762,5.347033 -0.0864,8.378896 0.34276,6.068723 1.31425,12.072713 3.15288,15.678038 1.83653,3.601232 1.78138,8.865235 0.69105,10.711167 -1.35217,2.289232 -4.45188,4.323386 -9.76099,5.830675 -5.9231,1.681598 -10.59196,3.315223 -13.99362,6.305767 -3.01151,2.647566 -4.96687,5.70984 -4.96687,9.631412 l 0,5.78749 0,2.72098 2.72098,0 73.9416,0 c 4.43013,0.33832 9.19837,0.51828 13.95044,0.51828 34.63908,0 36.4957,0.39955 36.4957,-7.255952 0,-3.634569 -1.78703,-5.018092 -4.57816,-7.471903 -3.11771,-2.740911 -7.47533,-4.348512 -13.00024,-5.917055 -4.95703,-1.407323 -7.8327,-3.174528 -9.06994,-5.269203 -0.41326,-0.699667 -0.65166,-1.926725 -0.69104,-3.368835 6.06837,-2.834642 10.86722,-8.300258 11.57497,-16.369081 1.12351,-12.808801 -10.35214,-27.12757 -20.81767,-26.993867 -3.48852,0.04457 -6.86308,1.688725 -9.63142,5.528344 -7.63176,2.044926 -9.56542,12.889952 -10.23607,20.428959 -0.85206,9.578237 4.04149,15.593571 10.71117,18.183068 -0.0972,1.087094 -0.358,2.027548 -0.69105,2.591412 -1.12763,1.909103 -3.54379,3.588158 -7.60147,4.923681 -2.92095,-1.651565 -6.46423,-2.866419 -10.66798,-4.059878 -5.34843,-1.518442 -8.42603,-3.484224 -9.76098,-5.744294 -1.09032,-1.845931 -1.14549,-7.10993 0.69104,-10.711167 1.83864,-3.605332 2.81013,-9.609311 3.15289,-15.678038 0.17124,-3.031868 0.13187,-5.90821 -0.0864,-8.378896 -0.11211,-1.26916 -0.29484,-2.443766 -0.51829,-3.412025 -0.22343,-0.968262 -0.28552,-1.604435 -0.90699,-2.548221 -2.75085,-4.177498 -7.96116,-6.651289 -13.43215,-6.651289 l -1.72761,0 -0.0864,0 -0.0864,0 z" style="fill:#333333;fill-opacity:1;stroke:none;stroke-width:2;stroke-miterlimit:4;stroke-dasharray:none;stroke-opacity:1" />
   </g>
   <path id="path8099" d="m 4.967742,2.5304348 c -2.2,0 -4.00000003,1.8 -4.00000003,4 l 0,78.4695652 c 0,2.2 1.80000003,4 4.00000003,4 L 24,89 c 2.2,0 4,-0.9 4,-2 0,-1.1 -1.8,-2 -4,-2 l 0,0 c -2.2,0 -4,-1.8 -4,-4 l 0,0 c 0,-2.2 1.8,-4 4,-4 l 16,0 c 2.2,0 3.032258,1.8 3.032258,4 l 0,0 C 43.032258,83.2 42.2,85 40,85 l 0,0 c -2.2,0 -4,0.9 -4,2 0,1.1 1.8,2 4,2 l 40,0 c 2.2,0 4,-0.9 4,-2 0,-1.1 -1.8,-2 -4,-2 l 0,0 c -2.2,0 -4,-1.8 -4,-4 l 0,0 c 0,-2.2 1.8,-4 4,-4 l 16,0 c 2.2,0 3.032258,1.8 3.032258,4 l 0,0 C 99.032258,83.2 98.2,85 96,85 l 0,0 c -2.2,0 -4,0.9 -4,2 0,1.1 1.8,2 4,2 l 19.03226,0 c 2.2,0 4,-1.8 4,-4 l 0,-78.4695652 c 0,-2.2 -1.8,-4 -4,-4 l -110.064518,0 z" style="opacity:1;fill:#77933c;fill-opacity:1;" transform="matrix(0.13977651,0,0,0.18101751,87.981357,-34.345322)" />
   <path id="path8099-9" d="m 4.967742,2.5304348 c -2.2,0 -4.00000003,1.8 -4.00000003,4 l 0,78.4695652 c 0,2.2 1.80000003,4 4.00000003,4 L 24,89 c 2.2,0 4,-0.9 4,-2 0,-1.1 -1.8,-2 -4,-2 l 0,0 c -2.2,0 -4,-1.8 -4,-4 l 0,0 c 0,-2.2 1.8,-4 4,-4 l 16,0 c 2.2,0 3.032258,1.8 3.032258,4 l 0,0 C 43.032258,83.2 42.2,85 40,85 l 0,0 c -2.2,0 -4,0.9 -4,2 0,1.1 1.8,2 4,2 l 40,0 c 2.2,0 4,-0.9 4,-2 0,-1.1 -1.8,-2 -4,-2 l 0,0 c -2.2,0 -4,-1.8 -4,-4 l 0,0 c 0,-2.2 1.8,-4 4,-4 l 16,0 c 2.2,0 3.032258,1.8 3.032258,4 l 0,0 C 99.032258,83.2 98.2,85 96,85 l 0,0 c -2.2,0 -4,0.9 -4,2 0,1.1 1.8,2 4,2 l 19.03226,0 c 2.2,0 4,-1.8 4,-4 l 0,-78.4695652 c 0,-2.2 -1.8,-4 -4,-4 l -110.064518,0 z" style="opacity:1;fill:#274162;fill-opacity:1;" transform="matrix(0.14847902,0,0,0.17998196,64.898311,-34.29793)" />
   <path id="path8099-9-4" d="m 4.967742,2.5304348 c -2.2,0 -4.00000003,1.8 -4.00000003,4 l 0,78.4695652 c 0,2.2 1.80000003,4 4.00000003,4 L 24,89 c 2.2,0 4,-0.9 4,-2 0,-1.1 -1.8,-2 -4,-2 l 0,0 c -2.2,0 -4,-1.8 -4,-4 l 0,0 c 0,-2.2 1.8,-4 4,-4 l 16,0 c 2.2,0 3.032258,1.8 3.032258,4 l 0,0 C 43.032258,83.2 42.2,85 40,85 l 0,0 c -2.2,0 -4,0.9 -4,2 0,1.1 1.8,2 4,2 l 40,0 c 2.2,0 4,-0.9 4,-2 0,-1.1 -1.8,-2 -4,-2 l 0,0 c -2.2,0 -4,-1.8 -4,-4 l 0,0 c 0,-2.2 1.8,-4 4,-4 l 16,0 c 2.2,0 3.032258,1.8 3.032258,4 l 0,0 C 99.032258,83.2 98.2,85 96,85 l 0,0 c -2.2,0 -4,0.9 -4,2 0,1.1 1.8,2 4,2 l 19.03226,0 c 2.2,0 4,-1.8 4,-4 l 0,-78.4695652 c 0,-2.2 -1.8,-4 -4,-4 l -110.064518,0 z" style="opacity:1;fill:#ff7c81;fill-opacity:1;" transform="matrix(0.15475744,0,0,0.17988735,40.147698,-34.2936)" />
  </g>
 </g>
</svg>