<svg xmlns="http://www.w3.org/2000/svg" width="128" height="128" id="dav-ical" version="1.1" viewBox="0 0 128 128">
 <defs id="defs4168" />
 <g id="layer1" transform="translate(0,64)">
  <g id="g4149" transform="translate(-5e-4,2.8530315)">
   <path d="m 121.857,49.815481 c 0,2.703617 -1.92,4.898519 -4.286,4.898519 l -107.142,0 c -2.367,0 -4.286,-2.194902 -4.286,-4.898519 l 0,-105.335881 c 0,-2.705903 1.919,-4.899663 4.286,-4.899663 l 107.143,0 c 2.366,0 4.286,2.19376 4.286,4.899663 l 0,105.335881 -0.001,0 z" id="path65" style="fill:#b3b3b3" />
   <g id="g4274" transform="translate(-1.2915039e-7,-64)">
    <polygon transform="matrix(1,0,0,1.0767487,-0.421,-0.80586117)" style="fill:#ffffff" id="polygon109" points="117.992,106.928 10.85,106.928 10.85,10.5 117.992,10.585 117.992,106.928 " />
    <rect style="fill:#d40000;fill-opacity:1" id="rect150" height="26.785999" width="107.143" y="7.506" x="10.428501" />
    <rect style="fill:#800000" id="rect159" height="4.2859998" width="15" y="11.571" x="23.705999" />
    <rect style="fill:#800000" id="rect168" height="4.2859998" width="15" y="11.571" x="90.135002" />
    <path d="m 48.9995,20.143 c 0,-1.184 0.959,-2.143 2.143,-2.143 l 25.715,0 c 1.183,0 2.143,0.959 2.143,2.143 l 0,9.643 c 0,1.183 -0.96,2.143 -2.143,2.143 l -25.715,0 c -1.184,0 -2.143,-0.96 -2.143,-2.143 l 0,-9.643 z" id="path220" style="fill:#d40000" />
    <g transform="matrix(0.87430462,0,0,1.1437661,32.619513,0)" style="fill:#000000;fill-opacity:1;stroke:none;stroke-width:1px;stroke-linecap:butt;stroke-linejoin:miter;stroke-opacity:1" id="text4263">
     <path d="m 21.681602,17.299988 2.990723,0 2.075195,4.876709 2.087403,-4.876709 2.984619,0 0,9.112549 -2.22168,0 0,-6.665039 -2.099609,4.91333 -1.489258,0 -2.099609,-4.91333 0,6.665039 -2.227784,0 0,-9.112549 z" style="fill:#ffffff" id="path4329" />
     <path d="m 39.66256,24.75238 -3.674317,0 -0.579834,1.660157 -2.36206,0 3.375244,-9.112549 2.801513,0 3.375245,9.112549 -2.362061,0 -0.57373,-1.660157 z m -3.088379,-1.690673 2.496337,0 -1.245117,-3.625489 -1.25122,3.625489 z" style="fill:#ffffff" id="path4331" />
     <path d="m 41.334923,17.299988 2.56958,0 2.075195,3.24707 2.075195,-3.24707 2.575684,0 -3.4729,5.273437 0,3.839112 -2.349854,0 0,-3.839112 -3.4729,-5.273437 z" style="fill:#ffffff" id="path4333" />
    </g>
    <g transform="translate(0,6)" style="fill:#000000;fill-opacity:1;stroke:none;stroke-width:1px;stroke-linecap:butt;stroke-linejoin:miter;stroke-opacity:1" id="text4299">
     <path d="m 28.301758,82.077148 9.960937,0 0,-28.271484 -10.224609,2.109375 0,-7.675781 10.166016,-2.109375 10.722656,0 0,35.947265 9.960937,0 0,7.792969 -30.585937,0 0,-7.792969 z" style="" id="path4336" />
     <path d="m 67.00293,46.129883 32.958984,0 0,6.357422 -17.050781,37.382812 -10.986328,0 16.142578,-35.449219 -21.064453,0 0,-8.291015 z" style="" id="path4338" />
    </g>
   </g>
  </g>
 </g>
</svg>