<svg xmlns="http://www.w3.org/2000/svg" width="36px" height="36px" viewBox="0 0 36 36" version="1.1" id="close-modal">
 <defs id="defs1385" />
 <g id="g819" style="opacity:0.7">
  <rect style="opacity:1;fill:#dddddd;fill-opacity:1;stroke-width:1.43053961" id="rect814" width="20" height="20" x="8" y="8" />
  <g id="layer1" style="">
   <path style="fill:#333333;stroke-width:1.0234164;fill-opacity:1;opacity:1" d="M 13.302254,33.096943 C 8.828371,31.794498 4.062772,26.711371 2.763213,21.855624 -1.381784,6.3680405 17.932511,-4.7732021 29.226901,6.5903346 c 8.465852,8.5176914 4.639267,23.3582774 -6.850694,26.5689414 -4.34812,1.214988 -4.694472,1.212617 -9.073953,-0.06233 z m 2.418425,-8.286716 2.36143,-2.232042 2.498831,2.361908 c 4.499203,4.25265 8.821266,-0.09598 4.594484,-4.622593 l -2.347529,-2.514144 2.347529,-2.514145 c 4.226782,-4.526723 -0.09527,-8.8752432 -4.594484,-4.622593 l -2.498831,2.361908 -2.49883,-2.361908 c -4.4992,-4.2526502 -8.821263,0.09599 -4.594485,4.622593 l 2.347533,2.514145 -2.21845,2.375904 c -2.527072,2.706381 -2.7343,3.880261 -0.994091,5.631156 1.740213,1.750858 2.906949,1.542369 5.596893,-1.000189 z" id="path95" />
  </g>
 </g>
</svg>