<svg xmlns="http://www.w3.org/2000/svg" version="1.1" width="100%" height="100%" viewBox="0 0 128 128" id="appcodepack-logo">
  <defs id="defs14" />
  <g transform="matrix(0,1,-1,0,128,-3.8885e-6)" id="g3755">
    <g transform="matrix(0.12901839,0,0,0.11632416,-13.301368,118.905)" id="g2993">
      <path d="M 1035.6,-192.7 617.5,43.8 v -184.2 l 260.5,-143.3 157.6,91 z m 28.6,-25.9 v -494.6 l -153,88.3 V -307 l 153,88.4 z m -901.5,25.9 418.1,236.5 v -184.2 l -260.5,-143.3 -157.6,91 z m -28.6,-25.9 v -494.6 l 153,88.3 V -307 l -153,88.4 z M 152,-745.2 580.8,-987.8 v 178.1 l -274.7,151.1 -2.1,1.2 -152,-87.8 z m 894.3,0 -428.8,-242.6 v 178.1 l 274.7,151.1 2.1,1.2 152,-87.8 z" id="path8" style="fill:#dcdcdc;fill-opacity:1" />
      <path d="m 580.8,-182.3 -257,-141.3 0,-280 257,148.4 z m 36.7,0 257,-141.3 0,-280 -257,148.4 z M 341.2,-636 599.2,-777.9 857.2,-636 661.27484,-522.84943 599.2,-487 z" id="path10" style="fill:#778899;fill-opacity:1" />
    </g>
    <path d="m 32.275,29.966474 q 0,-1.205707 1.50684,-2.127718 l 3.05439,-1.773098 q 1.54756,-0.898369 3.706,-0.898369 2.199169,0 3.66528,0.898369 l 11.973235,6.926903 0,-16.643478 q 0,-1.229349 1.527198,-1.997691 1.527198,-0.768342 3.685639,-0.768342 l 5.212836,0 q 2.158441,0 3.685639,0.768342 1.527198,0.768342 1.527198,1.997691 l 0,16.643478 11.973235,-6.926903 q 1.466111,-0.898369 3.665276,-0.898369 2.199166,0 3.665276,0.898369 l 3.054397,1.773098 q 1.547561,0.89837 1.547561,2.127718 0,1.252989 -1.547561,2.151359 L 67.665276,47.508322 Q 66.239891,48.38305 64,48.38305 q -2.199166,0 -3.706001,-0.874728 L 33.78184,32.117833 Q 32.275,31.195822 32.275,29.966474 z" id="path3029" style="fill:#ed2839;fill-opacity:1" />
  </g>
</svg>