<svg xmlns="http://www.w3.org/2000/svg" viewBox="0 0 72 96">
 <defs id="defs15">
  <radialGradient id="d" fx="6.1999998" gradientUnits="userSpaceOnUse" cy="9.9569998" cx="6.73" gradientTransform="matrix(0,13.394,-16.444,0,196.9,-114.89)" r="12.672">
   <stop stop-color="#bd94e7" offset="0" id="stop3945" />
   <stop stop-color="#7b6ca3" offset=".262" id="stop3947" />
   <stop stop-color="#574a76" offset=".705" id="stop3949" />
   <stop stop-color="#3f3654" offset="1" id="stop3951" />
  </radialGradient>
  <linearGradient id="e" y2="43" gradientUnits="userSpaceOnUse" x2="24" gradientTransform="matrix(1.4324,0,0,1.4363,-2.378,-2.47)" y1="5" x1="24">
   <stop stop-color="#fff" offset="0" id="stop3936" />
   <stop stop-color="#fff" stop-opacity=".235" offset=".063" id="stop3938" />
   <stop stop-color="#fff" stop-opacity=".157" offset=".951" id="stop3940" />
   <stop stop-color="#fff" stop-opacity=".392" offset="1" id="stop3942" />
  </linearGradient>
 </defs>
 <style type="text/css" id="style2">.st0{fill:#fff}.st1{fill:#bababa}</style>
 <path class="st0" d="M71.9 24c-.1-.4-.2-.7-.4-1L52 1.2V24h19.9z" id="path4" />
 <path class="st0" d="M0 2v92c0 1.1.9 2 2 2h68c1.1 0 2-.9 2-2V28H50c-1.1 0-2-.9-2-2V0H2C.9 0 0 .9 0 2z" id="path6" />
 <path class="st1" d="M0 94V2C0 .9.9 0 2 0h48c.6 0 1.1.2 1.5.7l20 22.3c.3.4.5.8.5 1.3V94c0 1.1-.9 2-2 2H2c-1.1 0-2-.9-2-2zm68-68.9L49.1 4H4v88h64V25.1z" id="path8" style="fill:#9d93ac" />
 <path class="st1" d="M48 26V4c0-1.1.9-2 2-2s2 .9 2 2v20h16c1.1 0 2 .9 2 2s-.9 2-2 2H50c-1.1 0-2-.9-2-2z" id="path10" style="fill:#9d93ac" />
 <g transform="matrix(0.9,0,0,0.9,7.2,31.2)" id="g3988">
  <rect style="color:#000000;fill:url(#d)" id="rect3964" x="4.5" y="4.5" width="55" height="55" ry="3" rx="3" />
  <rect style="opacity:0.3;fill:none;stroke:url(#e);stroke-linecap:round;stroke-linejoin:round" id="rect3966" x="5.5" y="5.4289999" width="53" height="53.141998" ry="2" rx="2" />
  <rect style="color:#000000;opacity:0.5;fill:none;stroke:#05020d;stroke-linecap:round;stroke-linejoin:round" id="rect3968" x="4.5" y="4.5" width="55" height="55" ry="3" rx="3" />
  <path id="path3970" d="m 31.462,15.984 c -1.35,0 -2.705,0.166 -4.06,0.493 -1.335,0.31 -2.624,0.752 -3.866,1.326 a 20.767,20.767 0 0 0 -3.467,2.002 1.016,1.016 0 0 0 -0.005,0.004 17.304,17.304 0 0 0 -2.844,2.562 1.016,1.016 0 0 0 -0.006,0.008 12.544,12.544 0 0 0 -1.95,3.012 1.016,1.016 0 0 0 -0.005,0.011 8.348,8.348 0 0 0 -0.729,3.373 c 0,0.912 0.11,1.722 0.373,2.434 a 1.016,1.016 0 0 0 0.008,0.021 c 0.272,0.69 0.68,1.293 1.217,1.75 a 1.016,1.016 0 0 0 0.014,0.012 c 0.54,0.444 1.188,0.754 1.908,0.947 a 1.016,1.016 0 0 0 0.023,0.006 c 0.702,0.171 1.473,0.252 2.32,0.252 a 1.016,1.016 0 0 0 1.016,-1.015 c 0,-0.376 -0.132,-0.636 -0.266,-0.85 l 0.047,0.084 a 4.014,4.014 0 0 1 -0.148,-0.371 c 0,-0.001 -0.002,0 -0.002,-0.002 A 7.263,7.263 0 0 1 20.862,31.34 8.528,8.528 0 0 1 20.79,30.104 c 0,-2.366 0.542,-4.247 1.588,-5.75 0.797,-1.131 1.9,-1.962 3.17,-2.653 l 0.691,29.322 a 1.016,1.016 0 0 0 1.016,0.992 h 6.53 a 1.016,1.016 0 0 0 0.952,-0.66 L 47.331,17.576 a 1.016,1.016 0 0 0 -0.951,-1.37 h -3.164 a 1.016,1.016 0 0 0 -0.961,0.685 l -7.649,22.25 -0.314,-22.066 a 1.016,1.016 0 0 0 -0.914,-0.996 18.86,18.86 0 0 0 -0.934,-0.07 h -0.002 a 18.748,18.748 0 0 0 -0.98,-0.024 z" style="color:#000000;opacity:0.15;isolation:auto;mix-blend-mode:normal;fill:#201c2c" />
  <path id="path3972" d="m 27.255,50.999 -0.73,-30.967 q -3.188,1.195 -4.98,3.74 -1.772,2.546 -1.772,6.331 0,0.863 0.089,1.417 0.11,0.531 0.221,0.863 0.111,0.31 0.2,0.487 0.11,0.177 0.11,0.31 -1.173,0 -2.08,-0.221 -0.908,-0.244 -1.528,-0.753 -0.598,-0.508 -0.93,-1.35 -0.31,-0.84 -0.31,-2.08 0,-1.505 0.641,-2.966 0.664,-1.46 1.793,-2.767 1.151,-1.305 2.679,-2.412 1.55,-1.107 3.298,-1.904 1.77,-0.819 3.674,-1.261 Q 29.556,17 31.46,17 q 0.509,0 0.93,0.022 0.442,0.022 0.884,0.066 l 0.399,27.89 9.54,-27.758 h 3.165 L 33.784,51 h -6.53 z" style="color:#000000;opacity:0.3;isolation:auto;mix-blend-mode:normal;fill:#201c2c" />
  <path style="fill:#ffffff" id="path3974" d="m 27.255,49.999 -0.73,-30.967 q -3.188,1.195 -4.98,3.74 -1.772,2.546 -1.772,6.331 0,0.863 0.089,1.417 0.11,0.531 0.221,0.863 0.111,0.31 0.2,0.487 0.11,0.177 0.11,0.31 -1.173,0 -2.08,-0.221 -0.908,-0.244 -1.528,-0.753 -0.598,-0.508 -0.93,-1.35 -0.31,-0.84 -0.31,-2.08 0,-1.505 0.641,-2.966 0.664,-1.46 1.793,-2.767 1.151,-1.305 2.679,-2.412 1.55,-1.107 3.298,-1.904 1.77,-0.819 3.674,-1.261 Q 29.556,16 31.46,16 q 0.509,0 0.93,0.022 0.442,0.022 0.884,0.066 l 0.399,27.89 9.54,-27.758 h 3.165 L 33.784,50 h -6.53 z" />
 </g>
 <g id="text36" style="fill:#000000;fill-opacity:1;stroke:none">
  <path id="path76" d="M 14.643794,21.277706 18.881127,8.2483733 h -2.781334 l -1.941333,6.2533327 -0.989333,4.088 h -0.056 l -1.026667,-4.088 -1.941333,-6.2533327 H 7.2704605 L 11.47046,21.277706 Z" />
  <path id="path78" d="M 28.481918,21.277706 V 19.13104 h -0.914666 v -4.293334 c 0,-2.314666 -1.418667,-3.584 -4.181334,-3.584 -2.053333,0 -3.173333,0.709334 -3.957333,1.866667 l 1.642667,1.456 c 0.429333,-0.597333 1.008,-1.157333 2.109333,-1.157333 1.157333,0 1.624,0.597333 1.624,1.549333 v 0.616 h -1.549333 c -2.594667,0 -4.2,0.989333 -4.2,3.061333 0,1.698667 1.082666,2.856 3.042666,2.856 1.493334,0 2.576,-0.672 2.874667,-1.941333 h 0.112 c 0.168,1.045333 0.877333,1.717333 1.866667,1.717333 z M 23.124585,19.57904 c -0.821333,0 -1.288,-0.336 -1.288,-1.045334 v -0.28 c 0,-0.709333 0.56,-1.101333 1.624,-1.101333 h 1.344 v 1.157333 c 0,0.896 -0.765333,1.269334 -1.68,1.269334 z" />
  <path id="path80" d="M 34.312626,21.277706 V 19.13104 h -1.232 V 7.4643733 H 30.317959 V 18.589706 c 0,1.736 0.858667,2.688 2.744,2.688 z" />
  <path id="path82" d="M 44.742335,21.277706 V 19.13104 h -0.914667 v -4.293334 c 0,-2.314666 -1.418666,-3.584 -4.181333,-3.584 -2.053333,0 -3.173333,0.709334 -3.957333,1.866667 l 1.642667,1.456 c 0.429333,-0.597333 1.008,-1.157333 2.109333,-1.157333 1.157333,0 1.624,0.597333 1.624,1.549333 v 0.616 h -1.549333 c -2.594667,0 -4.2,0.989333 -4.2,3.061333 0,1.698667 1.082666,2.856 3.042666,2.856 1.493334,0 2.576,-0.672 2.874667,-1.941333 h 0.112 c 0.168,1.045333 0.877333,1.717333 1.866667,1.717333 z M 39.385002,19.57904 c -0.821333,0 -1.288,-0.336 -1.288,-1.045334 v -0.28 c 0,-0.709333 0.56,-1.101333 1.624,-1.101333 h 1.344 v 1.157333 c 0,0.896 -0.765333,1.269334 -1.68,1.269334 z" />
 </g>
</svg>