<svg xmlns="http://www.w3.org/2000/svg" id="svg30" version="1.1" viewBox="0 0 72 96"><defs id="defs34"/><style type="text/css" id="style2">.st0{fill:#6190aa}.st1{fill:#fff}.st2{fill:#737373}.st4{fill:#517889}</style><path id="path4" d="M0 2v92c0 1.1.9 2 2 2h68c1.1 0 2-.9 2-2V28H50c-1.1 0-2-.9-2-2V0H2C.9 0 0 .9 0 2z" class="st0"/><path id="path6" d="M71.9 24c-.1-.4-.2-.7-.4-1L52 1.2V24h19.9z" class="st0"/><rect y="40.643402" x="5.7262421" height="49.473507" width="60.547516" id="rect843" style="opacity:1;fill:#f9f9f9;fill-opacity:1;stroke-width:1.03844595"/><g id="g923"><path class="st2" d="m 37.7,45.8 -13.5,7.8 v 15.5 l 13.5,7.8 13.5,-7.8 V 53.6 Z" id="path10" style="fill:#737373"/><path class="st2" d="M 24.2,53.6 37.7,61.4 51.2,53.6 37.7,45.8 Z" id="path12" style="fill:#737373"/><path class="st2" d="M 24.2,69.1 37.7,76.9 51.2,69.1 37.7,61.4 Z" id="path14" style="fill:#737373"/><path class="st1" d="m 23.8,69.9 13.5,7.7 c 0.1,0.1 0.3,0.1 0.4,0.1 0.1,0 0.3,-0.1 0.4,-0.1 L 51.6,69.8 C 51.9,69.7 52,69.4 52,69.1 V 53.6 c 0,-0.3 -0.1,-0.5 -0.4,-0.7 L 38.1,45.2 c -0.3,-0.1 -0.5,-0.1 -0.8,0 L 23.8,53 c -0.3,0.1 -0.4,0.4 -0.4,0.7 v 15.6 c 0,0.1 0.1,0.4 0.4,0.6 z m 13.9,-23.2 11.9,6.9 -11.9,7 -11.9,-7 11.9,-6.9 M 39.3,61.4 50.4,55 V 68.7 L 38.5,75.6 V 61.9 M 25,67.7 V 55 l 11.1,6.4 0.8,0.5 V 75.6 L 25,68.7" id="path16" style="fill:#ffffff"/><path class="st1" d="m 27.5,67.4 -7.1,4.1 v 8.1 l 7.1,4.1 7,-4.1 v -8.1 z" id="path18" style="fill:#ffffff"/><path class="st1" d="m 20.4,71.5 7.1,4 7,-4 -7,-4.1 z m 0,8.1 7.1,4.1 7,-4.1 -7,-4.1 z" id="path20" style="fill:#ffffff"/><path style="fill:#444444" d="m 20.2,80 7.1,4.1 c 0.1,0.1 0.1,0.1 0.2,0.1 0.1,0 0.1,0 0.2,-0.1 L 34.8,80 C 34.9,79.9 35,79.8 35,79.7 v -8.2 c 0,-0.1 -0.1,-0.3 -0.2,-0.3 L 27.7,67.1 C 27.6,67 27.4,67 27.3,67.1 l -7.1,4.1 C 20.1,71.3 20,71.4 20,71.5 v 8.1 c 0,0.1 0.1,0.3 0.2,0.4 z m 7.3,-12.1 6.2,3.6 -6.2,3.7 -6.2,-3.7 6.2,-3.6 m 0.8,7.6 5.8,-3.3 v 7.2 l -6.2,3.5 v -7.2 m -7,3.2 v -6.7 l 5.8,3.3 0.4,0.3 V 83 l -6.2,-3.6" id="path22"/><path class="st4" d="m 35.3,74.1 -4.6,2.6 V 82 l 4.6,2.7 4.6,-2.7 v -5.3 z" id="path24" style="fill:#517889"/><path class="st4" d="m 30.7,76.7 4.6,2.6 4.6,-2.6 -4.6,-2.6 z m 0,5.3 4.6,2.7 4.6,-2.7 -4.6,-2.7 z" id="path26" style="fill:#517889"/><path class="st1" d="m 30.6,82.3 4.6,2.7 c 0.1,0 0.1,0.1 0.1,0.1 0,0 0.1,0 0.1,-0.1 L 40,82.3 c 0.1,-0.1 0.1,-0.1 0.1,-0.3 V 76.7 C 40.1,76.6 40,76.5 40,76.4 l -4.6,-2.7 c -0.1,-0.1 -0.2,-0.1 -0.3,0 l -4.6,2.7 c -0.1,0.1 -0.1,0.1 -0.1,0.3 V 82 c 0.1,0.1 0.1,0.2 0.2,0.3 z m 4.7,-7.9 4.1,2.3 -4.1,2.3 -4.1,-2.4 4.1,-2.2 m 0.6,4.9 3.7,-2.2 v 4.7 l -4.1,2.3 v -4.6 m -4.5,2 v -4.3 l 3.7,2.2 0.3,0.1 v 4.6 l -4.1,-2.3" id="path28" style="fill:#ffffff"/></g><g id="text927" style="font-style:normal;font-weight:normal;font-size:27.42424393px;line-height:1.25;font-family:sans-serif;letter-spacing:0px;word-spacing:0px;fill:#000000;fill-opacity:1;stroke:none;stroke-width:0.68560612" transform="scale(0.92238186,1.0841497)"><g id="g936"><path d="m 14.992671,13.167381 q 1.941658,0.415113 3.026308,1.727406 1.098041,1.312293 1.098041,3.24056 0,2.959354 -2.035393,4.579634 -2.035393,1.620281 -5.784801,1.620281 -1.25873,0 -2.5978048,-0.254425 -1.3256837,-0.241033 -2.7451025,-0.736491 v -2.611195 q 1.1248225,0.656147 2.4638969,0.990915 1.3390744,0.334769 2.7986654,0.334769 2.544241,0 3.869925,-1.004306 1.339075,-1.004306 1.339075,-2.919182 0,-1.767578 -1.24534,-2.758493 -1.231948,-1.004306 -3.441421,-1.004306 H 9.4087306 v -2.222864 h 2.4371154 q 1.995221,0 3.05309,-0.790054 1.057869,-0.803444 1.057869,-2.3032075 0,-1.5399356 -1.098042,-2.356771 -1.08465,-0.8302261 -3.120043,-0.8302261 -1.111432,0 -2.3835523,0.2410334 Q 8.083047,6.3514922 6.5565021,6.8603405 v -2.410334 q 1.5399356,-0.4285038 2.87901,-0.6427557 1.3524649,-0.2142519 2.5442419,-0.2142519 3.079871,0 4.87423,1.4060281 1.79436,1.3926374 1.79436,3.7761899 0,1.6604521 -0.950743,2.8120561 -0.950743,1.138213 -2.70493,1.580108 z" style="fill:#ffffff;stroke-width:0.68560612" id="path929"/><path d="M 26.722963,6.1774125 V 21.724066 h 3.267342 q 4.13774,0 6.052616,-1.874704 1.928267,-1.874704 1.928267,-5.918709 0,-4.0172229 -1.928267,-5.8785363 Q 34.128045,6.1774125 29.990305,6.1774125 Z M 24.018033,3.954549 h 5.557159 q 5.811583,0 8.529904,2.4237247 2.718321,2.4103339 2.718321,7.5523793 0,5.168828 -2.731712,7.592552 -2.731712,2.423725 -8.516513,2.423725 h -5.557159 z" style="fill:#ffffff;stroke-width:0.68560612" id="path931"/></g></g></svg>