<svg xmlns="http://www.w3.org/2000/svg" version="1.1" width="128" height="128" viewBox="0 0 128 128" id="smart.robot">
	<g id="g1">
		<path id="p1" fill="#38364c" d="m 64.05,125.8 c -1.2,0 -2.3,-0.3 -3.1,-0.7 L 12.65,97.3 c -1.7,-1 -3.1,-3.5 -3.1,-5.4 V 36.1 c 0,-1.9 1.5,-4.4 3.1,-5.4 L 60.95,2.9 c 0.8,-0.5 1.9,-0.7 3.1,-0.7 1.2,0 2.3,0.3 3.1,0.7 l 48.2,27.9 c 1.7,1 3.1,3.5 3.1,5.4 v 55.7 c 0,1.9 -1.5,4.4 -3.1,5.4 l -48.2,27.9 c -0.8,0.4 -1.9,0.6 -3.1,0.6 z"/>
		<path id="p2" fill="#2e2844" d="m 64,3.6999995 c 0.9,0 1.8,0.2 2.4,0.5 L 114.6,31.999999 C 115.8,32.7 117,34.7 117,36.1 v 55.700001 c 0,1.4 -1.2,3.4 -2.4,4.1 L 66.4,123.8 c -0.6,0.3 -1.5,0.5 -2.4,0.5 -0.9,0 -1.8,-0.2 -2.4,-0.5 L 13.4,96 C 12.2,95.300001 11,93.300001 11,91.900001 v -55.8 c 0,-1.4 1.2,-3.4 2.4,-4.100001 L 61.6,4.1999995 c 0.6,-0.3 1.5,-0.5 2.4,-0.5 m 0,-3 c -1.4,0 -2.8,0.3 -3.9,0.9 L 11.9,29.4 C 9.8,30.7 8,33.700001 8,36.100001 v 55.7 c 0,2.5 1.7,5.5 3.9,6.699999 l 48.2,27.9 c 1.1,0.6 2.5,0.9 3.9,0.9 1.4,0 2.8,-0.3 3.9,-0.9 l 48.2,-27.9 c 2.1,-1.199999 3.9,-4.199999 3.9,-6.699999 v -55.7 C 120,33.600001 118.3,30.6 116.1,29.4 L 67.9,1.5999995 c -1.1,-0.6 -2.5,-0.9 -3.9,-0.9 z"/>
	</g>
	<g id="g2" transform="matrix(1,0,0,-1,-140.9652,117.84446)">
		<path id="p3" d="M 228.92374,60.328102 256.33136,53.961847 229.11883,48.11601 C 226.9964,39.083195 219.85046,31.627199 210.20156,29.478475 l 0.74928,-0.03318 -6.28368,-27.2051899 -6.10769,27.2830029 0.4401,-0.03422 c -3.96299,0.926296 -7.63198,2.840575 -10.70883,5.494102 l 1.01422,-1.031212 -11.99714,-7.638573 7.6059,12.190406 0.31021,-0.308154 c -2.17349,2.775439 -3.81324,5.968858 -4.741,9.616521 l 0.0242,-0.118836 -26.9081,6.344128 26.85601,5.773306 c 2.11136,8.783053 8.92497,16.04768 18.16901,18.361545 l -0.19034,0.02317 6.52136,27.253529 5.51248,-27.094696 -0.24977,0.01106 c 3.70115,-0.855813 7.13144,-2.509265 10.01692,-4.830462 l 11.42507,8.017202 -6.90291,-12.60428 c 1.87537,-2.526704 3.26433,-5.399879 4.1548,-8.560109 z m -28.61467,15.340459 c -11.88365,-2.417755 -19.55102,-14.001887 -17.13326,-25.885533 2.41775,-11.883646 14.00189,-19.551016 25.88553,-17.133262 11.88364,2.417756 19.551,14.001888 17.13326,25.885535 -2.41776,11.883645 -14.00189,19.551016 -25.88553,17.13326 z" style="opacity:0.1;fill:#ffffff;stroke-width:0.60"/>
		<path id="p4" d="m 228.92374,47.360823 27.40762,6.366255 -27.21253,5.845837 c -2.12243,9.032815 -9.26837,16.488811 -18.91727,18.637535 l 0.74928,0.03318 -6.28368,27.20519 -6.10769,-27.283003 0.4401,0.03422 c -3.96299,-0.926296 -7.63198,-2.840575 -10.70883,-5.494102 l 1.01422,1.031212 -11.99714,7.638573 7.6059,-12.190406 0.31021,0.308154 c -2.17349,-2.775439 -3.81324,-5.968858 -4.741,-9.616521 l 0.0242,0.118836 -26.9081,-6.344128 26.85601,-5.773306 c 2.11136,-8.783053 8.92497,-16.04768 18.16901,-18.361545 l -0.19034,-0.02317 6.52136,-27.2535289 5.51248,27.0946959 -0.24977,-0.01106 c 3.70115,0.855813 7.13144,2.509265 10.01692,4.830462 l 11.42507,-8.017202 -6.90291,12.60428 c 1.87537,2.526704 3.26433,5.399879 4.1548,8.560109 z M 200.30907,32.020364 c -11.88365,2.417755 -19.55102,14.001887 -17.13326,25.885533 2.41775,11.883646 14.00189,19.551016 25.88553,17.133262 11.88364,-2.417756 19.551,-14.001888 17.13326,-25.885535 -2.41776,-11.883645 -14.00189,-19.551016 -25.88553,-17.13326 z" style="opacity:0.1;fill:#ffffff;stroke-width:0.60"/>
	</g>
	<g id="g3" transform="translate(-0.15,-0.35)">
		<path id="p5" fill="#c2203f" d="m 64,59.7 h 0.3 c 1.4,0.1 2.7,0.9 3.5,2.1 0.4,0.7 0.6,1.6 0.6,2.5 -0.2,2.3 -2,4 -4.3,4 h -0.3 c -1.4,-0.1 -2.7,-0.9 -3.5,-2.1 -0.4,-0.7 -0.6,-1.6 -0.6,-2.5 0.1,-2.2 2,-4 4.3,-4 m 0,-0.3 c -2.4,0 -4.4,1.9 -4.6,4.3 -0.1,0.9 0.1,1.8 0.6,2.6 0.8,1.3 2.1,2.2 3.7,2.3 H 64 c 2.4,0 4.4,-1.9 4.6,-4.3 0.1,-0.9 -0.2,-1.8 -0.6,-2.6 -0.8,-1.3 -2.1,-2.2 -3.7,-2.3 z"/>
		<path id="p6" fill="#c2203f" d="m 64.1,62.5 c 0.8,0.1 1.5,0.8 1.4,1.6 -0.1,0.8 -0.8,1.5 -1.6,1.4 -0.8,-0.1 -1.5,-0.8 -1.4,-1.6 0,-0.8 0.8,-1.5 1.6,-1.4 z M 64,70.1 h -0.4 c -2,-0.1 -3.9,-1.3 -4.9,-3 -0.6,-1.1 -0.9,-2.3 -0.8,-3.5 0.1,-1.4 0.7,-2.7 1.6,-3.7 V 59.8 L 20,89.9 65.4,69.9 C 64.9,70 64.5,70.1 64,70.1 Z"/>
		<path id="p7" fill="#eff3f3" d="m 62.5,58.1 c 0.6,-0.1 1.2,-0.2 1.9,-0.2 2,0.1 3.9,1.3 4.9,3 0.6,1.1 0.9,2.3 0.8,3.5 -0.1,1.5 -0.7,2.8 -1.7,3.8 l 39.9,-29.4 z"/>
	</g>
</svg>