<svg xmlns="http://www.w3.org/2000/svg" width="128" height="128" viewBox="0 0 128 128" id="bot" version="1.1">
 <defs id="defs4204" />
 <g id="layer1" transform="translate(0,-924.3622)">
  <g id="g4760" transform="matrix(0.941192,0,0,0.941192,3.5632621,58.406254)">
   <ellipse ry="63.426697" rx="63.514065" cy="988.06189" cx="64.212975" id="path4185" style="opacity:1;fill:#ffcc00;fill-opacity:1;stroke:#ff9900;stroke-width:0;stroke-miterlimit:4;stroke-dasharray:none;stroke-opacity:1" />
   <path style="fill:#1a1a1a;stroke-width:1.06248248" id="path3-1" d="m 113.09342,999.62894 c -8.47523,-8.54383 -19.009303,-13.91625 -27.544122,-17.17217 7.703788,-2.13285 16.912592,-6.57235 25.892172,-15.53068 1.35651,-1.3543 1.35982,-3.55139 0.005,-4.9079 -1.35514,-1.35775 -3.55243,-1.36002 -4.90876,-0.007 -8.68371,8.66311 -17.505508,12.53539 -24.50599,14.19779 4.821879,-4.23018 10.433706,-11.25777 16.286045,-22.89829 0.86188,-1.71233 0.17033,-3.79888 -1.541145,-4.65952 -1.715836,-0.86032 -3.799746,-0.17156 -4.659705,1.54218 -9.054762,18.01192 -16.820589,23.2194 -20.841187,24.71028 -0.289912,-1.45797 -0.932953,-2.71819 -1.833708,-3.59986 0.185944,-0.38151 0.333295,-0.8011 0.413738,-1.25731 0.297219,-1.68565 -0.321548,-3.2426 -1.418786,-3.8482 l -1.079071,3.91699 c -0.09708,-0.0246 -0.192159,-0.0544 -0.291561,-0.0719 -0.0994,-0.0177 -0.198918,-0.0222 -0.29963,-0.0323 l 0.325703,-4.04984 c -1.23838,0.19485 -2.352165,1.44522 -2.649388,3.13088 -0.08044,0.45621 -0.08659,0.9007 -0.04227,1.3228 -1.14798,0.52042 -2.183266,1.48471 -2.954344,2.7556 -3.268218,-2.77609 -8.783778,-10.32437 -11.132897,-30.34818 -0.224042,-1.90488 -1.953007,-3.26595 -3.851237,-3.04288 -1.904694,0.223 -3.26608,1.94758 -3.042888,3.85123 1.509663,12.87175 4.357307,21.3737 7.422875,27.00005 -6.014306,-3.97343 -12.971748,-10.61939 -18.125155,-21.63496 -0.812553,-1.73677 -2.87931,-2.48528 -4.61399,-1.67235 -1.73658,0.8115 -2.48509,2.87826 -1.67236,4.61399 5.376712,11.49296 12.513481,18.81679 19.02565,23.45414 -9.132278,0.13858 -20.86761,1.5789 -31.76088,6.71179 -1.73419,0.81625 -2.47765,2.88498 -1.66036,4.61929 0.50048,1.0593 1.4673,1.7498 2.5398,1.9389 0.68117,0.1201 1.40546,0.038 2.07869,-0.2797 10.84502,-5.11014 22.925818,-6.13567 31.631419,-6.02043 -8.166778,4.97283 -18.677499,15.18663 -29.681479,35.95012 -0.89732,1.6932 -0.25256,3.7942 1.44161,4.6917 0.32974,0.1735 0.67486,0.2905 1.02329,0.3519 1.44292,0.2544 2.94562,-0.43 3.6685,-1.7946 9.708117,-18.3153 18.662918,-27.55529 25.466953,-32.20309 -0.849418,1.8375 -1.503942,3.8486 -1.884933,6.0093 -1.801623,10.21749 2.939369,19.59489 10.590216,20.94399 7.649797,1.3488 15.31213,-5.8416 17.113753,-16.0591 0.380805,-2.15956 0.454175,-4.27639 0.28335,-6.29379 4.803028,6.69439 10.058211,18.44209 12.915605,38.97309 0.212602,1.5296 1.391601,2.6869 2.833471,2.9412 0.3484,0.062 0.712715,0.07 1.081959,0.019 1.899177,-0.2648 3.223407,-2.0177 2.960327,-3.9154 -3.242925,-23.3005 -9.644886,-36.49869 -15.628695,-43.96119 8.212927,2.8604 19.21983,7.9558 27.697835,16.50219 0.52502,0.5284 1.17654,0.8537 1.85871,0.974 1.07247,0.1891 2.21805,-0.1278 3.04974,-0.9533 1.35808,-1.3507 1.36701,-3.549 0.0175,-4.90896 z" />
  </g>
 </g>
</svg>