<svg xmlns="http://www.w3.org/2000/svg" version="1.1" width="128" height="128" viewBox="0 0 128 128" id="bot">
	<path style="clip-rule:evenodd;fill-rule:evenodd;stroke-width:0;stroke-miterlimit:4;stroke-dasharray:none;fill:#916f6f" id="path3" d="m 111.92352,57.401026 c 0.28034,-0.285725 0.75701,-0.419904 1.15255,-0.449264 1.92233,-0.142702 3.8493,-0.202571 5.7722,-0.336088 2.38161,-0.165166 4.7609,-0.37397 7.20844,-0.56916 -0.0729,-0.971526 -0.16198,-1.786402 -0.18675,-2.603897 -0.0246,-0.796511 -0.40337,-0.943472 -1.0126,-0.901645 -3.07707,0.21175 -6.15369,0.447788 -9.23378,0.573268 -1.51956,0.0618 -3.27585,0.443851 -4.53358,-0.240789 C 100.4323,47.071066 93.06709,38.008187 90.196779,24.752014 90.02828,23.973552 90.129559,23.005476 90.384261,22.245226 91.18721,19.848651 92.123601,17.509162 93.007829,15.14753 94.317152,11.650353 95.625889,8.1531757 96.956222,4.5995741 95.986655,4.0569794 95.115753,3.5698251 94.144593,3.0265743 93.85946,3.693828 93.602004,4.2387191 93.388587,4.8047693 91.527258,9.7461867 89.615359,14.665133 87.85704,19.653297 c -0.466818,1.324174 -1.183851,1.736861 -2.266861,1.841673 -2.427832,0.234884 -4.852183,0.633792 -7.282621,0.684968 C 73.957981,22.271298 69.672008,21.7146 65.670442,19.574893 62.490953,17.874938 59.85927,15.610737 58.669913,11.577198 57.901302,8.9698557 56.782502,6.4947189 55.811632,3.9646333 55.665878,3.5845874 55.471589,3.2284891 55.274836,2.8084211 c -0.980868,0.5289806 -1.853653,0.9998964 -2.79975,1.5101781 0.19516,0.5691668 0.334105,1.0159709 0.499562,1.449981 1.219203,3.1993075 2.459703,6.3884458 3.650799,9.6010398 0.203998,0.550303 0.436828,1.305147 0.263111,1.782132 -1.29802,3.567708 -2.567208,7.162151 -4.101391,10.602083 -1.221955,2.740202 -3.42869,4.214787 -6.102101,4.828405 -4.819003,1.106185 -9.694366,1.244129 -14.572917,1.023024 -1.445223,-0.06548 -2.924059,-0.595575 -4.289305,-1.197547 -2.69181,-1.186885 -5.314944,-2.57306 -8.021966,-3.903795 -0.43842,1.185081 -0.826565,2.234348 -1.25296,3.38728 3.225708,1.590059 6.321745,3.097777 9.399671,4.651421 0.530276,0.267525 1.134591,0.611649 1.445803,1.122424 1.210365,1.986014 2.452025,3.974161 3.425504,6.111243 1.135894,2.493836 1.547945,5.227312 1.111118,8.047395 -0.822363,5.310308 -3.690352,9.051227 -7.359841,12.148183 -0.355403,0.299837 -0.857572,0.438767 -1.310046,0.519631 -5.697438,1.018759 -11.398788,2.010782 -17.0982543,3.015108 -2.0567803,0.362167 -4.1115322,0.738932 -6.218587,1.117994 0.1051852,0.877533 0.2251498,1.450801 0.2323947,2.025873 0.015237,1.19443 0.464065,1.589074 1.5237494,1.393392 6.2827718,-1.160313 12.5680062,-2.305371 18.8614992,-3.386788 1.761794,-0.303119 3.635585,-0.84358 5.31842,-0.468947 5.854782,1.30203 10.882708,4.561371 15.112901,9.319408 6.424469,7.226285 10.046002,16.054929 11.329244,26.130671 0.343667,2.6982 0.710804,5.42151 -0.55085,8.09513 -1.062439,2.25156 -1.783385,4.70997 -2.648055,7.0803 -0.597504,1.63746 -1.182257,3.28114 -1.799321,4.99636 1.025203,0.48716 1.916679,0.91066 2.907833,1.38158 0.217906,-0.54489 0.398721,-0.96709 0.55766,-1.39946 1.493759,-4.06586 2.975058,-8.13761 4.486059,-12.19526 0.193277,-0.51897 0.455952,-1.07158 0.822509,-1.43078 5.75206,-5.63444 11.834022,-10.719873 18.793693,-14.329069 8.71944,-4.521684 17.788631,-6.435526 27.359548,-4.845465 1.91407,0.317876 3.56155,0.979719 5.0023,2.557971 1.89972,2.08098 3.99243,3.93627 6.0802,5.96461 0.70357,-0.95135 1.35265,-1.82872 2.13692,-2.88915 -0.32253,-0.26818 -0.60996,-0.476647 -0.86657,-0.725641 -2.1805,-2.113947 -4.36739,-4.220035 -6.52139,-6.367776 -0.39755,-0.396612 -0.82047,-0.921004 -0.95333,-1.472616 -1.53709,-6.375657 -2.67922,-12.809374 -2.10519,-19.486011 0.38163,-4.442617 1.97117,-8.185996 4.90001,-11.171907 z M 87.835742,29.023061 C 91.060726,39.79934 97.02707,47.58003 105.11134,53.52545 95.173858,56.090303 87.242592,51.260265 84.896477,39.383373 c -0.257316,-1.303501 -0.08664,-2.432649 0.404077,-3.624462 0.856702,-2.081306 1.598083,-4.223807 2.535188,-6.73585 z m 2.262952,41.059401 c -1.944785,-1.88285 -3.618344,-3.485532 -5.269596,-5.11676 -0.312223,-0.308531 -0.612135,-0.690381 -0.788605,-1.107996 -0.916394,-2.166271 0.02301,-4.679961 2.128209,-5.077715 2.203257,-0.416131 4.47215,-0.386443 7.046601,-0.57639 -1.867703,3.830646 -3.294962,7.368331 -3.11661,11.878861 z M 54.162846,49.595411 c 0.592288,0.196994 0.945517,0.271127 1.267161,0.428269 2.310906,1.129798 4.654268,2.18858 6.900994,3.464372 0.808165,0.458936 1.379154,1.453098 2.058372,2.20302 -0.681246,0.675619 -1.274548,1.710775 -2.060836,1.95714 -2.082715,0.652819 -4.247869,0.970051 -6.382307,1.407997 -0.536507,0.110225 -1.080549,0.172718 -1.902623,0.300986 1.258611,-3.300839 1.377416,-6.404198 0.119238,-9.761784 z m 28.398811,8.683483 -0.984634,3.782417 -4.162533,-3.649885 5.147167,-0.132532 z m 0.0084,-14.64776 c 1.457684,4.472798 3.708173,8.088072 7.06138,10.790378 -2.108793,1.144245 -4.528358,0.565237 -6.164401,-1.718319 -2.354083,-3.285919 -3.004613,-5.621301 -0.896979,-9.072059 z M 75.59068,60.536043 c 0.642998,0.634449 1.406829,1.721278 2.103869,2.408707 -1.020712,0.166977 -2.649648,0.907051 -3.552714,1.054845 0.282381,-0.774034 1.136039,-2.606029 1.448845,-3.463552 z M 74.967385,54.06525 c -0.493043,-1.252653 -0.861339,-2.18858 -1.297297,-3.296247 0.906543,0 1.627777,0 2.548954,0 -0.433494,1.142113 -0.77861,2.050812 -1.251657,3.296247 z m 3.025188,1.517729 c 0.426684,-1.21362 1.245137,-3.312976 1.65487,-4.478374 l 3.54967,4.018613 c -1.024045,0.119895 -4.059663,0.325589 -5.204541,0.459761 z m -0.479714,-9.600546 c -1.800334,1.893012 -4.287856,1.397984 -5.738005,-1.062233 -1.205295,-2.045057 -1.997956,-4.401933 -2.973319,-6.620705 0.112865,-0.124331 0.22602,-0.248662 0.338885,-0.372829 3.194557,2.344081 6.584421,3.856071 10.929362,3.061041 -0.961019,1.951405 -1.458407,3.839491 -2.556922,4.994726 z m -8.152215,4.138022 2.786274,5.202381 -4.742217,-3.808168 1.955942,-1.394213 z m -3.622113,7.627163 0.848589,-2.47317 3.968965,1.968793 -4.817554,0.504377 z m 6.305374,2.213353 c -0.461313,1.253479 -0.965365,3.468794 -1.379301,4.593684 -0.767162,-0.931826 -2.22557,-3.026098 -3.042574,-4.018612 1.189646,-0.223074 3.148776,-0.336416 4.421875,-0.575072 z m -6.951852,-9.736367 c -0.959136,-0.148436 -1.918995,-0.457459 -2.82351,-0.854071 -1.54896,-0.679392 -3.057208,-1.479178 -4.576611,-2.243206 -0.317442,-0.159597 -0.609673,-0.383169 -1.120682,-0.709415 4.091539,-1.509024 6.814353,-4.31927 8.496027,-8.806666 0.451896,1.127344 0.805123,1.983391 1.140096,2.848622 0.667194,1.723739 1.350903,3.440261 1.979992,5.181878 0.982173,2.718714 -0.529263,4.980291 -3.095312,4.582858 z m 0.521005,12.220034 c 3.419853,1.612529 4.588925,4.541195 3.161669,8.382655 -0.827581,2.227629 -1.664869,4.450654 -2.505487,6.671887 -0.111272,0.293605 -0.268763,0.564574 -0.519413,1.082893 -1.566056,-6.711575 -4.712802,-11.894437 -9.706391,-15.667012 3.228897,-0.533245 6.306243,-2.009142 9.569622,-0.470423 z m 4.597764,13.959177 c 0.656907,-1.786063 1.317724,-3.570496 1.98202,-5.35295 1.131113,-3.034791 3.203976,-4.556293 6.119051,-4.377998 2.217312,0.135813 4.281918,0.727294 5.958086,2.595861 1.237748,1.380269 2.619947,2.594225 3.937816,3.882313 -0.04793,0.117442 -0.09606,0.23472 -0.144015,0.351998 -6.758712,-0.142544 -13.047719,1.609407 -18.887434,5.773017 0.344252,-0.957571 0.683422,-1.91778 1.034476,-2.872241 z M 85.606579,25.208823 c -0.140105,0.521109 -0.21472,0.916087 -0.350042,1.282676 -1.068523,2.89636 -2.109373,5.807141 -3.239182,8.672992 -0.727031,1.843477 -2.337133,2.303403 -3.847988,2.289455 -1.535775,-0.01424 -3.276273,-0.18485 -4.556907,-1.017283 -2.648635,-1.721436 -5.052268,-3.92643 -7.552684,-5.939017 -0.09896,-0.07971 -0.180382,-0.213397 -0.230077,-0.341658 -0.983766,-2.546002 -1.961446,-5.094951 -3.102992,-8.065929 7.47068,4.274655 15.039302,4.189362 22.879872,3.118771 z m -39.4444,11.243265 c 5.673533,-0.783226 9.006021,-4.837918 11.219567,-10.415095 0.519121,-1.308264 1.01622,-2.627846 1.605174,-4.154098 0.244276,0.493381 0.419585,0.788462 0.543897,1.108803 0.738621,1.903352 1.31106,3.915119 2.23151,5.696588 1.459712,2.825002 1.127926,5.519448 0.01912,8.274575 -1.165595,2.896846 -3.119074,4.83759 -5.788135,5.759902 -2.754545,0.951837 -5.46229,1.16097 -8.202346,-0.411375 -2.736437,-1.570217 -5.619203,-2.813028 -8.435758,-4.204616 -0.339898,-0.167968 -0.666759,-0.369877 -1.245138,-0.69334 2.89885,-0.342812 5.480546,-0.60623 8.052101,-0.961344 z M 32.492181,63.015445 c 2.386538,-3.295099 4.130368,-6.75783 4.647752,-10.934898 0.522307,-4.217896 -0.527817,-8.020816 -2.178049,-11.963485 0.502169,0.182724 0.813381,0.264566 1.101846,0.405956 3.765839,1.84496 7.539789,3.669574 11.28882,5.557174 4.159344,2.094106 5.754957,8.803385 3.026781,12.86284 -0.441027,0.6561 -1.230937,1.26479 -1.934641,1.401757 -5.093704,0.992516 -10.206389,1.859388 -15.314293,2.757752 -0.148941,0.02624 -0.310631,-0.03924 -0.638217,-0.08709 z m 25.373768,37.414925 c -0.09302,0.25326 -0.231381,0.48486 -0.530856,1.10291 -1.289472,-7.73395 -3.706292,-14.562309 -7.559061,-20.692583 -3.871891,-6.16045 -8.80318,-10.897492 -14.87442,-14.325615 2.045478,-0.37611 4.089944,-0.760256 6.136583,-1.126688 2.530117,-0.452873 5.054731,-0.962663 7.597164,-1.297601 0.88191,-0.116295 1.904216,-0.0225 2.70253,0.380701 7.748131,3.913308 11.452395,10.919637 11.89719,20.329915 0.02649,0.55818 -0.08794,1.168025 -0.276149,1.68946 -1.678777,4.655031 -3.387689,9.296444 -5.092981,13.939501 z m 2.700213,2.24075 c 0.461023,-1.26709 0.921755,-2.53435 1.382923,-3.801453 0.797444,-2.19071 1.757449,-4.325821 2.359878,-6.583133 1.364232,-5.11086 4.652965,-8.230291 8.439232,-10.836648 5.025899,-3.459943 10.566138,-4.423754 16.373253,-4.296798 2.568949,0.0561 4.546043,0.990054 6.366512,2.999853 2.096768,2.315048 4.416516,4.370938 6.63947,6.539515 -15.892516,-1.162937 -29.220151,5.51797 -41.561268,15.978664 z M 104.83735,84.258486 c -0.46652,-0.362331 -0.75021,-0.542759 -0.99303,-0.777642 -2.47071,-2.390173 -4.883338,-4.861373 -7.413738,-7.167237 -3.112412,-2.83632 -3.855959,-6.468982 -2.659354,-10.524828 0.733407,-2.486783 2.015051,-4.772471 3.120086,-7.106219 0.182991,-0.386279 0.712252,-0.76206 1.102136,-0.791585 3.06185,-0.230618 6.12875,-0.375617 9.40489,-0.558668 -5.15441,8.515193 -3.83205,17.602834 -2.56099,26.926179 z"/>
	<path style="fill:#1a1a1a" id="path3-1" d="m 10.305231,87.734024 c 7.976816,-8.041322 17.891397,-13.097798 25.9243,-16.162249 -7.250743,-2.007422 -15.917986,-6.185845 -24.3695,-14.617351 -1.27673,-1.274656 -1.27985,-3.342537 -0.005,-4.619273 1.275455,-1.277902 3.343525,-1.280044 4.620086,-0.0064 8.173032,8.153643 16.476039,11.798207 23.064837,13.362848 -4.538314,-3.981418 -9.820121,-10.595726 -15.328295,-21.551691 -0.811187,-1.61163 -0.160308,-3.57548 1.450511,-4.385502 1.614933,-0.809732 3.576292,-0.161471 4.385679,1.451485 8.52227,16.952674 15.831404,21.853915 19.615558,23.257122 0.272863,-1.372229 0.878088,-2.558345 1.725872,-3.388167 -0.175009,-0.359065 -0.313695,-0.753985 -0.389407,-1.183363 -0.27974,-1.586523 0.302638,-3.051916 1.33535,-3.621901 l 1.015613,3.686647 c 0.09137,-0.02318 0.180858,-0.0512 0.274415,-0.06769 0.09355,-0.01662 0.18722,-0.02091 0.282009,-0.0304 L 53.60071,56.046465 c 1.165553,0.183392 2.213839,1.360234 2.493583,2.946763 0.07571,0.429376 0.0815,0.847731 0.03978,1.245002 1.08047,0.489821 2.054873,1.397404 2.780605,2.593553 3.076021,-2.612837 8.267222,-9.717212 10.478194,-28.563463 0.210866,-1.792855 1.838154,-3.073889 3.624753,-2.863939 1.792683,0.209892 3.074009,1.833051 2.863942,3.624751 -1.420883,12.114786 -4.101062,20.116759 -6.98635,25.412235 5.660616,-3.739761 12.208905,-9.99489 17.05925,-20.36266 0.764769,-1.634628 2.709986,-2.339117 4.342649,-1.573999 1.634459,0.76378 2.338951,2.708999 1.57401,4.342649 C 86.810611,53.66444 80.093542,60.55757 73.96434,64.922204 c 8.595227,0.130437 19.640432,1.486052 29.89309,6.317088 1.6322,0.768245 2.33194,2.715315 1.56271,4.347688 -0.47104,0.996947 -1.38101,1.646832 -2.39044,1.824822 -0.64111,0.113044 -1.3228,0.03628 -1.95644,-0.263267 -10.207246,-4.809602 -21.577598,-5.774824 -29.77124,-5.666361 7.686506,4.680355 17.579116,14.293571 27.935968,33.835986 0.844552,1.59359 0.237706,3.571 -1.35683,4.41571 -0.310352,0.16336 -0.635174,0.27346 -0.963111,0.33129 -1.358064,0.23936 -2.772395,-0.40479 -3.452766,-1.6891 -9.1372,-17.238226 -17.565387,-25.934804 -23.96929,-30.309238 0.799465,1.729449 1.415498,3.622232 1.774084,5.65586 1.695673,9.616647 -2.766511,18.442558 -9.967427,19.712298 -7.199928,1.26954 -14.411654,-5.497991 -16.107327,-15.114616 -0.358411,-2.032644 -0.427466,-4.024923 -0.266687,-5.923685 -4.520572,6.300712 -9.466708,17.35756 -12.156064,36.681141 -0.2001,1.4396 -1.309764,2.52886 -2.666841,2.76817 -0.327911,0.058 -0.670801,0.0657 -1.018331,0.0181 -1.78749,-0.24923 -3.033849,-1.89902 -2.78624,-3.68513 3.052219,-21.930263 9.077694,-34.352277 14.709607,-41.375954 -7.729941,2.692191 -18.08955,7.487975 -26.068969,15.531788 -0.49415,0.497365 -1.10735,0.803496 -1.74941,0.916713 -1.009395,0.177994 -2.087605,-0.120282 -2.870385,-0.897198 -1.2782196,-1.271345 -1.2866196,-3.340324 -0.0165,-4.620312 z"/>
</svg>