<svg xmlns="http://www.w3.org/2000/svg" xmlns:xlink="http://www.w3.org/1999/xlink" version="1.1" width="128" height="128" viewBox="0 0 128 128" id="crm">
	<defs id="d1">
		<linearGradient id="grad1" xlink:href="#grad2" x1="-382.04123" y1="37.280548" x2="-381.39438" y2="165.56691" gradientUnits="userSpaceOnUse" gradientTransform="matrix(0.77294738,0,0,0.77619098,435.90646,53.275712)"/>
		<linearGradient id="grad2">
			<stop id="s1" style="stop-color:#d7def0;stop-opacity:1;" offset="0"/>
			<stop id="s2" offset="0.5" style="stop-color:#ffffff;stop-opacity:1"/>
			<stop id="s3" style="stop-color:#d5def0;stop-opacity:1" offset="1"/>
		</linearGradient>
	</defs>
	<g id="g1">
		<g id="g2" transform="matrix(3.7795275,0,0,3.7795275,3.4744698e-8,-994.51962)">
			<g id="g3" transform="matrix(0.13229167,0,0,0.13229167,-0.21703057,262.58872)">
				<g id="g4" transform="translate(0.76352728,-0.14813757)">
					<path id="p1" style="fill:#a8bfe7;fill-opacity:1;fill-rule:nonzero;stroke:none;stroke-width:1" d="m 232.17258,88.120428 c 0,15.673922 -19.79135,34.931522 -45.84395,34.931522 -26.0526,0 -59.92241,-16.08123 -59.92241,-31.755156 0,-15.673924 21.11981,-28.38015 47.17241,-28.38015 19.90254,0 46.36121,18.293224 56.45971,20.3521 0.79178,1.710572 1.36862,2.925088 2.13424,4.851684 z"/>
					<path id="p2" style="fill:#1f488d;fill-opacity:1;fill-rule:nonzero;stroke:none;stroke-width:1" d="m 38.822019,65.97153 c 12.38148,-9.610994 35.314514,-1.245318 51.289554,19.334678 15.975027,20.580002 17.694937,51.065072 5.31349,60.676062 -12.38147,9.61099 -34.17571,-5.29155 -50.15074,-25.87156 -12.20392,-15.72181 -4.05062,-41.190894 -8.61646,-50.430556 0.61589,-1.122052 1.381696,-2.456608 2.164156,-3.708624 z"/>
					<path id="p3" style="fill:#275ab0;fill-opacity:1;fill-rule:nonzero;stroke:none;stroke-width:1" d="m 230.04346,83.261772 c -7.0081,-0.03264 -61.07024,0.289574 -107.66567,0.0654 -17.371,5.108098 -31.704627,13.258826 -39.181777,29.154948 -5.33639,-4.54237 -40.74576,-42.215612 -44.40678,-46.440688 31.38983,-41.648805 74.528017,-45.559321 82.915257,-45.559321 8.38724,0 70.64407,-8.631855 108.33897,62.779661 z"/>
					<path id="p4" style="fill:#3275e7;fill-opacity:1;fill-rule:nonzero;stroke:none;stroke-width:1" d="m 117.12454,243.96817 c -12.49835,-9.45852 -14.5752,-36.93928 1.14635,-57.71357 15.72155,-20.77428 41.03582,-34.94753 53.53417,-25.48904 12.49834,9.4585 7.44792,38.96701 -8.27364,59.74129 -12.01027,15.87024 -35.4911,16.88498 -43.22681,23.69506 -1.23894,-0.0456 -1.95523,-0.0606 -3.18007,-0.23374 z"/>
					<path id="p5" style="fill:#b1cdfd;fill-opacity:1;fill-rule:nonzero;stroke:none;stroke-width:1" d="m 120.3032,244.20105 c 3.58354,-6.02268 28.85859,-52.89911 52.69131,-92.93891 4.41104,-17.56095 5.34663,-33.64185 -4.5584,-48.14993 6.62173,-2.29412 58.23851,-13.976356 63.73683,-14.98769 19.9656,48.18008 1.44992,87.33828 -2.80522,94.56597 -4.25514,7.22768 -28.40178,65.25666 -109.06452,61.51056 z"/>
					<path id="p6" style="fill:#548dee;fill-opacity:1;fill-rule:nonzero;stroke:none;stroke-width:1" d="m 36.696853,69.64253 c 3.46858,6.089612 30.72312,52.7802 53.77852,93.27258 13.094367,12.50527 27.684997,19.48512 45.191737,18.03328 -1.2738,6.89113 -16.62898,57.75038 -18.4638,63.03126 -51.756237,-6.42158 -76.669777,-41.85476 -80.854757,-49.1233 -4.18497,-7.26855 -42.7297501,-56.91452 0.3483,-125.21382 z"/>
					<path id="p7" style="fill:#377ef0;fill-opacity:1;stroke:url(#grad1);stroke-width:7.79999971;stroke-miterlimit:4;stroke-opacity:1" d="m 174.30962,131.9999 c 0,25.34288 -20.45861,45.88735 -45.6956,45.88735 -25.23698,0 -45.695597,-20.54447 -45.695597,-45.88735 0,-25.34289 20.458617,-45.887364 45.695597,-45.887364 25.23699,0 45.6956,20.544474 45.6956,45.887364 z"/>
				</g>
			</g>
		</g>
	</g>
</svg>