<svg xmlns="http://www.w3.org/2000/svg" xmlns:xlink="http://www.w3.org/1999/xlink" version="1.1" width="128" height="128" viewBox="0 0 128 128" id="eph">
	<defs id="d1">
		<linearGradient id="grad3400">
			<stop id="s1" offset="0" style="stop-color:#88a4bf;stop-opacity:1;"/>
			<stop id="s2" offset="1" style="stop-color:#3b5876;stop-opacity:1;"/>
		</linearGradient>
		<linearGradient id="grad3332">
			<stop id="s3" offset="0" style="stop-color:#287a28;stop-opacity:1;"/>
			<stop id="s4" offset="1" style="stop-color:#439c43;stop-opacity:1;"/>
		</linearGradient>
		<linearGradient gradientTransform="translate(136.39914,72.44946)" gradientUnits="userSpaceOnUse" y2="-65.535561" x2="-47.608574" y1="-45.736572" x1="-67.400452" id="grad3374" xlink:href="#grad3332"/>
		<linearGradient gradientTransform="translate(136.39914,72.44946)" gradientUnits="userSpaceOnUse" y2="-63.789845" x2="-85.569855" y1="-48.233494" x1="-92.36969" id="grad3382" xlink:href="#grad3332"/>
		<linearGradient gradientTransform="translate(136.39914,72.44946)" gradientUnits="userSpaceOnUse" y2="-54.966778" x2="-112.86548" y1="-40.471088" x1="-110.33653" id="grad3390" xlink:href="#grad3332"/>
		<linearGradient gradientTransform="translate(136.39914,72.44946)" gradientUnits="userSpaceOnUse" y2="-40.482346" x2="-132.63243" y1="-28.461531" x1="-126.14609" id="grad3398" xlink:href="#grad3332"/>
		<radialGradient gradientUnits="userSpaceOnUse" gradientTransform="matrix(1,0,0,1.0623361,136.39914,72.03186)" r="36.818222" fy="6.699173" fx="-91.5494" cy="6.699173" cx="-91.5494" id="rgrd3440" xlink:href="#grad3400"/>
		<filter id="filt3800">
			<feGaussianBlur id="fgsb3802" stdDeviation="0.56244008"/>
		</filter>
	</defs>
	<g id="g1" transform="translate(98.81642,-18.228051)"/>
	<g id="g2" transform="matrix(1.1538297,0,0,0.988515,6.8883395,5.4615772)">
		<g id="g3" transform="translate(72.454108,-27.489598)" mask="none" style="opacity:0.59574465;fill:#000000;fill-opacity:1;filter:url(#filt3800)">
			<g id="g4" transform="translate(-71.064229,27.577165)" style="fill:#000000;fill-opacity:1">
				<path id="p0" d="m 86.070645,0 c -24.602,0 -29.217,35.041 -15.377,35.041 13.838,0 39.979995,-35.041 15.377,-35.041 z" style="fill:#000000;fill-opacity:1"/>
				<path id="p1" d="m 45.219645,30.699 c 7.369,0.45 15.454,-28.122 1.604,-26.325 -13.845,1.797 -8.976,25.875 -1.604,26.325 z" style="fill:#000000;fill-opacity:1"/>
				<path id="p2" d="m 11.447645,48.453 c 5.241,-2.307 0.675,-24.872 -8.2370004,-18.718 -8.908,6.155 2.996,21.024 8.2370004,18.718 z" style="fill:#000000;fill-opacity:1"/>
				<path id="p3" d="m 26.214645,36.642 c 6.239,-1.272 6.581,-26.864 -4.545,-22.273 -11.128,4.592 -1.689,23.547 4.545,22.273 l 0,0 z" style="fill:#000000;fill-opacity:1"/>
				<path id="p4" d="m 57.211645,40.04321 c -19.097568,-0.323086 -44.2975,9.26 -48.5937504,28.5 -4.653,20.821 19.1600004,49.71875 44.0000004,49.71875 12.220001,0 26.3005,-11.022 28.9375,-25 2.014002,-10.659 -23.674,-6.39675 -22.75,0.65625 1.106999,8.454 -6.217,12.6375 -13.375,7.1875 -22.787,-17.349 37.739,-26.01675 33.75,-49.71875 C 77.938769,44.00921 68.670186,40.237062 57.211645,40.04321 Z m -7.21875,12.90625 c 2.229972,0.03066 4.101793,0.630185 5.09375,2.0625 3.174265,4.583408 -3.361215,12.050721 -8.0625,15.15625 -4.701286,3.105529 -17.36329,6.432539 -20.3125,1.71875 -2.94921,-4.713789 3.93273,-11.293035 8.53125,-14.3125 3.161486,-2.075882 9.844061,-4.692442 14.75,-4.625 z" style="fill:#000000;fill-opacity:1"/>
			</g>
		</g>
		<g id="g5">
			<path id="p5" style="fill:url(#grad3374);fill-opacity:1" d="m 86.070645,0 c -24.602,0 -29.217,35.041 -15.377,35.041 13.838,0 39.979995,-35.041 15.377,-35.041 z"/>
			<path id="p6" style="fill:url(#grad3382);fill-opacity:1" d="m 45.219645,30.699 c 7.369,0.45 15.454,-28.122 1.604,-26.325 -13.845,1.797 -8.976,25.875 -1.604,26.325 z"/>
			<path id="p7" style="fill:url(#grad3398);fill-opacity:1" d="m 11.447645,48.453 c 5.241,-2.307 0.675,-24.872 -8.2370004,-18.718 -8.908,6.155 2.996,21.024 8.2370004,18.718 z"/>
			<path id="p8" style="fill:url(#grad3390);fill-opacity:1" d="m 26.214645,36.642 c 6.239,-1.272 6.581,-26.864 -4.545,-22.273 -11.128,4.592 -1.689,23.547 4.545,22.273 l 0,0 z"/>
			<path id="p9" style="fill:url(#rgrd3440);fill-opacity:1" d="m 57.211645,40.04321 c -19.097568,-0.323086 -44.2975,9.26 -48.5937504,28.5 -4.653,20.821 19.1600004,49.71875 44.0000004,49.71875 12.220001,0 26.3005,-11.022 28.9375,-25 2.014002,-10.659 -23.674,-6.39675 -22.75,0.65625 1.106999,8.454 -6.217,12.6375 -13.375,7.1875 -22.787,-17.349 37.739,-26.01675 33.75,-49.71875 C 77.938769,44.00921 68.670186,40.237062 57.211645,40.04321 Z m -7.21875,12.90625 c 2.229972,0.03066 4.101793,0.630185 5.09375,2.0625 3.174265,4.583408 -3.361215,12.050721 -8.0625,15.15625 -4.701286,3.105529 -17.36329,6.432539 -20.3125,1.71875 -2.94921,-4.713789 3.93273,-11.293035 8.53125,-14.3125 3.161486,-2.075882 9.844061,-4.692442 14.75,-4.625 z"/>
		</g>
	</g>
</svg>