<svg xmlns="http://www.w3.org/2000/svg" version="1.1" width="128" height="128" viewBox="0 0 128 128" id="iee">
	<defs id="dfs1">
		<linearGradient gradientUnits="userSpaceOnUse" gradientTransform="matrix(1,0,0,-1,0,266)" y2="84.029999" x2="241.67" y1="84.029999" x1="63.330002" id="linear-gradient">
			<stop id="stop4" stop-color="#0c59a4" offset="0"/>
			<stop id="stop6" stop-color="#114a8b" offset="1"/>
		</linearGradient>
		<radialGradient gradientUnits="userSpaceOnUse" gradientTransform="matrix(1,0,0,-0.95,0,248.84)" r="95.379997" cy="68.910004" cx="161.83" id="radial-gradient">
			<stop id="stop9" stop-opacity="0" offset="0.72"/>
			<stop id="stop11" stop-opacity="0.53" offset="0.95"/>
			<stop id="stop13" offset="1"/>
		</radialGradient>
		<linearGradient gradientUnits="userSpaceOnUse" gradientTransform="matrix(1,0,0,-1,0,266)" y2="40.060001" x2="45.959999" y1="161.39" x1="157.35001" id="linear-gradient-2">
			<stop id="stop16" stop-color="#1b9de2" offset="0"/>
			<stop id="stop18" stop-color="#1595df" offset="0.16"/>
			<stop id="stop20" stop-color="#0680d7" offset="0.67"/>
			<stop id="stop22" stop-color="#0078d4" offset="1"/>
		</linearGradient>
		<radialGradient gradientUnits="userSpaceOnUse" gradientTransform="matrix(0.15,-0.99,-0.8,-0.12,176.64,-125.4)" r="143.24001" cy="62.990002" cx="-340.29001" id="radial-gradient-2">
			<stop id="stop25" stop-opacity="0" offset="0.76"/>
			<stop id="stop27" stop-opacity="0.5" offset="0.95"/>
			<stop id="stop29" offset="1"/>
		</radialGradient>
		<radialGradient gradientUnits="userSpaceOnUse" gradientTransform="matrix(-0.04,1,2.13,0.08,-1179.54,-106.69)" r="202.42999" cy="570.21002" cx="113.37" id="radial-gradient-3">
			<stop id="stop32" stop-color="#35c1f1" offset="0"/>
			<stop id="stop34" stop-color="#34c1ed" offset="0.11"/>
			<stop id="stop36" stop-color="#2fc2df" offset="0.23"/>
			<stop id="stop38" stop-color="#2bc3d2" offset="0.31"/>
			<stop id="stop40" stop-color="#36c752" offset="0.67"/>
		</radialGradient>
		<radialGradient gradientUnits="userSpaceOnUse" gradientTransform="matrix(0.28,0.96,0.78,-0.23,-303.76,-148.5)" r="97.339996" cy="567.96997" cx="376.51999" id="radial-gradient-4">
			<stop id="stop43" stop-color="#66eb6e" offset="0"/>
			<stop id="stop45" stop-opacity="0" stop-color="#66eb6e" offset="1"/>
		</radialGradient>
	</defs>
	<g id="grp1">
		<g id="grp2" transform="matrix(0.48,0,0,0.48,2.5657602,2.5530642)">
			<path id="pth1" style="fill:url(#linear-gradient)" class="cls-1" d="m 235.68,195.46 a 93.73,93.73 0 0 1 -10.54,4.71 101.87,101.87 0 0 1 -35.9,6.46 c -47.32,0 -88.54,-32.55 -88.54,-74.32 A 31.48,31.48 0 0 1 117.13,105 c -42.8,1.8 -53.8,46.4 -53.8,72.53 0,73.88 68.09,81.37 82.76,81.37 7.91,0 19.84,-2.3 27,-4.56 l 1.31,-0.44 a 128.34,128.34 0 0 0 66.6,-52.8 4,4 0 0 0 -5.32,-5.64 z" transform="translate(-4.63,-4.92)"/>
			<path id="pth2" style="opacity:0.35;isolation:isolate;fill:url(#radial-gradient)" class="cls-2" d="m 235.68,195.46 a 93.73,93.73 0 0 1 -10.54,4.71 101.87,101.87 0 0 1 -35.9,6.46 c -47.32,0 -88.54,-32.55 -88.54,-74.32 A 31.48,31.48 0 0 1 117.13,105 c -42.8,1.8 -53.8,46.4 -53.8,72.53 0,73.88 68.09,81.37 82.76,81.37 7.91,0 19.84,-2.3 27,-4.56 l 1.31,-0.44 a 128.34,128.34 0 0 0 66.6,-52.8 4,4 0 0 0 -5.32,-5.64 z" transform="translate(-4.63,-4.92)"/>
			<path id="pth3" style="fill:url(#linear-gradient-2)" class="cls-3" d="M 110.34,246.34 A 79.2,79.2 0 0 1 87.6,225 80.72,80.72 0 0 1 117.13,105 c 3.12,-1.47 8.45,-4.13 15.54,-4 a 32.35,32.35 0 0 1 25.69,13 31.88,31.88 0 0 1 6.36,18.66 c 0,-0.21 24.46,-79.6 -80,-79.6 -43.9,0 -80,41.66 -80,78.21 a 130.15,130.15 0 0 0 12.11,56 128,128 0 0 0 156.38,67.11 75.55,75.55 0 0 1 -62.78,-8 z" transform="translate(-4.63,-4.92)"/>
			<path id="pth4" style="opacity:0.41000001;isolation:isolate;fill:url(#radial-gradient-2)" class="cls-4" d="M 110.34,246.34 A 79.2,79.2 0 0 1 87.6,225 80.72,80.72 0 0 1 117.13,105 c 3.12,-1.47 8.45,-4.13 15.54,-4 a 32.35,32.35 0 0 1 25.69,13 31.88,31.88 0 0 1 6.36,18.66 c 0,-0.21 24.46,-79.6 -80,-79.6 -43.9,0 -80,41.66 -80,78.21 a 130.15,130.15 0 0 0 12.11,56 128,128 0 0 0 156.38,67.11 75.55,75.55 0 0 1 -62.78,-8 z" transform="translate(-4.63,-4.92)"/>
			<path id="pth5" style="fill:url(#radial-gradient-3)" class="cls-5" d="m 156.94,153.78 c -0.81,1.05 -3.3,2.5 -3.3,5.66 0,2.61 1.7,5.12 4.72,7.23 14.38,10 41.49,8.68 41.56,8.68 a 59.56,59.56 0 0 0 30.27,-8.35 61.38,61.38 0 0 0 30.43,-52.88 c 0.26,-22.41 -8,-37.31 -11.34,-43.91 C 228.09,28.76 182.35,4.92 132.61,4.92 a 128,128 0 0 0 -128,126.2 c 0.48,-36.54 36.8,-66.05 80,-66.05 3.5,0 23.46,0.34 42,10.07 16.34,8.58 24.9,18.94 30.85,29.21 6.18,10.67 7.28,24.15 7.28,29.52 0,5.37 -2.74,13.33 -7.8,19.91 z" transform="translate(-4.63,-4.92)"/>
			<path id="pth6" style="fill:url(#radial-gradient-4)" class="cls-6" d="m 156.94,153.78 c -0.81,1.05 -3.3,2.5 -3.3,5.66 0,2.61 1.7,5.12 4.72,7.23 14.38,10 41.49,8.68 41.56,8.68 a 59.56,59.56 0 0 0 30.27,-8.35 61.38,61.38 0 0 0 30.43,-52.88 c 0.26,-22.41 -8,-37.31 -11.34,-43.91 C 228.09,28.76 182.35,4.92 132.61,4.92 a 128,128 0 0 0 -128,126.2 c 0.48,-36.54 36.8,-66.05 80,-66.05 3.5,0 23.46,0.34 42,10.07 16.34,8.58 24.9,18.94 30.85,29.21 6.18,10.67 7.28,24.15 7.28,29.52 0,5.37 -2.74,13.33 -7.8,19.91 z" transform="translate(-4.63,-4.92)"/>
		</g>
	</g>
</svg>