<svg xmlns="http://www.w3.org/2000/svg" version="1.1" width="128" height="128" viewBox="0 0 128 128" id="knq">
	<g id="g1">
		<g id="g2" transform="matrix(2,0,0,2,-72.000024,-68.999999)">
			<path id="p1" d="M 65.88747,69.83317 V 42.00583 c 0,-1.02546 0.33405,-1.88001 1.00216,-2.56366 0.6681,-0.68364 1.53042,-1.02546 2.58696,-1.02546 1.05654,0 1.91109,0.31852 2.56366,0.95555 0.6681,0.63703 1.00216,1.51488 1.00216,2.63357 V 52.4003 L 84.78862,39.76846 c 0.82348,-0.90117 1.74795,-1.35175 2.77341,-1.35175 0.94778,0 1.77126,0.32628 2.47044,0.97885 0.71471,0.63703 1.07207,1.47605 1.07207,2.51705 0,0.59042 -0.18645,1.17307 -0.55934,1.74795 -0.3729,0.55934 -0.97108,1.25075 -1.79456,2.07423 l -9.01942,8.9728 11.02373,11.62969 c 0.63703,0.60595 1.12646,1.19637 1.46828,1.77125 0.35736,0.55934 0.53604,1.18084 0.53604,1.86448 0,1.08761 -0.35736,1.91886 -1.07208,2.49374 -0.71472,0.55934 -1.60034,0.83901 -2.65688,0.83901 -0.62149,0 -1.18861,-0.17091 -1.70134,-0.51273 -0.49719,-0.34182 -1.13422,-0.9167 -1.91109,-1.72464 L 73.04241,57.55092 v 12.28225 c 0,0.97885 -0.33406,1.80233 -1.00216,2.47044 -0.66811,0.6681 -1.52266,1.00215 -2.56366,1.00215 -1.041,0 -1.90332,-0.31851 -2.58696,-0.95554 -0.66811,-0.63703 -1.00216,-1.47605 -1.00216,-2.51705 z" style="fill:#666699;stroke-width:1.98877697999999992pt;fill-opacity:1"/>
			<path id="p2" d="m 48.35216,83.389857 4.58452,4.80281 7.4225,-5.021144 5.89436,2.619759 1.96478,8.604508 6.33096,-0.05815 1.74649,-8.828662 5.89435,-2.337457 7.42251,4.802851 3.49296,-4.802851 -8.42364,-7.949544 C 63.09136,95.024877 44.43377,64.50376 62.9789,51.73497 l -2e-5,-4.58451 -2.18308,1.09155 -6.7676,-4.30227 -4.67494,3.83913 4.23833,7.23072 -2.4014,5.89436 -8.27025,1.37382 -0.0255,6.26701 8.51409,2.1831 2.34682,5.730655 z" style="fill:#778899;fill-rule:evenodd;stroke:#778899;stroke-width:0.37499878;stroke-linecap:round;stroke-linejoin:round;stroke-dasharray:none;stroke-opacity:1;fill-opacity:1"/>
		</g>
	</g>
</svg>