<svg xmlns="http://www.w3.org/2000/svg" version="1.1" width="128" height="128" viewBox="0 0 128 128" id="lyx">
	<g id="g1" transform="translate(0,-924.3622)">
		<g id="g2" transform="matrix(0.941192,0,0,0.941192,3.5632621,58.406254)">
			<ellipse id="e1" style="opacity:1;fill:#333333;fill-opacity:1;stroke:#111111;stroke-width:0;stroke-miterlimit:4;stroke-dasharray:none;stroke-opacity:1" cx="64.212975" cy="988.06189" rx="63.514065" ry="63.426697"/>
			<g id="g3" style="fill:#ffffff;fill-opacity:1;stroke:none;stroke-width:1px;stroke-linecap:butt;stroke-linejoin:miter;stroke-opacity:1" transform="scale(0.70127771,1.4259686)">
				<path id="p1" style="fill:#ffffff" d="m 30.255007,667.15254 h 10.24805 v 31.99521 h 17.993979 v 7.74593 H 30.255007 Z"/>
				<path id="p2" style="fill:#ffffff" d="m 56.899938,677.08117 h 9.529355 l 8.012112,20.22991 6.814287,-20.22991 h 9.529356 l -12.537225,32.63405 q -1.8899,4.97762 -4.418639,6.94738 -2.502122,1.99637 -6.62796,1.99637 h -5.50999 v -6.2553 h 2.981251 q 2.422266,0 3.513617,-0.77193 1.117969,-0.77193 1.73019,-2.76831 l 0.266183,-0.82517 z"/>
				<path id="p3" style="fill:#ffffff" d="m 126.34711,688.73999 v 18.15369 h -9.58259 v -2.95464 -10.94012 q 0,-3.85966 -0.18633,-5.32366 -0.15971,-1.46401 -0.5856,-2.15609 -0.55899,-0.93164 -1.51725,-1.43739 -0.95826,-0.53236 -2.1827,-0.53236 -2.98125,0 -4.68482,2.31579 -1.70357,2.28918 -1.70357,6.36178 v 14.66669 h -9.529359 v -29.81251 h 9.529359 v 4.3654 q 2.15608,-2.60859 4.57835,-3.83304 2.42226,-1.25106 5.35028,-1.25106 5.16395,0 7.82578,3.16758 2.68845,3.16758 2.68845,9.20994 z"/>
				<path id="p4" style="fill:#ffffff" d="m 142.77061,691.64138 -10.7538,-14.56021 h 10.08834 l 6.0956,8.83728 6.17545,-8.83728 h 10.08834 l -10.7538,14.50698 11.28616,15.30553 h -10.08834 l -6.70781,-9.42289 -6.62796,9.42289 h -10.08834 z"/>
			</g>
		</g>
	</g>
</svg>