<svg xmlns="http://www.w3.org/2000/svg" version="1.1" width="128" height="128" viewBox="0 0 128 128" id="moz">
	<g id="g1">
		<g id="g2" transform="matrix(0.08684132,0,0,0.1,86.101116,73.7)">
			<path id="p01" d="m -628.37608,-559.60241 c -99.16912,65.65055 -254.6219,201.46899 -328.92836,280.61686 18.31605,2.55266 37.68547,-11.74907 58.35731,-14.48031 l 142.88855,-39.20459 c -59.34407,50.98706 -184.23505,140.86878 -220.39827,211.66132 44.60401,-16.07582 138.21204,-69.98901 184.74563,-74.41206 -40.63824,37.31379 -125.44518,108.09134 -152.01311,153.14061 3.20727,1.51643 0.98471,5.46302 1.47462,8.21058 34.95371,-20.07561 119.89766,-72.57412 158.42695,-76.13019 -39.65565,42.79288 -112.61251,125.1879 -128.58231,180.39454 34.43355,-23.48895 121.05562,-71.1352098 158.9747,-85.5931 -8.63388,21.7776502 -27.7837,37.95404 -40.23979,59.73743 -17.18008,30.13153 -57.85366,64.43055 -59.3724,100.22846 30.20823,-29.17422 67.66474,-54.9471 105.26547,-75.5126 -16.76441,36.19579 -47.61157,66.12946 -56.01051,109.20429 24.64613,-24.80716 71.39375,-37.72284 103.15818,-49.18985 l -3.82776,3.81203 c -2.74354,2.34768 -38.52186,28.68011 -62.89647,58.05355 21.67703,-1.39775 5.51724,-4.1103 33.24324,2.20277 l -0.52456,1.39937 c -1.89176,165.72854 313.18378,226.30984 506.27744,217.90954 40.71291,-78.82608 18.74421,-206.18521 123.89339,-260.93781 70.79092,-37.67414 78.79429,-58.23827 160.51279,-42.87665 44.1454,8.27808 140.7341,41.65543 186.9807,31.12645 43.1641,-24.96489 64.1329,-35.95754 102.343,-65.95021 36.9621,-56.1829 -294.6048,-238.24081 -26.5835,-2.10497 64.3012,13.76414 80.8943,11.72144 99.9555,-16.90002 8.5238,-23.1017 28.8408,-84.4676 47.4103,-124.45424 l 1.3022,-21.6198 c -18.0061,-54.20881 -13.6318,-146.95282 -22.7395,-160.30235 -59.4544,-82.44448 -274.3441,-95.35315 -371.5695,-203.82766 16.5635,-53.84656 -18.2145,-98.21467 -53.63549,-131.87773 -53.20897,-39.13564 -126.65462,-21.15517 -183.30262,-4.89864 -64.53564,-13.50132 -124.24813,-36.67377 -187.08227,-55.0244 -139.75346,-14.56785 -277.4984,87.59989 -277.4984,87.59989 z" style="display:inline;fill:#000000;fill-opacity:1;fill-rule:nonzero;stroke:none;stroke-width:32.66285324;stroke-miterlimit:4"/>
			<path id="p02" d="m -218.76549,-513.74326 -46.32812,17.66807 c -5.56046,-11.06986 8.30829,-21.58448 13.82831,-31.91479 3.95695,-7.56315 15.3252,-11.81343 18.00385,-20.93533 -59.89996,-9.65689 -116.51492,-39.02927 -180.39773,-28.91086 -68.30738,10.78843 -108.08699,36.89037 -147.43005,68.03719 -19.85715,10.87408 -29.42923,26.30026 -48.73243,39.30978 -23.57845,21.23596 -33.83419,63.56333 -39.71284,71.63904 34.20958,-14.80245 68.6219,-12.60198 91.86042,-20.42771 -87.38991,54.61896 -102.65036,161.30949 -78.46722,250.30319 l -1.42602,1.94853 c -29.36146,-17.54498 -37.87272,-49.92801 -45.99261,-78.24047 -5.78652,18.60958 -6.61924,42.2469 -10.55858,63.02882 -9.37445,-8.7635 -14.54392,-21.30266 -19.78376,-32.46873 -9.81735,94.16932 36.0965,170.86671 92.36541,245.20334 37.68784,49.83709 -35.89533,82.82606 -18.57035,145.38911 l 88.50913,-4.95971 c 11.40037,-4.26478 7.84759,-2.73831 7.84759,-2.73831 -22.17464,44.37759 -139.5703,77.99921 -162.12874,103.37181 6.30279,5.21343 109.51688,-26.57643 147.27639,-32.99226 l -111.08139,62.78158 c 11.03871,3.41003 -0.35381,40.66648 23.89646,37.13891 153.614,45.6002 326.6454,108.8865 353.60305,42.8416 22.49471,-41.99551 55.7691,-113.12107 50.63182,-153.40621 l 23.84127,-36.22151 c -31.80292,7.90131 -63.86052,20.7781 -88.4509,46.96509 -7.35876,-15.4264 4.20409,-33.93698 9.94204,-48.53196 16.48951,-29.6016 49.4481,-45.26478 75.54851,-62.08923 l -54.82313,-24.27108 C -303.1342,56.32266 -355.61837,17.22585 -357.02547,-38.52322 l 12.97678,4.42103 c 49.96871,56.74775 121.0171,102.80038 192.17231,106.09513 -48.43177,-4.15026 202.27433,-33.68962 187.53723,-54.92165 26.6534,38.32812 107.1968,54.43667 166.0544,74.56662 27.0318,-9.72825 38.8298,-6.95784 59.131,-25.25933 -8.6476,-9.3887 -22.0259,-17.07087 -34.9166,-21.94084 -77.3056,-21.34533 -259.88142,-58.90942 -299.22823,-134.93091 -7.40874,32.38838 22.55668,59.10159 56.07682,86.7180102 L -89.35241,-13.92548 c -126.87648,-58.73097 -111.54299,-159.45658 -83.67186,-255.20156 l 9.64443,79.92101 24.86834,43.57791 c 47.28027,-85.55281 22.53959,-74.92428 -72.43712,-190.29217 l 71.62777,27.35842 c 32.70249,26.30913 86.47047,71.79209 134.12771,103.37337 128.35819,84.06356 191.89919,139.77302 354.80959,151.19208 l 50.2525,11.14849 c 35.5746,-93.21021 -33.3913,-179.27449 -12.5561,-48.99248 -26.5828,-32.31477 -52.5942,-62.21774 -47.1815,-79.08171 -9.3223,-14.08997 38.5994,-49.29639 34.5248,-65.32432 -47.0458,-47.82785 -250.4156,-73.499 -360.85048,-183.08633 -3.21315,18.32629 51.08568,65.76528 60.48388,82.07851 -109.53683,1.07914 -174.08265,-32.55726 -185.78245,-68.05922 -2.414,-5.91215 0.5775,-32.21992 12.25604,-40.68136 15.80629,-8.25642 31.20003,-20.79511 49.38572,-22.47709 -28.46968,-23.23141 -64.4952,7.89882 -89.69577,21.95299 -19.56978,33.61568 10.91879,71.08025 14.76081,98.41833 -26.69282,-6.7435 -62.75595,-53.77222 -67.18105,-83.29591 -40.59667,4.4496 -77.85292,-0.80279 -109.06014,-24.24569 27.53789,-6.04029 55.9889,-16.34042 84.81073,-21.55062 75.45321,-16.46366 154.70028,-94.01847 230.90916,-33.40241 l -35.4668,-45.10155 c -71.12948,-7.48871 -132.9641,25.53048 -197.99097,41.95355 z" style="display:inline;fill:#ff1a00;fill-rule:nonzero;stroke:none;stroke-width:32.66285324;stroke-miterlimit:4"/>
			<path id="p03" style="display:inline;fill-rule:nonzero;stroke:none;stroke-width:32.66285324;stroke-miterlimit:4" d="m -467.62247,-479.60181 c -20.25847,23.63302 -40.54906,47.28051 -45.27319,79.05144 l 4.52822,5.32896 c 13.53269,-16.28307 33.81578,-29.92039 52.49506,-39.38352 0.0208,33.48305 21.61868,66.30818 50.48311,82.44969 l 4.84703,0.33937 c -6.11562,-35.3647 -2.03677,-78.59006 11.79186,-110.50484 22.01785,-18.51726 50.98109,-25.87422 69.60528,-45.35088 -46.63258,-10.9059 -91.01217,-1.66993 -130.895,13.5088 l -17.5823,14.55962 z"/>
			<path id="p04" d="m 0.6064,-381.21272 c -19.17378,-26.49126 -46.38669,-47.74389 -80.97192,-44.72159 0.34609,32.69057 44.91842,51.74723 80.97192,44.72159 z" style="display:inline;fill:#ffffff;fill-rule:nonzero;stroke:none;stroke-width:32.66285324;stroke-miterlimit:4"/>
			<path id="p05" style="display:inline;fill-rule:nonzero;stroke:none;stroke-width:32.66285324;stroke-miterlimit:4" d="m -276.02991,-376.988 c -30.0309,2.29449 -58.16482,7.63873 -86.4668,15.03116 12.48751,11.50587 28.27204,15.3808 40.10196,26.1549 -37.04147,13.97036 -75.84365,22.85729 -108.23129,51.41257 l 6.71329,3.98818 c 59.89679,-12.47023 130.72447,-11.41218 193.21328,1.96326 l 3.60825,-2.60886 -36.2041,-65.84251 55.67415,-12.04855 c -29.54017,-27.61373 -63.33625,-54.77519 -102.21479,-66.59383 5.93575,16.07904 22.29637,32.13363 33.80522,48.55992 l 8.3e-4,-0.0161 z"/>
			<path id="p06" style="display:inline;fill-rule:nonzero;stroke:none;stroke-width:32.66285324;stroke-miterlimit:4" d="m -58.52307,-310.98673 c 29.53783,5.47047 62.194,6.18387 90.35622,0.90584 -46.5123,-23.72851 -105.91467,-19.05562 -142.94721,-60.72604 6.99712,21.87014 22.15351,57.10381 52.59099,59.8202 z"/>
			<path id="p07" style="display:inline;fill-rule:nonzero;stroke:none;stroke-width:32.66285324;stroke-miterlimit:4" d="m -500.61151,-143.48874 c 11.58489,37.13185 -27.40674,82.37387 3.82163,116.49259 26.58837,30.9705802 59.06957,56.66853 90.31405,79.38452 l -2.75469,-11.58365 c -27.83621,-32.5114798 -53.4143,-68.40083 -66.27996,-107.04297 32.61391,11.40195 67.08653,27.21223 104.34113,32.49691 -41.95686,-62.68436 -118.86376,-122.62512 -89.8918,-208.41396 1.58017,-14.16983 20.33216,-25.07072 15.60515,-38.23409 -43.82246,33.4985 -62.1826,82.95621 -55.15551,136.90065 z"/>
			<path id="p08" d="m 74.70075,-95.06722 c -4.0978,7.23163 -2.6173,17.80747 -3.8945,26.69672 9.0828,-4.64813 15.5371,-14.71778 24.5826,-18.63901 -2.6324,-5.3731 -14.2852,-5.39823 -20.6875,-8.05767 z" style="display:inline;fill:#ffffff;fill-rule:nonzero;stroke:none;stroke-width:32.66285324;stroke-miterlimit:4"/>
			<path id="p09" d="m 127.83175,-39.62404 18.625,-18.26171 c -4.1275,-3.28284 -9.629,-8.11303 -17.1102,-6.35957 z" style="display:inline;fill:#ffffff;fill-rule:nonzero;stroke:none;stroke-width:32.66285324;stroke-miterlimit:4"/>
			<path id="p10" d="m 171.77145,-19.93717 c 4.3744,0.31404 14.4267,-20.17134 18.8023,-19.87207 l -14.7779,-8.72908 c -5.1005,-0.32309 -2.322,24.98295 -4.0244,28.60115 z" style="display:inline;fill:#ffffff;fill-rule:nonzero;stroke:none;stroke-width:32.66285324;stroke-miterlimit:4"/>
			<path id="p11" d="m 217.16035,-10.65295 -4.736,11.6681802 c 10.2767,-0.82602 15.527,-20.6793302 21.6883,-26.2615202 -17.0721,-3.40957 -17.7147,-8.12518 -16.9523,14.59334 z" style="display:inline;fill:#ffffff;fill-rule:nonzero;stroke:none;stroke-width:32.66285324;stroke-miterlimit:4"/>
			<path id="p12" d="m 265.84705,16.25359 18.3904,-31.55692 -17.1086,-3.9297 z" style="display:inline;fill:#ffffff;fill-rule:nonzero;stroke:none;stroke-width:32.66285324;stroke-miterlimit:4"/>
			<path id="p13" d="m 312.81245,10.8008 21.073,-16.1057398 C 312.67495,-13.63364 311.47615,-16.74317 312.81245,10.8008 Z" style="display:inline;fill:#ffffff;fill-rule:nonzero;stroke:none;stroke-width:32.66285324;stroke-miterlimit:4"/>
			<path id="p14" d="m 363.62795,-1.9778698 c 3.0984,9.18852 0.228,20.2277298 -0.3946,29.9133798 4.9673,-9.40422 16.3677,-16.13111 17.7605,-27.2819198 -4.8456,-4.06627 -11.5409,-2.23836 -17.3646,-2.63139 z" style="display:inline;fill:#ffffff;fill-rule:nonzero;stroke:none;stroke-width:32.66285324;stroke-miterlimit:4"/>
			<path id="p15" style="display:inline;fill-rule:nonzero;stroke:none;stroke-width:32.66285324;stroke-miterlimit:4" d="m -269.32906,350.15767 c 6.71129,12.65417 7.02729,28.05957 13.73858,40.71367 15.90896,-34.2978 14.10398,-75.50589 -6.55244,-106.35295 -35.8933,-15.82162 -70.55593,-32.24144 -101.48769,-57.35424 12.85181,43.84108 54.91226,92.17928 94.30155,122.99352 z"/>
			<path id="p16" style="display:inline;fill-rule:nonzero;stroke:none;stroke-width:32.66285324;stroke-miterlimit:4" d="m -48.41894,-377.47395 c -11.721,-3.04153 -18.56569,-16.17276 -15.36191,-29.38088 3.27013,-13.25317 15.37935,-21.49715 27.10035,-18.45549 11.72232,3.00942 18.56486,16.1889 15.36159,29.38086 -3.26765,13.2047 -15.40899,21.46316 -27.10003,18.45551 z"/>
			<path id="p17" style="display:inline;fill-rule:nonzero;stroke:none;stroke-width:32.66285324;stroke-miterlimit:4" d="m -282.14312,437.83764 34.82253,-28.3648 c -33.87115,-21.9982 -91.20828,-61.45116 -122.21196,-90.71455 24.3483,50.64485 25.09752,106.69625 87.38943,119.07935 z"/>
			<path id="p18" d="m -779.50894,211.37574 c 141.874,186.3612 334.81628,260.2638 570,240 l -20,-43.5 c -209.17687,7.7531 -383.30981,-44.1104 -502,-216 z" style="display:inline;fill:#000000;fill-opacity:1;fill-rule:evenodd;stroke:none;stroke-width:1px;stroke-linecap:butt;stroke-linejoin:miter;stroke-opacity:1"/>
		</g>
	</g>
</svg>