<svg xmlns="http://www.w3.org/2000/svg" version="1.1" width="128" height="128" viewBox="0 0 128 128" id="opr">
	<g id="g1" transform="matrix(0.8,0,0,0.8,-3.9621113,19.2856)">
		<path id="p1" d="m 118.637,119.02 c -6.012,2.24 -12.722,3.525 -20.114,3.826 -7.393,0.299 -15.332,-0.383 -23.757,-2.016 -9.135,-1.742 -17.478,-4.176 -25,-7.359 C 42.264,110.307 35.165,106.242 28.45,101.295 21.726,96.35 16.698,91.512 13.432,86.756 10.165,82 8.492,77.074 8.376,71.998 c -0.191,-4.756 1.161,-8.93 4.1,-12.504 2.944,-3.566 7.42,-6.469 13.392,-8.69 5.971,-2.228 12.674,-3.492 20.094,-3.772 7.414,-0.28 15.4,0.403 23.906,2.057 9.054,1.715 17.341,4.147 24.809,7.316 7.454,3.165 14.594,7.256 21.379,12.264 6.799,4.988 11.861,9.859 15.134,14.58 3.273,4.729 4.946,9.627 5.07,14.67 0.191,4.693 -1.169,8.848 -4.134,12.408 -2.96,3.56 -7.483,6.45 -13.489,8.693 l 0,0 z m -5.992,-4.409 c 6.751,-2.52 8.65,-5.889 6.423,-10.215 C 116.698,99.765 107.249,91.191 89.874,78.414 72.505,65.637 60.131,58.162 52.547,55.463 45.455,52.942 38.746,52.785 31.996,55.292 c -6.799,2.542 -8.725,5.938 -6.471,10.303 2.398,4.682 11.82,13.242 29.106,25.949 17.28,12.709 29.646,20.17 37.298,22.889 7.154,2.544 13.918,2.713 20.716,0.178 l 0,0 z" style="clip-rule:evenodd;fill:#9a9a9a;fill-rule:evenodd"/>
		<path id="p2" d="m 100.438,125.461 c -8.404,0 -16.248,-1.646 -23.483,-4.967 C 69.726,117.166 63.229,112.24 57.469,105.777 51.176,98.841 46.516,91.326 43.551,83.23 40.585,75.154 39.137,66.06 39.137,55.982 39.137,45.904 40.585,36.817 43.551,28.74 46.516,20.651 51.176,13.128 57.469,6.193 63.29,-0.324 69.801,-5.298 77.043,-8.66 c 7.242,-3.348 15.051,-5.015 23.395,-5.015 8.342,0 16.158,1.667 23.388,5.015 7.235,3.361 13.76,8.335 19.567,14.853 6.238,6.881 10.857,14.356 13.788,22.411 2.938,8.042 4.366,17.184 4.366,27.378 0,10.193 -1.429,19.342 -4.366,27.377 -2.931,8.063 -7.55,15.531 -13.781,22.418 -5.767,6.463 -12.244,11.389 -19.486,14.717 -7.243,3.32 -15.073,4.967 -23.476,4.967 l 0,0 z m 0,-8.984 c 9.441,0 15.455,-3.607 18.844,-10.604 3.635,-7.469 5.691,-23.832 5.691,-49.891 0,-26.045 -2.057,-42.416 -5.691,-49.897 -3.389,-6.983 -9.402,-10.591 -18.844,-10.591 -9.497,0 -15.564,3.642 -18.995,10.693 -3.669,7.537 -5.725,23.873 -5.725,49.795 0,25.93 2.056,42.271 5.725,49.809 3.43,7.043 9.497,10.686 18.995,10.686 l 0,0 z" style="clip-rule:evenodd;fill:#cc0000;fill-rule:evenodd"/>
	</g>
</svg>