<svg xmlns="http://www.w3.org/2000/svg" version="1.1" width="128" height="128" viewBox="0 0 128 128" id="smk">
	<g id="g1" transform="matrix(0.98,0,0,0.98,0.59618091,1.2343311)">
		<path id="p01" style="fill:#06067d" d="M 41.73,4.88 C 54.54,0.09 68.85,-0.36 82.04,3.1 c 16.04,4.27 29.54,15.74 37.86,29.92 5.02,8.6 7.4,18.5 8.1,28.36 l 0,5.99 c -0.95,11.53 -4.29,23.04 -11.17,32.47 -11.42,16.35 -30.59,27.71 -50.81,27.35 -14.65,0.69 -29.41,-4.26 -40.71,-13.62 0.42,-0.3 1.27,-0.92 1.69,-1.22 2.23,1.63 4.45,3.28 6.82,4.7 7.78,4.66 16.66,7.6 25.74,8.1 6.46,0.15 13.02,0.26 19.34,-1.35 16.3,-3.7 30.26,-15 38.79,-29.17 4.13,-6.8 6.68,-14.52 7.6,-22.4 0.31,-2.72 0.53,-5.46 0.59,-8.2 -0.2,-3.19 -0.45,-6.39 -0.76,-9.57 -6.8,0.9 -13.34,3.11 -19.55,5.98 1.09,-6.46 0.52,-13.18 -1.4,-19.43 -1.23,-4.8 -5.3,-8.58 -10.05,-9.85 3.2,-3.23 8.27,-8.12 4.9,-12.88 1.03,-0.72 2.07,-1.45 3.1,-2.17 C 96.89,11.72 90.87,8.15 84.32,6.15 68.32,1.09 50.09,1.99 35.28,10.2 24.78,15.87 16.48,25.03 10.56,35.28 6.78,41.82 5.16,49.29 4.11,56.69 3.73,59.01 3.59,61.35 3.57,63.7 c 0.03,2.42 0.15,4.84 0.37,7.25 1.17,14 7.96,27.21 18.04,36.9 -0.59,0.39 -1.19,0.77 -1.79,1.14 C 11.94,100.86 5.72,90.51 3.12,79.17 -0.3,64.3 1.3,48.1 8.52,34.56 15.82,21.33 27.51,10.31 41.73,4.88 Z"/>
		<path id="p02" style="fill:#272793" d="M 35.28,10.2 C 50.09,1.99 68.32,1.09 84.32,6.15 73.34,11.57 61.73,15.46 50.63,20.58 c -5.42,2.33 -11.17,3.85 -16.42,6.58 -4.54,2.37 -9.49,3.78 -14.13,5.92 -2.81,1.2 -5.56,2.68 -8.56,3.34 C 11.28,36.14 10.8,35.57 10.56,35.28 16.48,25.03 24.78,15.87 35.28,10.2 Z"/>
		<path id="p03" style="fill:#1b1b8b" d="m 84.32,6.15 c 6.55,2 12.57,5.57 17.8,9.96 -1.03,0.72 -2.07,1.45 -3.1,2.17 -4.57,-4.49 -11.67,-2.59 -16.74,-0.04 -5.52,2.69 -8.69,8.26 -11.25,13.57 -1.47,0.08 -2.99,0.11 -4.34,0.78 -12.55,5.67 -25.48,10.48 -38.15,15.85 -3.7,1.76 -7.64,2.9 -11.52,4.16 1.06,0.39 2.14,0.76 3.22,1.11 -2.13,0.3 -4.25,0.7 -6.38,1.08 -3.29,0.42 -6.54,1.07 -9.75,1.9 1.05,-7.4 2.67,-14.87 6.45,-21.41 0.24,0.29 0.72,0.86 0.96,1.14 3,-0.66 5.75,-2.14 8.56,-3.34 4.64,-2.14 9.59,-3.55 14.13,-5.92 5.25,-2.73 11,-4.25 16.42,-6.58 11.1,-5.12 22.71,-9.01 33.69,-14.43 z"/>
		<path id="p04" style="fill:#2388ff" d="m 76.64,25.58 c 3.71,-5.11 10,-8.31 16.34,-7.98 1.94,0 3.94,0.86 5.07,2.49 1.08,4.18 -2.83,7.35 -5.3,10.17 0.18,0.66 0.55,1.98 0.74,2.64 -1.15,-0.04 -2.29,-0.2 -3.42,-0.4 -0.35,-2.89 1.75,-4.79 3.42,-6.81 1.29,-1.49 2.26,-3.22 2.64,-5.17 l -0.12,-0.07 c -2.86,-2.19 -6.82,-1.03 -9.92,0.01 -6.06,2.08 -9.63,7.96 -12.06,13.54 -3.42,7.79 -4.61,16.28 -7.69,24.18 -1.92,2.4 -2.76,5.41 -4.13,8.12 -3.46,7.19 -7.41,14.23 -12.52,20.4 -2.42,3.18 -5.35,5.95 -7.65,9.23 4.24,-1.84 7.99,-4.59 11.98,-6.89 7.64,-4.48 15.03,-9.61 20.78,-16.43 l 0.34,0.97 c -1.06,2.13 -2.54,4.11 -2.89,6.52 1.24,0.62 2.47,1.23 3.72,1.84 -1.19,0.89 -2.39,1.77 -3.59,2.64 0.23,-2.35 -0.06,-4.67 -1.19,-6.76 -3.56,4.06 -8.31,6.7 -12.81,9.56 -1.39,0.88 -1.49,2.77 -2.17,4.12 -1.2,0.09 -2.39,-0.03 -3.58,-0.1 -1.01,1.03 -2.03,2.05 -3.08,3.04 -3.39,-0.07 -5.6,2.92 -8.42,4.34 -0.81,0.62 -1.48,1.4 -2.16,2.16 -10.99,8.8 -22.77,18.58 -37.24,20.28 l 0.85,-0.79 C 23.95,112.1 41.24,95.64 53.82,76.78 59.9,67.62 64.74,57.58 67.61,46.95 69.65,39.49 72.09,31.93 76.64,25.58 Z"/>
		<path id="p05" style="fill:#ffffff" d="m 86.09,20.46 c 3.1,-1.04 7.06,-2.2 9.92,-0.01 -3.59,0.52 -7.39,0.18 -10.71,1.89 -4.73,2.28 -7.8,6.94 -9.74,11.67 -1.96,4.89 -4.57,9.67 -5.29,14.96 -1.15,3.76 -2.99,7.28 -3.87,11.12 -0.02,-0.47 -0.04,-1.43 -0.06,-1.91 3.08,-7.9 4.27,-16.39 7.69,-24.18 2.43,-5.58 6,-11.46 12.06,-13.54 z"/>
		<path id="p06" style="fill:#acd5ff" d="m 96.01,20.45 0.12,0.07 c -0.38,1.95 -1.35,3.68 -2.64,5.17 -6.65,1.15 -11.34,6.89 -17.93,8.32 1.94,-4.73 5.01,-9.39 9.74,-11.67 3.32,-1.71 7.12,-1.37 10.71,-1.89 z"/>
		<path id="p07" style="fill:#80beff" d="m 75.56,34.01 c 6.59,-1.43 11.28,-7.17 17.93,-8.32 -1.67,2.02 -3.77,3.92 -3.42,6.81 -1.65,-0.2 -3.3,-0.12 -4.95,-0.04 -0.27,3.36 -0.11,6.76 -0.68,10.09 -4.55,2.47 -8.8,6.08 -14.17,6.42 0.72,-5.29 3.33,-10.07 5.29,-14.96 z"/>
		<path id="p08" style="fill:#0e0e82" d="m 66.69,32.59 c 1.35,-0.67 2.87,-0.7 4.34,-0.78 -3.73,7.71 -4.93,16.3 -8.26,24.16 -2.89,0.47 -5.62,1.54 -8.36,2.54 C 43.48,54.59 31.84,52.86 20.24,53.71 19.16,53.36 18.08,52.99 17.02,52.6 20.9,51.34 24.84,50.2 28.54,48.44 41.21,43.07 54.14,38.26 66.69,32.59 Z"/>
		<path id="p09" style="fill:#4da1ff" d="m 85.12,32.46 c 1.65,-0.08 3.3,-0.16 4.95,0.04 1.13,0.2 2.27,0.36 3.42,0.4 5.08,0.54 8.53,5.42 9.51,10.11 2.9,11.71 1.54,25.19 -6.28,34.78 -7.9,9.76 -19.89,14.98 -31.7,18.3 -8.54,2.28 -17.24,4.01 -26.05,4.85 0.68,-0.76 1.35,-1.54 2.16,-2.16 0.37,0.2 1.12,0.58 1.49,0.77 8.42,-1.15 16.72,-3.06 24.92,-5.29 0.39,-0.12 1.16,-0.36 1.55,-0.48 1.52,-0.49 3.03,-1.02 4.52,-1.59 0.98,-0.41 1.97,-0.83 2.93,-1.28 1.31,-0.61 2.6,-1.23 3.89,-1.87 0.92,-0.47 1.83,-0.97 2.74,-1.47 1.83,-1.02 3.66,-2.07 5.3,-3.39 0.69,-0.56 1.38,-1.14 2.06,-1.73 2.39,-2.18 4.88,-4.36 6.57,-7.16 l 0.28,-0.44 c 2.14,-3.39 4.18,-6.98 4.84,-10.99 0.03,-0.22 0.1,-0.67 0.13,-0.89 1.06,-6.4 1.42,-13.13 -0.36,-19.44 -0.06,-0.22 -0.17,-0.65 -0.23,-0.87 -0.6,-3.61 -3.52,-6.18 -6.4,-8.1 -3.16,-0.32 -6.4,0.01 -9.58,0.11 2.72,1.09 5.65,0.28 8.45,0.75 0.08,0.44 0.24,1.32 0.31,1.76 -2.41,-0.26 -4.87,-0.91 -7.28,-0.33 -0.14,0.57 -0.42,1.72 -0.56,2.3 -0.71,4.59 -0.36,9.31 -1.58,13.83 -0.76,3.33 -2.35,6.49 -2.5,9.95 -0.06,2.93 0.73,5.77 1.26,8.63 1.43,-0.03 2.85,-0.08 4.28,-0.14 -1.3,1.6 -2.53,3.25 -3.94,4.75 -1.27,-2.62 -2.26,-5.84 -5.1,-7.18 -0.51,2.26 -0.62,4.58 -0.43,6.89 1.12,0.73 2.23,1.46 3.36,2.18 -1.33,1.12 -2.65,2.25 -4.05,3.29 -0.68,-2.68 -1.6,-5.3 -2.86,-7.77 L 74.8,72.61 c 2.34,-3.24 4.46,-6.64 6.13,-10.27 -6.82,4.32 -13.67,8.71 -20.97,12.16 1.63,-5.04 5.25,-9.2 6.44,-14.41 0.88,-3.84 2.72,-7.36 3.87,-11.12 5.37,-0.34 9.62,-3.95 14.17,-6.42 0.57,-3.33 0.41,-6.73 0.68,-10.09 z"/>
		<path id="p10" style="fill:#c8e0f9" d="m 85.78,34.67 c 3.18,-0.1 6.42,-0.43 9.58,-0.11 2.88,1.92 5.8,4.49 6.4,8.1 -2.04,-0.05 -4.65,0.5 -6.03,-1.44 -0.66,-1.26 -0.9,-2.67 -1.19,-4.04 -0.07,-0.44 -0.23,-1.32 -0.31,-1.76 -2.8,-0.47 -5.73,0.34 -8.45,-0.75 z"/>
		<path id="p11" style="fill:#88bef9" d="m 87.26,36.85 c 2.41,-0.58 4.87,0.07 7.28,0.33 0.29,1.37 0.53,2.78 1.19,4.04 1.38,1.94 3.99,1.39 6.03,1.44 0.06,0.22 0.17,0.65 0.23,0.87 -2.12,-0.08 -4.24,-0.12 -6.36,-0.14 -1.24,4.68 3.11,7.4 6.53,9.42 -2.22,-0.48 -4.43,-1.01 -6.65,-1.45 -0.07,1.63 -0.1,3.25 -0.09,4.87 1.89,2.65 4.41,4.73 6.93,6.74 -0.03,0.22 -0.1,0.67 -0.13,0.89 -2.58,-1.71 -5.16,-4.01 -8.39,-4.16 -1.72,5.39 2.35,10.12 3.55,15.15 l -0.28,0.44 c -2.01,-2.37 -4.09,-4.68 -6.32,-6.86 -0.67,0.73 -1.32,1.47 -1.97,2.22 l -0.65,0.77 c -1.43,0.06 -2.85,0.11 -4.28,0.14 -0.53,-2.86 -1.32,-5.7 -1.26,-8.63 3.15,0.96 5.68,3.07 8.16,5.13 0.26,-1.09 0.52,-2.18 0.76,-3.27 -4.2,0.22 -8.04,-4.48 -5.72,-8.37 3.12,0.61 6.07,1.81 9.13,2.66 -0.72,-3.04 -4.33,-2.9 -6.42,-4.54 -1.74,-0.82 -1.2,-3.03 -1.56,-4.56 3.11,0.02 6.16,0.7 9.25,1.01 -1.71,-3.35 -6.27,-2.12 -8.65,-4.64 -0.23,-0.99 -0.4,-2 -0.51,-3.02 C 89.84,43.1 92.63,43.1 95.41,43 95.04,40.72 92.57,41.6 90.96,41.23 89.3,41.19 88,40.03 86.7,39.15 c 0.14,-0.58 0.42,-1.73 0.56,-2.3 z"/>
		<path id="p12" style="fill:#50a0f8" d="m 85.12,52.98 c 1.22,-4.52 0.87,-9.24 1.58,-13.83 1.3,0.88 2.6,2.04 4.26,2.08 1.61,0.37 4.08,-0.51 4.45,1.77 -2.78,0.1 -5.57,0.1 -8.35,0.33 0.11,1.02 0.28,2.03 0.51,3.02 2.38,2.52 6.94,1.29 8.65,4.64 -3.09,-0.31 -6.14,-0.99 -9.25,-1.01 0.36,1.53 -0.18,3.74 1.56,4.56 2.09,1.64 5.7,1.5 6.42,4.54 -3.06,-0.85 -6.01,-2.05 -9.13,-2.66 -2.32,3.89 1.52,8.59 5.72,8.37 -0.24,1.09 -0.5,2.18 -0.76,3.27 -2.48,-2.06 -5.01,-4.17 -8.16,-5.13 0.15,-3.46 1.74,-6.62 2.5,-9.95 z"/>
		<path id="p13" style="fill:#c5def9" d="m 102.16,52.81 c -3.42,-2.02 -7.77,-4.74 -6.53,-9.42 2.12,0.02 4.24,0.06 6.36,0.14 1.78,6.31 1.42,13.04 0.36,19.44 -2.52,-2.01 -5.04,-4.09 -6.93,-6.74 -0.01,-1.62 0.02,-3.24 0.09,-4.87 2.22,0.44 4.43,0.97 6.65,1.45 z"/>
		<path id="p14" style="fill:#5454b7" d="m 13.86,54.79 c 2.13,-0.38 4.25,-0.78 6.38,-1.08 11.6,-0.85 23.24,0.88 34.17,4.8 l -0.61,0.2 C 46.65,61.01 38.77,60.66 31.65,58.4 25.97,56.24 19.99,54.63 13.86,54.79 Z"/>
		<path id="p15" style="fill:#8788fe" d="m 4.11,56.69 c 3.21,-0.83 6.46,-1.48 9.75,-1.9 6.13,-0.16 12.11,1.45 17.79,3.61 7.12,2.26 15,2.61 22.15,0.31 2.39,0.39 4.69,1.18 6.99,1.92 -2.07,4.47 -4.41,8.83 -7.01,13.02 C 46.65,72.42 39.66,70.56 32.87,68.05 23.62,64.33 13.48,63.16 3.57,63.7 3.59,61.35 3.73,59.01 4.11,56.69 Z"/>
		<path id="p16" style="fill:#8b8cfe" d="m 105.57,60.44 c 6.21,-2.87 12.75,-5.08 19.55,-5.98 0.31,3.18 0.56,6.38 0.76,9.57 -6.95,-0.57 -13.98,-0.69 -20.9,0.22 0.25,-1.26 0.44,-2.54 0.59,-3.81 z"/>
		<path id="p17" style="fill:#3f3fab" d="m 54.41,58.51 c 2.74,-1 5.47,-2.07 8.36,-2.54 -0.63,1.56 -1.27,3.12 -1.98,4.66 -2.3,-0.74 -4.6,-1.53 -6.99,-1.92 l 0.61,-0.2 z"/>
		<path id="p18" style="fill:#6eb4ff" d="m 62.21,66.3 c 1.37,-2.71 2.21,-5.72 4.13,-8.12 0.02,0.48 0.04,1.44 0.06,1.91 -1.19,5.21 -4.81,9.37 -6.44,14.41 7.3,-3.45 14.15,-7.84 20.97,-12.16 -1.67,3.63 -3.79,7.03 -6.13,10.27 -5.75,6.82 -13.14,11.95 -20.78,16.43 -3.99,2.3 -7.74,5.05 -11.98,6.89 2.3,-3.28 5.23,-6.05 7.65,-9.23 5.11,-6.17 9.06,-13.21 12.52,-20.4 z"/>
		<path id="p19" style="fill:#c2ddf9" d="m 93.83,59.7 c 3.23,0.15 5.81,2.45 8.39,4.16 -0.66,4.01 -2.7,7.6 -4.84,10.99 -1.2,-5.03 -5.27,-9.76 -3.55,-15.15 z"/>
		<path id="p20" style="fill:#595afd" d="m 3.57,63.7 c 9.91,-0.54 20.05,0.63 29.3,4.35 -5.81,1.87 -11.62,4.26 -17.83,4.23 C 11.29,72.42 7.61,71.55 3.94,70.95 3.72,68.54 3.6,66.12 3.57,63.7 Z"/>
		<path id="p21" style="fill:#5252fe" d="m 104.98,64.25 c 6.92,-0.91 13.95,-0.79 20.9,-0.22 -0.06,2.74 -0.28,5.48 -0.59,8.2 -7.22,-0.92 -13.76,-4.33 -20.88,-5.65 0.14,-0.58 0.42,-1.75 0.57,-2.33 z"/>
		<path id="p22" style="fill:#1d1de3" d="m 71.34,95.91 c 14.31,-4.67 28.67,-14.13 33.07,-29.33 7.12,1.32 13.66,4.73 20.88,5.65 -0.92,7.88 -3.47,15.6 -7.6,22.4 -4.84,-0.29 -8.42,3.49 -12.41,5.61 -8.51,4.73 -16.86,9.75 -25.29,14.63 -6.72,3.6 -13.11,7.94 -20.43,10.28 -9.08,-0.5 -17.96,-3.44 -25.74,-8.1 11.01,-4.38 20.36,-11.9 30.98,-17.03 2.38,-1.05 5.4,-1.4 6.54,-4.11 z"/>
		<path id="p23" style="fill:#0202de" d="m 32.87,68.05 c 6.79,2.51 13.78,4.37 20.91,5.6 C 45.32,86.8 34.7,98.68 21.98,107.85 11.9,98.16 5.11,84.95 3.94,70.95 c 3.67,0.6 7.35,1.47 11.1,1.33 6.21,0.03 12.02,-2.36 17.83,-4.23 z"/>
		<path id="p24" style="fill:#7cb9f9" d="m 79.12,68.99 c 2.84,1.34 3.83,4.56 5.1,7.18 -0.16,0.14 -0.47,0.43 -0.63,0.58 l -0.87,0.75 -0.67,0.56 c -1.13,-0.72 -2.24,-1.45 -3.36,-2.18 -0.19,-2.31 -0.08,-4.63 0.43,-6.89 z"/>
		<path id="p25" style="fill:#bfdbf9" d="m 88.81,70.65 c 0.65,-0.75 1.3,-1.49 1.97,-2.22 2.23,2.18 4.31,4.49 6.32,6.86 -1.69,2.8 -4.18,4.98 -6.57,7.16 -0.13,-3.99 -0.85,-7.92 -1.72,-11.8 z"/>
		<path id="p26" style="fill:#a4cbf6" d="m 88.16,71.42 0.65,-0.77 c 0.87,3.88 1.59,7.81 1.72,11.8 -0.68,0.59 -1.37,1.17 -2.06,1.73 -1.38,-2.63 -2.98,-5.15 -4.88,-7.43 0.16,-0.15 0.47,-0.44 0.63,-0.58 1.41,-1.5 2.64,-3.15 3.94,-4.75 z"/>
		<path id="p27" style="fill:#9bc7f6" d="m 75.14,73.58 c 1.26,2.47 2.18,5.09 2.86,7.77 1.4,-1.04 2.72,-2.17 4.05,-3.29 l 0.67,-0.56 c -0.2,3.36 -0.01,6.74 0.45,10.07 -0.91,0.5 -1.82,1 -2.74,1.47 -0.85,-2.55 -1.68,-5.17 -3.28,-7.37 -0.97,2.99 -1.09,6.16 -0.61,9.24 -0.96,0.45 -1.95,0.87 -2.93,1.28 -0.29,-2.37 -0.7,-4.73 -1.71,-6.91 -2.01,2.38 -2.63,5.47 -2.81,8.5 -0.39,0.12 -1.16,0.36 -1.55,0.48 -0.21,-2.06 -0.48,-4.1 -0.84,-6.13 -3.36,1.51 -6.84,2.75 -10.49,3.37 0.68,-1.35 0.78,-3.24 2.17,-4.12 4.5,-2.86 9.25,-5.5 12.81,-9.56 1.13,2.09 1.42,4.41 1.19,6.76 1.2,-0.87 2.4,-1.75 3.59,-2.64 -1.25,-0.61 -2.48,-1.22 -3.72,-1.84 0.35,-2.41 1.83,-4.39 2.89,-6.52 z"/>
		<path id="p28" style="fill:#bddaf9" d="m 83.59,76.75 c 1.9,2.28 3.5,4.8 4.88,7.43 -1.64,1.32 -3.47,2.37 -5.3,3.39 -0.46,-3.33 -0.65,-6.71 -0.45,-10.07 l 0.87,-0.75 z"/>
		<path id="p29" style="fill:#bfdbf9" d="m 77.15,81.67 c 1.6,2.2 2.43,4.82 3.28,7.37 -1.29,0.64 -2.58,1.26 -3.89,1.87 -0.48,-3.08 -0.36,-6.25 0.61,-9.24 z"/>
		<path id="p30" style="fill:#5ca5f6" d="m 66.65,83.31 c 2.03,-0.5 3.47,0.02 4.32,1.57 -1.59,1.1 -3.26,3.04 -5.44,2.24 0.36,-1.28 0.73,-2.55 1.12,-3.81 z"/>
		<path id="p31" style="fill:#c1dcf8" d="m 69.09,93.78 c 0.18,-3.03 0.8,-6.12 2.81,-8.5 1.01,2.18 1.42,4.54 1.71,6.91 -1.49,0.57 -3,1.1 -4.52,1.59 z"/>
		<path id="p32" style="fill:#56a2f6" d="m 61.36,86.96 c 1.54,-1.5 3.49,1.06 1.3,1.83 -1.57,1.48 -3.29,-0.88 -1.3,-1.83 z"/>
		<path id="p33" style="fill:#c6dff8" d="m 56.21,91.5 c 3.65,-0.62 7.13,-1.86 10.49,-3.37 0.36,2.03 0.63,4.07 0.84,6.13 -8.2,2.23 -16.5,4.14 -24.92,5.29 -0.37,-0.19 -1.12,-0.57 -1.49,-0.77 2.82,-1.42 5.03,-4.41 8.42,-4.34 1.05,-0.99 2.07,-2.01 3.08,-3.04 1.19,0.07 2.38,0.19 3.58,0.1 z"/>
		<path id="p34" style="fill:#2c2ce5" d="m 105.28,100.24 c 3.99,-2.12 7.57,-5.9 12.41,-5.61 -8.53,14.17 -22.49,25.47 -38.79,29.17 -6.32,1.61 -12.88,1.5 -19.34,1.35 7.32,-2.34 13.71,-6.68 20.43,-10.28 8.43,-4.88 16.78,-9.9 25.29,-14.63 z"/>
		<path id="p35" style="fill:#1111e2" d="m 40.35,102.49 c 10.5,-1.22 20.97,-3.12 30.99,-6.58 -1.14,2.71 -4.16,3.06 -6.54,4.11 -10.62,5.13 -19.97,12.65 -30.98,17.03 -2.37,-1.42 -4.59,-3.07 -6.82,-4.7 4.52,-3.19 8.81,-6.72 13.35,-9.86 z"/>
	</g>
</svg>