<svg xmlns="http://www.w3.org/2000/svg" version="1.1" width="128" height="128" viewBox="0 0 128 128" id="wkt">
	<defs id="d1">
		<linearGradient id="l1" gradientUnits="userSpaceOnUse" y1="0.82633823" gradientTransform="scale(1.1288774,0.88583582)" y2="441.0885" x1="220.57401" x2="220.57401">
			<stop id="s1" offset="0" stop-color="#34AADC"/>
			<stop id="s2" offset="1" stop-color="#007AFF"/>
		</linearGradient>
	</defs>
	<g id="g1" transform="matrix(0.225,0,0,0.225,7.9747188,2.0724625)" style="fill:#ffffff;fill-rule:evenodd">
		<path id="p1" style="fill:#ff9d00" d="m 471.86,305.93 c 34.19,26.66 34.19,70.52 0,97.39 L 311.02,529.74 c -34.19,26.66 -89.85,26.66 -124.04,0 L 26.14,403.54 C -8.046,376.88 -8.046,333.02 26.139,306.14 l 160.84,-126.41 c 34.19,-26.66 89.85,-26.66 124.04,0 l 160.84,126.2 z"/>
		<path id="p2" style="fill:#ffcc00" d="M 187.37,450.83 25.81,323.86 C 9.524,311.1 0.5,294.01 0.5,275.84 c 0,-18.17 9.0244,-35.26 25.312,-48.02 l 161.56,-127.19 c 16.29,-12.76 38.3,-19.898 61.63,-19.898 23.33,0 45.12,7.138 61.63,19.898 l 161.56,126.97 c 16.29,12.77 25.31,29.85 25.31,48.02 0,18.17 -9.02,35.26 -25.31,48.02 l -161.56,126.98 c -16.51,12.97 -38.3,20.11 -61.63,20.11 -23.33,0 -45.12,-7.14 -61.63,-19.9 z"/>
		<path id="p3" style="fill:url(#l1)" d="M 187.37,370.83 25.81,243.86 C 9.524,231.1 0.5,214.01 0.5,195.84 0.5,177.67 9.5244,160.58 25.812,147.82 L 187.372,20.63 c 16.29,-12.76 38.3,-19.898 61.63,-19.898 23.33,-6e-5 45.12,7.138 61.63,19.9 l 161.56,126.97 c 16.29,12.77 25.31,29.85 25.31,48.02 0,18.17 -9.02,35.26 -25.31,48.02 l -161.56,126.98 c -16.51,12.97 -38.3,20.11 -61.63,20.11 -23.33,0 -45.12,-7.14 -61.63,-19.9 z"/>
		<path id="p4" d="m 249.56,317.52 c 82.55,0 149.48,-54.7 149.48,-122.18 0,-67.49 -66.93,-122.19 -149.48,-122.19 -82.56,-0.002 -149.48,54.7 -149.48,122.19 0,67.48 66.92,122.18 149.48,122.18 z m 0,12.58 c -91.06,0 -164.87,-60.34 -164.87,-134.76 0,-74.43 73.81,-134.77 164.87,-134.77 91.05,0 164.87,60.34 164.87,134.77 0,74.42 -73.82,134.76 -164.87,134.76 z"/>
		<path id="p5" style="fill:#8cc8f6" d="m 260.58,247.2 c 8.26,-1.08 16.31,-3.39 23.69,-6.91 l 47.05,19.34 -24.65,-36.92 c 12.97,-16.71 12.97,-37.86 0,-54.56 l 24.65,-36.92 -44.35,18.22 -1.27,19.5 c 18.13,15.21 17.67,39.22 -1.17,53.9 -4.81,3.84 -10.33,6.54 -16.12,8.46 l -7.83,15.89 z m -22,-103.58 c -13.65,1.78 -23.88,6.95 -23.88,6.95 l -47.01,-19.34 24.65,36.92 c -12.97,16.7 -12.97,37.85 0,54.56 l -24.65,36.92 45.56,-18.73 0.97,-18.26 c -19.06,-15.16 -18.91,-39.41 0.31,-54.64 4.47,-4 14.58,-8.24 16.09,-8.46 l 7.96,-15.92 z"/>
		<path id="p6" d="m 226.94,191.3 -6.26,111 50.71,-102.94 7.26,-110.79 -51.71,102.73 z m -0.65,89.67 40.61,-82.41 -35.59,-6.49 -5.02,88.9 z"/>
	</g>
</svg>