<svg xmlns="http://www.w3.org/2000/svg" xmlns:xlink="http://www.w3.org/1999/xlink" version="1.1" width="128" height="128" viewBox="0 0 128 128" id="xxx">
	<defs id="dfs1">
		<linearGradient id="lgrd4873">
			<stop style="stop-color:#ffffff;stop-opacity:1;" offset="0" id="stp4875"/>
			<stop style="stop-color:#ffffff;stop-opacity:0;" offset="1" id="stp4877"/>
		</linearGradient>
		<linearGradient id="lgrd4845">
			<stop style="stop-color:#ffffff;stop-opacity:1;" offset="0" id="stp4847"/>
			<stop style="stop-color:#b6b6b6;stop-opacity:1;" offset="1" id="stp4849"/>
		</linearGradient>
		<radialGradient r="10.625" fy="4.625" fx="62.625" cy="4.625" cx="62.625" gradientTransform="matrix(1,0,0,0.341176,0,3.047059)" gradientUnits="userSpaceOnUse" id="rgrd9169" xlink:href="#lgrd8838"/>
		<linearGradient id="lgrd8838">
			<stop id="stp8840" offset="0" style="stop-color:#000000;stop-opacity:1;"/>
			<stop id="stp8842" offset="1" style="stop-color:#000000;stop-opacity:0;"/>
		</linearGradient>
		<linearGradient id="lgrd8647">
			<stop id="stp8649" offset="0" style="stop-color:#8fb1dc;stop-opacity:1;"/>
			<stop id="stp8651" offset="1" style="stop-color:#3465a4;stop-opacity:1;"/>
		</linearGradient>
		<linearGradient id="lgrd8740">
			<stop id="stp8742" offset="0" style="stop-color:#ffffff;stop-opacity:1;"/>
			<stop id="stp8744" offset="1" style="stop-color:#ffffff;stop-opacity:0;"/>
		</linearGradient>
		<radialGradient r="10.081216" fy="-3.4420195" fx="62.225391" cy="-3.4420195" cx="62.225391" gradientTransform="matrix(1,0,0,0.930233,0,-0.240141)" gradientUnits="userSpaceOnUse" id="rgrd8752" xlink:href="#lgrd8740"/>
		<radialGradient r="10.081216" fy="-3.4420195" fx="62.225391" cy="-3.4420195" cx="62.225391" gradientTransform="matrix(1,0,0,0.930233,0,-0.240141)" gradientUnits="userSpaceOnUse" id="rgrd9173" xlink:href="#lgrd8740"/>
		<radialGradient r="10.081216" fy="-3.4420195" fx="62.225391" cy="-3.4420195" cx="62.225391" gradientTransform="matrix(1,0,0,0.930233,0,-0.240141)" gradientUnits="userSpaceOnUse" id="rgrd8760" xlink:href="#lgrd8740"/>
		<radialGradient r="10.081216" fy="-3.4420195" fx="62.225391" cy="-3.4420195" cx="62.225391" gradientTransform="matrix(1,0,0,0.930233,0,-0.240141)" gradientUnits="userSpaceOnUse" id="rgrd9175" xlink:href="#lgrd8740"/>
		<radialGradient r="10.081216" fy="-3.4420195" fx="62.225391" cy="-3.4420195" cx="62.225391" gradientTransform="matrix(1,0,0,0.930233,0,-0.240141)" gradientUnits="userSpaceOnUse" id="rgrd8766" xlink:href="#lgrd8740"/>
		<radialGradient r="10.081216" fy="-3.4420195" fx="62.225391" cy="-3.4420195" cx="62.225391" gradientTransform="matrix(1,0,0,0.930233,0,-0.240141)" gradientUnits="userSpaceOnUse" id="rgrd9177" xlink:href="#lgrd8740"/>
		<radialGradient r="10.081216" fy="-3.4420195" fx="62.225391" cy="-3.4420195" cx="62.225391" gradientTransform="matrix(1,0,0,0.930233,0,-0.240141)" gradientUnits="userSpaceOnUse" id="rgrd8774" xlink:href="#lgrd8740"/>
		<radialGradient r="10.081216" fy="-3.4420195" fx="62.225391" cy="-3.4420195" cx="62.225391" gradientTransform="matrix(1,0,0,0.930233,0,-0.240141)" gradientUnits="userSpaceOnUse" id="rgrd9179" xlink:href="#lgrd8740"/>
		<radialGradient r="10.081216" fy="-3.4420195" fx="62.225391" cy="-3.4420195" cx="62.225391" gradientTransform="matrix(1,0,0,0.930233,0,-0.240141)" gradientUnits="userSpaceOnUse" id="rgrd8782" xlink:href="#lgrd8740"/>
		<radialGradient r="10.081216" fy="-3.4420195" fx="62.225391" cy="-3.4420195" cx="62.225391" gradientTransform="matrix(1,0,0,0.930233,0,0.79739)" gradientUnits="userSpaceOnUse" id="rgrd9181" xlink:href="#lgrd8740"/>
		<radialGradient r="10.081216" fy="-3.4420195" fx="62.225391" cy="-3.4420195" cx="62.225391" gradientTransform="matrix(1,0,0,0.930233,0,-0.240141)" gradientUnits="userSpaceOnUse" id="rgrd8788" xlink:href="#lgrd8740"/>
		<radialGradient r="10.081216" fy="-3.4420195" fx="62.225391" cy="-3.4420195" cx="62.225391" gradientTransform="matrix(1,0,0,0.930233,0,-0.240141)" gradientUnits="userSpaceOnUse" id="rgrd9183" xlink:href="#lgrd8740"/>
		<linearGradient id="lgrd8924">
			<stop style="stop-color:#cee14b" offset="0" id="stp8926"/>
			<stop style="stop-color:#9db029" offset="1" id="stp8928"/>
		</linearGradient>
		<radialGradient r="10.081216" fy="-3.4420195" fx="62.225391" cy="-3.4420195" cx="62.225391" gradientTransform="matrix(1,0,0,0.930233,0,-0.240141)" gradientUnits="userSpaceOnUse" id="rgrd8812" xlink:href="#lgrd8740"/>
		<radialGradient r="4.1347499" fy="14.542329" fx="25.135332" cy="14.542349" cx="25.135374" gradientTransform="matrix(0.159592,5.753335,-0.8072,0.0223703,32.87305,-131.6974)" gradientUnits="userSpaceOnUse" id="rgrd9191" xlink:href="#lgrd8930"/>
		<linearGradient id="lgrd8930">
			<stop style="stop-color:#cee14b" offset="0" id="stp8932"/>
			<stop style="stop-color:#9db029" offset="1" id="stp8934"/>
		</linearGradient>
		<radialGradient r="10.081216" fy="-3.4420195" fx="62.225391" cy="-3.4420195" cx="62.225391" gradientTransform="matrix(1,0,0,0.930233,0,-0.240141)" gradientUnits="userSpaceOnUse" id="rgrd8816" xlink:href="#lgrd8740"/>
		<radialGradient r="10.081216" fy="-3.4420195" fx="62.225391" cy="-3.4420195" cx="62.225391" gradientTransform="matrix(1,0,0,0.930233,0,0.589884)" gradientUnits="userSpaceOnUse" id="rgrd9195" xlink:href="#lgrd8740"/>
		<linearGradient id="lgrd8912">
			<stop id="stp8914" offset="0" style="stop-color:#cee14b"/>
			<stop id="stp8916" offset="1" style="stop-color:#9db029"/>
		</linearGradient>
		<radialGradient r="10.081216" fy="-3.4420195" fx="62.225391" cy="-3.4420195" cx="62.225391" gradientTransform="matrix(1,0,0,0.930233,0,-0.240141)" gradientUnits="userSpaceOnUse" id="rgrd8820" xlink:href="#lgrd8740"/>
		<radialGradient r="10.081216" fy="-3.4420195" fx="62.225391" cy="-3.4420195" cx="62.225391" gradientTransform="matrix(1,0,0,0.930233,0.311259,0.486131)" gradientUnits="userSpaceOnUse" id="rgrd9201" xlink:href="#lgrd8740"/>
		<radialGradient r="9.8222504" fy="17.257843" fx="25.968998" cy="17.257854" cx="25.969097" gradientTransform="matrix(0.06718136,2.42191,-1.629357,0.0451789,52.36869,-50.34012)" gradientUnits="userSpaceOnUse" id="rgrd9203" xlink:href="#lgrd8918"/>
		<linearGradient id="lgrd8918">
			<stop style="stop-color:#cee14b" offset="0" id="stp8920"/>
			<stop style="stop-color:#9db029" offset="1" id="stp8922"/>
		</linearGradient>
		<radialGradient r="10.081216" fy="-3.4420195" fx="62.225391" cy="-3.4420195" cx="62.225391" gradientTransform="matrix(1,0,0,0.930233,0,-0.240141)" gradientUnits="userSpaceOnUse" id="rgrd8824" xlink:href="#lgrd8740"/>
		<radialGradient r="10.081216" fy="-3.4420195" fx="62.225391" cy="-3.4420195" cx="62.225391" gradientTransform="matrix(0.918134,0,0,0.854079,2.429764,1.490099)" gradientUnits="userSpaceOnUse" id="rgrd9207" xlink:href="#lgrd8740"/>
		<radialGradient xlink:href="#lgrd4845" id="rgrd4851" cx="17.81411" cy="24.149399" fx="17.81411" fy="24.149399" r="9.125" gradientTransform="matrix(2.643979,0,-2.93653e-8,2.534421,-28.97514,-41.1733)" gradientUnits="userSpaceOnUse"/>
		<linearGradient xlink:href="#lgrd4873" id="lgrd4879" x1="63.397362" y1="-9.3832779" x2="68.910904" y2="16.839214" gradientUnits="userSpaceOnUse"/>
		<radialGradient r="10.081216" fy="-3.4420195" fx="62.225391" cy="-3.4420195" cx="62.225391" gradientTransform="matrix(0.41779299,0,0,0.38864466,51.484582,-13.49693)" gradientUnits="userSpaceOnUse" id="rgrd9189" xlink:href="#lgrd4873"/>
	</defs>
	<g id="layer1" transform="translate(0,80)">
		<g id="g4222" transform="matrix(2.75,0,0,2.75,0.3125011,-81.388375)">
			<g transform="matrix(1.673435,0,0,1.673435,-3.189256,-2.668541)" id="g3020">
				<g style="display:inline" id="g8936" transform="matrix(1.284706,0,0,1.284706,-63.89629,19.96894)">
					<ellipse transform="matrix(1,0,0,1.192473,-0.590821,-2.378705)" id="path8836" style="color:#000000;display:inline;overflow:visible;visibility:visible;opacity:0.56043958;fill:url(#rgrd9169);fill-opacity:1;fill-rule:evenodd;stroke:none;stroke-width:0.99999988;stroke-linecap:butt;stroke-linejoin:round;stroke-miterlimit:4;stroke-dasharray:none;stroke-dashoffset:0;stroke-opacity:1;marker:none;marker-start:none;marker-mid:none;marker-end:none" cx="62.625" cy="4.625" rx="10.625" ry="3.625"/>
					<path id="path6495" d="m 71.455637,-3.5111605 c 0,5.1118327 -4.144037,9.255822 -9.255167,9.255822 -5.111598,0 -9.2554,-4.1440362 -9.2554,-9.255822 0,-5.1115983 4.143802,-9.2551665 9.2554,-9.2551665 5.11113,0 9.255167,4.1435682 9.255167,9.2551665 l 0,0 z" style="fill:#c83771;fill-opacity:1;fill-rule:nonzero;stroke:#815a7b;stroke-width:0.46514398;stroke-miterlimit:4;stroke-dasharray:none;stroke-opacity:1"/>
					<path style="opacity:0.52747258;fill:none;fill-opacity:1;fill-rule:nonzero;stroke:url(#lgrd4879);stroke-width:0.46514425;stroke-miterlimit:4;stroke-dasharray:none;stroke-opacity:1" d="m 70.945908,-3.5111451 c 0,4.8302718 -3.915782,8.7460091 -8.74539,8.7460091 -4.83005,0 -8.745611,-3.9157817 -8.745611,-8.7460091 0,-4.8300503 3.915561,-8.7453899 8.745611,-8.7453899 4.829608,0 8.74539,3.9153396 8.74539,8.7453899 l 0,0 z" id="path8655"/>
					<g id="g6532" style="fill:#ffcc00;fill-rule:nonzero;stroke:url(#rgrd8752);stroke-miterlimit:4" transform="matrix(0.468894,0,0,0.468894,50.39042,-14.57365)">
						<path style="fill:#800033;stroke:url(#rgrd9173)" id="path6534" d="m 26.0703,9.2363 -0.0732,0.4932 0.5098,0.3291 0.8711,-0.5757 -0.4355,-0.4937 -0.582,0.3296 -0.29,-0.0825"/>
					</g>
					<g id="g6548" style="fill:#ffcc00;fill-rule:nonzero;stroke:url(#rgrd8760);stroke-miterlimit:4" transform="matrix(0.468894,0,0,0.468894,49.7717,-14.57365)">
						<path style="fill:#800033;stroke:url(#rgrd9175)" id="path6550" d="m 28.833,12.7749 -0.291,-0.7412 -0.5098,0.165 0.1465,0.9043 0.6543,-0.3281"/>
					</g>
					<g id="g6556" style="fill:#9db029;fill-rule:nonzero;stroke:url(#rgrd8766);stroke-miterlimit:4" transform="matrix(0.468894,0,0,0.468894,49.94848,-14.57365)">
						<path style="fill:#800033;stroke:url(#rgrd9177)" id="path6558" d="m 29.123,12.6089 -0.1455,0.9883 0.7998,-0.165 0.5811,-0.5752 -0.5088,-0.4941 C 29.6787,11.9078 29.4824,11.483 29.2685,11.0465 l -0.4355,0 0,0.4932 0.29,0.3291 0,0.7402"/>
					</g>
					<g id="g6572" style="fill:#ffcc00;fill-rule:nonzero;stroke:url(#rgrd8774);stroke-miterlimit:4" transform="matrix(0.468894,0,0,0.468894,50.39042,-14.57365)">
						<path style="fill:#800033;stroke:url(#rgrd9179)" id="path6574" d="m 16.7656,9.5649 0.7266,0.4937 0.582,0 0,-0.5757 -0.7266,-0.3291 -0.582,0.4111"/>
					</g>
					<g id="g6608" style="fill:#9db029;fill-rule:nonzero;stroke:url(#rgrd8782);stroke-miterlimit:4" transform="matrix(0.468894,0,0,0.468894,50.96494,-14.52946)">
						<path style="fill:#800033;stroke:url(#rgrd9181)" id="path6610" d="m 17.4922,7.887132 0.3638,-0.3286 0.7271,-0.1646 c 0.498,-0.2422 0.998,-0.4053 1.5264,-0.5762 l -0.29,-0.4937 -0.9385,0.1348 -0.4434,0.4419 -0.731,0.106 -0.6499,0.3052 -0.3159,0.1528 -0.1929,0.2583 0.9443,0.1641"/>
					</g>
					<g id="g6616" style="fill:#ffcc00;fill-rule:nonzero;stroke:url(#rgrd8788);stroke-miterlimit:4" transform="matrix(0.468894,0,0,0.468894,50.56718,-14.30851)">
						<path style="fill:#aa0044;stroke:url(#rgrd9183)" id="path6618" d="m 18.7285,14.6665 0.4365,-0.6582 -0.6548,-0.4932 0.2183,1.1514"/>
					</g>
					<g id="g6564" style="fill:#ffcc00;fill-opacity:1;fill-rule:nonzero;stroke:url(#rgrd8812);stroke-miterlimit:4" transform="matrix(0.468894,0,0,0.468894,50.74397,-14.61784)"/>
					<g id="g6540" style="fill:url(#rgrd9191);fill-opacity:1;fill-rule:nonzero;stroke:url(#rgrd8816);stroke-miterlimit:4" transform="matrix(0.468894,0,0,0.468894,50.523,-14.44107)">
						<path style="fill:#800033;fill-opacity:1;stroke:url(#rgrd9195)" id="path6542" d="m 26.8701,6.6933256 -1.8906,-0.7407 -2.1797,0.2466 -2.6904,0.7402 -0.5088,0.4941 1.6719,1.1514 0,0.6582 -0.6543,0.6582 0.873,1.7289984 0.5801,-0.3301 0.7285,-1.151399 c 1.123,-0.3471994 2.1299,-0.7406994 3.1973,-1.2343994 l 0.873,-2.2212"/>
					</g>
					<g id="g6580" style="fill:#ffcc00;fill-opacity:1;fill-rule:nonzero;stroke:url(#rgrd8820);stroke-miterlimit:4" transform="matrix(0.468894,0,0,0.468894,50.83236,-14.75043)">
						<path style="fill:#800033;fill-opacity:1;stroke:url(#rgrd9201)" id="path6582" d="m 15.187259,9.6334723 -0.3638,0.9047987 0.7271,0 0.3638,-0.8227987 c 0.3135,-0.2217 0.6255,-0.4448 0.9448,-0.6582 l 0.7271,0.2471 c 0.4844,0.3291 0.9688,0.6582 1.4536,0.9867997 l 0.7275,-0.6576997 -0.8003,-0.3291 -0.3638,-0.7407 -1.3809,-0.1646 -0.0728,-0.4116 -0.6543,0.165 -0.2904,0.5758 -0.3638,-0.7407 -0.145,0.3291 0.0728,0.8228 -0.5816,0.494"/>
					</g>
					<g id="g6626" style="fill:#800033;fill-opacity:1;fill-rule:nonzero;stroke:url(#rgrd8824);stroke-miterlimit:4" transform="matrix(0.468894,0,0,0.468894,50.12526,-14.48526)">
						<path style="fill:#800033;fill-opacity:1;stroke:url(#rgrd9207)" id="path6628" d="m 42.893123,20.729176 c 0,0.241194 0,0 0,0 l -0.500291,0.566672 c -0.306657,-0.361377 -0.650957,-0.66528 -1.000583,-0.982679 l -0.767468,0.112931 -0.701179,-0.792625 0,0.980934 0.600735,0.454568 0.399848,0.452824 0.534354,-0.604316 c 0.134506,0.251936 0.267177,0.503872 0.400765,0.755808 l 0,0.754982 -0.601653,0.679602 -1.101026,0.755808 -0.83385,0.832105 -0.534354,-0.606152 0.267177,-0.679603 -0.533527,-0.604315 -0.901057,-1.92597 -0.767468,-0.867912 -0.200888,0.225953 0.30124,1.095701 0.566672,0.641959 c 0.323642,0.934293 0.643796,1.82727 1.0688,2.720339 0.659036,0 1.280338,-0.06996 1.934875,-0.15241 l 0,0.529029 -0.800704,1.964072 -0.734324,0.830269 -0.600735,1.285754 c 0,0.70476 0,1.40952 0,2.114188 l 0.200888,0.832105 -0.333558,0.376618 -0.735242,0.45365 -0.767468,0.641959 0.634798,0.717338 -0.867912,0.756727 0.166733,0.489549 -1.301914,1.474064 -0.866994,0 -0.734324,0.45365 -0.468064,0 0,-0.604316 -0.199052,-1.210468 c -0.258271,-0.758562 -0.527192,-1.511708 -0.800705,-2.264853 0,-0.55593 0.03314,-1.106443 0.06638,-1.662282 l 0.334477,-0.754981 -0.468065,-0.907392 0.03406,-1.246275 -0.634798,-0.717338 0.317399,-1.038318 -0.516451,-0.585953 -0.901974,0 -0.300322,-0.339801 -0.901057,0.567131 -0.366702,-0.416466 -0.834768,0.717706 C 27.577179,26.356327 27.009588,25.714368 26.44209,25.072409 l -0.667116,-1.586995 0.600735,-0.905555 -0.333558,-0.377445 0.733405,-1.738579 c 0.602571,-0.749564 1.231952,-1.468647 1.868586,-2.190392 l 1.135089,-0.302158 1.267852,-0.150666 0.867912,0.226871 1.234615,1.245357 0.434001,-0.490467 0.599817,-0.07529 1.135089,0.377445 0.867913,0 0.600735,-0.529029 0.267177,-0.377445 -0.601654,-0.377445 -1.0015,-0.07529 c -0.277919,-0.385524 -0.53619,-0.790789 -0.866168,-1.133344 l -0.334476,0.150665 -0.133589,0.982679 -0.600735,-0.679603 -0.13267,-0.756726 -0.667116,-0.527192 -0.268095,0 0.667942,0.754981 -0.267177,0.679603 -0.533527,0.150666 0.333558,-0.679603 -0.601654,-0.30124 -0.532609,-0.604315 -1.002419,0.225952 -0.13267,0.30124 -0.600735,0.378363 -0.333558,0.831187 -0.83385,0.415088 -0.36762,-0.415088 -0.399848,0 0,-1.360124 0.867912,-0.45365 0.667116,0 -0.134506,-0.52811 -0.53261,-0.529029 0.900231,-0.189228 0.500291,-0.565754 0.399847,-0.680521 0.735242,0 -0.200888,-0.52811 0.468065,-0.302158 0,0.604315 1.000582,0.225953 1.000583,-0.830268 0.06721,-0.378363 0.866994,-0.603857 c -0.313818,0.03902 -0.627636,0.06767 -0.934293,0.151125 l 0,-0.680429 0.333558,-0.755441 -0.333558,0 -0.733038,0.679603 -0.200888,0.377904 0.200888,0.529488 -0.334476,0.905555 -0.533528,-0.302158 -0.466229,-0.52811 -0.735241,0.52811 -0.267177,-1.208172 1.267851,-0.830728 0,-0.4536504 0.801531,-0.5285696 1.267851,-0.302617 0.867912,0.302617 1.601318,0.3021579 -0.399848,0.4528241 -0.867912,0 0.867912,0.906474 0.667117,-0.754982 0.202632,-0.3321814 c 0,0 2.558931,2.2934994 4.021335,4.8023004 1.462404,2.509628 2.149168,5.46758 2.149168,6.068315 z"/>
					</g>
					<path style="display:inline;fill:#800033;fill-opacity:1;fill-rule:nonzero;stroke:url(#rgrd9189);stroke-width:0.468894;stroke-miterlimit:4" id="path6566" d="m 59.157434,-1.5972083 -0.243156,-0.4814228 -0.455519,-0.1030282 -0.242947,-0.6528013 -0.607303,0.06856 -0.516142,-0.3778104 -0.546933,0.4810468 0,0.075871 c -0.165446,-0.047754 -0.368827,-0.054271 -0.516141,-0.1448489 l -0.121578,-0.3435511 0,-0.3782277 -0.364357,0.034257 c 0.03042,-0.2407321 0.06058,-0.4810468 0.0912,-0.7217371 l -0.212782,0 -0.212364,0.2749912 -0.212782,0.1028187 -0.303778,-0.1713784 -0.03041,-0.3782281 0.06079,-0.412487 0.455729,-0.3435511 0.364357,0 0.06058,-0.2064316 0.45552,0.1028186 0.33415,0.4129048 0.06079,-0.6878962 0.577098,-0.4810468 0.212573,-0.5157236 0.425146,-0.171754 0.242946,-0.343551 0.546516,-0.103613 0.273571,-0.412069 c -0.273362,0 -0.546725,0 -0.820087,0 l 0.516309,-0.240734 0.364149,0 0.516517,-0.172171 0.06079,-0.205639 -0.182367,-0.172172 -0.212573,-0.06894 0.06079,-0.206055 -0.151784,-0.309251 -0.364566,0.137078 0.06079,-0.274782 -0.425146,-0.240733 -0.333941,0.584033 0.03021,0.206431 -0.333942,0.137914 -0.212782,0.446746 -0.091,-0.412487 -0.577097,-0.240732 -0.0912,-0.30925 0.759297,-0.447165 0.334151,-0.30925 0.03042,-0.378019 -0.182157,-0.1032365 -0.242947,-0.03447 -0.151784,0.3782265 c 0,0 -0.253977,0.04976 -0.319278,0.06589 -0.833956,0.768489 -2.518999,2.42742 -2.910471,5.5592381 0.0155,0.072613 0.283765,0.4936643 0.283765,0.4936643 l 0.637719,0.3778099 0.637719,0.1721728 0.273571,0.3439271 0.424937,0.3092502 0.242947,-0.034257 0.182158,0.082013 0,0.055483 -0.24278,0.6530103 -0.182366,0.2749913 0.06079,0.1379135 -0.151784,0.51488833 0.546724,0.9971463 0.546515,0.4814228 L 57.36558,1.1183595 57.335,1.8405148 57.517366,2.252584 57.335,3.0432993 c 0,0 -0.01429,-0.00489 0.009,0.074242 0.02348,0.079171 0.973081,0.6063012 1.033452,0.5614303 0.06016,-0.045708 0.111593,-0.085689 0.111593,-0.085689 l -0.06058,-0.1713788 0.242779,-0.2407321 0.0912,-0.2407325 0.39494,-0.1379135 0.303568,-0.7564141 -0.09099,-0.2056376 0.212155,-0.3092507 0.455728,-0.1036125 0.243156,-0.54998257 -0.06079,-0.6870605 0.364357,-0.5157239 0.06079,-0.5157239 C 60.14673,-1.0881276 59.65223,-1.3427305 59.157355,-1.5972922"/>
				</g>
			</g>
			<circle transform="matrix(0.714286,0,0,0.714286,6.267857,6.428571)" id="path3066" style="color:#000000;display:inline;overflow:visible;visibility:visible;opacity:0.35714285;fill:none;fill-opacity:1;fill-rule:evenodd;stroke:#ffffff;stroke-width:2.79999995;stroke-linecap:butt;stroke-linejoin:round;stroke-miterlimit:4;stroke-dasharray:none;stroke-dashoffset:0;stroke-opacity:1;marker:none;marker-start:none;marker-mid:none;marker-end:none" cx="18" cy="18.125" r="6"/>
			<circle style="color:#000000;display:inline;overflow:visible;visibility:visible;opacity:0.35714285;fill:none;fill-opacity:1;fill-rule:evenodd;stroke:#ffffff;stroke-width:0.71080583;stroke-linecap:butt;stroke-linejoin:round;stroke-miterlimit:4;stroke-dasharray:none;stroke-dashoffset:0;stroke-opacity:1;marker:none;marker-start:none;marker-mid:none;marker-end:none" id="path3941" transform="matrix(1.406854,0,0,1.406854,-6.198359,-6.124216)" cx="18" cy="18.125" r="6"/>
			<circle transform="matrix(2.051269,0,0,2.051269,-17.79782,-17.80423)" id="path3943" style="color:#000000;display:inline;overflow:visible;visibility:visible;opacity:0.35714285;fill:none;fill-opacity:1;fill-rule:evenodd;stroke:#ffffff;stroke-width:0.24375159;stroke-linecap:butt;stroke-linejoin:round;stroke-miterlimit:4;stroke-dasharray:none;stroke-dashoffset:0;stroke-opacity:1;marker:none;marker-start:none;marker-mid:none;marker-end:none" cx="18" cy="18.125" r="6"/>
			<path id="path3970" d="m 19.25,17.75 -17,16.5 7.75,0.25 c 0,0 -3.25,6.75 -3.25,6.75 -1,3 3.5,4.125 4.25,1.875 0,0 3,-6.75 3,-6.75 l 5.5,5.875 -0.25,-24.5 z" style="color:#000000;display:inline;overflow:visible;visibility:visible;opacity:1;fill:url(#rgrd4851);fill-opacity:1;fill-rule:evenodd;stroke:#555753;stroke-width:1;stroke-linecap:butt;stroke-linejoin:round;stroke-miterlimit:4;stroke-dasharray:none;stroke-dashoffset:0;stroke-opacity:1;marker:none;marker-start:none;marker-mid:none;marker-end:none"/>
			<path style="color:#000000;display:inline;overflow:visible;visibility:visible;opacity:1;fill:none;fill-opacity:1;fill-rule:evenodd;stroke:#ffffff;stroke-width:1;stroke-linecap:butt;stroke-linejoin:miter;stroke-miterlimit:4;stroke-dasharray:none;stroke-dashoffset:0;stroke-opacity:1;marker:none;marker-start:none;marker-mid:none;marker-end:none" d="M 18.092765,20.19141 4.617219,33.377203 11.53908,33.654662 c 0,0 -3.8721363,7.756567 -3.8721363,7.756567 -0.4027307,1.650134 2.0282755,2.412565 2.5071003,1.152867 0,0 3.683065,-7.844955 3.683065,-7.844955 l 4.424727,4.708334 -0.189071,-19.236065 z" id="path4853"/>
		</g>
	</g>
</svg>