<svg xmlns="http://www.w3.org/2000/svg" version="1.1" width="128" height="128" viewBox="0 0 128 128" id="dba-logo">
	<g id="g1" style="fill:#c87137" transform="matrix(0.70046938,0,0,-0.47595042,25.626542,112.76131)">
		<g id="g2" style="fill:#c87137" transform="matrix(0.87777418,0,0,1.3652489,10.763161,-16.613129)">
			<path id="p1" d="m 136.73388,58.243228 v -5.275222 c 0,-4.131329 -11.32893,-7.483606 -24.33713,-7.483606 -13.005762,0 -24.337118,3.352277 -24.337118,7.483606 v 5.275222 c 5.884712,-3.729999 17.048158,-4.841702 24.337118,-4.841702 7.31574,0 18.46701,1.122433 24.33713,4.841702 z m -24.33713,7.316203 c -7.31573,0 -18.467,1.122433 -24.337118,4.841701 v -5.22371 c 0,-4.133478 11.331356,-7.483606 24.337118,-7.483606 13.0082,0 24.33713,3.352281 24.33713,7.483606 v 5.22371 c -5.88472,-3.729992 -17.04817,-4.841701 -24.33713,-4.841701 z m 0,31.432434 c -13.005762,0 -24.337118,-3.352275 -24.337118,-7.485752 0,-4.133475 11.331356,-7.483601 24.337118,-7.483601 13.0082,0 24.33713,3.352269 24.33713,7.483601 0,4.133477 -11.32893,7.485752 -24.33713,7.485752 z m 0,-19.261643 c -7.31573,0 -18.467,1.122433 -24.337118,4.841701 v -5.236596 c 0,-4.13347 11.331356,-7.483606 24.337118,-7.483606 13.0082,0 24.33713,3.352279 24.33713,7.483606 v 5.236596 c -5.88472,-3.730002 -17.04817,-4.841701 -24.33713,-4.841701 z" style="fill:#c87137;stroke-width:2.28540969"/>
		</g>
	</g>
	<g id="g3" transform="matrix(0.77431459,0,0,0.76585722,-319.79634,-480.25418)">
		<path id="p2" style="fill:#333333;stroke-width:0.12752976" d="m 493.47176,739.27251 c -2.97783,-0.44173 -4.9907,-1.05183 -7.34846,-2.22735 -4.06009,-2.02423 -7.15041,-4.90719 -8.88951,-8.29299 l -0.52747,-1.02691 -0.34008,0.72878 c -0.47469,1.01726 -0.58337,1.08683 -1.23394,0.78982 -0.82885,-0.3784 -1.87147,-1.51522 -2.4632,-2.68571 -0.63525,-1.2566 -1.05718,-2.59398 -1.5052,-4.77105 -0.39224,-1.90599 -0.50898,-2.27426 -0.70044,-2.2095 -0.0758,0.0256 -0.37477,0.5076 -0.66438,1.07103 -0.63394,1.2333 -0.84523,1.31854 -1.58574,0.63973 -1.14761,-1.05199 -1.78939,-2.65607 -2.17969,-5.44794 -0.35259,-2.52197 -0.36658,-2.58774 -0.5507,-2.58774 -0.092,0 -0.35364,0.43387 -0.58151,0.96416 -0.22787,0.53029 -0.49111,0.96417 -0.585,0.96417 -0.2608,0 -1.40099,-2.49742 -1.70204,-3.72811 -0.38241,-1.56324 -0.46796,-4.4559 -0.19202,-6.49204 0.11499,-0.84847 0.24255,-1.65512 0.28347,-1.79255 0.0473,-0.15912 -0.29556,0.0632 -0.94412,0.61209 -3.9784,3.36693 -10.95118,5.89466 -16.30837,5.91201 -2.3765,0.008 -3.57581,-0.38637 -3.95134,-1.29831 -0.29476,-0.7158 0.0194,-1.40557 1.35883,-2.98352 2.09309,-2.4658 3.42787,-4.73661 4.49596,-7.64882 0.39649,-1.08106 1.614,-5.68858 1.87683,-7.10268 l 0.0777,-0.4178 -1.10544,-0.002 c -3.26007,-0.007 -6.98788,-0.84266 -9.72898,-2.18214 -6.15835,-3.00936 -10.21059,-9.0221 -11.83442,-17.55994 -1.60632,-8.4458 -0.53331,-15.50255 3.22362,-21.20051 4.13753,-6.27519 11.38301,-10.51749 20.01738,-11.72038 1.9474,-0.2713 5.70288,-0.26566 7.45552,0.0112 2.80241,0.44268 4.54293,1.13287 6.75156,2.67728 0.75958,0.53114 1.68111,1.11878 2.04784,1.30585 1.00684,0.51361 2.75899,1.06758 3.89432,1.23127 1.58295,0.22823 1.83711,0.33759 1.83711,0.79043 0,1.49637 -1.9642,2.5158 -5.67694,2.94638 -1.25316,0.14533 -2.40304,0.13301 -7.62631,-0.0817 -1.65356,-0.068 -2.20411,-0.0392 -3.48491,0.18227 -3.84709,0.66512 -7.28354,2.482 -10.13236,5.35705 -2.58675,2.61058 -4.24602,5.42704 -5.10662,8.668 -0.28109,1.05857 -0.32752,1.50053 -0.33189,3.15909 -0.005,1.77937 0.022,2.00778 0.345,2.95677 1.53041,4.496 6.03203,6.0719 10.66548,3.73373 2.17171,-1.0959 4.14975,-2.91561 6.087,-5.59977 3.9366,-5.45438 6.15646,-7.72261 9.62896,-9.83875 6.19411,-3.7747 13.13033,-3.1834 18.78472,1.60137 0.70906,0.60002 0.82519,0.65689 1.03067,0.50471 0.12737,-0.0943 0.59448,-0.44095 1.03801,-0.77029 3.0313,-2.25078 6.80043,-3.23363 10.24541,-2.67162 2.08753,0.34055 4.89911,1.59745 7.03173,3.14346 2.20002,1.59488 3.72371,3.18977 7.62184,7.978 2.70245,3.31952 4.39187,4.88155 6.37824,5.89725 1.20347,0.61537 2.08788,0.87562 3.02991,0.89157 3.54469,0.06 6.34721,-5.05062 6.34521,-11.57103 -0.001,-3.76206 -0.99823,-6.93385 -2.77799,-8.83716 -1.88731,-2.0183 -4.1754,-3.21178 -7.17507,-3.74255 -0.58558,-0.10362 -2.22023,-0.24806 -3.63254,-0.321 -3.24319,-0.16749 -4.64506,-0.3425 -5.62373,-0.70209 -1.43714,-0.52803 -2.7046,-1.45834 -3.15682,-2.31709 -0.23458,-0.44545 -0.2363,-0.48199 -0.0301,-0.63619 0.13846,-0.10354 0.88273,-0.19402 2.02716,-0.24643 3.51407,-0.16094 6.28641,-0.76039 11.12065,-2.40457 3.56889,-1.21381 4.64555,-1.40647 6.53994,-1.17025 3.01482,0.37593 5.66145,1.7684 8.33215,4.38379 4.73796,4.63984 7.69174,11.44893 7.89321,18.19548 0.12556,4.20459 -0.47951,6.40105 -3.38377,12.28352 -2.30384,4.66633 -4.36103,7.06396 -7.3252,8.53742 -1.63965,0.81506 -3.29666,1.2708 -6.13322,1.6869 -0.88847,0.13034 -1.61539,0.28552 -1.61539,0.34487 0,0.33774 1.62417,2.51893 2.65822,3.56987 1.37854,1.40105 2.36947,2.00197 3.9934,2.42167 1.02097,0.26387 1.58372,0.66353 1.58372,1.12475 0,0.7197 -1.29663,1.77134 -2.92956,2.37603 -1.59149,0.58933 -3.0587,0.79838 -5.05238,0.71987 -3.9484,-0.1555 -7.37955,-1.76593 -10.45256,-4.90597 -0.76652,-0.78323 -1.53621,-1.63956 -1.71042,-1.90295 -0.17421,-0.26339 -0.35107,-0.47929 -0.39301,-0.47977 -0.042,-2.9e-4 -0.11103,0.50531 -0.15352,1.12398 -0.0424,0.61867 -0.30665,2.0775 -0.58703,3.24185 l -0.50979,2.11699 0.40991,0.43135 c 1.47469,1.55188 3.61782,2.23567 5.66337,1.80697 1.01306,-0.21232 1.52121,-0.0742 2.28281,0.62061 1.11057,1.01314 1.69073,2.54941 1.69073,4.47707 0,2.27183 -0.63512,3.63468 -2.572,5.51897 -2.11526,2.05784 -2.64388,2.64941 -2.98116,3.33617 -0.57453,1.16983 -0.3726,1.85718 0.87385,2.97445 1.0377,0.93014 1.23832,1.4313 0.91591,2.2879 -0.11662,0.30986 -0.41326,0.8019 -0.65919,1.09343 -0.53869,0.63857 -2.39069,1.91925 -3.37258,2.33218 l -0.71024,0.2987 0.3636,0.50929 c 0.83383,1.16795 1.1076,2.86708 0.69121,4.28979 -0.39582,1.35243 -1.72668,2.74769 -2.81921,2.95566 -0.31695,0.0603 -0.71475,0.003 -1.29968,-0.18852 -0.98762,-0.32275 -1.66838,-0.34765 -2.39476,-0.0876 -0.80333,0.28759 -1.36742,0.79594 -1.73951,1.56762 -0.31777,0.65902 -0.33699,0.80189 -0.31836,2.36632 0.0343,2.87673 -0.50504,4.53837 -1.93749,5.96981 -1.40511,1.40413 -3.29303,2.10194 -5.90097,2.18111 -0.87105,0.0265 -1.75476,0.0227 -1.96381,-0.008 z m 2.31671,-4.77607 c -1.14793,-2.29112 -1.24583,-3.85704 -0.36109,-5.77543 0.43173,-0.93611 1.46,-2.05526 2.27688,-2.47811 1.32838,-0.68762 3.90878,-1.03274 7.74042,-1.03524 3.65155,-0.002 4.73821,-0.40746 5.07735,-1.89263 0.14708,-0.64412 -0.1328,-1.62197 -0.64309,-2.24682 -0.22293,-0.27299 -0.75129,-0.65709 -1.23786,-0.89989 -0.83082,-0.41458 -0.88403,-0.42348 -2.49776,-0.41804 -1.64727,0.006 -1.6507,0.006 -3.54933,0.66586 -2.41913,0.84049 -3.26358,0.98833 -5.11995,0.89636 -1.77017,-0.0877 -2.59058,-0.3009 -4.25568,-1.10595 -3.00396,-1.45236 -5.81364,-4.37948 -6.77838,-7.06171 -0.32189,-0.89491 -0.42928,-1.47162 -0.39287,-2.10974 0.0245,-0.42899 0.24585,-0.22035 0.75018,0.70705 1.94537,3.57733 5.14138,6.49414 8.07571,7.37027 0.88259,0.26352 2.33111,0.28979 3.41327,0.0619 0.4181,-0.0881 1.86928,-0.47333 3.22483,-0.85618 1.35556,-0.38284 2.95195,-0.79205 3.54754,-0.90935 1.17535,-0.23146 3.54985,-0.2951 5.07386,-0.13597 1.68568,0.17601 2.73818,-0.45242 2.71192,-1.61925 -0.0155,-0.68681 -0.36607,-1.3717 -1.18977,-2.32415 -0.73456,-0.84937 -0.88866,-1.1692 -0.88866,-1.84431 0,-1.05168 0.8512,-2.05715 3.91583,-4.62553 1.79197,-1.5018 2.38694,-2.82962 2.26206,-5.04834 -0.0757,-1.34597 -0.43421,-2.25772 -1.1431,-2.90755 l -0.50962,-0.46716 -0.83724,0.10287 c -0.46048,0.0566 -1.32185,0.10518 -1.91417,0.10801 -0.93064,0.005 -1.1779,-0.0445 -1.82024,-0.36028 -1.98858,-0.97762 -3.92542,-3.65561 -5.08171,-7.02626 -0.63989,-1.86532 -1.45824,-3.37852 -3.21962,-5.95339 -2.23961,-3.27398 -2.38965,-3.62423 -1.97934,-4.62062 0.10382,-0.25212 0.2264,-0.95533 0.27241,-1.5627 0.046,-0.60738 0.12374,-1.12946 0.17272,-1.16017 0.049,-0.0307 0.22572,0.15778 0.39275,0.41888 0.47972,0.7499 0.7016,0.80605 2.05089,0.51905 1.68597,-0.35861 3.19076,-0.2802 4.20759,0.21926 0.4181,0.20537 0.81135,0.3983 0.8739,0.42874 0.29508,0.14359 -0.07,-1.74317 -0.73145,-3.78015 -0.39193,-1.20695 -0.71259,-2.35131 -0.71259,-2.543 0,-0.79506 0.80723,-0.45603 1.78091,0.74797 1.15131,1.42368 1.54619,2.36719 2.47669,5.91783 1.08363,4.13496 1.90937,6.19925 3.14884,7.87187 1.06809,1.44134 1.67405,1.64658 2.56833,0.86989 0.28494,-0.24747 0.56945,-0.44995 0.63227,-0.44995 0.0628,0 0.68246,0.56404 1.37699,1.25342 1.93726,1.9229 3.27215,2.60128 5.31019,2.69858 0.88321,0.0422 1.1974,0.0108 1.39367,-0.1394 0.24722,-0.18911 0.24413,-0.19729 -0.12669,-0.33541 -1.3056,-0.48628 -2.53965,-1.66579 -3.87253,-3.70138 -1.01285,-1.54684 -2.79202,-5.14832 -3.79496,-7.68196 -1.2876,-3.2527 -2.45848,-5.2111 -4.27118,-7.14387 -2.97225,-3.16912 -6.0181,-4.64258 -9.59993,-4.64408 -1.93287,-10e-4 -2.79719,0.23506 -4.80881,1.31233 -1.94888,1.04366 -2.8763,1.39654 -3.93332,1.4966 -1.04263,0.0987 -1.85323,-0.13877 -4.84455,-1.41928 -4.92217,-2.10706 -7.25037,-2.69396 -10.73926,-2.70715 -2.35624,-0.009 -2.74861,0.0957 -6.98771,1.86286 -1.68304,0.70162 -3.59301,1.42349 -4.24436,1.60417 -4.53336,1.25747 -6.64203,2.3986 -9.10556,4.92759 -3.80175,3.90275 -5.81477,9.15604 -6.64931,17.35247 -0.30073,2.95365 -0.89392,4.56921 -3.00509,8.18432 -0.4542,0.77776 -0.95067,1.66441 -1.10327,1.97034 -0.74874,1.5011 0.21564,1.5511 3.10281,0.16086 2.52844,-1.2175 3.72133,-2.23388 5.36324,-4.56967 1.4503,-2.0632 1.70886,-2.19703 2.34888,-1.21571 0.60284,0.92432 0.70644,0.76885 1.65443,-2.48284 0.63497,-2.17793 1.2681,-3.60934 1.62621,-3.67659 0.12713,-0.0239 0.33685,0.0537 0.46604,0.17228 0.14273,0.13107 0.33328,0.184 0.48568,0.13493 0.42184,-0.13585 1.24932,-1.157 1.74209,-2.14979 1.07905,-2.17399 1.40973,-3.57158 1.57648,-6.66294 0.1386,-2.5696 0.49878,-4.17242 1.31446,-5.84926 1.32612,-2.72625 3.95065,-4.55357 6.8716,-4.78433 1.12193,-0.0886 1.56598,0.0102 1.56598,0.34866 0,0.30968 -0.37077,0.56543 -1.27985,0.88277 -1.13141,0.39497 -1.66773,0.72552 -2.31312,1.4256 -1.14532,1.2424 -1.63027,2.78069 -1.92699,6.11251 -0.79034,8.87449 -0.94259,9.64491 -2.61052,13.20981 l -0.7966,1.70261 0.011,1.47838 c 0.0121,1.63776 0.2256,2.50683 0.61569,2.50683 0.14435,0 0.4207,-0.32557 0.76386,-0.89989 0.65236,-1.0918 1.47819,-1.99261 1.82676,-1.99261 0.36001,0 0.4565,0.50957 0.28026,1.4801 -0.31303,1.72372 -0.0756,4.62884 0.68417,8.37074 0.51619,2.54233 1.16663,4.67591 1.4255,4.67591 0.0627,0 0.32092,-0.41941 0.57394,-0.93202 0.82138,-1.66404 2.11778,-3.22392 2.48697,-2.99241 0.0727,0.0456 0.13227,0.27401 0.13227,0.50754 0,0.23352 0.20017,1.57512 0.44483,2.98132 1.61886,9.30455 4.07903,15.07531 8.03779,18.85403 2.29701,2.19255 5.31773,3.73877 8.55821,4.38072 1.75345,0.34737 2.27053,0.40507 2.19001,0.24435 z m 1.62871,-26.99661 c -0.0344,-0.12374 -0.10009,-0.46948 -0.14587,-0.76834 -0.10464,-0.683 -0.53668,-1.34472 -0.98166,-1.50351 -0.28956,-0.10332 -0.42951,-0.058 -0.91689,0.29719 -0.31635,0.23051 -0.75413,0.47118 -0.97283,0.53484 -1.28034,0.37258 -3.10109,-1.19033 -2.83245,-2.43135 0.26686,-1.23284 2.62076,-1.9832 4.09356,-1.30493 1.23082,0.56683 2.94198,3.0212 2.94198,4.21979 0,0.77297 -1.0101,1.58755 -1.18584,0.95631 z m -7.54428,-0.89328 c -1.17705,-1.44796 -1.50359,-4.3249 -0.6909,-6.08705 0.97922,-2.12321 3.48097,-3.46212 6.15529,-3.2942 2.622,0.16462 5.58174,1.75098 8.40306,4.50386 0.97209,0.9485 1.07221,1.09131 1.07156,1.52834 -0.001,0.9202 -0.85124,1.29694 -1.59902,0.70885 -0.20103,-0.1581 -1.02117,-0.88755 -1.82253,-1.62099 -3.71328,-3.39858 -6.14668,-4.30341 -8.55931,-3.18267 -2.09395,0.97269 -3.04103,3.47839 -2.58158,6.83011 0.0744,0.54245 0.10943,1.01241 0.0779,1.04436 -0.0315,0.0319 -0.23601,-0.16182 -0.45451,-0.43061 z m -7.4362,-19.69438 c -1.16474,-0.72066 -1.85804,-1.91663 -1.93128,-3.33152 -0.0617,-1.19148 0.19376,-1.9119 0.98044,-2.76525 0.6724,-0.72939 1.46192,-1.1695 2.57617,-1.43607 0.87639,-0.20965 2.93155,-0.25127 3.68173,-0.0746 0.42024,0.099 0.50205,0.0785 0.65526,-0.16375 0.0963,-0.15229 0.24396,-0.63845 0.32816,-1.08036 0.0912,-0.47888 0.21765,-0.80346 0.31291,-0.80346 0.18437,0 0.23965,0.19941 0.44353,1.5999 0.10376,0.71272 0.24068,1.14375 0.45302,1.42624 0.4861,0.64664 0.35876,1.48946 -0.26116,1.7286 -0.22789,0.0879 -0.52722,0.0123 -1.29095,-0.32597 -1.14622,-0.50774 -1.82453,-0.56528 -2.19788,-0.18644 -0.51905,0.52665 -0.15037,1.54266 0.55977,1.54266 0.49471,0 0.72512,-0.14227 0.89523,-0.55278 l 0.15984,-0.38575 0.15716,0.48319 c 0.29783,0.91562 -0.0905,2.01777 -0.91529,2.59772 -0.44242,0.31109 -0.64183,0.36444 -1.36196,0.36444 -0.69063,0 -0.92853,-0.0583 -1.31164,-0.32139 -0.50172,-0.34453 -1.09716,-1.37924 -1.09716,-1.90652 0,-0.5929 0.29539,-1.31179 0.72226,-1.75777 0.39964,-0.41752 0.40655,-0.43869 0.10526,-0.32245 -1.05642,0.40753 -1.74463,1.08895 -1.97445,1.95491 -0.24667,0.92953 0.10136,2.17397 0.89087,3.18542 0.21051,0.2697 0.38276,0.55435 0.38276,0.63256 0,0.22213 -0.52975,0.16622 -0.9626,-0.10159 z m 25.92045,5.58305 c 0.0654,-0.17445 0.29201,-1.52107 0.50365,-2.99248 0.68868,-4.78782 0.46922,-6.89245 -0.83219,-7.98091 -0.38422,-0.32134 -1.13562,-0.69536 -0.88393,-0.43998 0.0429,0.0435 -0.0944,0.1527 -0.30517,0.24261 -0.95567,0.40772 -0.62946,1.79543 0.39829,1.69435 0.30545,-0.03 0.49092,-0.1541 0.69788,-0.46682 l 0.28187,-0.42591 0.0862,0.46608 c 0.30437,1.64626 -0.73727,3.02113 -2.2889,3.02113 -1.32998,0 -2.34391,-1.04081 -2.34391,-2.40604 0,-1.13661 0.85051,-2.16729 1.91718,-2.32328 l 0.55342,-0.0809 -0.57014,-0.0922 c -0.31357,-0.0507 -1.02625,-0.0964 -1.58372,-0.1015 -1.15052,-0.0106 -1.77699,0.22362 -2.0796,0.77748 -0.33813,0.61887 0.0513,1.28666 1.79829,3.08373 1.78606,1.83727 2.08683,2.35681 2.82006,4.87142 0.73079,2.50625 1.15677,3.47039 1.53329,3.47039 0.0982,0 0.23209,-0.14272 0.29745,-0.31716 z m -66.83427,-9.03524 c -0.26904,-0.64867 -0.81512,-2.40448 -0.95401,-3.06744 -0.24694,-1.17873 -0.23099,-2.82007 0.03,-3.08525 0.33159,-0.33695 0.78055,-0.0698 1.99984,1.18997 2.53715,2.62138 4.47197,3.58497 7.49916,3.7348 l 1.47704,0.0731 0.72146,-1.13476 c 3.67109,-5.77409 8.40177,-9.95499 13.30194,-11.756 1.45381,-0.53435 2.05093,-0.84082 2.20413,-1.13129 0.17524,-0.33223 0.0468,-0.47136 -0.94077,-1.01909 -0.48434,-0.26863 -0.89808,-0.58042 -0.91942,-0.69286 -0.10775,-0.56768 3.01078,-1.29899 7.32127,-1.71688 2.32466,-0.22537 2.91568,-0.31366 2.91059,-0.43479 -0.002,-0.0452 -0.46996,-0.31351 -1.04014,-0.59633 -1.64214,-0.81455 -1.70626,-1.25351 -0.24729,-1.69281 0.97004,-0.29208 3.70776,-0.28673 5.3452,0.0104 2.63207,0.47769 5.52628,1.71366 8.54858,3.65066 4.05753,2.60049 4.74802,2.95722 6.26411,3.23617 1.67612,0.30839 3.15197,-0.34258 5.25748,-2.31896 1.70431,-1.59979 2.64315,-2.1181 3.2448,-1.79139 0.19167,0.10409 0.25079,0.26972 0.25079,0.70259 0,0.31193 0.0711,0.61311 0.15838,0.67039 0.0871,0.0572 1.03522,0.10401 2.10693,0.10401 2.08577,0 1.9371,-0.043 2.26581,0.65538 0.0532,0.113 0.49504,0.33485 0.98191,0.493 1.03029,0.33467 2.2427,0.93944 3.2291,1.61076 1.00517,0.68408 1.07171,0.71969 0.94698,0.50673 -2.02534,-3.4576 -6.02734,-8.1209 -8.73887,-10.18294 -1.31237,-0.998 -3.55325,-2.16676 -4.75117,-2.47801 -1.17667,-0.30572 -3.00846,-0.27989 -4.05432,0.0572 -0.9526,0.307 -2.21278,1.03192 -2.63826,1.51764 -0.26287,0.30007 -0.27384,0.35685 -0.10254,0.53066 0.1713,0.17381 0.28414,0.16167 1.05455,-0.11347 0.70834,-0.25297 1.11211,-0.3083 2.25639,-0.30917 2.25901,-0.002 2.42833,0.26114 0.44979,0.69835 -2.17113,0.47974 -3.63969,1.4433 -4.4691,2.93227 -0.20677,0.3712 -0.39872,0.67491 -0.42656,0.67491 -0.0279,0 -0.39908,-0.28492 -0.82499,-0.63314 -4.04749,-3.30933 -8.19994,-5.48841 -12.06799,-6.33293 -1.04037,-0.22715 -1.68462,-0.27934 -3.37621,-0.27349 -1.91838,0.007 -2.2157,0.0403 -3.61089,0.40829 -1.98161,0.52274 -4.35065,1.7021 -6.07878,3.02615 -2.32689,1.78278 -4.6197,4.28411 -7.37693,8.04781 -2.53138,3.45539 -5.44123,5.75628 -8.65967,6.84744 -2.89075,0.98005 -5.50214,0.74304 -7.67566,-0.69665 -1.2833,-0.85004 -1.61641,-1.00894 -2.11495,-1.00894 -0.54225,0 -0.67472,0.16064 -0.85527,1.0372 -0.0791,0.38406 -0.18701,0.7454 -0.2398,0.80297 -0.25323,0.27621 -1.3916,-1.49484 -1.82796,-2.8439 -0.49913,-1.54312 -0.62557,-2.57873 -0.54351,-4.45145 0.20385,-4.652 2.08717,-9.14387 5.79397,-13.81908 1.24671,-1.57241 3.35158,-3.62065 4.56243,-4.43966 1.37198,-0.92801 1.51373,-1.07551 1.51373,-1.57523 0,-0.35868 -0.11984,-0.54763 -0.69684,-1.09872 -0.38326,-0.36606 -0.69684,-0.70672 -0.69684,-0.75704 0,-0.15321 0.37012,-0.2257 2.21721,-0.43425 0.97557,-0.11016 3.25613,-0.23442 5.06791,-0.27612 3.51989,-0.0811 5.17364,0.0216 7.9105,0.49087 1.9448,0.33349 4.72659,0.29079 5.76759,-0.0885 l 0.62824,-0.22891 -1.06419,-0.28574 c -0.7378,-0.1981 -2.03793,-0.78336 -4.23912,-1.90825 -3.56066,-1.81964 -4.56294,-2.15716 -7.12369,-2.39896 -1.33407,-0.12597 -4.65444,0.0164 -4.84293,0.20766 -0.0317,0.0322 0.18032,0.26506 0.47109,0.5176 0.29078,0.25255 0.52869,0.56328 0.52869,0.69052 0,0.50498 -0.19155,0.54721 -4.09911,0.90366 -2.74333,0.25024 -6.20235,1.15884 -8.48426,2.22861 -1.68106,0.78808 -1.67867,0.81561 0.0654,0.75252 1.67367,-0.0606 2.73341,0.10431 3.06574,0.47692 0.18977,0.21276 0.18827,0.24599 -0.0197,0.43691 -0.12376,0.11365 -1.0507,0.50419 -2.05986,0.86786 -4.87123,1.75545 -7.11862,3.39649 -8.88494,6.48772 -1.58322,2.77082 -2.89671,7.95309 -2.8949,11.42167 0.002,3.07007 0.87322,6.8759 2.43349,10.62556 0.49007,1.17773 1.22948,2.57096 1.36462,2.57125 0.036,8e-5 0.046,-0.60723 0.0222,-1.34958 -0.0692,-2.16216 0.44022,-4.14929 1.19139,-4.64731 0.44495,-0.295 0.65999,0.0219 1.0599,1.56159 0.93387,3.59572 2.43012,6.60838 4.18212,8.42065 1.05133,1.08749 2.21948,1.79281 1.96899,1.18886 z m 87.27961,-4.95227 c 0.92959,-0.44793 2.09015,-1.31688 2.85592,-2.13829 0.23691,-0.25413 0.96366,-1.14034 1.615,-1.96936 1.24308,-1.58218 1.68021,-1.98077 2.02503,-1.84651 0.17393,0.0677 0.19493,0.20319 0.12676,0.8176 -0.0449,0.40505 -0.11827,1.11246 -0.16294,1.57205 l -0.0812,0.83561 0.29028,-0.25711 c 0.81227,-0.71948 2.62506,-4.18643 3.35485,-6.41614 0.75231,-2.29854 0.99534,-4.095 0.91462,-6.76078 -0.0771,-2.54467 -0.35074,-4.0116 -1.16344,-6.23591 -1.55902,-4.26692 -4.67475,-8.30837 -8.37614,-10.86482 -2.56405,-1.77091 -4.74068,-2.59279 -6.89217,-2.60244 -1.08672,-0.005 -1.31438,0.0389 -2.34391,0.45067 -2.41749,0.96691 -5.39024,1.565 -9.50232,1.91177 l -1.90046,0.16026 0.57014,0.25827 c 0.50343,0.22804 0.96297,0.26925 3.92763,0.35223 3.44211,0.0963 4.53335,0.20841 6.23098,0.63982 2.3577,0.59917 5.01269,1.78908 7.04396,3.15697 1.30402,0.87815 3.06274,2.60639 3.82531,3.75903 1.08751,1.64378 2.03108,4.14311 2.03108,5.37988 0,0.4911 -0.0315,0.54895 -0.2989,0.54895 -0.16831,0 -0.55047,-0.22469 -0.87465,-0.51422 -0.70638,-0.6309 -0.87317,-0.65182 -0.76865,-0.0964 0.10718,0.56959 1.04861,3.36085 1.63678,4.85296 0.44743,1.13504 0.48192,1.31658 0.48845,2.5711 0.006,1.01428 -0.0507,1.50163 -0.22518,1.96047 -0.31021,0.8158 -0.57558,0.80113 -1.03604,-0.0573 -0.19704,-0.36735 -0.65119,-0.97478 -1.00921,-1.34983 -0.99737,-1.04483 -1.2109,-0.94959 -1.66244,0.74147 -0.17799,0.66661 -0.60308,1.80962 -0.94464,2.54004 -1.06423,2.2759 -2.70889,3.63531 -4.85639,4.01409 -1.56445,0.27595 -3.74391,-0.1188 -5.74896,-1.04126 l -0.84766,-0.38998 0.37686,0.40189 c 0.55852,0.5956 1.80028,1.51562 2.59324,1.92134 1.52118,0.77831 2.27131,0.93259 4.94067,1.0162 l 2.46924,0.0773 0.17475,0.37065 c 0.22591,0.4792 0.0429,1.16421 -0.56173,2.10207 -0.2386,0.37011 -0.43381,0.72644 -0.43381,0.79183 0,0.18229 1.18576,-0.17582 2.1993,-0.6642 z"/>
	</g>
	<g id="g4" style="fill:#000000;fill-opacity:1;stroke:none">
		<path id="p3" d="m 26.6155,119.70603 c 3.488,0 5.472,-1.824 6.144,-3.424 h 0.128 l 1.696,3.04 h 1.12 v -9.28 h 2.048 v -1.536 h -9.056 v 1.536 h 4 v 2.976 c 0,3.04 -2.432,4.704 -5.728,4.704 -3.904,0 -6.496,-2.976 -6.496,-7.424 v -4.352 c 0,-4.48 2.112,-7.552001 6.848,-7.552001 3.488,0 5.632,1.248 5.632,3.616001 v 1.504 h 2.464 v -6.528001 h -2.464 v 1.984 h -0.16 c -0.544,-1.28 -2.4,-2.368 -5.888,-2.368 -5.984,0 -9.792,4.128001 -9.792,11.552001 0,7.168 3.808,11.552 9.504,11.552 z"/>
		<path id="p4" d="m 40.7715,119.32203 h 9.632 c 6.016,0 10.176,-3.68 10.176,-11.168 0,-7.488 -4.16,-11.168001 -10.176,-11.168001 h -9.632 v 1.536 h 2.432 v 19.264001 h -2.432 z m 5.44,-20.672001 h 3.872 c 4.352,0 7.136,3.040001 7.136,7.520001 v 3.968 c 0,4.48 -2.784,7.52 -7.136,7.52 h -3.872 z"/>
		<path id="p5" d="m 63.959,119.32203 h 12 c 3.456,0 6.016,-2.432 6.016,-6.208 0,-3.552 -2.976,-5.248 -5.216,-5.376 v -0.128 c 2.176,-0.352 4.352,-2.176 4.352,-5.344 0,-3.136001 -2.368,-5.280001 -6.176,-5.280001 H 63.959 v 1.536 h 2.432 v 19.264001 h -2.432 z m 5.44,-10.688 h 5.44 c 2.464,0 3.968,1.568 3.968,3.808 v 1.408 c 0,2.24 -1.504,3.808 -3.968,3.808 h -5.44 z m 0,-9.984001 h 4.928 c 2.24,0 3.616,1.440001 3.616,3.488001 v 1.344 c 0,2.048 -1.376,3.488 -3.616,3.488 h -4.928 z"/>
		<path id="p6" d="m 85.8965,119.32203 h 6.752 v -1.536 h -2.432 v -17.344 h 0.128 l 1.728,3.776 5.6,11.68 6.336,-12.544 1.312,-2.912 h 0.128 v 17.344 h -2.432 v 1.536 h 7.872 v -1.536 h -2.432 V 98.522029 h 2.432 v -1.536 h -5.536 l -6.88,13.856001 h -0.128 l -6.528,-13.856001 h -5.92 v 1.536 h 2.432 v 19.264001 h -2.432 z"/>
	</g>
</svg>