<svg xmlns="http://www.w3.org/2000/svg" version="1.1" width="128" height="128" viewBox="0 0 128 128" id="mongodb-logo">
	<defs id="dfs1">
		<clipPath id="clipPath18" clipPathUnits="userSpaceOnUse">
			<path id="path20" d="m 275.945,28.6719 -29.961,9.9179 c 0,0 3.821,151.6402 -50.867,162.2582 -36.062,41.785 5.551,1784.892 136.559,5.972 0,0 -44.84,-22.515 -53.328,-60.75 -8.485,-38.261 -2.403,-117.3981 -2.403,-117.3981 z"/>
		</clipPath>
		<linearGradient id="linearGradient22" spreadMethod="pad" gradientTransform="matrix(344.394,-116.194,-104.815,-309.067,77.7619,575.995)" gradientUnits="userSpaceOnUse" y2="0" x2="1" y1="0" x1="0">
			<stop id="stop24" offset="0" style="stop-opacity:1;stop-color:#929669"/>
			<stop id="stop26" offset="0.230769" style="stop-opacity:1;stop-color:#929669"/>
			<stop id="stop28" offset="1" style="stop-opacity:1;stop-color:#fdfcf1"/>
		</linearGradient>
		<clipPath id="clipPath36" clipPathUnits="userSpaceOnUse">
			<path id="path38" d="m 292.098,175.105 c 0,0 260.343,171.469 199.351,527.575 -58.738,258.718 -197.418,343.77 -212.32,376.24 -16.406,22.98 -32.93,63.71 -32.93,63.71 l 11.074,-720.864 c 0,0 -22.906,-220.11 34.825,-246.661 z"/>
		</clipPath>
		<linearGradient id="linearGradient40" spreadMethod="pad" gradientTransform="matrix(241.166,-936.211,-1007.33,-161.502,203.932,1135.85)" gradientUnits="userSpaceOnUse" y2="0" x2="1" y1="0" x1="0">
			<stop id="stop42" offset="0" style="stop-opacity:1;stop-color:#45aa3a"/>
			<stop id="stop44" offset="1" style="stop-opacity:1;stop-color:#3d9439"/>
		</linearGradient>
		<clipPath id="clipPath52" clipPathUnits="userSpaceOnUse">
			<path id="path54" d="m 230.742,165.523 c 0,0 -244.2108,166.598 -230.159969,460.543 C 14.6367,920.02 187.121,1064.55 220.715,1090.77 c 21.719,23.15 22.617,32.07 24.297,54.91 15.222,-32.7 12.691,-488.422 14.304,-541.688 6.258,-207.351 -11.484,-399.328 -28.574,-438.469 z"/>
		</clipPath>
		<linearGradient id="linearGradient56" spreadMethod="pad" gradientTransform="matrix(422.095,95.9042,131.897,-394.11,-25.0834,595.855)" gradientUnits="userSpaceOnUse" y2="0" x2="1" y1="0" x1="0">
			<stop id="stop58" offset="0" style="stop-opacity:1;stop-color:#41a83b"/>
			<stop id="stop60" offset="1" style="stop-opacity:1;stop-color:#5ebc44"/>
		</linearGradient>
		<clipPath id="clipPath18-5" clipPathUnits="userSpaceOnUse">
			<path id="path20-8" d="m 275.945,28.6719 -29.961,9.9179 c 0,0 3.821,151.6402 -50.867,162.2582 -36.062,41.785 5.551,1784.892 136.559,5.972 0,0 -44.84,-22.515 -53.328,-60.75 -8.485,-38.261 -2.403,-117.3981 -2.403,-117.3981 z"/>
		</clipPath>
		<clipPath id="clipPath36-6" clipPathUnits="userSpaceOnUse">
			<path id="path38-0" d="m 292.098,175.105 c 0,0 260.343,171.469 199.351,527.575 -58.738,258.718 -197.418,343.77 -212.32,376.24 -16.406,22.98 -32.93,63.71 -32.93,63.71 l 11.074,-720.864 c 0,0 -22.906,-220.11 34.825,-246.661 z"/>
		</clipPath>
		<clipPath id="clipPath52-2" clipPathUnits="userSpaceOnUse">
			<path id="path54-1" d="m 230.742,165.523 c 0,0 -244.2108,166.598 -230.159969,460.543 C 14.6367,920.02 187.121,1064.55 220.715,1090.77 c 21.719,23.15 22.617,32.07 24.297,54.91 15.222,-32.7 12.691,-488.422 14.304,-541.688 6.258,-207.351 -11.484,-399.328 -28.574,-438.469 z"/>
		</clipPath>
	</defs>
	<g id="grp1">
		<g transform="translate(-1.564311e-8,-1.4879502)" id="g1702">
			<g id="g1680" transform="translate(-1.6284107,-14.1122)">
				<g transform="matrix(0.075,0,0,-0.075,12.176642,108.0382)" id="g12">
					<g id="g14">
						<g clip-path="url(#clipPath18-5)" id="g16">
							<path id="path30" style="fill:url(#linearGradient22);fill-opacity:1;fill-rule:nonzero;stroke:none" d="m 275.945,28.6719 -29.961,9.9179 c 0,0 3.821,151.6402 -50.867,162.2582 -36.062,41.785 5.551,1784.892 136.559,5.972 0,0 -44.84,-22.515 -53.328,-60.75 -8.485,-38.261 -2.403,-117.3981 -2.403,-117.3981"/>
						</g>
					</g>
					<g id="g32">
						<g clip-path="url(#clipPath36-6)" id="g34">
							<path id="path46" style="fill:url(#linearGradient40);fill-opacity:1;fill-rule:nonzero;stroke:none" d="m 292.098,175.105 c 0,0 260.343,171.469 199.351,527.575 -58.738,258.718 -197.418,343.77 -212.32,376.24 -16.406,22.98 -32.93,63.71 -32.93,63.71 l 11.074,-720.864 c 0,0 -22.906,-220.11 34.825,-246.661"/>
						</g>
					</g>
					<g id="g48">
						<g clip-path="url(#clipPath52-2)" id="g50">
							<path id="path62" style="fill:url(#linearGradient56);fill-opacity:1;fill-rule:nonzero;stroke:none" d="m 230.742,165.523 c 0,0 -244.2108,166.598 -230.159969,460.543 C 14.6367,920.02 187.121,1064.55 220.715,1090.77 c 21.719,23.15 22.617,32.07 24.297,54.91 15.222,-32.7 12.691,-488.422 14.304,-541.688 6.258,-207.351 -11.484,-399.328 -28.574,-438.469"/>
						</g>
					</g>
				</g>
				<g transform="matrix(0.49600586,0,0,0.95091288,-67.513883,5.1093235)" id="g1551">
					<path d="m 271.2348,86.453175 c 2.15875,1.7265 6.47625,2.4375 10.28249,2.4375 4.935,0 9.76751,-0.9155 14.49626,-5.17825 4.83124,-4.368125 8.1225,-11.069375 8.1225,-21.731 0,-10.255875 -3.90751,-18.582505 -11.92626,-23.456505 -4.525,-2.84275 -10.38374,-3.959 -17.0675,-3.959 -1.95374,0 -3.90749,0.10113 -5.03874,0.60838 -0.30875,0.20312 -0.92625,1.01562 -0.92625,1.42287 -0.205,1.82713 -0.205,15.73775 -0.205,23.96238 0,8.42775 0,20.206625 0.205,21.629375 0.105,1.217875 0.72,3.350125 2.0575,4.26425 z M 250.71229,29.99605 c 1.74751,0 8.38875,0.30425 11.475,0.30425 5.7575,0 9.76626,-0.30425 20.56126,-0.30425 9.04875,0 16.65874,2.43712 22.10749,7.1075 6.58125,5.687 10.07625,13.60687 10.07625,23.252875 0,13.7085 -6.27125,21.6285 -12.5425,26.09675 -6.27375,4.669875 -14.39625,7.3105 -26.01375,7.3105 -6.16999,0 -16.76124,-0.203125 -25.60375,-0.30325 h -0.12125 c -0.41,-0.813875 0.7575,-3.98 1.48125,-4.0625 2.39,-0.2705 3.0375,-0.36225 4.1475,-0.81925 1.86625,-0.768125 2.3075,-1.71925 2.51501,-5.070875 0.30624,-6.294375 0.20499,-13.808625 0.20499,-22.338875 0,-6.091755 0.10125,-17.972625 -0.10375,-21.730005 -0.30875,-3.14737 -1.6425,-3.95887 -4.3175,-4.56925 -1.3375,-0.30375 -3.1875,-0.60887 -5.7575,-0.91362 -0.20625,-0.60888 1.3775,-3.3515 1.89125,-3.96" style="fill:#c0bdba;fill-opacity:1;fill-rule:nonzero;stroke:none;stroke-width:0.125" id="path64"/>
					<path d="m 342.15979,34.97217 c -0.41,0.10163 -0.92499,1.11725 -0.92499,1.625 -0.10125,3.65425 -0.20376,13.19925 -0.20376,19.79888 0,0.20312 0.30625,0.50775 0.51376,0.50775 1.33624,0.10262 4.625,0.20412 7.40125,0.20412 3.90749,0 6.17125,-0.50875 7.40374,-1.11812 3.29,-1.62363 4.83125,-5.17775 4.83125,-9.03613 0,-8.834 -6.16875,-12.18562 -15.3175,-12.18562 -0.6175,0 -2.36625,0 -3.70375,0.20412 z m 23.34,40.616255 c 0,-8.935625 -6.57875,-14.01225 -18.61,-14.01225 -0.51375,0 -4.31874,-0.1025 -5.24374,0.101625 -0.30876,0.1005 -0.61501,0.303625 -0.61501,0.50675 0,6.398 -0.105,16.653375 0.20376,20.713875 0.20624,1.726625 1.44124,4.164125 2.98249,4.8745 1.64625,0.914625 5.345,1.11775 7.91626,1.11775 7.09499,0 13.36624,-3.961 13.36624,-13.30225 z M 323.59104,29.99605 c 0.92501,0 3.66251,0.30425 10.6525,0.30425 6.58125,0 11.92626,-0.20213 18.30126,-0.20213 7.91625,0 18.815,2.84275 18.815,14.62163 0,5.7875 -4.11126,10.45887 -9.45751,12.69287 -0.30875,0.1015 -0.30875,0.30463 0,0.40625 7.60876,1.92813 14.29125,6.599505 14.29125,15.53513 0,8.732375 -5.44875,14.21625 -13.36625,17.668875 -4.8325,2.131375 -10.795,2.842375 -16.86375,2.842375 -4.62625,0 -17.02375,-0.507875 -23.91374,-0.404875 -0.72125,-0.306125 0.65999,-3.555625 1.27499,-4.0625 1.64625,-0.101 2.91501,-0.219625 4.66375,-0.7275 2.46625,-0.609375 2.75875,-1.40475 3.0675,-5.0605 0.20751,-3.147 0.20751,-14.4185 0.20751,-22.441 0,-10.966255 0.10125,-18.378375 0,-22.033625 -0.10501,-2.84375 -1.13251,-3.75788 -3.08625,-4.26563 -1.54126,-0.30375 -4.11126,-0.60887 -6.16751,-0.91362 -0.51625,-0.50775 1.0675,-3.55375 1.58125,-3.96" style="fill:#c0bdba;fill-opacity:1;fill-rule:nonzero;stroke:none;stroke-width:0.125" id="path66"/>
				</g>
			</g>
			<g transform="matrix(0.3645,0,0,0.3645,28.249978,79.598968)" id="g1558">
				<path id="path68" style="fill:#414044;fill-opacity:1;fill-rule:nonzero;stroke:none;stroke-width:0.125" d="m -44.23896,93.7193 c -0.17137,-0.2735 -0.3525,-1.081125 -0.31437,-2.05275 0.0283,-0.73875 0.17475,-1.208 0.3135,-1.368625 1.93887,-0.30625 2.85687,-0.51275 3.94675,-0.80425 1.81787,-0.45075 2.50287,-1.432625 2.60987,-3.757375 0.29825,-5.4765 0.31588,-15.7455 0.2065,-22.96775 l 0.002,-0.212875 c 0.008,-0.774375 0.0205,-1.834 -0.95262,-2.581 -1.42588,-0.9395 -3.20363,-1.716375 -5.45313,-2.391125 -0.86087,-0.25488 -1.337,-0.7075 -1.31162,-1.23688 0.0269,-0.50875 0.567,-1.15575 1.6895,-1.372 2.977,-0.30712 10.78375,-2.16562 13.84662,-3.57862 0.18125,0.22012 0.46738,0.69775 0.41213,1.459 -0.0229,0.32025 -0.0512,0.65525 -0.079,1.00237 -0.0875,1.0205 -0.18513,2.17725 -0.18513,3.33063 0,0.33975 0.36813,0.66162 0.75875,0.66162 0.19875,0 0.38238,-0.0776 0.53175,-0.22512 5.83788,-4.56888 11.05913,-6.19975 13.74713,-6.19975 4.417,0 7.854,2.10837 10.51075,6.44287 0.15575,0.2295 0.36475,0.35063 0.59862,0.35063 0.22263,0 0.43313,-0.11475 0.55663,-0.29888 5.36837,-4.06687 10.68837,-6.49462 14.24462,-6.49462 8.4175,0 13.445,6.294 13.445,16.8325 0,3.028375 -0.0312,6.86675 -0.0575,10.45025 -0.0263,3.1435 -0.0475,6.09075 -0.0475,8.129875 0,0.494625 0.66125,1.86575 1.66,2.140125 1.23,0.598625 3.00875,0.90425 5.25375,1.2915 l 0.0863,0.01412 c 0.17125,0.6035 -0.18625,2.953625 -0.52875,3.434625 -0.55625,-0.0044 -1.32875,-0.0445 -2.29,-0.09275 -1.7475,-0.08987 -4.1425,-0.2105 -6.93125,-0.2105 -5.5925,0 -8.515,0.109875 -11.30625,0.29 -0.21,-0.69725 -0.28375,-2.94625 -0.0275,-3.415 1.6275,-0.304625 2.4325,-0.51025 3.41,-0.79925 1.78,-0.5865 2.2925,-1.392625 2.39625,-3.754 0.0412,-1.680625 0.36375,-16.459875 -0.20875,-19.96925 -0.5275,-3.636625 -3.2725,-7.893505 -9.27375,-7.893505 -2.22625,0 -5.82375,0.924755 -9.25287,3.522005 -0.21288,0.2065 -0.33538,0.607875 -0.33538,0.8715 l 0.006,0.0675 c 0.40388,1.8945 0.40388,4.1035 0.40388,7.44625 0,1.90475 -0.0122,3.92625 -0.023,5.933125 -0.0234,4.074625 -0.0454,7.922375 0.023,10.829 0,1.9815 1.19937,2.454125 2.16437,2.836 0.52375,0.11625 0.94,0.21625 1.35625,0.315375 0.80875,0.194875 1.64375,0.3955 2.8825,0.59375 0.16875,0.390625 0.18375,1.557125 -0.0487,2.55475 -0.13,0.55125 -0.27875,0.793875 -0.3575,0.873 -3.11,-0.106375 -6.30162,-0.199625 -10.90562,-0.199625 -1.3955,0 -3.67475,0.06 -5.685,0.11375 -1.62938,0.04337 -3.17288,0.08587 -4.04988,0.08937 -0.12687,-0.20075 -0.30462,-0.84375 -0.30462,-1.770125 0,-0.86075 0.15825,-1.46775 0.32075,-1.65475 0.43212,-0.08 0.84375,-0.15275 1.23637,-0.222625 1.08013,-0.192375 2.01275,-0.3565 2.90775,-0.576625 1.52388,-0.464375 2.09563,-1.310625 2.207,-3.246125 0.29738,-4.519 0.52975,-17.536125 -0.11037,-20.796375 -1.08938,-5.2315 -4.07125,-7.882375 -8.86038,-7.882375 -2.80812,0 -6.352,1.349125 -9.25,3.519125 -0.48575,0.357875 -0.853,1.25875 -0.853,2.09025 0,1.549875 -0.005,3.396 -0.0112,5.375 -0.0195,6.538125 -0.0425,14.675375 0.11675,18.19725 0.0976,1.082125 0.47463,2.370625 2.518,2.84575 0.44538,0.1245 1.21788,0.253875 2.11288,0.401375 0.51512,0.08588 1.07862,0.17925 1.65762,0.28325 0.208,0.5595 0.0806,2.753875 -0.27587,3.437 -0.893,-0.0059 -1.99263,-0.05712 -3.25388,-0.112375 -1.9268,-0.08486 -4.3223,-0.192365 -7.0533,-0.192365 -3.21337,0 -5.45112,0.1075 -7.248,0.192375 -1.20512,0.05662 -2.2505,0.1075 -3.2935,0.112375 v 0"/>
				<path id="path70" style="fill:#414044;fill-opacity:1;fill-rule:nonzero;stroke:none;stroke-width:0.125" d="m 57.76354,55.74217 c -1.87125,0 -3.61875,0.48975 -4.91875,1.37938 -3.57,2.169 -5.3875,6.4995 -5.3875,12.860875 0,11.913125 5.9725,20.232 14.52125,20.232 2.5225,0 4.57875,-0.724125 6.2875,-2.214875 2.6275,-2.141125 4.02,-6.51375 4.02,-12.63625 0,-11.736375 -5.83625,-19.62113 -14.5225,-19.62113 z m 1.64625,38.89113 c -15.4475,0 -20.95125,-11.318375 -20.95125,-21.908625 0,-7.398 3.02875,-13.182625 9.005,-17.191505 4.2475,-2.60787 9.31875,-4.10837 13.9,-4.10837 11.78875,0 20.02375,8.466375 20.02375,20.589875 0,8.242625 -3.29125,14.748 -9.515,18.814 -2.985,1.829 -8.16375,3.804625 -12.4625,3.804625 v 0"/>
				<path id="path72" style="fill:#414044;fill-opacity:1;fill-rule:nonzero;stroke:none;stroke-width:0.125" d="m 217.72979,55.74217 c -1.87375,0 -3.6225,0.48975 -4.92125,1.37938 -3.56875,2.169 -5.38625,6.498125 -5.38625,12.860875 0,11.913125 5.97,20.232 14.52125,20.232 2.5225,0 4.57875,-0.724125 6.2875,-2.215875 2.62625,-2.140125 4.02,-6.51175 4.02,-12.63375 0,-11.736875 -5.83625,-19.62263 -14.52125,-19.62263 z m 1.645,38.89113 c -15.44875,0 -20.9525,-11.317375 -20.9525,-21.90775 0,-7.399875 3.03125,-13.185 9.0075,-17.19375 4.24625,-2.6075 9.3175,-4.107 13.8975,-4.107 11.79,0 20.025,8.46775 20.025,20.588875 0,8.244625 -3.29125,14.75 -9.515,18.8135 -2.985,1.8305 -8.1625,3.806125 -12.4625,3.806125 v 0"/>
				<path id="path74" style="fill:#414044;fill-opacity:1;fill-rule:nonzero;stroke:none;stroke-width:0.125" d="m 166.03604,55.33692 c -4.76125,0 -7.83875,3.75638 -7.83875,9.56938 0,5.866625 2.64625,12.71675 10.1025,12.71675 1.28,0 3.60125,-0.568375 4.75125,-1.835 1.7325,-1.58975 2.86375,-4.875 2.86375,-8.344125 0,-7.581625 -3.69375,-12.107005 -9.87875,-12.107005 z m -0.615,40.10738 c -1.78875,0 -3.09,0.520125 -3.8675,0.956125 -3.76875,2.4135 -5.51625,4.823755 -5.51625,7.598625 0,2.61718 1.0175,4.69627 3.2025,6.54491 2.64625,2.23975 6.215,3.33008 10.91,3.33008 9.2325,0 13.3725,-4.95996 13.3725,-9.87499 0,-3.42037 -1.71875,-5.713375 -5.25375,-7.00975 -2.725,-0.994625 -7.27625,-1.545 -12.8475,-1.545 z m 0.615,23.55963 c -5.545,0 -9.54125,-1.16895 -12.955,-3.79248 -3.32,-2.56006 -4.8075,-6.35645 -4.8075,-8.98002 0,-0.75388 0.17875,-2.70363 1.81875,-4.56638 0.9675,-1.09712 3.205,-3.149875 8.375,-6.701625 0.15875,-0.05963 0.26875,-0.216375 0.26875,-0.40625 0,-0.212 -0.13625,-0.383375 -0.32375,-0.423375 -4.26125,-1.629875 -5.54625,-4.30375 -5.93375,-5.754875 -0.006,-0.05175 -0.0238,-0.13525 -0.0425,-0.223625 -0.1225,-0.569375 -0.23625,-1.107375 0.53375,-1.659625 0.59625,-0.425375 1.555,-0.99275 2.57,-1.590875 1.4975,-0.88375 3.195,-1.88525 4.135,-2.69 0.14875,-0.145 0.20875,-0.357875 0.17375,-0.57075 -0.0362,-0.215375 -0.16125,-0.391625 -0.345,-0.482375 -6.30625,-2.11675 -9.48125,-6.7955 -9.48125,-13.920875 0,-4.600125 2.12375,-8.75788 5.825,-11.40925 2.53625,-2.002 8.9025,-4.40913 13.02625,-4.40913 l 0.24,0.002 c 4.24375,0.10063 6.635,0.98788 9.945,2.21238 1.7975,0.66512 3.49875,0.93462 5.87875,0.93462 3.5125,0 5.04625,-1.11187 6.3625,-2.38862 0.075,0.15812 0.255,0.66012 0.335,1.81587 0.0838,1.17875 -0.23875,2.92525 -1.14125,4.17188 -0.71875,0.993625 -2.3825,1.714375 -3.95375,1.714375 -0.1575,0 -0.3125,-0.0074 -0.46125,-0.023 -1.6175,-0.158625 -2.3775,-0.394 -2.385,-0.397875 l -0.39625,0.138125 c -0.125,0.182125 -0.0437,0.38525 0.0588,0.641625 0.025,0.0615 0.05,0.120125 0.0588,0.158625 0.20625,0.821875 0.5725,3.22175 0.5725,3.894125 0,7.472125 -2.95125,10.731375 -6.14125,13.141125 -3.04375,2.294375 -6.60125,3.67425 -10.61125,4.097125 h -0.004 c -0.0812,0 -0.46125,0.03413 -1.2275,0.1015 -0.49375,0.045 -1.10875,0.100625 -1.2,0.100625 l -0.09,0.01175 c -0.6975,0.19725 -2.505,1.055625 -2.505,2.65375 0,1.330125 0.82,2.977625 4.72875,3.2725 0.7925,0.05962 1.6425,0.118625 2.53,0.17925 5.16125,0.358875 11.60625,0.806125 14.64,1.834 4.1725,1.5185 6.76875,5.251375 6.76875,9.741625 0,6.70613 -4.77375,13.01125 -12.7675,16.86379 -3.8775,1.82373 -7.815,2.70996 -12.0725,2.70996 v 0"/>
				<path id="path76" style="fill:#414044;fill-opacity:1;fill-rule:nonzero;stroke:none;stroke-width:0.125" d="m 140.67354,90.14305 c -2.26125,-0.304625 -3.9075,-0.609375 -5.86,-1.522875 -0.30875,-0.203125 -0.72125,-1.11725 -0.72125,-1.421875 -0.20625,-3.148 -0.20625,-12.286625 -0.20625,-18.276875 0,-4.8745 -0.82125,-9.13875 -2.8775,-12.186505 -2.4675,-3.45175 -5.9625,-5.4825 -10.4875,-5.4825 -4.00875,0 -9.35625,2.74175 -13.77625,6.499 -0.10375,0.10163 -0.7825,0.74513 -0.7675,-0.25487 0.015,-0.9985 0.17,-3.03125 0.2625,-4.311 0.0937,-1.27925 -0.67375,-1.88225 -0.67375,-1.88225 -2.87875,1.42137 -10.98625,3.34612 -13.98,3.65575 -2.18875,0.42087 -2.74,2.52237 -0.41,3.248 v 5e-4 c 0,0.003 0.0225,0.007 0.035,0.0113 2.43875,0.732875 4.08125,1.516125 5.3075,2.324125 0.92625,0.711 0.8225,1.726625 0.8225,2.539125 0.1025,6.80275 0.1025,17.26275 -0.20625,22.94825 -0.1025,2.234375 -0.72,3.045375 -2.365,3.452625 l 0.15,-0.05025 c -1.23375,0.303125 -2.2625,0.50725 -3.80375,0.710375 -0.515,0.506875 -0.515,3.45175 -0.001,4.062 1.02875,0 6.27375,-0.305625 10.59125,-0.305625 5.9625,0 9.0475,0.305625 10.59,0.305625 0.61625,-0.711875 0.8225,-3.453625 0.41125,-4.062 -1.74875,-0.1015 -2.9825,-0.304625 -4.21625,-0.609375 -1.645,-0.40625 -2.05625,-1.21825 -2.1575,-3.046375 -0.20625,-4.772 -0.20625,-14.92575 -0.20625,-21.8315 0,-1.92925 0.51375,-2.84325 1.13125,-3.351125 2.055,-1.828125 5.44875,-3.044875 8.43125,-3.044875 2.8775,0 4.83125,0.9135 6.27125,2.130875 1.95375,1.625 2.6725,3.960375 2.87875,5.687 0.41125,3.859375 0.3075,11.575625 0.3075,18.277375 0,3.65575 -0.3075,4.56975 -1.64375,4.9755 -0.6175,0.30525 -2.2625,0.609375 -4.21625,0.8125 -0.61625,0.608375 -0.41125,3.45175 0,4.062 2.67375,0 5.75875,-0.305625 10.28125,-0.305625 5.65625,0 9.25375,0.305625 10.69375,0.305625 0.61625,-0.711875 0.82125,-3.3525 0.41125,-4.062"/>
			</g>
		</g>
	</g>
</svg>