<svg xmlns="http://www.w3.org/2000/svg" version="1.1" width="128" height="128" viewBox="0 0 128 128" id="redis-logo">
	<g id="g1">
		<g id="g2" transform="matrix(0.45507813,0,0,0.52516162,5.7499994,6.2965636)">
			<path id="p0" style="fill:#912626" d="m 245.97,168.943 c -13.662,7.121 -84.434,36.22 -99.501,44.075 -15.067,7.856 -23.437,7.78 -35.34,2.09 C 99.227,209.418 23.913,178.996 10.346,172.511 3.566,169.271 0,166.535 0,163.951 v -25.876 c 0,0 98.05,-21.345 113.879,-27.024 15.828,-5.679 21.32,-5.884 34.79,-0.95 13.472,4.936 94.018,19.468 107.331,24.344 l -0.006,25.51 c 0.002,2.558 -3.07,5.364 -10.024,8.988"/>
			<path id="p1" style="fill:#c6302b" d="m 245.965,143.22 c -13.661,7.118 -84.431,36.218 -99.498,44.072 -15.066,7.857 -23.436,7.78 -35.338,2.09 C 99.226,183.696 23.915,153.269 10.349,146.788 -3.217,140.303 -3.501,135.84 9.825,130.622 23.151,125.402 98.049,96.017 113.88,90.338 c 15.828,-5.677 21.319,-5.884 34.789,-0.948 13.471,4.934 83.819,32.935 97.13,37.81 13.316,4.881 13.827,8.9 0.166,16.02"/>
			<path id="p2" style="fill:#912626" d="m 245.97,127.074 c -13.662,7.122 -84.434,36.22 -99.501,44.078 -15.067,7.853 -23.437,7.777 -35.34,2.087 C 99.226,167.552 23.913,137.127 10.346,130.642 3.566,127.402 0,124.67 0,122.085 V 96.206 c 0,0 98.05,-21.344 113.879,-27.023 15.828,-5.679 21.32,-5.885 34.79,-0.95 13.473,4.935 94.019,19.464 107.331,24.341 l -0.006,25.513 c 0.002,2.557 -3.07,5.363 -10.024,8.987"/>
			<path id="p3" style="fill:#c6302b" d="m 245.965,101.351 c -13.661,7.12 -84.431,36.218 -99.498,44.075 -15.066,7.854 -23.436,7.777 -35.338,2.087 C 99.226,141.827 23.915,111.401 10.349,104.919 -3.217,98.436 -3.501,93.972 9.825,88.752 23.151,83.535 98.05,54.148 113.88,48.47 c 15.828,-5.678 21.319,-5.884 34.789,-0.949 13.471,4.934 83.819,32.933 97.13,37.81 13.316,4.88 13.827,8.9 0.166,16.02"/>
			<path id="p4" style="fill:#912626" d="m 245.97,83.653 c -13.662,7.12 -84.434,36.22 -99.501,44.078 -15.067,7.854 -23.437,7.777 -35.34,2.087 C 99.226,124.131 23.913,93.705 10.346,87.223 3.566,83.98 0,81.247 0,78.665 v -25.88 c 0,0 98.05,-21.343 113.879,-27.021 15.828,-5.68 21.32,-5.884 34.79,-0.95 13.473,4.935 94.019,19.464 107.331,24.341 l -0.006,25.512 c 0.002,2.555 -3.07,5.361 -10.024,8.986"/>
			<path id="p5" style="fill:#c6302b" d="m 245.965,57.93 c -13.661,7.12 -84.431,36.22 -99.498,44.074 -15.066,7.854 -23.436,7.777 -35.338,2.09 C 99.227,98.404 23.915,67.98 10.35,61.497 -3.217,55.015 -3.5,50.55 9.825,45.331 23.151,40.113 98.05,10.73 113.88,5.05 c 15.828,-5.679 21.319,-5.883 34.789,-0.948 13.471,4.935 83.819,32.934 97.13,37.811 13.316,4.876 13.827,8.897 0.166,16.017"/>
			<path id="p6" style="fill:#ffffff" d="m 159.283,32.757 -22.01,2.285 -4.927,11.856 -7.958,-13.23 -25.415,-2.284 18.964,-6.839 -5.69,-10.498 17.755,6.944 16.738,-5.48 -4.524,10.855 17.067,6.391 M 131.032,90.275 89.955,73.238 148.815,64.203 131.032,90.275 M 74.082,39.347 c 17.375,0 31.46,5.46 31.46,12.194 0,6.736 -14.085,12.195 -31.46,12.195 -17.375,0 -31.46,-5.46 -31.46,-12.195 0,-6.734 14.085,-12.194 31.46,-12.194"/>
			<path id="p7" style="fill:#621b1c" d="m 185.295,35.998 34.836,13.766 -34.806,13.753 -0.03,-27.52"/>
			<path id="p8" style="fill:#9a2928" d="m 146.755,51.243 38.54,-15.245 0.03,27.519 -3.779,1.478 -34.791,-13.752"/>
		</g>
	</g>
</svg>