<svg xmlns="http://www.w3.org/2000/svg" xmlns:xlink="http://www.w3.org/1999/xlink" version="1.1" width="128" height="128" viewBox="0 0 128 128" id="sqlite-logo">
	<defs id="dfs1">
		<linearGradient x1="-15.614694" y1="-9.1082983" x2="-6.7410073" y2="-9.1082983" id="lgrd3168" xlink:href="#lgrd3027" gradientUnits="userSpaceOnUse" gradientTransform="matrix(-5.025e-7,11.486337,-11.486337,-5.025e-7,-30.839638,401.58349)" spreadMethod="pad"/>
		<linearGradient x1="0" y1="0" x2="1" y2="0" id="lgrd3027" gradientUnits="userSpaceOnUse" gradientTransform="matrix(-4.02e-6,-91.8907,-91.8907,4.02e-6,85.8809,161.434)" spreadMethod="pad">
			<stop id="stop3029" style="stop-color:#97d9f6;stop-opacity:1" offset="0"/>
			<stop id="stop3031" style="stop-color:#0f80cc;stop-opacity:1" offset="0.92024499"/>
			<stop id="stop3033" style="stop-color:#0f80cc;stop-opacity:1" offset="1"/>
		</linearGradient>
	</defs>
	<g transform="matrix(0.90126658,0,0,0.99160215,6.318939,0.53746206)" id="layer1">
		<g id="g1437" transform="matrix(0.55596287,0,0,0.4782969,26.194526,37.693671)">
			<path style="fill:#003b57;fill-opacity:1;fill-rule:nonzero;stroke:none" id="SQLite" d="m -8.33139,124.52237 c -3.4448,0 -6.24582,0.90717 -8.39324,2.72075 -2.14742,1.81514 -3.23676,4.19438 -3.23676,7.10968 0,1.51083 0.27055,2.88835 0.80361,4.15061 0.53306,1.26481 1.36256,2.43652 2.47779,3.49527 1.11523,1.05969 3.34748,2.49919 6.67441,4.32935 4.08233,2.21719 6.75388,4.01662 8.03609,5.42163 1.28309,1.40383 1.91973,2.87502 1.91973,4.4088 0,2.05363 -0.75986,3.6929 -2.32154,4.92514 -1.56436,1.2328 -3.65642,1.84693 -6.25028,1.84693 -2.73584,0 -5.11899,-0.858 -7.16551,-2.56187 -2.04652,-1.70632 -3.07961,-3.96322 -3.10282,-6.79192 h -1.27238 v 10.26732 h 1.27238 c 0.38841,-0.97224 0.92593,-1.4696 1.62954,-1.4696 0.33841,0 1.1313,0.20766 2.36618,0.59579 3.0046,0.95111 5.47168,1.41002 7.41105,1.41002 3.34212,0 6.19493,-1.04135 8.57182,-3.15765 2.37333,-2.11535 3.5716,-4.66697 3.5716,-7.64588 0,-2.3099 -0.79111,-4.36504 -2.34386,-6.15643 -1.55275,-1.79356 -4.57254,-3.87976 -9.08524,-6.27559 -3.88321,-2.07564 -6.40386,-3.76614 -7.56731,-5.084 -1.16523,-1.31599 -1.76348,-2.77168 -1.76348,-4.3691 0,-1.72777 0.71343,-3.11555 2.12064,-4.15062 1.40721,-1.03587 3.25104,-1.54904 5.55829,-1.54904 2.59655,0 4.76093,0.68556 6.47351,2.06538 1.71079,1.38222 2.70012,3.29762 2.99121,5.75925 h 1.27238 v -8.89703 H 1.13333 c -0.14465,0.45358 -0.27859,0.74352 -0.40181,0.8738 -0.11965,0.1295 -0.35001,0.1986 -0.69199,0.1986 -0.41163,0 -1.14559,-0.15411 -2.1876,-0.45676 -2.23225,-0.66887 -4.29038,-1.01283 -6.18332,-1.01283 z m 41.58672,0 c -4.19751,0 -8.0084,0.88017 -11.45141,2.6413 -3.44837,1.75795 -6.17797,4.19907 -8.19234,7.30827 -2.01349,3.10896 -3.01353,6.41086 -3.01353,9.92973 0,4.7275 1.73936,8.9392 5.24577,12.6306 3.5082,3.68917 7.71197,5.98795 12.58986,6.87137 1.11523,0.51698 2.71084,1.85154 4.79933,4.01161 2.35368,2.43769 4.34484,4.19589 5.98242,5.24289 1.63579,1.04754 3.40194,1.81531 5.2681,2.32354 1.86794,0.5061 3.88767,0.75466 6.07171,0.75466 2.64476,0 5.01272,-0.40894 7.09853,-1.25114 L 57.185,173.95251 c -1.21077,0.38853 -2.5019,0.57592 -3.86179,0.57592 -1.84562,0 -3.71088,-0.54145 -5.58061,-1.62847 -1.86705,-1.08973 -4.20197,-3.16885 -6.98692,-6.23586 -1.30899,-1.4696 -2.21261,-2.39679 -2.72335,-2.76046 5.33685,-0.9272 9.72545,-3.22835 13.14793,-6.91108 3.42158,-3.68115 5.13416,-7.88236 5.13416,-12.59089 0,-5.59076 -2.23582,-10.28934 -6.67441,-14.12006 -4.44217,-3.83112 -9.90492,-5.75924 -16.38468,-5.75924 z m 25.96101,0 0.0669,1.21143 c 2.79477,0 4.36002,0.73241 4.71004,2.20439 0.13036,0.52667 0.19018,1.49914 0.2009,2.89948 l -0.0222,26.79039 c -0.0232,2.00087 -0.34376,3.2784 -0.95987,3.83287 -0.61699,0.5505 -1.65989,0.89526 -3.16978,1.03269 l -0.067,1.21143 h 27.85841 l 0.71431,-6.07699 h -1.27238 c -0.36341,1.65548 -1.19648,2.84141 -2.52243,3.51512 -1.32953,0.67863 -3.68053,1.01283 -7.07622,1.01283 h -2.63405 c -3.05549,0 -4.82343,-0.98273 -5.29042,-2.95905 -0.0964,-0.391 -0.12946,-0.81019 -0.13393,-1.27101 l 0.11162,-27.08828 c -7.2e-4,-1.99771 0.28304,-3.3364 0.87057,-3.99175 0.59377,-0.65299 1.66435,-1.0184 3.21443,-1.11213 l -0.0669,-1.21143 h -14.5319 z m -25.51456,1.46959 c 4.73415,0 8.59951,1.65881 11.58536,5.00458 2.98495,3.34696 4.46449,7.93417 4.46449,13.74274 0,5.50416 -1.50097,9.91137 -4.50914,13.22639 -3.00817,3.31398 -7.01193,4.96486 -11.98716,4.96486 -4.77968,0 -8.65575,-1.70235 -11.62999,-5.12374 -2.97157,-3.42138 -4.44217,-7.86338 -4.44217,-13.32568 0,-5.61308 1.48846,-10.10632 4.48682,-13.46471 2.99656,-3.35481 7.00924,-5.02444 12.03179,-5.02444 z m 64.06542,5.75925 c -0.67949,0 -1.19737,0.20415 -1.58489,0.61563 -0.39645,0.4099 -0.51788,0.90639 -0.37948,1.50933 0.13393,0.58489 0.50449,1.09751 1.0938,1.52917 0.58574,0.43126 1.21791,0.65538 1.8974,0.65538 0.65717,0 1.15809,-0.22411 1.51793,-0.65538 0.35984,-0.43166 0.46967,-0.94428 0.33484,-1.52917 -0.1384,-0.60294 -0.49645,-1.09943 -1.04916,-1.50933 -0.55895,-0.41148 -1.17327,-0.61563 -1.83044,-0.61563 z m 18.37138,4.11091 c -1.15452,3.95137 -3.65732,6.08968 -7.50035,6.43444 l 0.0447,1.13199 h 4.48683 l -0.0893,13.38527 c 0.007,2.28845 0.0857,3.81206 0.26787,4.58753 0.44199,1.85655 1.80455,2.80018 4.08501,2.80018 3.29926,0 6.76014,-1.78798 10.37993,-5.36204 l -1.09379,-0.8341 c -2.61352,2.35366 -4.92433,3.53498 -6.94229,3.53498 -1.24023,0 -2.00901,-0.63456 -2.2992,-1.88665 -0.0795,-0.30409 -0.11161,-0.65941 -0.11161,-1.07241 l 0.0447,-15.15275 h 6.853 l -0.0669,-1.80722 h -6.7637 v -5.75922 h -1.29471 z m 26.49675,5.04428 c -3.83321,0 -6.95121,1.65549 -9.37544,4.945 -2.41171,3.2951 -3.15817,6.94581 -2.20992,10.96242 0.55806,2.3527 1.66972,4.17612 3.37069,5.46135 1.69829,1.28467 3.85286,1.92636 6.42886,1.92636 2.39833,0 5.73777,-0.54025 7.14319,-1.62847 1.40899,-1.08759 2.70727,-2.84951 3.90643,-5.26275 l -0.95986,-0.89368 c -1.91259,3.13064 -5.7726,4.70669 -8.68344,4.70669 -4.00197,0 -6.45297,-1.95338 -7.36641,-5.83867 -0.11876,-0.49594 -0.20715,-1.02872 -0.26787,-1.58876 4.76094,-0.67061 8.36914,-1.85813 10.80407,-3.5747 2.43315,-1.71753 4.87612,-3.53808 4.41984,-5.46134 -0.27144,-1.14289 -0.93843,-2.04149 -1.96437,-2.72076 -1.03934,-0.67894 -3.73767,-1.03269 -5.24577,-1.03269 z m -41.89925,0.13902 -8.2593,1.68805 v 1.31072 l 2.85727,-0.31775 c 1.38399,0 2.19831,0.55759 2.45547,1.6682 0.0866,0.37169 0.14108,0.89367 0.15626,1.54905 l -0.0892,12.01495 c -0.0232,1.66263 -0.23038,2.62915 -0.64736,2.91934 -0.42055,0.29074 -1.52953,0.43691 -3.32604,0.43691 l -0.0447,1.13198 h 13.10328 l -0.0223,-1.13198 c -1.82062,0 -3.00103,-0.12782 -3.52695,-0.37733 -0.51699,-0.24793 -0.87325,-0.69913 -1.02683,-1.39016 -0.11876,-0.498 -0.17054,-1.35608 -0.17858,-2.54201 l 0.0447,-16.95997 h -1.49561 z m 39.80094,2.22426 c 0.79735,0 1.56792,0.27397 2.34385,0.81423 0.76522,0.53836 1.23131,1.137 1.384,1.78736 0.74734,3.19428 -2.43583,5.40263 -9.59866,6.63305 -0.20447,-2.32919 0.24912,-4.44359 1.40631,-6.35502 1.14827,-1.90961 2.64387,-2.87962 4.4645,-2.87962 z"/>
			<g id="g3163" transform="matrix(1.4074981,0,0,1.2455429,-45.86129,-327.04868)">
				<path style="fill:#0f80cc;fill-opacity:1;fill-rule:nonzero;stroke:none" id="solid-background" d="m 121.6315,216.43274 h -99.506 c -6.669,0 -12.1255,5.4575 -12.1255,12.12625 v 109.7365 c 0,6.66837 5.4565,12.125 12.1255,12.125 H 87.66275 C 86.918884,317.81128 98.054499,254.52692 121.6315,216.43274 Z"/>
				<path style="fill:url(#lgrd3168);fill-opacity:1;fill-rule:nonzero;stroke:none" id="gradient-background" d="m 118.0165,219.97024 h -95.891 c -4.735375,0 -8.588875,3.8525 -8.588875,8.58875 v 101.73013 c 21.71725,-8.335 54.31221,-15.5269 76.849585,-15.20027 4.52893,-23.6809 17.83941,-70.09042 27.63029,-95.11861 z"/>
				<path style="fill:#003b57;fill-opacity:1;fill-rule:nonzero;stroke:none" id="feather" d="m 144.8415,212.84149 c -6.815,-6.0775 -15.06625,-3.63625 -23.21,3.59125 -1.20875,1.07375 -2.415,2.265 -3.615,3.5375 -13.93125,14.77875 -26.8625,42.15375 -30.88,63.06 1.565,3.17375 2.7875,7.22375 3.5925,10.3175 0.20625,0.79375 0.3925,1.53875 0.54125,2.1725 0.35375,1.49988 0.54375,2.4725 0.54375,2.4725 0,0 -0.125,-0.47262 -0.6375,-1.95875 -0.0975,-0.285 -0.20625,-0.59625 -0.335,-0.9625 -0.055,-0.15125 -0.13125,-0.335 -0.215,-0.53125 -0.90875,-2.1125 -3.4225,-6.57125 -4.52875,-8.5125 -0.94625,2.79125 -1.7825,5.4025 -2.4825,7.765 3.19375,5.8435 5.14,15.85775 5.14,15.85775 0,0 -0.16875,-0.649 -0.97125,-2.91412 -0.7125,-2.00338 -4.26125,-8.22113 -5.101875,-9.67475 -1.438,5.3085 -2.009375,8.8925 -1.494125,9.76512 1.000375,1.69088 1.953125,4.60838 2.78975,7.83488 1.89,7.26862 3.20375,16.11725 3.20375,16.11725 0,0 0.0425,0.58637 0.11375,1.48875 -0.2625,6.104 -0.105,12.43262 0.3675,18.15287 0.62625,7.57225 1.805,14.07713 3.3075,17.5585 l 1.02,-0.55612 c -2.20625,-6.85888 -3.1025,-15.84763 -2.71,-26.21388 0.59375,-15.84512 4.24,-34.95362 10.9775,-54.87 11.3825,-30.065 27.175,-54.1875 41.62875,-65.7075 -13.17375,11.8975 -31.00375,50.40875 -36.34125,64.67 -5.97625,15.97 -10.21125,30.95638 -12.76375,45.31475 4.40375,-13.46087 18.6425,-19.247 18.6425,-19.247 0,0 6.98375,-8.61287 15.145,-20.91775 -4.88875,1.115 -12.91625,3.02375 -15.605,4.15375 -3.96625,1.66375 -5.035,2.23125 -5.035,2.23125 0,0 12.8475,-7.82375 23.87,-11.36625 15.15875,-23.875 31.67375,-57.7925 15.0425,-72.62875"/>
			</g>
		</g>
	</g>
</svg>